<?xml version="1.0"?>
<svg xmlns="http://www.w3.org/2000/svg" xmlns:xlink="http://www.w3.org/1999/xlink" version="1.1" id="Capa_1" x="0px" y="0px" viewBox="0 0 510 510" style="enable-background:new 0 0 510 510;" xml:space="preserve" width="512px" height="512px"><g><g>
	<g>
		<g>
			<path d="M231,212V19c0-11-9-19-19-19C95,0,0,95,0,212c0,10,9,19,19,19h193C222,231,231,222,231,212z      M193,193H39c9-81,73-145,154-154V193z" data-original="#010002" class="active-path" data-old_color="#010002" fill="#9A9FBF"/>
			<path d="M282,34c-12,0-22,10-22,22v204H56c-12,0-22,10-22,22c0,126,107,228,238,228s238-107,238-238     C510,143,405,34,282,34z M272,466c-99,0-182-71-193-162h203c12,0,22-10,22-22V79c90,12,162,95,162,193C466,379,379,466,272,466z" data-original="#010002" class="active-path" data-old_color="#010002" fill="#9A9FBF"/>
		</g>
	</g>
</g></g> </svg>
