<?xml version="1.0" encoding="utf-8"?>
<!-- Generator: Adobe Illustrator 21.1.0, SVG Export Plug-In . SVG Version: 6.00 Build 0)  -->
<svg version="1.1" id="Capa_1" xmlns="http://www.w3.org/2000/svg" xmlns:xlink="http://www.w3.org/1999/xlink" x="0px" y="0px"
	 viewBox="0 0 512 512" style="enable-background:new 0 0 512 512;" xml:space="preserve">
<style type="text/css">
	.st0{fill:#9A9FBF;}
</style>
<g>
	<g>
		<path class="st0" d="M42.5,87c0-5.8,4.7-10.5,10.5-10.5h43.3h21v-21V31.5c0-5.8,4.7-10.5,10.5-10.5h258.6
			c5.8,0,10.5,4.7,10.5,10.5v24.1v21h21H461c5.8,0,10.5,4.7,10.5,10.5v393.5c0,5.8-4.7,10.5-10.5,10.5H52.9
			c-5.8,0-10.5-4.7-10.5-10.5V87 M21.5,87v393.5c0,17.4,14.1,31.5,31.5,31.5h408.1c17.4,0,31.5-14.1,31.5-31.5V87
			c0-17.4-14.1-31.5-31.5-31.5h-43.3V31.5c0-17.4-14.1-31.5-31.5-31.5H127.7c-17.4,0-31.5,14.1-31.5,31.5v24.1H52.9
			C35.6,55.5,21.5,69.6,21.5,87L21.5,87z M91.4,439.4v-55.9h331.1v55.9H91.4z M91.4,354.6v-55.9h331.1v55.9H91.4z M91.4,269.7v-55.9
			h331.2v55.9H91.4z"/>
	</g>
</g>
</svg>
