<?xml version="1.0"?>
<svg xmlns="http://www.w3.org/2000/svg" xmlns:xlink="http://www.w3.org/1999/xlink" version="1.1" id="Capa_1" x="0px" y="0px" viewBox="0 0 480 480" style="enable-background:new 0 0 480 480;" xml:space="preserve" width="512px" height="512px"><g><g>
	<g>
		<path d="M462.763,137.856c-0.8-1.952-1.984-3.712-3.456-5.184L331.339,4.704c-1.472-1.472-3.232-2.656-5.184-3.456    c-1.92-0.8-4-1.248-6.144-1.248h-208c-17.632,0-32,14.368-32,32v144c0,8.832,7.168,16,16,16c8.832,0,16-7.168,16-16V32h192v96    c0,17.632,14.368,32,32,32h96v256h-192c-8.832,0-16,7.168-16,16c0,8.832,7.168,16,16,16h192c17.632,0,32-14.368,32-32V144    C464.011,141.856,463.563,139.776,462.763,137.856z M336.011,128V54.624L409.387,128H336.011z" data-original="#000000" class="active-path" data-old_color="#000000" fill="#9A9FBF"/>
	</g>
</g><g>
	<g>
		<path d="M175.563,460.128l-24.512-98.336c15.296-14.592,24.96-35.04,24.96-57.792c0-44.096-35.904-80-80-80s-80,35.904-80,80    c0,22.752,9.664,43.2,24.96,57.792l-24.512,98.336c-1.504,6.048,0.672,12.448,5.536,16.352c4.864,3.936,11.584,4.608,17.152,1.824    l56.864-28.416l56.832,28.416c2.272,1.12,4.736,1.696,7.168,1.696c3.552,0,7.104-1.184,10.016-3.52    C174.891,472.576,177.067,466.176,175.563,460.128z M103.147,417.696c-4.512-2.24-9.824-2.24-14.304,0l-32.928,16.448    l13.696-54.976c8.32,2.944,17.12,4.832,26.4,4.832c9.28,0,18.08-1.888,26.368-4.832l13.696,54.976L103.147,417.696z M96.011,352    c-26.464,0-48-21.536-48-48s21.536-48,48-48s48,21.536,48,48S122.475,352,96.011,352z" data-original="#000000" class="active-path" data-old_color="#000000" fill="#9A9FBF"/>
	</g>
</g><g>
	<g>
		<path d="M256.011,96h-96c-8.832,0-16,7.168-16,16c0,8.832,7.168,16,16,16h96c8.832,0,16-7.168,16-16    C272.011,103.168,264.843,96,256.011,96z" data-original="#000000" class="active-path" data-old_color="#000000" fill="#9A9FBF"/>
	</g>
</g><g>
	<g>
		<path d="M384.011,192h-192c-8.832,0-16,7.168-16,16c0,8.832,7.168,16,16,16h192c8.832,0,16-7.168,16-16    C400.011,199.168,392.843,192,384.011,192z" data-original="#000000" class="active-path" data-old_color="#000000" fill="#9A9FBF"/>
	</g>
</g><g>
	<g>
		<path d="M384.011,288h-160c-8.832,0-16,7.168-16,16c0,8.832,7.168,16,16,16h160c8.832,0,16-7.168,16-16    C400.011,295.168,392.843,288,384.011,288z" data-original="#000000" class="active-path" data-old_color="#000000" fill="#9A9FBF"/>
	</g>
</g></g> </svg>
