<?xml version="1.0" encoding="utf-8"?>
<!-- Generator: Adobe Illustrator 21.1.0, SVG Export Plug-In . SVG Version: 6.00 Build 0)  -->
<svg version="1.1" id="Layer_1" xmlns="http://www.w3.org/2000/svg" xmlns:xlink="http://www.w3.org/1999/xlink" x="0px" y="0px"
	 viewBox="0 0 106 84.8" style="enable-background:new 0 0 106 84.8;" xml:space="preserve">
<style type="text/css">
	.st0{fill:#FFFFFF;}
</style>
<path class="st0" d="M64.6,20.2H8.1c-3.7,0-8.1,4.3-8.1,8.1v36.3c0,3.8,4.4,8.1,8.1,8.1v12.1l32.3-12.1v-8.1l-24.2,8.1v-8.1H8.1
	V28.3h56.5v44.4c3.7,0,8.1-4.3,8.1-8.1V28.3C72.7,24.4,68.3,20.2,64.6,20.2L64.6,20.2z M48.5,72.7h8.1v-8.1h-8.1V72.7z M16.2,44.4
	h40.4v-8.1H16.2C16.2,36.3,16.2,44.4,16.2,44.4z M16.2,56.5h24.2v-8.1H16.2C16.2,48.5,16.2,56.5,16.2,56.5z M40.4,8.1H105
	c0-3.8-4.4-8.1-8.1-8.1H40.4c-3.7,0-8.1,4.3-8.1,8.1v4h8.1C40.4,12.1,40.4,8.1,40.4,8.1z M96.9,44.4l-12.1,0v8.1l-8.1-2.7v8.7
	l16.2,6.1V52.5c2.1,0,4,0,4,0c3.7,0,8.1-4.3,8.1-8.1V32.3h-8.1V44.4L96.9,44.4z M96.9,24.2h8.1v-8.1h-8.1V24.2z"/>
</svg>
