<?xml version="1.0" encoding="utf-8"?>
<!-- Generator: Adobe Illustrator 21.1.0, SVG Export Plug-In . SVG Version: 6.00 Build 0)  -->
<svg version="1.1" id="Capa_1" xmlns="http://www.w3.org/2000/svg" xmlns:xlink="http://www.w3.org/1999/xlink" x="0px" y="0px"
	 viewBox="0 0 512 512" style="enable-background:new 0 0 512 512;" xml:space="preserve">
<style type="text/css">
	.st0{fill:#A7D22A;}
	.st1{fill:#FFFFFF;}
</style>
<path class="st0" d="M512,256c0,68.4-26.6,132.7-75,181s-112.6,75-181,75s-132.7-26.6-181-75S0,324.4,0,256S26.6,123.3,75,75
	S187.6,0,256,0s132.7,26.6,181,75S512,187.6,512,256z"/>
<path class="st0" d="M446.7,256c0,105.2-85.6,190.7-190.7,190.7c-105.2,0-190.7-85.6-190.7-190.7c0-105.2,85.6-190.7,190.7-190.7
	C361.2,65.3,446.7,150.8,446.7,256z"/>
<path class="st1" d="M406.1,206.7L253.9,358.9L240,372.8c-7.5,7.5-17.2,11.2-27,11.2h-0.6c-9.6,0-19.3-3.7-26.6-11l-81.9-82
	c-14.7-14.7-14.7-38.5,0-53.3s38.6-14.7,53.3,0l55,55l41.8-41.8l98.2-98.2c14.9-14.9,39.1-14.9,54,0
	C421,167.6,421,191.7,406.1,206.7z"/>
</svg>
