<?xml version="1.0"?>
<svg xmlns="http://www.w3.org/2000/svg" height="512px" viewBox="0 -32 512 511" width="512px"><g><path d="m79.265625 271.5h192.800781c8.285156 0 15-6.714844 15-15v-176.734375c0-8.28125-6.714844-15-15-15h-192.800781c-8.28125 0-15 6.71875-15 15v176.734375c0 8.285156 6.714844 15 15 15zm79.265625-111.398438c0-9.449218 7.6875-17.132812 17.136719-17.132812 9.445312 0 17.132812 7.683594 17.132812 17.132812 0 9.445313-7.6875 17.132813-17.132812 17.132813-9.449219 0-17.136719-7.6875-17.136719-17.132813zm-16.0625 81.398438v-1.066406c0-8.867188 3.453125-17.207032 9.714844-23.472656 6.277344-6.273438 14.617187-9.726563 23.5-9.726563 18.296875 0 33.183594 14.886719 33.183594 33.183594v1.082031zm-48.203125-146.734375h162.800781v146.734375h-18.199218v-1.082031c0-21.03125-10.339844-39.6875-26.195313-51.175781 6.335937-8.027344 10.128906-18.148438 10.128906-29.140626 0-25.992187-21.144531-47.132812-47.132812-47.132812s-47.136719 21.140625-47.136719 47.132812c0 10.980469 3.789062 21.089844 10.109375 29.113282-24.636719 17.878906-26.171875 43.574218-26.171875 51.21875v1.066406h-18.203125zm0 0" data-original="#000000" class="active-path" data-old_color="#9a9fbf" fill="#9a9fbf"/><path d="m336.332031 118.871094h96.402344c8.28125 0 15-6.71875 15-15 0-8.285156-6.71875-15-15-15h-96.402344c-8.28125 0-15 6.714844-15 15 0 8.28125 6.71875 15 15 15zm0 0" data-original="#000000" class="active-path" data-old_color="#9a9fbf" fill="#9a9fbf"/><path d="m336.332031 183.132812h96.402344c8.28125 0 15-6.714843 15-15 0-8.28125-6.71875-15-15-15h-96.402344c-8.28125 0-15 6.71875-15 15 0 8.285157 6.71875 15 15 15zm0 0" data-original="#000000" class="active-path" data-old_color="#9a9fbf" fill="#9a9fbf"/><path d="m336.332031 247.398438h96.402344c8.28125 0 15-6.71875 15-15 0-8.285157-6.71875-15-15-15h-96.402344c-8.28125 0-15 6.714843-15 15 0 8.28125 6.71875 15 15 15zm0 0" data-original="#000000" class="active-path" data-old_color="#9a9fbf" fill="#9a9fbf"/><path d="m464.867188.5h-417.734376c-25.820312 0-47.132812 20.867188-47.132812 47.132812v289.203126c0 26.351562 21.402344 47.132812 47.132812 47.132812h193.867188v34.265625h-65.332031c-8.285157 0-15 6.714844-15 15s6.714843 15 15 15h160.664062c8.285157 0 15-6.714844 15-15s-6.714843-15-15-15h-65.332031v-34.265625h193.867188c25.820312 0 47.132812-20.871094 47.132812-47.132812v-289.203126c0-26.351562-21.402344-47.132812-47.132812-47.132812zm-429.839844 35.015625c3.230468-3.234375 7.53125-5.015625 12.105468-5.015625h417.730469c4.578125 0 8.878907 1.78125 12.121094 5.027344 3.234375 3.230468 5.015625 7.53125 5.015625 12.105468v242.066407h-452v-242.066407c0-4.574218 1.78125-8.875 5.027344-12.117187zm429.839844 318.453125h-417.734376c-9.359374 0-17.132812-7.570312-17.132812-17.132812v-17.136719h452v17.136719c0 9.332031-7.546875 17.132812-17.132812 17.132812zm0 0" data-original="#000000" class="active-path" data-old_color="#9a9fbf" fill="#9a9fbf"/></g> </svg>
