<?xml version="1.0" encoding="utf-8"?>
<!-- Generator: Adobe Illustrator 21.1.0, SVG Export Plug-In . SVG Version: 6.00 Build 0)  -->
<svg version="1.1" id="Capa_1" xmlns="http://www.w3.org/2000/svg" xmlns:xlink="http://www.w3.org/1999/xlink" x="0px" y="0px"
	 viewBox="0 0 512 512" style="enable-background:new 0 0 512 512;" xml:space="preserve">
<style type="text/css">
	.st0{fill:#4A9ADD;}
</style>
<g>
	<g>
		<g>
			<path class="st0" d="M499.5,63.7c-8.4-8.4-18.4-12.5-30.1-12.5H42.7c-11.7,0-21.8,4.2-30.1,12.5C4.2,72.1,0,82.1,0,93.9v324.3
				c0,11.7,4.2,21.8,12.5,30.1c8.4,8.4,18.4,12.5,30.1,12.5h426.7c11.7,0,21.8-4.2,30.1-12.5c8.4-8.4,12.5-18.4,12.5-30.1V93.9
				C512,82.1,507.8,72.1,499.5,63.7z M477.9,418.1c0,2.3-0.8,4.3-2.5,6c-1.7,1.7-3.7,2.5-6,2.5H42.7c-2.3,0-4.3-0.8-6-2.5
				c-1.7-1.7-2.5-3.7-2.5-6V256h443.7L477.9,418.1L477.9,418.1z M477.9,153.6H34.1V93.9c0-2.3,0.8-4.3,2.5-6c1.7-1.7,3.7-2.5,6-2.5
				h426.7c2.3,0,4.3,0.8,6,2.5c1.7,1.7,2.5,3.7,2.5,6L477.9,153.6L477.9,153.6z"/>
			<rect x="68.3" y="358.4" class="st0" width="68.3" height="34.1"/>
			<rect x="170.7" y="358.4" class="st0" width="102.4" height="34.1"/>
		</g>
	</g>
</g>
</svg>
