<?xml version="1.0" encoding="utf-8"?>
<!-- Generator: Adobe Illustrator 21.1.0, SVG Export Plug-In . SVG Version: 6.00 Build 0)  -->
<svg version="1.1" id="Capa_1" xmlns="http://www.w3.org/2000/svg" xmlns:xlink="http://www.w3.org/1999/xlink" x="0px" y="0px"
	 viewBox="0 0 512 512" style="enable-background:new 0 0 512 512;" xml:space="preserve">
<style type="text/css">
	.st0{fill:#4A9ADD;}
</style>
<g>
	<g>
		<path class="st0" d="M498.6,68.3c-9-9-19.7-13.4-32.3-13.4H45.7c-12.6,0-23.3,4.5-32.3,13.4C4.5,77.2,0,88,0,100.6v310.9
			c0,12.6,4.5,23.3,13.4,32.3c9,9,19.7,13.4,32.3,13.4h420.6c12.6,0,23.3-4.5,32.3-13.4c9-9,13.4-19.7,13.4-32.3V100.6
			C512,88,507.5,77.2,498.6,68.3z M475.4,411.4c0,2.5-0.9,4.6-2.7,6.4c-1.8,1.8-4,2.7-6.4,2.7H45.7c-2.5,0-4.6-0.9-6.4-2.7
			c-1.8-1.8-2.7-4-2.7-6.4V192c6.1,6.9,12.7,13.1,19.7,18.9c51,39.2,91.6,71.4,121.7,96.6c9.7,8.2,17.6,14.6,23.7,19.1
			c6.1,4.6,14.3,9.2,24.7,13.9c10.4,4.7,20.1,7,29.3,7h0.3h0.3c9.1,0,18.9-2.3,29.3-7c10.4-4.7,18.6-9.3,24.7-13.9
			c6.1-4.6,14-11,23.7-19.1c30.1-25.1,70.7-57.3,121.7-96.6c7-5.7,13.6-12,19.7-18.9V411.4L475.4,411.4z M475.4,108v3.1
			c0,11.2-4.4,23.8-13.3,37.6c-8.9,13.8-18.4,24.8-28.7,33c-36.8,29-75,59.1-114.6,90.6c-1.1,1-4.5,3.8-10,8.4
			c-5.5,4.7-9.9,8.2-13.1,10.7c-3.2,2.5-7.5,5.5-12.7,9c-5.2,3.5-10,6.1-14.4,7.9c-4.4,1.7-8.5,2.6-12.3,2.6H256h-0.3
			c-3.8,0-7.9-0.9-12.3-2.6c-4.4-1.7-9.2-4.3-14.4-7.9c-5.2-3.5-9.5-6.5-12.7-9c-3.2-2.5-7.6-6-13.1-10.7c-5.5-4.7-8.9-7.5-10-8.4
			c-39.6-31.4-77.8-61.6-114.6-90.6c-28-22.1-42-49.1-42-81.1c0-2.5,0.9-4.6,2.7-6.4c1.8-1.8,4-2.7,6.4-2.7h420.6
			c1.5,0.9,2.9,1.1,4,0.7c1.1-0.4,2,0.3,2.6,2.1c0.6,1.8,1.1,2.7,1.6,2.6c0.5-0.1,0.8,1.1,0.9,3.6c0.1,2.5,0.1,3.7,0.1,3.7
			L475.4,108L475.4,108z"/>
	</g>
</g>
</svg>
