<?xml version="1.0" encoding="utf-8"?>
<!-- Generator: Adobe Illustrator 21.1.0, SVG Export Plug-In . SVG Version: 6.00 Build 0)  -->
<svg version="1.1" id="Capa_1" xmlns="http://www.w3.org/2000/svg" xmlns:xlink="http://www.w3.org/1999/xlink" x="0px" y="0px"
	 viewBox="0 0 512 512" style="enable-background:new 0 0 512 512;" xml:space="preserve">
<style type="text/css">
	.st0{fill:#4A9ADD;}
</style>
<g>
	<g>
		<path class="st0" d="M508,264.3c-3.9-8.2-9.9-14.5-18-18.9c-8-4.4-16.9-6.6-26.6-6.6H412v-42.9c0-16.4-5.9-30.6-17.7-42.4
			c-11.8-11.8-25.9-17.7-42.4-17.7H206v-8.6c0-16.4-5.9-30.6-17.7-42.4c-11.8-11.8-25.9-17.7-42.4-17.7H60.1
			c-16.4,0-30.6,5.9-42.4,17.7C5.9,96.7,0,110.8,0,127.3v257.5c0,16.4,5.9,30.6,17.7,42.4c11.8,11.8,25.9,17.7,42.4,17.7h291.8
			c12,0,24.5-3.1,37.5-9.3c13.1-6.2,23.4-14,31.1-23.5l79.1-97.4c8.2-10.4,12.3-21.1,12.3-32.2C512,276.1,510.7,270,508,264.3z
			 M34.3,127.3c0-7.1,2.5-13.2,7.5-18.2c5-5,11.1-7.5,18.2-7.5h85.8c7.2,0,13.2,2.5,18.2,7.5c5,5,7.5,11.1,7.5,18.2v17.2
			c0,7.2,2.5,13.2,7.5,18.2s11.1,7.5,18.2,7.5h154.5c7.1,0,13.2,2.5,18.2,7.5c5,5,7.5,11.1,7.5,18.2v42.9h-206
			c-12.2,0-24.7,3.1-37.6,9.3c-12.9,6.2-23.2,14-31.1,23.5L34.3,356L34.3,127.3L34.3,127.3z M472.8,293L394,390.4
			c-4.5,5.5-10.8,10.3-19,14.2c-8.2,3.9-15.9,5.9-23.1,5.9H60.1c-9.5,0-14.2-3.1-14.2-9.4c0-2.9,1.6-6.4,4.8-10.7l78.9-97.4
			c4.6-5.5,11-10.2,19.2-14.1c8.1-3.8,15.8-5.8,22.9-5.8h291.8c9.5,0,14.2,3.1,14.2,9.4C477.7,285.6,476.1,289.1,472.8,293z"/>
	</g>
</g>
</svg>
