<?xml version="1.0" encoding="utf-8"?>
<!-- Generator: Adobe Illustrator 21.1.0, SVG Export Plug-In . SVG Version: 6.00 Build 0)  -->
<svg version="1.1" id="Capa_1" xmlns="http://www.w3.org/2000/svg" xmlns:xlink="http://www.w3.org/1999/xlink" x="0px" y="0px"
	 viewBox="0 0 512 512" style="enable-background:new 0 0 512 512;" xml:space="preserve">
<style type="text/css">
	.st0{fill:#FFFFFF;}
</style>
<g>
	<path class="st0" d="M505.3,141.3c-4.4-10.7-9.8-19.1-16-25.3L396,22.7c-6.2-6.2-14.7-11.6-25.3-16C360,2.2,350.2,0,341.3,0H32
		C23.1,0,15.6,3.1,9.3,9.3C3.1,15.6,0,23.1,0,32v448c0,8.9,3.1,16.4,9.3,22.7c6.2,6.2,13.8,9.3,22.7,9.3h448
		c8.9,0,16.4-3.1,22.7-9.3c6.2-6.2,9.3-13.8,9.3-22.7V170.7C512,161.8,509.8,152,505.3,141.3z M213.3,53.3c0-2.9,1.1-5.4,3.2-7.5
		c2.1-2.1,4.6-3.2,7.5-3.2h64c2.9,0,5.4,1.1,7.5,3.2c2.1,2.1,3.2,4.6,3.2,7.5V160c0,2.9-1.1,5.4-3.2,7.5c-2.1,2.1-4.6,3.2-7.5,3.2
		h-64c-2.9,0-5.4-1.1-7.5-3.2c-2.1-2.1-3.2-4.6-3.2-7.5L213.3,53.3L213.3,53.3z M384,469.3H128v-128h256V469.3z M469.3,469.3h-42.7
		h0V330.7c0-8.9-3.1-16.4-9.3-22.7c-6.2-6.2-13.8-9.3-22.7-9.3H117.3c-8.9,0-16.4,3.1-22.7,9.3c-6.2,6.2-9.3,13.8-9.3,22.7v138.7
		H42.7V42.7h42.7v138.7c0,8.9,3.1,16.4,9.3,22.7c6.2,6.2,13.8,9.3,22.7,9.3h192c8.9,0,16.4-3.1,22.7-9.3c6.2-6.2,9.3-13.8,9.3-22.7
		V42.7c3.3,0,7.7,1.1,13,3.3c5.3,2.2,9.1,4.4,11.3,6.7l93.7,93.7c2.2,2.2,4.4,6.1,6.7,11.5c2.2,5.4,3.3,9.7,3.3,12.8L469.3,469.3
		L469.3,469.3z"/>
</g>
</svg>
