<?xml version="1.0" encoding="utf-8"?>
<!-- Generator: Adobe Illustrator 21.1.0, SVG Export Plug-In . SVG Version: 6.00 Build 0)  -->
<svg version="1.1" id="Layer_1" xmlns="http://www.w3.org/2000/svg" xmlns:xlink="http://www.w3.org/1999/xlink" x="0px" y="0px"
	 viewBox="0 0 32 32" style="enable-background:new 0 0 32 32;" xml:space="preserve">
<style type="text/css">
	.st0{fill:#9A9FBF;}
</style>
<title>settings-icon</title>
<path class="st0" d="M7.1,3.9V0H3.6v3.9C1.5,4.6,0,6.6,0,8.9s1.5,4.3,3.6,5v11h3.6v-11c2.1-0.7,3.6-2.7,3.6-5S9.2,4.6,7.1,3.9z
	 M7.1,10.7H3.6V7.1h3.6V10.7z M28.4,3.9V0h-3.6v3.9c-2.1,0.7-3.6,2.7-3.6,5s1.5,4.3,3.6,5V32h3.6V13.9c2.1-0.7,3.6-2.7,3.6-5
	S30.5,4.6,28.4,3.9z M28.4,10.7h-3.6V7.1h3.6V10.7z M17.8,18.1V0h-3.6v18.1c-2.1,0.7-3.6,2.7-3.6,5c0,2.3,1.5,4.3,3.6,5V32h3.6v-3.9
	c2.1-0.7,3.6-2.7,3.6-5C21.3,20.8,19.8,18.8,17.8,18.1z M17.8,24.9h-3.6v-3.6h3.6C17.8,21.3,17.8,24.9,17.8,24.9z M3.6,32h3.6v-3.6
	H3.6V32z"/>
</svg>
