<?xml version="1.0"?>
<svg xmlns="http://www.w3.org/2000/svg" height="512px" viewBox="0 0 512 512" width="512px"><g><path d="m28.992188 331.914062h99.976562c11.042969 0 19.992188-8.949218 19.992188-19.992187v-134.632813c0-11.042968-8.949219-19.996093-19.992188-19.996093h-99.976562c-11.042969 0-19.996094 8.953125-19.996094 19.996093v134.632813c0 11.042969 8.953125 19.992187 19.996094 19.992187zm19.996093-134.632812h59.984375v94.644531h-59.984375zm0 0" data-original="#000000" class="active-path" data-old_color="#9a9fbf" fill="#9a9fbf"/><path d="m205.949219 331.914062h99.972656c11.042969 0 19.996094-8.949218 19.996094-19.992187v-291.925781c0-11.042969-8.953125-19.996094-19.996094-19.996094h-99.972656c-11.046875 0-19.996094 8.953125-19.996094 19.996094v291.925781c0 11.042969 8.949219 19.992187 19.996094 19.992187zm19.992187-291.925781h59.984375v251.9375h-59.984375zm0 0" data-original="#000000" class="active-path" data-old_color="#9a9fbf" fill="#9a9fbf"/><path d="m383.175781 331.765625h99.972657c11.046874 0 19.996093-8.953125 19.996093-19.996094v-215.792969c0-11.042968-8.949219-19.996093-19.996093-19.996093h-99.972657c-11.042969 0-19.996093 8.953125-19.996093 19.996093v215.792969c0 11.042969 8.953124 19.996094 19.996093 19.996094zm19.996094-215.796875h59.984375v175.808594h-59.984375zm0 0" data-original="#000000" class="active-path" data-old_color="#9a9fbf" fill="#9a9fbf"/><path d="m255.933594 351.910156c-44.101563 0-79.980469 35.878906-79.980469 79.980469 0 44.097656 35.878906 79.976563 79.980469 79.976563 44.101562 0 79.980468-35.878907 79.980468-79.976563 0-44.101563-35.878906-79.980469-79.980468-79.980469zm0 119.96875c-22.050782 0-39.988282-17.9375-39.988282-39.988281s17.9375-39.992187 39.988282-39.992187c22.050781 0 39.992187 17.941406 39.992187 39.992187s-17.941406 39.988281-39.992187 39.988281zm0 0" data-original="#000000" class="active-path" data-old_color="#9a9fbf" fill="#9a9fbf"/><path d="m432.019531 351.910156c-44.101562 0-79.980469 35.878906-79.980469 79.980469 0 44.097656 35.878907 79.976563 79.980469 79.976563 44.101563 0 79.980469-35.878907 79.980469-79.976563 0-44.101563-35.878906-79.980469-79.980469-79.980469zm0 119.96875c-22.050781 0-39.988281-17.9375-39.988281-39.988281s17.9375-39.992187 39.988281-39.992187 39.992188 17.941406 39.992188 39.992187-17.941407 39.988281-39.992188 39.988281zm0 0" data-original="#000000" class="active-path" data-old_color="#9a9fbf" fill="#9a9fbf"/><path d="m79.980469 351.910156c-44.101563 0-79.980469 35.878906-79.980469 79.980469 0 44.097656 35.878906 79.976563 79.980469 79.976563 44.101562 0 79.980469-35.878907 79.980469-79.976563 0-44.101563-35.878907-79.980469-79.980469-79.980469zm0 119.96875c-22.050781 0-39.992188-17.9375-39.992188-39.988281s17.941407-39.992187 39.992188-39.992187 39.988281 17.941406 39.988281 39.992187-17.9375 39.988281-39.988281 39.988281zm0 0" data-original="#000000" class="active-path" data-old_color="#9a9fbf" fill="#9a9fbf"/></g> </svg>
