<?xml version="1.0" encoding="utf-8"?>
<!-- Generator: Adobe Illustrator 21.1.0, SVG Export Plug-In . SVG Version: 6.00 Build 0)  -->
<svg version="1.1" id="Layer_1" xmlns="http://www.w3.org/2000/svg" xmlns:xlink="http://www.w3.org/1999/xlink" x="0px" y="0px"
	 viewBox="0 0 32 32" style="enable-background:new 0 0 32 32;" xml:space="preserve">
<style type="text/css">
	.st0{fill:#9A9FBF;}
</style>
<title>star-icon</title>
<path class="st0" d="M24,27.2h3.2v3.2H24V27.2z"/>
<path class="st0" d="M31.9,11.9c-0.3-0.8-1-1.4-1.8-1.6l-8.3-1.3l-3.6-7.8C17.7,0.5,16.9,0,16,0c-0.9,0-1.7,0.5-2.1,1.3l-3.6,7.8
	L2,10.3c-0.9,0.1-1.6,0.7-1.8,1.6c-0.3,0.8-0.1,1.7,0.5,2.4l6.1,6.3l-1.4,8.7c-0.1,0.9,0.2,1.8,0.9,2.3C6.7,31.9,7.2,32,7.7,32
	c0.4,0,0.8-0.1,1.1-0.3l7.2-4l4.8,2.7v-3.7L16,24l-7.2,4l1.4-8.5l-1.1-1.2l-4.9-5.1l8.3-1.3l0.7-1.6l2.8-6l3.5,7.6l8.3,1.3l-6,6.2
	l0.7,4.5h3.2l-0.6-3.5l6.1-6.3C31.9,13.6,32.2,12.7,31.9,11.9L31.9,11.9z"/>
</svg>
