<?xml version="1.0" encoding="utf-8"?>
<!-- Generator: Adobe Illustrator 21.1.0, SVG Export Plug-In . SVG Version: 6.00 Build 0)  -->
<svg version="1.1" id="Layer_1" xmlns="http://www.w3.org/2000/svg" xmlns:xlink="http://www.w3.org/1999/xlink" x="0px" y="0px"
	 viewBox="0 0 512 512" style="enable-background:new 0 0 512 512;" xml:space="preserve">
<style type="text/css">
	.st0{fill:#FFFFFF;}
</style>
<g>
	<g>
		<path class="st0" d="M256,121c-91,0-165,74-165,165s74,165,165,165s165-74,165-165S347,121,256,121z M361.4,370.2l-20.6-20.6
			l-21.2,21.2l20.6,20.6C320.8,407,297,417.3,271,420.2V391h-30v29.2c-26-2.9-49.8-13.2-69.2-28.7l20.6-20.6l-21.2-21.2l-20.6,20.6
			C135,350.8,124.7,327,121.8,301H151v-30h-29.2c2.9-26,13.2-49.8,28.7-69.2l20.6,20.6l21.2-21.2l-20.6-20.6
			c19.4-15.5,43.2-25.8,69.2-28.7V181h30v-29.2c26,2.9,49.8,13.2,69.2,28.7l-20.6,20.6l21.2,21.2l20.6-20.6
			c15.5,19.4,25.8,43.2,28.7,69.2H361v30h29.2C387.3,327,377,350.8,361.4,370.2z"/>
		<polygon class="st0" points="271,211 241,211 241,301 331,301 331,271 271,271 		"/>
		<path class="st0" d="M446.6,116.6c9.4,10.5,17.9,21.8,25.4,33.6l25.4-16c-11.3-17.9-24.7-34.6-39.8-49.7
			c-15.1-15.1-31.8-28.5-49.7-39.8l-16,25.4c11.8,7.5,23.1,16,33.6,25.4l-21.3,21.3c-29.6-26-65-43.5-103.1-51.2V30h30V0H181v30h30
			v35.5c-38.1,7.7-73.5,25.2-103.1,51.2L86.6,95.4C97.1,86,108.4,77.5,120.2,70l-16-25.4c-36,22.7-66.9,53.7-89.5,89.5l25.4,16
			c7.5-11.8,16-23.1,25.4-33.6l21.3,21.3C50.7,178.9,31,230.9,31,286c0,60.1,23.4,116.6,65.9,159.1C140,488.2,196.5,512,256,512
			c119,0,225-97.7,225-226c0-55.1-19.7-107.1-55.7-148.1L446.6,116.6z M241,30h30v31.5c-5-0.3-10-0.5-15-0.5s-10,0.2-15,0.5V30z
			 M256,482c-103.3,0-195-85-195-196c0-107.8,87.2-195,195-195c107.8,0,195,87.2,195,195C451,397,359.3,482,256,482z"/>
	</g>
</g>
</svg>
