<?xml version="1.0"?>
<svg xmlns="http://www.w3.org/2000/svg" xmlns:xlink="http://www.w3.org/1999/xlink" version="1.1" id="Layer_1" x="0px" y="0px" viewBox="0 0 512 512" style="enable-background:new 0 0 512 512;" xml:space="preserve" width="512px" height="512px"><g><g>
	<path d="M256,121c-90.981,0-165,74.019-165,165s74.019,165,165,165s165-74.019,165-165S346.981,121,256,121z M361.429,370.216   l-20.576-20.577l-21.213,21.213l20.576,20.577C320.792,406.976,297,417.275,271,420.162V391h-30v29.162   c-26-2.887-49.792-13.186-69.216-28.733l20.577-20.576l-21.213-21.213l-20.577,20.576C135.024,350.792,124.725,327,121.838,301H151   v-30h-29.162c2.887-26,13.186-49.792,28.733-69.216l20.576,20.576l21.213-21.213l-20.576-20.576   C191.208,165.024,215,154.725,241,151.838V181h30v-29.162c26,2.887,49.792,13.186,69.216,28.733l-20.576,20.577l21.213,21.213   l20.576-20.577C376.976,221.208,387.275,245,390.162,271H361v30h29.162C387.275,327,376.976,350.792,361.429,370.216z" data-original="#000000" class="active-path" data-old_color="#000000" fill="#888DA8"/>
	<polygon points="271,211 241,211 241,301 331,301 331,271 271,271  " data-original="#000000" class="active-path" data-old_color="#000000" fill="#888DA8"/>
	<path d="M446.603,116.61c9.389,10.536,17.889,21.791,25.354,33.608l25.363-16.021c-11.293-17.877-24.684-34.605-39.798-49.715   c-15.111-15.116-31.839-28.507-49.719-39.802l-16.021,25.363c11.817,7.465,23.072,15.965,33.609,25.354l-21.254,21.254   C374.504,90.656,339.124,73.18,301,65.482V30h30V0H181v30h30v35.482c-38.124,7.698-73.504,25.174-103.136,51.169L86.61,95.397   c10.535-9.388,21.791-17.888,33.609-25.354L104.197,44.68c-35.982,22.729-66.881,53.683-89.517,89.517l25.363,16.021   c7.464-11.816,15.964-23.071,25.354-33.608l21.254,21.253C50.664,178.886,31,230.928,31,286c0,60.1,23.404,116.602,65.901,159.099   C140.042,488.241,196.544,512,256,512c119.005,0,225-97.668,225-226c0-55.072-19.664-107.114-55.651-148.136L446.603,116.61z    M241,30h30v31.504C266.028,61.178,261.028,61,256,61s-10.028,0.178-15,0.504V30z M256,482c-103.274,0-195-84.992-195-196   c0-107.776,87.213-195,195-195c107.776,0,195,87.213,195,195C451,397.015,359.275,482,256,482z" data-original="#000000" class="active-path" data-old_color="#000000" fill="#888DA8"/>
</g></g> </svg>
