<?xml version="1.0"?>
<svg xmlns="http://www.w3.org/2000/svg" xmlns:xlink="http://www.w3.org/1999/xlink" version="1.1" id="Capa_1" x="0px" y="0px" width="512px" height="512px" viewBox="0 0 79.536 79.536" style="enable-background:new 0 0 79.536 79.536;" xml:space="preserve"><g><g>
	<path d="M39.069,56.954c0,0.498-0.353,1.232-1.021,2.207c-1.68,2.34-6.25,8.729-13.667,19.169L10.447,59.057   c-0.676-0.901-1.01-1.605-1.01-2.104c0-1.056,0.626-1.584,1.9-1.594l8.593,2.112V1.207l8.251,0.01v56.431l9.116-2.288   C38.469,55.36,39.054,55.898,39.069,56.954z M70.708,22.582c0-0.499-0.337-1.217-1.01-2.123L55.759,1.217   c-7.421,10.429-11.988,16.819-13.668,19.136c-0.663,0.986-1.013,1.729-1.013,2.229c0.011,1.054,0.588,1.574,1.761,1.574   l9.119-2.291v56.449l8.254,0.011V22.056l8.596,2.1C70.081,24.156,70.708,23.635,70.708,22.582z M14.841,32.171H0v5.945h14.841   V32.171z M32.705,38.116H47.54v-5.945H32.705V38.116z M64.69,32.171v5.945h14.846v-5.945H64.69z" data-original="#010002" class="active-path" data-old_color="#9a9fbf" fill="#9a9fbf"/>
</g></g> </svg>
