<?xml version="1.0" encoding="utf-8"?>
<!-- Generator: Adobe Illustrator 21.1.0, SVG Export Plug-In . SVG Version: 6.00 Build 0)  -->
<svg version="1.1" id="Capa_1" xmlns="http://www.w3.org/2000/svg" xmlns:xlink="http://www.w3.org/1999/xlink" x="0px" y="0px"
	 viewBox="0 0 512 512" style="enable-background:new 0 0 512 512;" xml:space="preserve">
<style type="text/css">
	.st0{fill:#888DA8;}
</style>
<g>
	<g>
		<g>
			<path class="st0" d="M37.9,28.4c-10.5,0-19.4,3.7-26.8,11.1C3.7,47,0,55.9,0,66.4c0,6.9,1.7,13.2,5.2,19
				c3.5,5.7,8,10.3,13.8,13.6v375.1c0,2.8,0.9,5,2.7,6.8c1.8,1.8,4,2.7,6.8,2.7h19c2.8,0,5-0.9,6.8-2.7c1.8-1.8,2.7-4,2.7-6.8V99
				c5.7-3.4,10.3-7.9,13.8-13.6c3.5-5.7,5.2-12.1,5.2-19c0-10.5-3.7-19.4-11.1-26.8C57.3,32.2,48.4,28.4,37.9,28.4z"/>
			<path class="st0" d="M490.7,80.7c-5.6-3.4-11.1-3.6-16.7-0.6c-1.6,1-4.4,2.6-8.3,4.8c-33.7,21.3-61.5,31.9-83.4,31.9
				c-9.2,0-17.1-1.8-24-5.4C338.2,101,319.4,92.9,302,87c-17.4-5.9-36.2-8.8-56.2-8.8c-13.1,0-27,1.8-41.7,5.4
				c-14.7,3.6-28.4,8.3-41,14.1c-12.6,5.8-22.9,10.7-30.7,14.8c-7.8,4.1-14.9,8.1-21.1,12.1c-5.6,3.8-8.3,9-8.3,15.7v232.3
				c0,7,2.9,12.3,8.6,15.9c2.9,1.5,5.7,2.3,8.6,2.3c3.2,0,6.2-0.9,8.9-2.6c17-11,37.5-20.7,61.5-29.1c24-8.4,45.1-12.5,63.4-12.5
				c10.4,0,20.6,1.3,30.7,4c10,2.7,18.2,5.4,24.5,8.3c6.3,2.8,15.2,7.4,26.6,13.7l7.5,4c12.6,6.6,26.7,10,42.5,10
				c27.1,0,60.2-11,99.3-33c1.3-0.8,2.8-1.6,4.6-2.6c6.3-3.4,9.4-8.8,9.4-16.2V96.4C499,89.7,496.2,84.5,490.7,80.7z M464.6,323.9
				c-31,17.5-57.3,26.2-78.9,26.2c-10.2,0-19.3-2.1-27.2-6.3l-7.5-4c-9.9-5.1-17.3-8.9-22.2-11.3c-4.9-2.4-11.8-5.3-20.7-8.8
				c-8.9-3.5-17.7-6-26.4-7.4c-8.7-1.4-18-2.1-27.9-2.1c-33.7,0-72.6,10.7-116.5,32.2V150.8c41.3-24.1,77.4-36.2,108.5-36.2
				c16.9,0,32.8,2.6,47.9,7.8c15.1,5.2,31.6,12.5,49.5,21.8c11.3,6.1,24.3,9.1,39,9.1c24.6,0,52-8.6,82.4-25.9L464.6,323.9
				L464.6,323.9z"/>
		</g>
	</g>
</g>
</svg>
