<?xml version="1.0" encoding="utf-8"?>
<!-- Generator: Adobe Illustrator 22.1.0, SVG Export Plug-In . SVG Version: 6.00 Build 0)  -->
<svg version="1.1" id="Capa_1" xmlns="http://www.w3.org/2000/svg" xmlns:xlink="http://www.w3.org/1999/xlink" x="0px" y="0px"
	 viewBox="0 0 512 512" style="enable-background:new 0 0 512 512;" xml:space="preserve">
<style type="text/css">
	.st0{fill:#2864F0;}
	.st1{fill:#27488F;}
	.st2{fill:#FFB000;}
	.st3{fill:#FF9500;}
	.st4{fill:#FFDA00;}
</style>
<g>
	<g>
		<g>
			<g>
				<g>
					<g>
						<circle class="st0" cx="256" cy="256" r="256"/>
					</g>
				</g>
			</g>
		</g>
	</g>
	<path class="st1" d="M512,256c0-8.8-0.4-17.4-1.3-26l-114-114l-18.7,28.1L340.8,107l-210.3,29.5l21.4,143L285.3,413l-104,34.7
		l64.1,64.1c3.5,0.1,7,0.2,10.6,0.2C397.4,512,512,397.4,512,256z"/>
	<g>
		<polygon class="st2" points="302,403 210,403 230,299 282,299 		"/>
	</g>
	<g>
		<polygon class="st3" points="282,299 255.9,299 255.9,403 302,403 		"/>
	</g>
	<g>
		<path class="st2" d="M220.7,297.3h-15c-49.8,0-90.3-40.5-90.3-90.3v-91h105.3V297.3z M145.3,146v61c0,28.1,19.3,51.8,45.3,58.4
			V146H145.3z"/>
	</g>
	<g>
		<path class="st3" d="M306.3,297.3h-15V116h105.3v91C396.7,256.8,356.1,297.3,306.3,297.3z M321.3,146v119.4
			c26-6.7,45.3-30.4,45.3-58.4v-61L321.3,146L321.3,146z"/>
	</g>
	<g>
		<path class="st4" d="M256,313L256,313c-46.8,0-84.8-38-84.8-84.8V107h169.7v121.2C340.8,275,302.8,313,256,313z"/>
	</g>
	<g>
		<path class="st2" d="M255.9,107v206c0,0,0.1,0,0.1,0l0,0c46.8,0,84.8-38,84.8-84.8V107H255.9z"/>
	</g>
	<g>
		<rect x="181.3" y="385" class="st4" width="149.3" height="62.7"/>
	</g>
	<g>
		<rect x="255.9" y="385" class="st2" width="74.8" height="62.7"/>
	</g>
</g>
</svg>
