<?xml version="1.0" encoding="utf-8"?>
<!-- Generator: Adobe Illustrator 21.1.0, SVG Export Plug-In . SVG Version: 6.00 Build 0)  -->
<svg version="1.1" id="Capa_1" xmlns="http://www.w3.org/2000/svg" xmlns:xlink="http://www.w3.org/1999/xlink" x="0px" y="0px"
	 viewBox="0 0 512 512" style="enable-background:new 0 0 512 512;" xml:space="preserve">
<style type="text/css">
	.st0{fill:#FF9999;}
	.st1{fill:#F9586B;}
</style>
<polygon class="st0" points="215.3,63.9 148.2,63.9 256,171.7 363.8,63.9 288.3,63.9 "/>
<polygon class="st1" points="86.7,125.4 256,294.8 425.3,125.4 502,202.1 256,448.1 10,202.1 "/>
<path d="M138.2,63.9c0-1.3,0.2-2.6,0.8-3.8c1.5-3.7,5.2-6.2,9.2-6.2h67.1c5.5,0,10,4.5,10,10s-4.5,10-10,10h-43l83.7,83.7l83.7-83.7
	h-51.3c-5.5,0-10-4.5-10-10s4.5-10,10-10h75.5c4,0,7.7,2.4,9.2,6.2c1.5,3.7,0.7,8-2.2,10.9L263.1,178.8c-3.9,3.9-10.2,3.9-14.1,0
	L141.1,71C139.2,69.1,138.2,66.5,138.2,63.9z"/>
<path d="M241.4,63.9c0-5.5,4.5-10,10-10h0.6c5.5,0,10,4.5,10,10s-4.5,10-10,10h-0.6C245.9,73.9,241.4,69.4,241.4,63.9z"/>
<path d="M263.1,455.2l246-246c3.9-3.9,3.9-10.2,0-14.1l-76.7-76.7c-1.9-1.9-4.4-2.9-7.1-2.9s-5.2,1.1-7.1,2.9L256,280.6L93.7,118.4
	c-1.9-1.9-4.4-2.9-7.1-2.9s-5.2,1.1-7.1,2.9L2.9,195c-2,2-2.9,4.5-2.9,7.1s1,5.1,2.9,7.1l246,246
	C252.8,459.1,259.2,459.1,263.1,455.2z M244.7,422.6l50.7-50.7c3.9-3.9,3.9-10.2,0-14.1c-3.9-3.9-10.2-3.9-14.1,0l-50.7,50.7
	L24.1,202.1l62.5-62.5l162.3,162.3c1.9,1.9,4.4,2.9,7.1,2.9c2.7,0,5.2-1.1,7.1-2.9l162.3-162.3l62.5,62.5L256,434L244.7,422.6z"/>
<path d="M301.3,341.9c0-2.6,1-5.1,2.9-7.1l0.1-0.1c3.9-3.9,10.2-3.9,14.1,0c3.9,3.9,3.9,10.2,0,14.1l-0.1,0.1
	c-3.9,3.9-10.2,3.9-14.1,0C302.2,347,301.3,344.4,301.3,341.9z"/>
</svg>
