<?xml version="1.0" encoding="utf-8"?>
<!-- Generator: Adobe Illustrator 21.1.0, SVG Export Plug-In . SVG Version: 6.00 Build 0)  -->
<svg version="1.1" id="Layer_1" xmlns="http://www.w3.org/2000/svg" xmlns:xlink="http://www.w3.org/1999/xlink" x="0px" y="0px"
	 viewBox="0 0 512 512" style="enable-background:new 0 0 512 512;" xml:space="preserve">
<style type="text/css">
	.st0{fill:#B3404A;}
	.st1{fill:#F4B2B0;}
</style>
<path class="st0" d="M55.8,204.9c3.2,0,6.3,1.1,8.9,3.1l127.7,101.3c6.2,4.9,7.2,13.9,2.3,20.1c-4.9,6.2-13.9,7.2-20.1,2.3
	L70.2,248.9v83L256,479.4l185.8-147.4v-83L264.9,389.3c-6.2,4.9-15.2,3.9-20.1-2.3c-4.9-6.2-3.9-15.2,2.3-20.1L447.3,208
	c4.3-3.4,10.2-4.1,15.1-1.7c5,2.4,8.1,7.4,8.1,12.9v119.6c0,4.4-2,8.5-5.4,11.2L264.9,508.9c-5.2,4.1-12.6,4.1-17.8,0L46.9,350.1
	c-3.4-2.7-5.4-6.9-5.4-11.2V219.3c0-5.5,3.1-10.5,8.1-12.9C51.6,205.4,53.7,204.9,55.8,204.9z"/>
<polygon class="st1" points="55.8,133.9 256,292.7 456.2,133.9 456.2,14.3 256,173.1 55.8,14.3 "/>
<path class="st0" d="M55.8,0c3.2,0,6.3,1.1,8.9,3.1L256,154.8L447.3,3.1c4.3-3.4,10.2-4.1,15.1-1.7c5,2.4,8.1,7.4,8.1,12.9v119.6
	c0,4.4-2,8.5-5.4,11.2L264.9,304c-5.2,4.1-12.6,4.1-17.8,0L46.9,145.2c-3.4-2.7-5.4-6.9-5.4-11.2V14.3c0-5.5,3.1-10.5,8.1-12.9
	C51.6,0.5,53.7,0,55.8,0z M256,187.5c-3.1,0-6.3-1-8.9-3.1L70.2,44v83L256,274.5L441.8,127V44L264.9,184.4
	C262.3,186.4,259.2,187.5,256,187.5z"/>
</svg>
