<?xml version="1.0" encoding="utf-8"?>
<!-- Generator: Adobe Illustrator 21.1.0, SVG Export Plug-In . SVG Version: 6.00 Build 0)  -->
<svg version="1.1" id="Capa_1" xmlns="http://www.w3.org/2000/svg" xmlns:xlink="http://www.w3.org/1999/xlink" x="0px" y="0px"
	 viewBox="0 0 512 512" style="enable-background:new 0 0 512 512;" xml:space="preserve">
<style type="text/css">
	.st0{fill:#9A9FBF;}
</style>
<g>
	<g>
		<path class="st0" d="M248.9,218.5l-71.7,71.7c-3.9,3.9-3.9,10.2,0,14.1c3.9,3.9,10.2,3.9,14.1,0l64.7-64.7l196.6,196.6l-51.5,51.5
			l-138-138c-3.9-3.9-10.2-3.9-14.1,0l-138,138l-51.5-51.5l77-77c3.9-3.9,3.9-10.2,0-14.1c-3.9-3.9-10.2-3.9-14.1,0l-84,84
			c-3.9,3.9-3.9,10.2,0,14.1l65.7,65.7c1.9,1.9,4.4,2.9,7.1,2.9s5.2-1.1,7.1-2.9l138-138l138,138c1.9,1.9,4.4,2.9,7.1,2.9
			s5.2-1.1,7.1-2.9l65.7-65.7c2-2,2.9-4.5,2.9-7.1c0-2.6-1-5.1-2.9-7.1L263.1,218.5C259.2,214.6,252.8,214.6,248.9,218.5z"/>
	</g>
</g>
<g>
	<g>
		<path class="st0" d="M150.7,316.7c-1.9,1.9-2.9,4.4-2.9,7.1c0,2.6,1.1,5.2,2.9,7.1c1.9,1.9,4.4,2.9,7.1,2.9c2.6,0,5.2-1.1,7.1-2.9
			c1.9-1.9,2.9-4.4,2.9-7.1s-1.1-5.2-2.9-7.1c-1.9-1.9-4.4-2.9-7.1-2.9C155.1,313.8,152.6,314.8,150.7,316.7z"/>
	</g>
</g>
<g>
	<g>
		<path class="st0" d="M356.7,161.6c-3.9,3.9-3.9,10.2,0,14.1l0.1,0.1c3.9,3.9,10.2,3.9,14.1,0c1.9-2,2.9-4.5,2.9-7.1
			c0-2.6-1-5.1-2.9-7.1l-0.1-0.1C366.9,157.7,360.6,157.7,356.7,161.6z"/>
	</g>
</g>
<g>
	<g>
		<path class="st0" d="M248.9,2.9L38.1,213.7c-3.9,3.9-3.9,10.2,0,14.1l65.7,65.7c1.9,1.9,4.4,2.9,7.1,2.9s5.2-1.1,7.1-2.9l138-138
			l138,138c1.9,1.9,4.4,2.9,7.1,2.9s5.2-1.1,7.1-2.9l65.7-65.7c2-2,2.9-4.5,2.9-7.1s-1-5.1-2.9-7.1L263.1,2.9
			C259.2-1,252.8-1,248.9,2.9z M452.6,220.8l-11.3,11.3l-47.4-47.4c-3.9-3.9-10.2-3.9-14.1,0c-3.9,3.9-3.9,10.2,0,14.1l47.4,47.4
			l-26.1,26.1l-138-138c-3.9-3.9-10.2-3.9-14.1,0l-138,138l-51.5-51.5L256,24.1L452.6,220.8z"/>
	</g>
</g>
</svg>
