<?xml version="1.0" encoding="utf-8"?>
<!-- Generator: Adobe Illustrator 21.1.0, SVG Export Plug-In . SVG Version: 6.00 Build 0)  -->
<svg version="1.1" id="Capa_1" xmlns="http://www.w3.org/2000/svg" xmlns:xlink="http://www.w3.org/1999/xlink" x="0px" y="0px"
	 viewBox="0 0 512 512" style="enable-background:new 0 0 512 512;" xml:space="preserve">
<style type="text/css">
	.st0{fill:#C4FFB6;}
	.st1{fill:#7FD36A;}
</style>
<polygon class="st0" points="296.7,448.1 363.8,448.1 256,340.3 148.2,448.1 223.7,448.1 "/>
<polygon class="st1" points="425.3,386.6 256,217.2 86.7,386.6 10,309.9 256,63.9 502,309.9 "/>
<path d="M373.8,448.1c0,1.3-0.2,2.6-0.8,3.8c-1.5,3.7-5.2,6.2-9.2,6.2h-67.1c-5.5,0-10-4.5-10-10s4.5-10,10-10h43L256,354.4
	l-83.7,83.7h51.3c5.5,0,10,4.5,10,10s-4.5,10-10,10h-75.5c-4,0-7.7-2.4-9.2-6.2c-1.5-3.7-0.7-8,2.2-10.9l107.8-107.8
	c3.9-3.9,10.2-3.9,14.1,0L370.9,441C372.8,442.9,373.8,445.5,373.8,448.1z"/>
<path d="M270.6,448.1c0,5.5-4.5,10-10,10H260c-5.5,0-10-4.5-10-10s4.5-10,10-10h0.6C266.1,438.1,270.6,442.6,270.6,448.1z"/>
<path d="M248.9,56.8l-246,246c-3.9,3.9-3.9,10.2,0,14.1l76.7,76.7c1.9,1.9,4.4,2.9,7.1,2.9s5.2-1.1,7.1-2.9L256,231.4l162.3,162.3
	c1.9,1.9,4.4,2.9,7.1,2.9s5.2-1.1,7.1-2.9l76.7-76.7c2-2,2.9-4.5,2.9-7.1c0-2.6-1-5.1-2.9-7.1l-246-246
	C259.2,52.9,252.8,52.9,248.9,56.8z M267.3,89.4l-50.7,50.7c-3.9,3.9-3.9,10.2,0,14.1c3.9,3.9,10.2,3.9,14.1,0l50.7-50.7
	l206.4,206.4l-62.5,62.5L263.1,210.2c-1.9-1.9-4.4-2.9-7.1-2.9c-2.7,0-5.2,1.1-7.1,2.9L86.7,372.4l-62.5-62.5L256,78L267.3,89.4z"/>
<path d="M210.7,170.1c0,2.6-1,5.1-2.9,7.1l-0.1,0.1c-3.9,3.9-10.2,3.9-14.1,0c-3.9-3.9-3.9-10.2,0-14.1l0.1-0.1
	c3.9-3.9,10.2-3.9,14.1,0C209.8,165,210.7,167.6,210.7,170.1z"/>
</svg>
