<?xml version="1.0" encoding="utf-8"?>
<!-- Generator: Adobe Illustrator 21.1.0, SVG Export Plug-In . SVG Version: 6.00 Build 0)  -->
<svg version="1.1" id="Layer_1" xmlns="http://www.w3.org/2000/svg" xmlns:xlink="http://www.w3.org/1999/xlink" x="0px" y="0px"
	 viewBox="0 0 511 511" style="enable-background:new 0 0 511 511;" xml:space="preserve">
<style type="text/css">
	.st0{fill:#92CE00;}
</style>
<path class="st0" d="M473.2,107.6L260.3,1.1c-3-1.5-6.5-1.5-9.5,0L37.8,107.6c-3.6,1.8-5.9,5.5-5.9,9.5V181c0,3.7,1.9,7.1,5,9
	c3.1,1.9,7,2.1,10.3,0.5L255.5,86.4l208.2,104.1c1.5,0.7,3.1,1.1,4.8,1.1c1.9,0,3.9-0.5,5.6-1.6c3.1-1.9,5-5.4,5-9v-63.9
	C479.1,113.1,476.8,109.4,473.2,107.6z"/>
<path class="st0" d="M473.2,256.6L260.3,150.2c-3-1.5-6.5-1.5-9.5,0L37.8,256.6c-3.6,1.8-5.9,5.5-5.9,9.5V330c0,3.7,1.9,7.1,5,9
	s7,2.1,10.3,0.5l208.2-104.1l208.2,104.1c1.5,0.7,3.1,1.1,4.8,1.1c1.9,0,3.9-0.5,5.6-1.6c3.1-1.9,5-5.4,5-9v-63.9
	C479.1,262.1,476.8,258.4,473.2,256.6z"/>
<path class="st0" d="M473.2,405.7L260.3,299.2c-3-1.5-6.5-1.5-9.5,0L37.8,405.7c-3.6,1.8-5.9,5.5-5.9,9.5v63.9
	c0,17.6,14.3,31.9,31.9,31.9h383.3c17.6,0,31.9-14.3,31.9-31.9v-63.9C479.1,411.2,476.8,407.5,473.2,405.7z"/>
<path class="st0" d="M468.4,191.6c-1.6,0-3.3-0.4-4.8-1.1L255.5,86.4L47.3,190.5c-3.3,1.6-7.2,1.4-10.4-0.4c-3.2-2-5.1-5.4-5.1-9.1
	v-63.9c0-4,2.3-7.7,5.9-9.5L250.7,1.1c3-1.5,6.5-1.5,9.5,0l212.9,106.5c3.6,1.8,5.9,5.5,5.9,9.5V181c0,3.7-1.9,7.1-5,9.1
	C472.3,191.1,470.4,191.6,468.4,191.6z M255.5,63.9c1.6,0,3.3,0.4,4.8,1.1l197.5,98.8v-40.1L255.5,22.5L53.2,123.7v40.1L250.7,65
	C252.2,64.3,253.9,63.9,255.5,63.9z"/>
<path class="st0" d="M468.4,340.7c-1.6,0-3.3-0.4-4.8-1.1L255.5,235.5L47.3,339.6c-3.3,1.6-7.2,1.4-10.4-0.4c-3.2-2-5.1-5.4-5.1-9.1
	v-63.9c0-4,2.3-7.7,5.9-9.5l212.9-106.5c3-1.5,6.5-1.5,9.5,0l212.9,106.5c3.6,1.8,5.9,5.5,5.9,9.5V330c0,3.7-1.9,7.1-5,9.1
	C472.3,340.1,470.4,340.7,468.4,340.7z M255.5,212.9c1.6,0,3.3,0.4,4.8,1.1l197.5,98.8v-40.1L255.5,171.6L53.2,272.7v40.1L250.7,214
	C252.2,213.3,253.9,212.9,255.5,212.9z"/>
<path class="st0" d="M447.1,511H63.9c-17.6,0-31.9-14.3-31.9-31.9v-63.9c0-4,2.3-7.7,5.9-9.5l212.9-106.5c3-1.5,6.5-1.5,9.5,0
	l212.9,106.5c3.6,1.8,5.9,5.5,5.9,9.5v63.9C479.1,496.7,464.7,511,447.1,511z M53.2,421.8v57.3c0,5.9,4.8,10.6,10.6,10.6h383.3
	c5.9,0,10.6-4.8,10.6-10.6v-57.3L255.5,320.6L53.2,421.8z"/>
</svg>
