<svg id="Capa_1" data-name="Capa 1" xmlns="http://www.w3.org/2000/svg" viewBox="0 0 411 506.07"><defs><style>.cls-1{fill:#9ff200;}</style></defs><title>Upvote</title><path class="cls-1" d="M458.78,308.85,260.71,7.78a7.43,7.43,0,0,0-12.41,0L50.22,308.85a7.43,7.43,0,0,0,6.21,11.51h79.72v151a39.16,39.16,0,0,0,39.12,39.12H333.73a39.16,39.16,0,0,0,39.12-39.12v-151h79.72a7.43,7.43,0,0,0,6.21-11.51Zm-93.36-3.35a7.43,7.43,0,0,0-7.43,7.43V471.39a24.29,24.29,0,0,1-24.26,24.26H175.27A24.29,24.29,0,0,1,151,471.39V312.93a7.43,7.43,0,0,0-7.43-7.43H70.21L254.5,25.38,438.79,305.5Z" transform="translate(-49 -4.43)"/><path class="cls-1" d="M175.27,392.65a7.43,7.43,0,0,0-7.43,7.43v71.31a7.43,7.43,0,1,0,14.86,0V400.08A7.43,7.43,0,0,0,175.27,392.65Z" transform="translate(-49 -4.43)"/><path class="cls-1" d="M175.27,345.12a7.43,7.43,0,0,0-7.43,7.43v15.85a7.43,7.43,0,1,0,14.86,0V352.55A7.43,7.43,0,0,0,175.27,345.12Z" transform="translate(-49 -4.43)"/><path class="cls-1" d="M252.06,79.33l10.42,15.84A7.43,7.43,0,1,0,274.89,87L264.47,71.16a7.43,7.43,0,1,0-12.41,8.16Z" transform="translate(-49 -4.43)"/><path class="cls-1" d="M335.47,206.12a7.43,7.43,0,0,0,12.41-8.17l-55.5-84.36A7.43,7.43,0,0,0,280,121.76Z" transform="translate(-49 -4.43)"/></svg>