<?xml version="1.0" encoding="utf-8"?>
<!-- Generator: Adobe Illustrator 21.1.0, SVG Export Plug-In . SVG Version: 6.00 Build 0)  -->
<svg version="1.1" id="Capa_1" xmlns="http://www.w3.org/2000/svg" xmlns:xlink="http://www.w3.org/1999/xlink" x="0px" y="0px"
	 viewBox="0 0 512 512" style="enable-background:new 0 0 512 512;" xml:space="preserve">
<style type="text/css">
	.st0{fill:#C4FFB6;}
	.st1{fill:#A0E892;}
</style>
<circle class="st0" cx="256" cy="256" r="246"/>
<polygon class="st1" points="318.8,385.9 318.8,277.3 396,277.3 256,105 116,277.3 193.2,277.3 193.2,385.9 "/>
<path d="M512,256c0,68.4-26.6,132.7-75,181c-48.4,48.4-112.6,75-181,75s-132.7-26.6-181-75C26.6,388.7,0,324.4,0,256
	S26.6,123.3,75,75C123.3,26.6,187.6,0,256,0s132.7,26.6,181,75C485.4,123.3,512,187.6,512,256z M20,256c0,130.1,105.9,236,236,236
	s236-105.9,236-236S386.1,20,256,20S20,125.9,20,256z"/>
<path d="M203.2,385.6v0.3c0,5.5-4.5,10-10,10s-10-4.5-10-10v-0.3c0-5.5,4.5-10,10-10S203.2,380,203.2,385.6z"/>
<path d="M406,277.3c0,1.5-0.3,2.9-1,4.3c-1.7,3.5-5.2,5.7-9,5.7h-67.2v98.6c0,5.5-4.5,10-10,10H238c-5.5,0-10-4.5-10-10
	c0-5.5,4.5-10,10-10h70.8v-98.6c0-5.5,4.5-10,10-10H375L256,120.9L137,267.3h56.2c5.5,0,10,4.5,10,10V344c0,5.5-4.5,10-10,10
	s-10-4.5-10-10v-56.7H116c-3.9,0-7.4-2.2-9-5.7c-1.7-3.5-1.2-7.6,1.3-10.6l140-172.3c1.9-2.3,4.7-3.7,7.8-3.7s5.9,1.4,7.8,3.7
	l140,172.3C405.2,272.8,406,275,406,277.3z"/>
<path d="M95.7,133.1c0,2-0.6,4.1-1.9,5.8l-0.5,0.7c-3.2,4.5-9.5,5.5-14,2.3s-5.5-9.5-2.3-14l0.5-0.7c3.2-4.5,9.5-5.5,14-2.3
	C94.3,126.9,95.7,129.9,95.7,133.1z"/>
<path d="M266,46c0,5.5-4.5,10-10,10c-52.3,0-101.7,20-139.2,56.4c-4,3.8-10.3,3.7-14.1-0.2c-3.8-4-3.7-10.3,0.2-14.1
	c41.3-40,95.6-62,153.1-62C261.5,36,266,40.5,266,46z"/>
</svg>
