<?xml version="1.0" encoding="utf-8"?>
<!-- Generator: Adobe Illustrator 22.1.0, SVG Export Plug-In . SVG Version: 6.00 Build 0)  -->
<svg version="1.1" id="Capa_1" xmlns="http://www.w3.org/2000/svg" xmlns:xlink="http://www.w3.org/1999/xlink" x="0px" y="0px"
	 viewBox="0 0 58 58" style="enable-background:new 0 0 58 58;" xml:space="preserve">
<style type="text/css">
	.st0{fill:#F9B04E;}
	.st1{fill:#F28F00;}
	.st2{fill:#F6D38B;}
	.st3{fill:#FFDEA9;}
	.st4{fill:#A5A5A4;}
	.st5{fill:#556180;}
</style>
<g id="XMLID_71_">
	<path id="XMLID_136_" class="st0" d="M52,15.6C47.8,6.9,39.8,1,30.5,1C17,1,6,13.5,6,29s11,28,24.5,28c9.3,0,17.3-5.9,21.5-14.6
		V15.6z"/>
	<path id="XMLID_135_" class="st1" d="M6,29C6,14.7,15.4,2.9,27.5,1.2c-1-0.1-2-0.2-3-0.2C11,1,0,13.5,0,29s11,28,24.5,28
		c1,0,2-0.1,3-0.2C15.4,55.1,6,43.3,6,29"/>
	<path id="XMLID_134_" class="st2" d="M6,30H0c0,0.7,0.1,1.3,0.1,2h6C6.1,31.3,6,30.7,6,30"/>
	<path id="XMLID_133_" class="st2" d="M6.2,25h-6c-0.1,0.7-0.1,1.3-0.2,2h6C6.1,26.3,6.1,25.7,6.2,25"/>
	<path id="XMLID_132_" class="st2" d="M6.5,35h-6c0.1,0.7,0.3,1.3,0.5,2h6C6.8,36.3,6.7,35.7,6.5,35"/>
	<path id="XMLID_131_" class="st2" d="M7.9,40h-6c0.3,0.7,0.5,1.3,0.8,2h6C8.5,41.3,8.2,40.7,7.9,40"/>
	<path id="XMLID_130_" class="st2" d="M7.3,20h-6c-0.2,0.7-0.4,1.3-0.5,2h6C6.9,21.3,7.1,20.7,7.3,20"/>
	<path id="XMLID_129_" class="st2" d="M9.3,15h-6c-0.3,0.7-0.6,1.3-0.9,2h6C8.6,16.3,8.9,15.7,9.3,15"/>
	<path id="XMLID_128_" class="st2" d="M13.3,9h-6c-0.6,0.6-1.1,1.3-1.6,2h6C12.2,10.3,12.8,9.6,13.3,9"/>
	<path id="XMLID_127_" class="st2" d="M19.5,4h-6c-1,0.6-2,1.3-2.9,2h6C17.5,5.3,18.4,4.6,19.5,4"/>
	<path id="XMLID_126_" class="st2" d="M11,46H5c0.5,0.7,1,1.4,1.5,2h6C12,47.4,11.5,46.7,11,46"/>
	<path id="XMLID_125_" class="st2" d="M9.3,51c0.8,0.7,1.6,1.4,2.5,2h6c-0.9-0.6-1.7-1.3-2.5-2H9.3z"/>
	<path id="XMLID_108_" class="st3" d="M30.6,51.5L30.6,51.5c-0.8,0-1.5,0-2.2-0.1c-0.5-0.1-0.9-0.6-0.9-1.1c0.1-0.5,0.5-0.9,1.1-0.9
		c0.6,0.1,1.2,0.1,1.9,0.1c0.6,0,1,0.4,1,1C31.5,51.1,31.1,51.5,30.6,51.5 M36.4,50.4c-0.4,0-0.8-0.2-0.9-0.6
		c-0.2-0.5,0.1-1.1,0.6-1.3c0.6-0.2,1.2-0.5,1.7-0.8c0.5-0.3,1.1-0.1,1.3,0.4c0.3,0.5,0.1,1.1-0.4,1.3c-0.6,0.3-1.3,0.6-1.9,0.8
		C36.6,50.4,36.5,50.4,36.4,50.4 M22.9,49.7c-0.2,0-0.3,0-0.5-0.1c-0.6-0.3-1.2-0.7-1.8-1c-0.5-0.3-0.6-0.9-0.3-1.4
		c0.3-0.5,0.9-0.6,1.4-0.3c0.5,0.3,1.1,0.7,1.6,0.9c0.5,0.3,0.7,0.9,0.4,1.3C23.6,49.5,23.2,49.7,22.9,49.7 M43,46.1
		c-0.3,0-0.5-0.1-0.7-0.3c-0.4-0.4-0.4-1,0-1.4c0.4-0.4,0.9-0.9,1.3-1.4c0.3-0.4,1-0.5,1.4-0.1c0.4,0.3,0.5,1,0.1,1.4
		c-0.4,0.5-0.9,1.1-1.4,1.5C43.5,46,43.2,46.1,43,46.1 M16.8,44.7c-0.3,0-0.6-0.1-0.8-0.4c-0.4-0.5-0.8-1.1-1.2-1.7
		c-0.3-0.5-0.2-1.1,0.3-1.4c0.5-0.3,1.1-0.2,1.4,0.3c0.4,0.5,0.7,1,1.1,1.5c0.4,0.4,0.3,1.1-0.1,1.4C17.2,44.6,17,44.7,16.8,44.7
		 M47.4,39.6c-0.1,0-0.3,0-0.4-0.1c-0.5-0.2-0.7-0.8-0.5-1.3c0.3-0.6,0.5-1.2,0.7-1.8c0.2-0.5,0.7-0.8,1.3-0.6
		c0.5,0.2,0.8,0.7,0.6,1.3c-0.2,0.7-0.5,1.3-0.7,1.9C48.1,39.4,47.8,39.6,47.4,39.6 M12.9,37.8c-0.4,0-0.8-0.3-0.9-0.7
		c-0.2-0.6-0.4-1.3-0.6-2c-0.1-0.5,0.2-1.1,0.7-1.2c0.5-0.1,1.1,0.2,1.2,0.7c0.2,0.6,0.3,1.2,0.5,1.8c0.2,0.5-0.1,1.1-0.6,1.3
		C13.2,37.8,13.1,37.8,12.9,37.8 M49.3,31.9C49.2,31.9,49.2,31.9,49.3,31.9c-0.6,0-1-0.5-1-1.1c0-0.6,0.1-1.2,0.1-1.8
		c0-0.6,0.4-1,1-1c0.6,0,1,0.4,1,1V29c0,0.7,0,1.3-0.1,2C50.2,31.5,49.8,31.9,49.3,31.9 M11.7,30c-0.6,0-1-0.4-1-1v0
		c0-0.7,0-1.4,0.1-2c0-0.6,0.5-1,1.1-0.9c0.6,0,1,0.5,0.9,1.1c0,0.6-0.1,1.3-0.1,1.9C12.7,29.6,12.2,30,11.7,30 M48.6,24
		c-0.4,0-0.9-0.3-1-0.8c-0.2-0.6-0.3-1.2-0.5-1.8c-0.2-0.5,0.1-1.1,0.6-1.3c0.5-0.2,1.1,0.1,1.3,0.6c0.2,0.6,0.4,1.3,0.6,2
		c0.1,0.5-0.2,1.1-0.7,1.2C48.8,24,48.7,24,48.6,24 M12.9,22.2c-0.1,0-0.2,0-0.3-0.1c-0.5-0.2-0.8-0.7-0.6-1.3
		c0.2-0.7,0.5-1.3,0.7-1.9c0.2-0.5,0.8-0.7,1.3-0.5c0.5,0.2,0.7,0.8,0.5,1.3c-0.3,0.6-0.5,1.2-0.7,1.8C13.7,22,13.3,22.2,12.9,22.2
		 M45.4,16.8c-0.3,0-0.6-0.2-0.8-0.4c-0.4-0.5-0.7-1-1.1-1.5c-0.4-0.4-0.3-1.1,0.1-1.4c0.4-0.4,1.1-0.3,1.4,0.1
		c0.4,0.5,0.9,1.1,1.2,1.7c0.3,0.5,0.2,1.1-0.3,1.4C45.8,16.8,45.6,16.8,45.4,16.8 M16.7,15.3c-0.2,0-0.4-0.1-0.6-0.2
		c-0.4-0.3-0.5-1-0.1-1.4c0.4-0.5,0.9-1.1,1.4-1.5c0.4-0.4,1-0.4,1.4,0c0.4,0.4,0.4,1,0,1.4c-0.4,0.4-0.9,0.9-1.3,1.4
		C17.3,15.2,17,15.3,16.7,15.3 M39.8,11.3c-0.2,0-0.4-0.1-0.5-0.2c-0.5-0.3-1.1-0.7-1.6-0.9c-0.5-0.2-0.7-0.9-0.4-1.3
		c0.2-0.5,0.8-0.7,1.3-0.4c0.6,0.3,1.2,0.7,1.8,1c0.5,0.3,0.6,0.9,0.3,1.4C40.5,11.1,40.1,11.3,39.8,11.3 M22.8,10.3
		c-0.4,0-0.7-0.2-0.9-0.5c-0.3-0.5-0.1-1.1,0.4-1.3c0.6-0.3,1.3-0.6,1.9-0.8c0.5-0.2,1.1,0.1,1.3,0.6S25.5,9.3,25,9.5
		c-0.6,0.2-1.2,0.5-1.7,0.8C23.1,10.3,23,10.3,22.8,10.3 M32.4,8.6c0,0-0.1,0-0.1,0c-0.6-0.1-1.2-0.1-1.8-0.1c-0.6,0-1-0.4-1-1
		c0-0.6,0.4-1,1-1v1l0-1c0.7,0,1.4,0,2.1,0.1c0.5,0.1,0.9,0.6,0.9,1.1C33.4,8.2,32.9,8.6,32.4,8.6"/>
	<path id="XMLID_107_" class="st4" d="M53.3,0h-8.7c-2.1,0-3.8,1.4-4.4,3.3c5,2.5,9.2,6.8,11.8,12.3v26.9
		c-2.6,5.4-6.8,9.8-11.8,12.3c0.6,1.9,2.3,3.3,4.4,3.3h8.7c2.6,0,4.7-2.1,4.7-4.7V4.7C58,2.1,55.9,0,53.3,0"/>
	<path id="XMLID_106_" class="st5" d="M46,50.7v1.9c0,0.8,0.6,1.4,1.4,1.4h3.2c0.8,0,1.4-0.6,1.4-1.4V42.4
		C50.5,45.6,48.4,48.4,46,50.7"/>
	<path id="XMLID_70_" class="st5" d="M50.6,4h-3.2C46.6,4,46,4.6,46,5.4v1.9c2.4,2.3,4.5,5.1,6,8.2V5.4C52,4.6,51.4,4,50.6,4"/>
</g>
</svg>
