<?xml version="1.0" encoding="utf-8"?>
<!-- Generator: Adobe Illustrator 22.1.0, SVG Export Plug-In . SVG Version: 6.00 Build 0)  -->
<svg version="1.1" xmlns="http://www.w3.org/2000/svg" xmlns:xlink="http://www.w3.org/1999/xlink" x="0px" y="0px"
	 viewBox="0 0 407.4 407.4" style="enable-background:new 0 0 407.4 407.4;" xml:space="preserve">
<style type="text/css">
	.st0{fill:none;}
	.st1{fill:url(#SVGID_1_);}
	.st2{fill:url(#SVGID_2_);}
	.st3{fill:url(#SVGID_3_);}
	.st4{fill:url(#SVGID_4_);}
	.st5{display:none;}
	.st6{display:inline;}
	.st7{fill:#E2ED7A;}
	.st8{fill:#FFFFFF;}
	.st9{fill:#62C765;}
	.st10{fill:#8CC63F;}
	.st11{fill:#55B034;}
	.st12{fill:#DC4B7F;}
	.st13{fill:#269468;}
	.st14{fill:#C2E070;}
	.st15{fill:#69C97D;}
	.st16{fill:#6CD9FF;}
	.st17{fill:#87DCFF;}
	.st18{fill:#55ABE0;}
	.st19{fill:#CAFDFF;}
	.st20{fill:#4BA6EB;}
	.st21{fill:#328CC4;}
	.st22{fill:#99FFF7;}
	.st23{fill:#79E8DD;}
	.st24{fill:#64E8DB;}
</style>
<g id="Layer_1">
	<title>Diamond-Green</title>
	<g>
		<g id="Layer_1_1_">
			<polygon class="st0" points="103,413.3 103,413.9 103.5,413.9 			"/>
			
				<linearGradient id="SVGID_1_" gradientUnits="userSpaceOnUse" x1="353.6319" y1="1056.4501" x2="46.8806" y2="681.7081" gradientTransform="matrix(1 0 0 1 0 -670)">
				<stop  offset="0" style="stop-color:#999999"/>
				<stop  offset="0.13" style="stop-color:#ADADAD"/>
				<stop  offset="0.34" style="stop-color:#C8C8C8"/>
				<stop  offset="0.55" style="stop-color:#DCDCDC"/>
				<stop  offset="0.77" style="stop-color:#E7E7E7"/>
				<stop  offset="1" style="stop-color:#EBEBEB"/>
			</linearGradient>
			<circle class="st1" cx="204.9" cy="204.7" r="202.5"/>
			
				<linearGradient id="SVGID_2_" gradientUnits="userSpaceOnUse" x1="-2632.6892" y1="-256.8166" x2="-2884.5461" y2="-502.6236" gradientTransform="matrix(-1 0 0 -1 -2548.6602 -170.04)">
				<stop  offset="0" style="stop-color:#FFFFFF"/>
				<stop  offset="0.99" style="stop-color:#999999"/>
			</linearGradient>
			<circle class="st2" cx="204.9" cy="204.7" r="157.2"/>
			
				<linearGradient id="SVGID_3_" gradientUnits="userSpaceOnUse" x1="-2657.3645" y1="-243.4444" x2="-2855.8152" y2="-514.4235" gradientTransform="matrix(-1 0 0 -1 -2548.6602 -170.04)">
				<stop  offset="0" style="stop-color:#CCCCCC"/>
				<stop  offset="1" style="stop-color:#E6E6E6"/>
			</linearGradient>
			<circle class="st3" cx="204.9" cy="204.7" r="153.3"/>
			
				<linearGradient id="SVGID_4_" gradientUnits="userSpaceOnUse" x1="126.8334" y1="751.183" x2="295.316" y2="1017.8949" gradientTransform="matrix(1 0 0 1 0 -670)">
				<stop  offset="0" style="stop-color:#FFFFFF"/>
				<stop  offset="0.99" style="stop-color:#999999"/>
			</linearGradient>
			<circle class="st4" cx="204.9" cy="204.7" r="131"/>
		</g>
	</g>
</g>
<g id="Layer_4" class="st5">
	<g class="st6">
		<path class="st7" d="M282.1,138.3c-2.2-4.6-8.2-8.3-13.3-8.3h-55c-5.1,0-13.4,0-18.5,0h-55c-5.1,0-11.1,3.7-13.3,8.3l-23.8,48.8
			c-2.2,4.6-1.1,11.2,2.5,14.8l92.2,90.8c3.6,3.6,9.6,3.6,13.2,0l92.3-90.8c3.6-3.6,4.8-10.2,2.5-14.8L282.1,138.3z"/>
		<path class="st8" d="M258.5,154.4c-5.7-5.4-11.4-10.8-17.3-16c-0.2-0.2-0.5-0.4-0.7-0.7l-92.6,66.9l14.1,19.5L258.5,154.4z"/>
		<path class="st8" d="M274,168.9c-2.1-2-4.2-3.9-6.3-5.9l-107.7,77.9l5.4,7.5l109.2-79C274.4,169.3,274.2,169.1,274,168.9z"/>
		<path class="st9" d="M306.5,196.7c1-3.2,0.9-6.8-0.5-9.6l-23.8-48.8c-1.1-2.2-3.1-4.3-5.5-5.8l-21.6,62.6L306.5,196.7z"/>
		<path class="st10" d="M154.1,195.2l50.5-65.2c-3.3,0-6.7,0-9.2,0h-55c-2.7,0-5.7,1.1-8.2,2.8L154.1,195.2z"/>
		<path class="st11" d="M277.1,132.8c-2.5-1.7-5.5-2.8-8.2-2.8h-55c-2.5,0-5.9,0-9.2,0l50.5,65.2L277.1,132.8z"/>
		<path class="st12" d="M132.4,132.6c-2.3,1.5-4.2,3.5-5.3,5.7l-23.8,48.8c-1.2,2.5-1.4,5.5-0.8,8.4l52.3,1.4L132.4,132.6z"/>
		<path class="st13" d="M132.4,132.6c-2.3,1.5-4.2,3.5-5.3,5.7l-23.8,48.8c-1.2,2.5-1.4,5.5-0.8,8.4l52.3,1.4L132.4,132.6z"/>
		<path class="st11" d="M105.8,201.9l92.2,90.8c1.3,1.3,2.9,2.1,4.6,2.5l-48.5-100.1h-51.8C102.9,197.7,104,200.2,105.8,201.9z"/>
		<path class="st12" d="M206.6,295.2c1.7-0.4,3.3-1.2,4.6-2.5l92.3-90.8c1.8-1.7,2.9-4.2,3.4-6.8h-51.8L206.6,295.2z"/>
		<path class="st10" d="M206.6,295.2c1.7-0.4,3.3-1.2,4.6-2.5l92.3-90.8c1.8-1.7,2.9-4.2,3.4-6.8h-51.8L206.6,295.2z"/>
		<path class="st14" d="M154.1,195.2l48.5,100.1c1.3,0.3,2.6,0.3,3.9,0l48.5-100.1H154.1z"/>
		<path class="st8" d="M157.6,165.8c-9,2.9-11.3,5.3-14.2,14.3c-2.9-9-5.3-11.3-14.3-14.2c9-2.9,11.3-5.3,14.2-14.2
			C146.2,160.6,148.6,162.9,157.6,165.8z"/>
		<path class="st8" d="M182,145.5c-4.9,1.6-6.2,2.9-7.7,7.7c-1.6-4.9-2.9-6.1-7.7-7.7c4.9-1.6,6.2-2.9,7.7-7.7
			C175.8,142.6,177.1,143.9,182,145.5z"/>
		<path class="st8" d="M185.7,235.7c-4.9,1.6-6.2,2.9-7.7,7.7c-1.6-4.9-2.9-6.2-7.7-7.7c4.9-1.6,6.2-2.9,7.7-7.7
			C179.5,232.8,180.8,234.1,185.7,235.7z"/>
	</g>
</g>
<g id="Layer_3" class="st5">
	<g class="st6">
		<path class="st10" d="M209.4,102.5c-3.2-3.1-8.3-3.1-11.5,0l-59.4,58.8c-3.2,3.1-5.7,9.1-5.7,13.3v61c0,4.2,2.6,10.2,5.7,13.3
			L198,308c3.2,3.1,8.3,3.1,11.5,0l59.4-58.8c3.2-3.1,5.7-9.1,5.7-13.3v-61c0-4.2-2.6-10.2-5.7-13.3L209.4,102.5z"/>
		<path class="st9" d="M136.9,163.4c-2.4,3.3-4.1,7.9-4.1,11.4v61c0,4.2,2.6,10.2,5.7,13.3l2.4,2.4c16.5-6.3,34.7-13.5,36.5-14.1
			c3.5-1.2,0-57.1,0-57.1L136.9,163.4z"/>
		<path class="st11" d="M138.6,161.4c-1.7,1.6-3.2,4.1-4.2,6.7l41.1,13.7l28.2-31.8v-49.7c-2.1,0-4.2,0.8-5.7,2.3L138.6,161.4z"/>
		<path class="st14" d="M232.4,181.7L273,168c-1-2.6-2.5-5-4.2-6.7l-59.4-58.8c-1.6-1.6-3.7-2.3-5.7-2.3v49.7L232.4,181.7z"/>
		<path class="st13" d="M174.9,228.8l-40.3,14.2c1,2.3,2.4,4.5,4,6.1L198,308c1.6,1.6,3.7,2.3,5.7,2.3v-49L174.9,228.8z"/>
		<path class="st15" d="M268.8,249.1c1.5-1.5,2.9-3.7,4-6.1l-40.3-14.2l-28.8,32.4v49c2.1,0,4.2-0.8,5.7-2.3L268.8,249.1z"/>
		<polygon class="st7" points="167,231.6 167,178.9 203.7,142.5 240.4,178.9 240.4,231.6 203.7,268 		"/>
		<path class="st8" d="M167,212.2l64.7-41.9l8.6,8.5v10.4l-70.2,45.4l-3.2-3.1V212.2z M240.4,211.5V202l-62.4,40.4l5.8,5.7
			L240.4,211.5z"/>
		<path class="st8" d="M186.5,155.9c-9.4,2.7-11.9,4.9-14.9,13.4c-3.1-8.4-5.5-10.6-14.9-13.4c9.4-2.7,11.9-4.9,14.9-13.4
			C174.6,151,177.1,153.2,186.5,155.9z"/>
		<path class="st8" d="M156.7,172.7c-5.1,1.5-6.4,2.7-8.1,7.3c-1.7-4.6-3-5.8-8.1-7.3c5.1-1.5,6.4-2.7,8.1-7.2
			C150.2,170,151.6,171.2,156.7,172.7z"/>
	</g>
</g>
<g id="Layer_2" class="st5">
	<g class="st6">
		<g>
			<path class="st14" d="M180.1,151h44.1l14.9-35.8c-2.2-0.9-4.6-1.5-6.6-1.5h-59.7c-2,0-4.4,0.6-6.6,1.5L180.1,151z"/>
			<path class="st13" d="M151.1,181.8l30-30.4l-14.9-36.2c-2.2,0.9-4.3,2.2-5.7,3.6L118.3,161c-1.4,1.4-2.7,3.5-3.6,5.7L151.1,181.8
				z"/>
			<path class="st10" d="M114.6,239.7c0.9,2.2,2.2,4.3,3.6,5.7l42.2,42.2c1.4,1.4,3.5,2.7,5.7,3.6l14.4-34.7l-31.2-31.2L114.6,239.7
				z"/>
			<path class="st15" d="M255.2,180.5l-0.3,45.8l35.8,13.4c0.9-2.2,1.5-4.6,1.5-6.6v-59.7c0-2-0.6-4.4-1.5-6.6L255.2,180.5z"/>
			<path class="st10" d="M224.2,149.9l31.7,31.2l34.7-14.4c-0.9-2.2-2.2-4.3-3.6-5.7l-42.2-42.2c-1.4-1.4-3.5-2.7-5.7-3.6
				L224.2,149.9z"/>
			<path class="st15" d="M113.1,173.4v59.7c0,2,0.6,4.4,1.5,6.6l34.7-14.4v-44.1l-34.7-14.4C113.7,169,113.1,171.4,113.1,173.4z"/>
			<path class="st14" d="M172.8,292.7h59.7c2,0,4.4-0.6,6.6-1.5l-15.3-36.5h-42.4l-15.2,36.5C168.4,292.1,170.8,292.7,172.8,292.7z"
				/>
			<path class="st13" d="M254.9,224.8l-31,29.9l15.3,36.5c2.2-0.9,4.3-2.2,5.7-3.6l42.2-42.2c1.4-1.4,2.7-3.5,3.6-5.7L254.9,224.8z"
				/>
			<polygon class="st7" points="180.6,256.5 149.4,225.3 149.4,181.1 180.6,149.9 224.7,149.9 255.9,181.1 255.9,225.3 224.7,256.5 
							"/>
			<g>
				<polygon class="st8" points="171.8,247.7 255.9,186.9 255.9,181.1 242.2,167.4 154.7,230.7 				"/>
				<polygon class="st8" points="255.9,213.4 255.9,202.1 180.7,256.5 196.3,256.5 				"/>
			</g>
			<path class="st8" d="M154.9,161.2c-8.2,2.7-10.4,4.8-13,13c-2.7-8.2-4.8-10.4-13-13c8.2-2.7,10.4-4.8,13-13
				C144.6,156.4,146.7,158.5,154.9,161.2z"/>
			<path class="st8" d="M138.3,191.4c-4.5,1.4-5.6,2.6-7.1,7.1c-1.4-4.5-2.6-5.6-7.1-7.1c4.5-1.4,5.6-2.6,7.1-7.1
				C132.7,188.8,133.9,190,138.3,191.4z"/>
			<path class="st8" d="M273.5,242.8c-4.5,1.4-5.6,2.6-7.1,7.1c-1.4-4.5-2.6-5.6-7.1-7.1c4.5-1.4,5.6-2.6,7.1-7.1
				C267.9,240.2,269.1,241.3,273.5,242.8z"/>
		</g>
	</g>
</g>
<g id="Layer_5" class="st5">
	<g class="st6">
		<path class="st16" d="M208.4,103.4c-3.1-3.1-8.2-3.1-11.3,0L138.4,162c-3.1,3.1-5.7,9.1-5.7,13.3v60.8c0,4.2,2.5,10.2,5.7,13.3
			l58.7,58.6c3.1,3.1,8.2,3.1,11.3,0l58.7-58.6c3.1-3.1,5.7-9.1,5.7-13.3v-60.8c0-4.2-2.5-10.2-5.7-13.3L208.4,103.4z"/>
		<path class="st17" d="M136.8,164c-2.3,3.3-4.1,7.9-4.1,11.3v60.8c0,4.2,2.6,10.2,5.7,13.3l2.4,2.4c16.4-6.3,34.5-13.4,36.4-14
			c3.4-1.2,0-56.8,0-56.8L136.8,164z"/>
		<path class="st18" d="M138.4,162c-1.7,1.6-3.1,4.1-4.2,6.6l40.9,13.6l28.1-31.7v-49.5c-2.1,0-4.1,0.8-5.7,2.3L138.4,162z"/>
		<path class="st19" d="M231.8,182.3l40.5-13.6c-1-2.5-2.5-5-4.2-6.6L209,103.4c-1.6-1.6-3.6-2.3-5.7-2.3v49.5L231.8,182.3z"/>
		<path class="st20" d="M174.6,229.2l-40.1,14.2c1,2.3,2.4,4.5,3.9,6l59.2,58.6c1.6,1.6,3.6,2.3,5.7,2.3v-48.8L174.6,229.2z"/>
		<path class="st21" d="M268.1,249.4c1.5-1.5,2.9-3.7,3.9-6L232,229.2l-28.7,32.3v48.8c2.1,0,4.1-0.8,5.7-2.3L268.1,249.4z"/>
		<polygon class="st22" points="166.8,232 166.8,179.4 203.3,143.3 239.8,179.4 239.8,232 203.3,268.1 		"/>
		<path class="st8" d="M166.8,212.6l64.4-41.7l8.6,8.5v10.4l-69.9,45.3l-3.1-3.1V212.6z M239.8,211.9v-9.4l-62.2,40.3l5.7,5.7
			L239.8,211.9z"/>
		<path class="st8" d="M186.1,156.5c-9.4,2.7-11.8,4.9-14.8,13.3c-3-8.4-5.5-10.6-14.9-13.3c9.4-2.7,11.8-4.9,14.8-13.3
			C174.3,151.6,176.8,153.8,186.1,156.5z"/>
		<path class="st8" d="M156.4,173.3c-5.1,1.5-6.4,2.7-8.1,7.2c-1.6-4.5-3-5.7-8.1-7.2c5.1-1.5,6.4-2.7,8.1-7.2
			C150,170.6,151.4,171.8,156.4,173.3z"/>
	</g>
</g>
<g id="Layer_6">
	<g>
		<path class="st23" d="M180.3,150.8h44l14.9-35.7c-2.2-0.9-4.6-1.5-6.6-1.5h-59.5c-2,0-4.4,0.6-6.6,1.5L180.3,150.8z"/>
		<path class="st18" d="M151.4,181.6l30-30.3l-14.9-36.2c-2.2,0.9-4.3,2.2-5.7,3.6l-42.1,42.1c-1.4,1.4-2.7,3.5-3.6,5.7L151.4,181.6
			z"/>
		<path class="st20" d="M115,239.3c0.9,2.2,2.2,4.3,3.6,5.7l42.1,42.1c1.4,1.4,3.5,2.7,5.7,3.6l14.4-34.7l-31.1-31.1L115,239.3z"/>
		<path class="st16" d="M255.3,180.2l-0.3,45.8l35.7,13.3c0.9-2.2,1.5-4.6,1.5-6.6v-59.5c0-2-0.6-4.4-1.5-6.6L255.3,180.2z"/>
		<path class="st19" d="M224.3,149.7l31.7,31.1l34.6-14.4c-0.9-2.2-2.2-4.3-3.6-5.7l-42.1-42.1c-1.4-1.4-3.5-2.7-5.7-3.6
			L224.3,149.7z"/>
		<path class="st17" d="M113.5,173.1v59.6c0,2,0.6,4.4,1.5,6.6l34.6-14.4v-44L115,166.5C114.1,168.8,113.5,171.1,113.5,173.1z"/>
		<path class="st21" d="M173,292.2h59.6c2,0,4.4-0.6,6.6-1.5L224,254.3h-42.3l-15.2,36.4C168.7,291.6,171.1,292.2,173,292.2z"/>
		<path class="st24" d="M254.9,224.5l-31,29.8l15.2,36.4c2.2-0.9,4.3-2.2,5.7-3.6L287,245c1.4-1.4,2.7-3.5,3.6-5.7L254.9,224.5z"/>
		<polygon class="st22" points="180.8,256.1 149.7,224.9 149.7,180.9 180.8,149.7 224.9,149.7 256,180.9 256,224.9 224.9,256.1 		
			"/>
		<g>
			<polygon class="st8" points="172.1,247.3 256,186.7 256,180.9 242.3,167.2 155,230.3 			"/>
			<polygon class="st8" points="256,213.1 256,201.8 180.9,256.1 196.5,256.1 			"/>
		</g>
		<path class="st8" d="M155.2,161c-8.2,2.7-10.3,4.8-13,13c-2.7-8.2-4.8-10.3-13-13c8.2-2.7,10.3-4.8,13-13
			C144.9,156.2,147,158.3,155.2,161z"/>
		<path class="st8" d="M138.7,191.2c-4.4,1.4-5.6,2.6-7.1,7.1c-1.4-4.4-2.6-5.6-7.1-7.1c4.4-1.4,5.6-2.6,7.1-7.1
			C133,188.5,134.2,189.7,138.7,191.2z"/>
		<path class="st8" d="M273.6,242.4c-4.4,1.4-5.6,2.6-7.1,7.1c-1.4-4.5-2.6-5.6-7.1-7.1c4.4-1.4,5.6-2.6,7.1-7.1
			C267.9,239.8,269.1,241,273.6,242.4z"/>
	</g>
</g>
<g id="Layer_7" class="st5">
	<g class="st6">
		<path class="st22" d="M281.4,138.6c-2.2-4.5-8.1-8.2-13.2-8.2h-54.4c-5,0-13.3,0-18.3,0H141c-5,0-11,3.7-13.2,8.2L104.3,187
			c-2.2,4.5-1.1,11.1,2.5,14.6l91.3,89.9c3.6,3.5,9.5,3.5,13,0l91.3-89.9c3.6-3.5,4.7-10.1,2.5-14.6L281.4,138.6z"/>
		<path class="st8" d="M257.9,154.5c-5.7-5.3-11.3-10.6-17.1-15.8c-0.2-0.2-0.5-0.4-0.7-0.6l-91.7,66.3l13.9,19.3L257.9,154.5z"/>
		<path class="st8" d="M273.3,168.9c-2.1-1.9-4.2-3.9-6.3-5.8l-106.7,77.1l5.4,7.4l108.1-78.2C273.7,169.3,273.5,169.1,273.3,168.9z
			"/>
		<path class="st16" d="M305.5,196.4c1-3.2,0.9-6.7-0.5-9.5l-23.6-48.4c-1.1-2.2-3.1-4.2-5.4-5.7l-21.4,62L305.5,196.4z"/>
		<path class="st16" d="M154.7,194.9l50-64.5c-3.3,0-6.6,0-9.2,0H141c-2.7,0-5.7,1.1-8.2,2.8L154.7,194.9z"/>
		<path class="st19" d="M276.4,133.2c-2.5-1.7-5.5-2.8-8.2-2.8h-54.4c-2.5,0-5.8,0-9.2,0l50,64.5L276.4,133.2z"/>
		<path class="st12" d="M133.1,133c-2.3,1.5-4.2,3.4-5.3,5.6L104.3,187c-1.2,2.4-1.4,5.5-0.8,8.3l51.8,1.4L133.1,133z"/>
		<path class="st18" d="M133.1,133c-2.3,1.5-4.2,3.4-5.3,5.6L104.3,187c-1.2,2.4-1.4,5.5-0.8,8.3l51.8,1.4L133.1,133z"/>
		<path class="st20" d="M106.8,201.6l91.3,89.9c1.3,1.3,2.9,2.1,4.6,2.4l-48-99.1h-51.3C103.9,197.5,105,199.9,106.8,201.6z"/>
		<path class="st12" d="M206.6,294c1.7-0.4,3.3-1.2,4.6-2.4l91.3-89.9c1.7-1.7,2.9-4.1,3.4-6.7h-51.3L206.6,294z"/>
		<path class="st21" d="M206.6,294c1.7-0.4,3.3-1.2,4.6-2.4l91.3-89.9c1.7-1.7,2.9-4.1,3.4-6.7h-51.3L206.6,294z"/>
		<path class="st19" d="M154.7,194.9l48,99.1c1.3,0.3,2.6,0.3,3.9,0l48-99.1H154.7z"/>
		<path class="st8" d="M158.1,165.9c-8.9,2.9-11.2,5.2-14.1,14.1c-2.9-8.9-5.2-11.2-14.1-14.1c8.9-2.9,11.2-5.2,14.1-14.1
			C146.8,160.7,149.2,163,158.1,165.9z"/>
		<path class="st8" d="M182.2,145.7c-4.8,1.6-6.1,2.8-7.7,7.7c-1.6-4.8-2.8-6.1-7.7-7.7c4.8-1.6,6.1-2.8,7.7-7.7
			C176.1,142.9,177.4,144.2,182.2,145.7z"/>
		<path class="st8" d="M185.9,235c-4.8,1.6-6.1,2.8-7.7,7.7c-1.6-4.8-2.8-6.1-7.7-7.7c4.8-1.6,6.1-2.8,7.7-7.7
			C179.8,232.2,181,233.4,185.9,235z"/>
	</g>
</g>
</svg>
