<?xml version="1.0" encoding="utf-8"?>
<!-- Generator: Adobe Illustrator 22.1.0, SVG Export Plug-In . SVG Version: 6.00 Build 0)  -->
<svg version="1.1" id="Layer_1" xmlns="http://www.w3.org/2000/svg" xmlns:xlink="http://www.w3.org/1999/xlink" x="0px" y="0px"
	 viewBox="0 0 407.4 407.4" style="enable-background:new 0 0 407.4 407.4;" xml:space="preserve">
<style type="text/css">
	.st0{fill:none;}
	.st1{fill:url(#SVGID_1_);}
	.st2{fill:url(#SVGID_2_);}
	.st3{fill:url(#SVGID_3_);}
	.st4{fill:url(#SVGID_4_);}
	.st5{fill:#8CC63F;}
	.st6{fill:#62C765;}
	.st7{fill:#55B034;}
	.st8{fill:#C2E070;}
	.st9{fill:#269468;}
	.st10{fill:#69C97D;}
	.st11{fill:#E2ED7A;}
	.st12{fill:#FFFFFF;}
</style>
<g>
	<g id="Layer_1_1_">
		
			<linearGradient id="SVGID_1_" gradientUnits="userSpaceOnUse" x1="353.6319" y1="1056.4501" x2="46.8806" y2="681.7081" gradientTransform="matrix(1 0 0 1 0 -670)">
			<stop  offset="0" style="stop-color:#999999"/>
			<stop  offset="0.13" style="stop-color:#ADADAD"/>
			<stop  offset="0.34" style="stop-color:#C8C8C8"/>
			<stop  offset="0.55" style="stop-color:#DCDCDC"/>
			<stop  offset="0.77" style="stop-color:#E7E7E7"/>
			<stop  offset="1" style="stop-color:#EBEBEB"/>
		</linearGradient>
		<circle class="st1" cx="204.9" cy="204.7" r="202.5"/>
		
			<linearGradient id="SVGID_2_" gradientUnits="userSpaceOnUse" x1="-2632.6892" y1="-256.8166" x2="-2884.5461" y2="-502.6236" gradientTransform="matrix(-1 0 0 -1 -2548.6602 -170.04)">
			<stop  offset="0" style="stop-color:#FFFFFF"/>
			<stop  offset="0.99" style="stop-color:#999999"/>
		</linearGradient>
		<circle class="st2" cx="204.9" cy="204.7" r="157.2"/>
		
			<linearGradient id="SVGID_3_" gradientUnits="userSpaceOnUse" x1="-2657.3645" y1="-243.4444" x2="-2855.8152" y2="-514.4235" gradientTransform="matrix(-1 0 0 -1 -2548.6602 -170.04)">
			<stop  offset="0" style="stop-color:#CCCCCC"/>
			<stop  offset="1" style="stop-color:#E6E6E6"/>
		</linearGradient>
		<circle class="st3" cx="204.9" cy="204.7" r="153.3"/>
		
			<linearGradient id="SVGID_4_" gradientUnits="userSpaceOnUse" x1="126.8334" y1="751.183" x2="295.316" y2="1017.8949" gradientTransform="matrix(1 0 0 1 0 -670)">
			<stop  offset="0" style="stop-color:#FFFFFF"/>
			<stop  offset="0.99" style="stop-color:#999999"/>
		</linearGradient>
		<circle class="st4" cx="204.9" cy="204.7" r="131"/>
	</g>
</g>
<g>
	<path class="st5" d="M210.4,102.5c-3.2-3.1-8.3-3.1-11.5,0l-59.4,58.8c-3.2,3.1-5.7,9.1-5.7,13.3v61c0,4.2,2.6,10.2,5.7,13.3
		l59.4,58.8c3.2,3.1,8.3,3.1,11.5,0l59.4-58.8c3.2-3.1,5.7-9.1,5.7-13.3v-61c0-4.2-2.6-10.2-5.7-13.3L210.4,102.5z"/>
	<path class="st6" d="M137.8,163.4c-2.4,3.3-4.1,7.9-4.1,11.4v61c0,4.2,2.6,10.2,5.7,13.3l2.4,2.4c16.5-6.3,34.7-13.5,36.5-14.1
		c3.5-1.2,0-57.1,0-57.1L137.8,163.4z"/>
	<path class="st7" d="M139.5,161.4c-1.7,1.6-3.2,4.1-4.2,6.7l41.1,13.7l28.2-31.8v-49.7c-2.1,0-4.2,0.8-5.7,2.3L139.5,161.4z"/>
	<path class="st8" d="M233.3,181.7L274,168c-1-2.6-2.5-5-4.2-6.7l-59.4-58.8c-1.6-1.6-3.7-2.3-5.7-2.3v49.7L233.3,181.7z"/>
	<path class="st9" d="M175.8,228.8l-40.3,14.2c1,2.3,2.4,4.5,4,6.1l59.4,58.8c1.6,1.6,3.7,2.3,5.7,2.3v-49L175.8,228.8z"/>
	<path class="st10" d="M269.8,249.1c1.5-1.5,2.9-3.7,4-6.1l-40.3-14.2l-28.8,32.4v49c2.1,0,4.2-0.8,5.7-2.3L269.8,249.1z"/>
	<polygon class="st11" points="168,231.6 168,178.9 204.6,142.5 241.3,178.9 241.3,231.6 204.6,268 	"/>
	<path class="st12" d="M168,212.2l64.7-41.9l8.6,8.5v10.4l-70.2,45.4l-3.2-3.1V212.2z M241.3,211.5V202l-62.4,40.4l5.8,5.7
		L241.3,211.5z"/>
	<path class="st12" d="M187.4,155.9c-9.4,2.7-11.9,4.9-14.9,13.4c-3.1-8.4-5.5-10.6-14.9-13.4c9.4-2.7,11.9-4.9,14.9-13.4
		C175.5,151,178,153.2,187.4,155.9z"/>
	<path class="st12" d="M157.6,172.7c-5.1,1.5-6.4,2.7-8.1,7.3c-1.7-4.6-3-5.8-8.1-7.3c5.1-1.5,6.4-2.7,8.1-7.2
		C151.1,170,152.5,171.2,157.6,172.7z"/>
</g>
</svg>
