<?xml version="1.0" encoding="iso-8859-1"?>
<!-- Generator: Adobe Illustrator 19.0.0, SVG Export Plug-In . SVG Version: 6.00 Build 0)  -->
<svg xmlns="http://www.w3.org/2000/svg" xmlns:xlink="http://www.w3.org/1999/xlink" version="1.1" id="Layer_1" x="0px" y="0px" viewBox="0 0 490 490" style="enable-background:new 0 0 490 490;" xml:space="preserve" width="512" height="512">
<g>
	<path style="fill:#F0CD00;" d="M490,245c0,135.31-109.69,245-245,245c-71.33,0-135.54-30.48-180.31-79.13   c-11.76-12.77-22.17-26.8-31.03-41.85C12.27,332.64,0,290.25,0,245C0,109.69,109.69,0,245,0c45.26,0,87.65,12.27,124.02,33.67   c15.05,8.85,29.07,19.26,41.84,31.03C459.51,109.45,490,173.67,490,245z"/>
	<path style="fill:#FFDE50;" d="M490,245c0,132.26-104.79,240.04-235.88,244.83C123.03,485.04,18.24,377.26,18.24,245   S123.03,4.96,254.12,0.17C385.21,4.96,490,112.74,490,245z"/>
	<path style="fill:#FFEA94;" d="M410.86,64.7L64.69,410.87c-11.76-12.77-22.17-26.8-31.03-41.85L369.02,33.67   C384.07,42.52,398.09,52.93,410.86,64.7z"/>
	<path style="fill:#FFEA94;" d="M473.1,155.43L155.42,473.11c-22.49-8.84-43.36-20.91-62.03-35.64L437.47,93.39   C452.2,112.06,464.27,132.93,473.1,155.43z"/>
	<path style="fill:#FAA300;" d="M435.38,245c0,105.14-85.24,190.38-190.38,190.38c-36.62,0-70.82-10.34-99.85-28.26   c-12.65-7.8-24.31-17.05-34.77-27.51c-7.69-7.68-14.73-16.03-21.02-24.94c-8.66-12.27-15.91-25.61-21.5-39.78   c-8.28-20.95-12.94-43.73-13.22-67.55c-0.02-0.78-0.02-1.56-0.02-2.34c0-105.14,85.23-190.38,190.38-190.38   c0.78,0,1.57,0,2.35,0.02c23.82,0.28,46.59,4.95,67.54,13.22c14.17,5.6,27.51,12.84,39.78,21.5c8.91,6.3,17.25,13.33,24.94,21.02   c10.46,10.45,19.71,22.12,27.51,34.77C425.04,174.18,435.38,208.38,435.38,245z"/>
	<path style="fill:#FFBD00;" d="M379.61,110.38L110.38,379.61c-7.69-7.68-14.73-16.03-21.02-24.94   c-8.66-12.27-15.91-25.61-21.5-39.78c-8.28-20.95-12.94-43.73-13.22-67.55c-0.02-0.78-0.02-1.56-0.02-2.34   c0-105.14,85.23-190.38,190.38-190.38c0.78,0,1.57,0,2.35,0.02c23.82,0.28,46.59,4.95,67.54,13.22   c14.17,5.6,27.51,12.84,39.78,21.5C363.58,95.66,371.92,102.69,379.61,110.38z"/>
	<path style="fill:#F68E00;" d="M435.375,245c0,105.14-85.24,190.38-190.38,190.38c-3.61,0-7.19-0.1-10.75-0.3   c100.14-5.57,179.62-88.55,179.62-190.08s-79.48-184.51-179.62-190.08c3.56-0.2,7.14-0.3,10.75-0.3   C350.135,54.62,435.375,139.86,435.375,245z"/>
	<path style="fill:#F68E00;" d="M283.068,227.04c-1.35-0.3-2.75-0.46-4.19-0.46h-19.34v-38.67c0-10.77-8.73-19.5-19.5-19.5h-29.36   c-9.62,0-17.45-7.83-17.45-17.45s7.83-17.44,17.45-17.44h59.68c10.77,0,19.5-8.73,19.5-19.5c0-6.01-2.71-11.38-6.98-14.96   c-3.39-2.83-7.75-4.54-12.52-4.54h-59.68c-31.13,0-56.45,25.32-56.45,56.44c0,20.75,11.26,38.93,28,48.74   c8.35,4.9,18.08,7.71,28.45,7.71h9.86v19.17h-47.75c-10.77,0-19.5,8.74-19.5,19.5c0,10.77,8.73,19.5,19.5,19.5h47.75v20.47h-15.71   c-30.17,0-54.72,24.55-54.72,54.72c0,5.8,0.91,11.39,2.59,16.64c7.06,22.06,27.76,38.07,52.13,38.07c2.74,0,5.43-0.2,8.06-0.59   c23.73-3.52,42.54-22.33,46.06-46.06c0.39-2.63,0.59-5.32,0.59-8.06v-75.19h19.34c10.77,0,19.5-8.73,19.5-19.5   C298.378,236.76,291.828,228.95,283.068,227.04z M204.828,356.48c-8.67,0-15.72-7.05-15.72-15.71c0-8.67,7.05-15.72,15.72-15.72   h15.71v15.72C220.538,349.43,213.488,356.48,204.828,356.48z"/>
	<path style="fill:#FFEA94;" d="M303.82,227.04c-1.35-0.3-2.75-0.46-4.19-0.46h-19.34v-38.67c0-10.77-8.73-19.5-19.5-19.5h-29.36   c-9.62,0-17.45-7.83-17.45-17.45s7.83-17.44,17.45-17.44h59.68c10.77,0,19.5-8.73,19.5-19.5c0-6.01-2.71-11.38-6.98-14.96   c-3.39-2.83-7.75-4.54-12.52-4.54h-59.68c-31.13,0-56.45,25.32-56.45,56.44c0,20.75,11.26,38.93,28,48.74   c8.35,4.9,18.08,7.71,28.45,7.71h9.86v19.17h-47.75c-10.77,0-19.5,8.74-19.5,19.5c0,10.77,8.73,19.5,19.5,19.5h47.75v20.47h-15.71   c-30.17,0-54.72,24.55-54.72,54.72c0,5.8,0.91,11.39,2.59,16.64c7.06,22.06,27.76,38.07,52.13,38.07c2.74,0,5.43-0.2,8.06-0.59   c23.73-3.52,42.54-22.33,46.06-46.06c0.39-2.63,0.59-5.32,0.59-8.06v-75.19h19.34c10.77,0,19.5-8.73,19.5-19.5   C319.13,236.76,312.58,228.95,303.82,227.04z M225.58,356.48c-8.67,0-15.72-7.05-15.72-15.71c0-8.67,7.05-15.72,15.72-15.72h15.71   v15.72C241.29,349.43,234.24,356.48,225.58,356.48z"/>
</g>















</svg>
