<?xml version="1.0" encoding="iso-8859-1"?>
<!-- Generator: Adobe Illustrator 19.0.0, SVG Export Plug-In . SVG Version: 6.00 Build 0)  -->
<svg xmlns="http://www.w3.org/2000/svg" xmlns:xlink="http://www.w3.org/1999/xlink" version="1.1" id="Layer_1" x="0px" y="0px" viewBox="0 0 490 490" style="enable-background:new 0 0 490 490;" xml:space="preserve" width="512" height="512">
<g>
	<g>
		<path style="fill:#F0CD00;" d="M490,245c0,135.31-109.69,245-245,245c-71.33,0-135.54-30.48-180.31-79.13    c-11.76-12.77-22.17-26.8-31.03-41.85C12.27,332.64,0,290.25,0,245C0,109.69,109.69,0,245,0c45.26,0,87.65,12.27,124.02,33.67    c15.05,8.85,29.07,19.26,41.84,31.03C459.51,109.45,490,173.67,490,245z"/>
		<path style="fill:#FFDE50;" d="M490,245c0,132.26-104.79,240.04-235.88,244.83C123.03,485.04,18.24,377.26,18.24,245    S123.03,4.96,254.12,0.17C385.21,4.96,490,112.74,490,245z"/>
		<path style="fill:#FFEA94;" d="M410.86,64.7L64.69,410.87c-11.76-12.77-22.17-26.8-31.03-41.85L369.02,33.67    C384.07,42.52,398.09,52.93,410.86,64.7z"/>
		<path style="fill:#FFEA94;" d="M473.1,155.43L155.42,473.11c-22.49-8.84-43.36-20.91-62.03-35.64L437.47,93.39    C452.2,112.06,464.27,132.93,473.1,155.43z"/>
		<path style="fill:#FAA300;" d="M435.38,245c0,105.14-85.24,190.38-190.38,190.38c-36.62,0-70.82-10.34-99.85-28.26    c-12.65-7.8-24.31-17.05-34.77-27.51c-7.69-7.68-14.73-16.03-21.02-24.94c-8.66-12.27-15.91-25.61-21.5-39.78    c-8.28-20.95-12.94-43.73-13.22-67.55c-0.02-0.78-0.02-1.56-0.02-2.34c0-105.14,85.23-190.38,190.38-190.38    c0.78,0,1.57,0,2.35,0.02c23.82,0.28,46.59,4.95,67.54,13.22c14.17,5.6,27.51,12.84,39.78,21.5c8.91,6.3,17.25,13.33,24.94,21.02    c10.46,10.45,19.71,22.12,27.51,34.77C425.04,174.18,435.38,208.38,435.38,245z"/>
		<path style="fill:#FFBD00;" d="M379.61,110.38L110.38,379.61c-7.69-7.68-14.73-16.03-21.02-24.94    c-8.66-12.27-15.91-25.61-21.5-39.78c-8.28-20.95-12.94-43.73-13.22-67.55c-0.02-0.78-0.02-1.56-0.02-2.34    c0-105.14,85.23-190.38,190.38-190.38c0.78,0,1.57,0,2.35,0.02c23.82,0.28,46.59,4.95,67.54,13.22    c14.17,5.6,27.51,12.84,39.78,21.5C363.58,95.66,371.92,102.69,379.61,110.38z"/>
		<path style="fill:#F68E00;" d="M435.375,245c0,105.14-85.24,190.38-190.38,190.38c-3.61,0-7.19-0.1-10.75-0.3    c100.14-5.57,179.62-88.55,179.62-190.08s-79.48-184.51-179.62-190.08c3.56-0.2,7.14-0.3,10.75-0.3    C350.135,54.62,435.375,139.86,435.375,245z"/>
	</g>
	<path style="fill:#F68E00;" d="M245.412,256.444L245.412,256.444c-3.486-6.083-3.478-13.56,0.02-19.636l0.188-0.326   c4.448-7.726,12.722-12.293,21.637-12.345c20.107-0.117,39.597-10.951,49.764-30.186c13.73-25.977,3.79-60.544-21.612-75.311   c-27.086-15.746-61.792-6.489-77.446,20.625c-10.471,18.136-9.752,39.652,0.002,56.578c4.424,7.677,4.532,17.098,0.111,24.776l0,0   c-3.594,6.243-10.249,10.09-17.453,10.09h-1.061c-7.534,0-14.322-4.266-17.894-10.899c-9.866-18.322-29.53-30.584-51.984-29.753   c-29.374,1.087-54.35,26.981-54.437,56.375c-0.092,31.329,25.277,56.755,56.585,56.755c21.717,0,40.566-12.239,50.049-30.192   c3.4-6.438,10.045-10.5,17.325-10.5h1.704c7.01,0,13.485,3.752,16.97,9.834l0,0c3.637,6.346,3.359,14.147-0.544,20.333   c-11.198,17.748-12.112,41.121-0.093,60.308c15.074,24.063,49.165,33.24,74.279,19.99c28.553-15.064,38.643-50.666,22.65-78.367   c-10.808-18.72-30.695-28.918-50.888-28.259C255.948,266.571,249.062,262.813,245.412,256.444z"/>
	<path style="fill:#FFEA94;" d="M270.414,256.444L270.414,256.444c-3.486-6.083-3.478-13.56,0.02-19.636l0.188-0.326   c4.448-7.726,12.722-12.293,21.637-12.345c20.107-0.117,39.597-10.951,49.764-30.186c13.73-25.977,3.79-60.544-21.612-75.311   c-27.086-15.746-61.792-6.489-77.446,20.625c-10.471,18.136-9.752,39.652,0.002,56.578c4.424,7.677,4.532,17.098,0.111,24.776l0,0   c-3.594,6.243-10.249,10.09-17.453,10.09h-1.061c-7.534,0-14.322-4.266-17.894-10.899c-9.866-18.322-29.53-30.584-51.984-29.753   c-29.374,1.087-54.35,26.981-54.437,56.375c-0.092,31.329,25.277,56.755,56.585,56.755c21.717,0,40.566-12.239,50.049-30.192   c3.4-6.438,10.045-10.5,17.325-10.5h1.704c7.01,0,13.485,3.752,16.97,9.834l0,0c3.637,6.346,3.359,14.147-0.544,20.333   c-11.198,17.748-12.112,41.121-0.093,60.308c15.074,24.063,49.165,33.24,74.279,19.99c28.553-15.064,38.643-50.666,22.65-78.367   c-10.808-18.72-30.695-28.918-50.888-28.259C280.949,266.571,274.064,262.813,270.414,256.444z"/>
</g>















</svg>
