<?xml version="1.0" encoding="iso-8859-1"?>
<!-- Generator: Adobe Illustrator 19.0.0, SVG Export Plug-In . SVG Version: 6.00 Build 0)  -->
<svg xmlns="http://www.w3.org/2000/svg" xmlns:xlink="http://www.w3.org/1999/xlink" version="1.1" id="Layer_1" x="0px" y="0px" viewBox="0 0 490 490" style="enable-background:new 0 0 490 490;" xml:space="preserve" width="512" height="512">
<g>
	<g>
		<path style="fill:#F0CD00;" d="M490,245c0,135.31-109.69,245-245,245c-71.33,0-135.54-30.48-180.31-79.13    c-11.76-12.77-22.17-26.8-31.03-41.85C12.27,332.64,0,290.25,0,245C0,109.69,109.69,0,245,0c45.26,0,87.65,12.27,124.02,33.67    c15.05,8.85,29.07,19.26,41.84,31.03C459.51,109.45,490,173.67,490,245z"/>
		<path style="fill:#FFDE50;" d="M490,245c0,132.26-104.79,240.04-235.88,244.83C123.03,485.04,18.24,377.26,18.24,245    S123.03,4.96,254.12,0.17C385.21,4.96,490,112.74,490,245z"/>
		<path style="fill:#FFEA94;" d="M410.86,64.7L64.69,410.87c-11.76-12.77-22.17-26.8-31.03-41.85L369.02,33.67    C384.07,42.52,398.09,52.93,410.86,64.7z"/>
		<path style="fill:#FFEA94;" d="M473.1,155.43L155.42,473.11c-22.49-8.84-43.36-20.91-62.03-35.64L437.47,93.39    C452.2,112.06,464.27,132.93,473.1,155.43z"/>
		<path style="fill:#FAA300;" d="M435.38,245c0,105.14-85.24,190.38-190.38,190.38c-36.62,0-70.82-10.34-99.85-28.26    c-12.65-7.8-24.31-17.05-34.77-27.51c-7.69-7.68-14.73-16.03-21.02-24.94c-8.66-12.27-15.91-25.61-21.5-39.78    c-8.28-20.95-12.94-43.73-13.22-67.55c-0.02-0.78-0.02-1.56-0.02-2.34c0-105.14,85.23-190.38,190.38-190.38    c0.78,0,1.57,0,2.35,0.02c23.82,0.28,46.59,4.95,67.54,13.22c14.17,5.6,27.51,12.84,39.78,21.5c8.91,6.3,17.25,13.33,24.94,21.02    c10.46,10.45,19.71,22.12,27.51,34.77C425.04,174.18,435.38,208.38,435.38,245z"/>
		<path style="fill:#FFBD00;" d="M379.61,110.38L110.38,379.61c-7.69-7.68-14.73-16.03-21.02-24.94    c-8.66-12.27-15.91-25.61-21.5-39.78c-8.28-20.95-12.94-43.73-13.22-67.55c-0.02-0.78-0.02-1.56-0.02-2.34    c0-105.14,85.23-190.38,190.38-190.38c0.78,0,1.57,0,2.35,0.02c23.82,0.28,46.59,4.95,67.54,13.22    c14.17,5.6,27.51,12.84,39.78,21.5C363.58,95.66,371.92,102.69,379.61,110.38z"/>
		<path style="fill:#F68E00;" d="M435.375,245c0,105.14-85.24,190.38-190.38,190.38c-3.61,0-7.19-0.1-10.75-0.3    c100.14-5.57,179.62-88.55,179.62-190.08s-79.48-184.51-179.62-190.08c3.56-0.2,7.14-0.3,10.75-0.3    C350.135,54.62,435.375,139.86,435.375,245z"/>
	</g>
	<path style="fill:#F68E00;" d="M356.158,328.728c-8.26-18.191-19.381-27.63-30.824-32.589c5.052-16.089,7.704-33.377,7.704-51.138   c0-36.495-11.166-71.009-31.44-97.183c-21.445-27.686-50.426-42.934-81.602-42.934s-60.156,15.248-81.603,42.934   c-20.274,26.174-31.44,60.688-31.44,97.183s11.166,71.009,31.44,97.183c21.446,27.687,50.427,42.934,81.603,42.934   s60.156-15.248,81.602-42.934c2.419-3.123,4.705-6.368,6.861-9.718c4.655,1.82,7.931,5.429,11.28,12.802   c3.349,7.375,10.617,11.735,18.222,11.735c2.766,0,5.576-0.577,8.258-1.794C356.275,350.641,360.725,338.785,356.158,328.728z    M170.016,317.689c-14.873-19.2-23.063-45.014-23.063-72.687s8.19-53.488,23.063-72.688c13.701-17.688,31.45-27.429,49.979-27.429   c18.528,0,36.278,9.741,49.979,27.429c14.872,19.2,23.063,45.015,23.063,72.688c0,16.024-2.763,31.414-7.962,45.269   c-12.18-0.538-16.739-2.31-21.835-12.16c-5.074-9.81-17.139-13.649-26.954-8.574c-9.811,5.076-13.648,17.143-8.573,26.954   c9.339,18.052,21.797,26.386,34.141,30.308c-12.27,11.893-26.807,18.32-41.857,18.32   C201.466,345.118,183.717,335.377,170.016,317.689z"/>
	<path style="fill:#FFEA94;" d="M381.159,328.728c-8.26-18.191-19.381-27.63-30.824-32.589c5.052-16.089,7.704-33.377,7.704-51.138   c0-36.495-11.166-71.009-31.44-97.183c-21.445-27.686-50.426-42.934-81.602-42.934s-60.156,15.248-81.603,42.934   c-20.274,26.174-31.44,60.688-31.44,97.183s11.166,71.009,31.44,97.183c21.446,27.687,50.427,42.934,81.603,42.934   s60.156-15.248,81.602-42.934c2.419-3.123,4.705-6.368,6.861-9.718c4.655,1.82,7.931,5.429,11.28,12.802   c3.349,7.375,10.617,11.735,18.222,11.735c2.766,0,5.576-0.577,8.258-1.794C381.276,350.641,385.727,338.785,381.159,328.728z    M195.018,317.689c-14.873-19.2-23.063-45.014-23.063-72.687s8.19-53.488,23.063-72.688c13.701-17.688,31.45-27.429,49.979-27.429   c18.528,0,36.278,9.741,49.979,27.429c14.872,19.2,23.063,45.015,23.063,72.688c0,16.024-2.763,31.414-7.962,45.269   c-12.18-0.538-16.739-2.31-21.835-12.16c-5.074-9.81-17.139-13.649-26.954-8.574c-9.811,5.076-13.648,17.143-8.573,26.954   c9.339,18.052,21.797,26.386,34.141,30.308c-12.271,11.893-26.807,18.32-41.857,18.32   C226.468,345.118,208.719,335.377,195.018,317.689z"/>
</g>















</svg>
