<?xml version="1.0" encoding="iso-8859-1"?>
<!-- Generator: Adobe Illustrator 19.0.0, SVG Export Plug-In . SVG Version: 6.00 Build 0)  -->
<svg xmlns="http://www.w3.org/2000/svg" xmlns:xlink="http://www.w3.org/1999/xlink" version="1.1" id="Layer_1" x="0px" y="0px" viewBox="0 0 490 490" style="enable-background:new 0 0 490 490;" xml:space="preserve" width="512" height="512">
<g>
	<g>
		<path style="fill:#F0CD00;" d="M490,245c0,135.31-109.69,245-245,245c-71.33,0-135.54-30.48-180.31-79.13    c-11.76-12.77-22.17-26.8-31.03-41.85C12.27,332.64,0,290.25,0,245C0,109.69,109.69,0,245,0c45.26,0,87.65,12.27,124.02,33.67    c15.05,8.85,29.07,19.26,41.84,31.03C459.51,109.45,490,173.67,490,245z"/>
		<path style="fill:#FFDE50;" d="M490,245c0,132.26-104.79,240.04-235.88,244.83C123.03,485.04,18.24,377.26,18.24,245    S123.03,4.96,254.12,0.17C385.21,4.96,490,112.74,490,245z"/>
		<path style="fill:#FFEA94;" d="M410.86,64.7L64.69,410.87c-11.76-12.77-22.17-26.8-31.03-41.85L369.02,33.67    C384.07,42.52,398.09,52.93,410.86,64.7z"/>
		<path style="fill:#FFEA94;" d="M473.1,155.43L155.42,473.11c-22.49-8.84-43.36-20.91-62.03-35.64L437.47,93.39    C452.2,112.06,464.27,132.93,473.1,155.43z"/>
		<path style="fill:#FAA300;" d="M435.38,245c0,105.14-85.24,190.38-190.38,190.38c-36.62,0-70.82-10.34-99.85-28.26    c-12.65-7.8-24.31-17.05-34.77-27.51c-7.69-7.68-14.73-16.03-21.02-24.94c-8.66-12.27-15.91-25.61-21.5-39.78    c-8.28-20.95-12.94-43.73-13.22-67.55c-0.02-0.78-0.02-1.56-0.02-2.34c0-105.14,85.23-190.38,190.38-190.38    c0.78,0,1.57,0,2.35,0.02c23.82,0.28,46.59,4.95,67.54,13.22c14.17,5.6,27.51,12.84,39.78,21.5c8.91,6.3,17.25,13.33,24.94,21.02    c10.46,10.45,19.71,22.12,27.51,34.77C425.04,174.18,435.38,208.38,435.38,245z"/>
		<path style="fill:#FFBD00;" d="M379.61,110.38L110.38,379.61c-7.69-7.68-14.73-16.03-21.02-24.94    c-8.66-12.27-15.91-25.61-21.5-39.78c-8.28-20.95-12.94-43.73-13.22-67.55c-0.02-0.78-0.02-1.56-0.02-2.34    c0-105.14,85.23-190.38,190.38-190.38c0.78,0,1.57,0,2.35,0.02c23.82,0.28,46.59,4.95,67.54,13.22    c14.17,5.6,27.51,12.84,39.78,21.5C363.58,95.66,371.92,102.69,379.61,110.38z"/>
		<path style="fill:#F68E00;" d="M435.375,245c0,105.14-85.24,190.38-190.38,190.38c-3.61,0-7.19-0.1-10.75-0.3    c100.14-5.57,179.62-88.55,179.62-190.08s-79.48-184.51-179.62-190.08c3.56-0.2,7.14-0.3,10.75-0.3    C350.135,54.62,435.375,139.86,435.375,245z"/>
	</g>
	<path style="fill:#F68E00;" d="M339.538,231.721c-5.329-42.694-32.879-77.9-70.15-94.612V110.69c0-11.046-8.954-20-20-20   c-11.046,0-20,8.954-20,20v16.284c-2.976-0.223-5.979-0.341-9.006-0.341c-3.813,0-7.584,0.187-11.308,0.536V110.69   c0-11.046-8.954-20-20-20s-20,8.954-20,20v27.472c-40.619,19.276-68.777,60.687-68.777,108.557   c0,30.743,11.618,58.821,30.687,80.085h-10.687c-11.046,0-20,8.954-20,20s8.954,20,20,20h180.855c11.046,0,20-8.954,20-20   s-8.954-20-20-20h-80.77c-44.159,0-80.085-35.926-80.085-80.085c0-24.652,11.203-46.73,28.777-61.432v48.227   c0,11.046,8.954,20,20,20s20-8.954,20-20v-66.067c3.697-0.525,7.468-0.813,11.308-0.813c3.042,0,6.044,0.192,9.006,0.526v66.354   c0,11.046,8.954,20,20,20c11.046,0,20-8.954,20-20V183.42c16.336,12.644,27.741,31.482,30.459,53.255   c1.367,10.961,11.37,18.739,22.323,17.369C333.13,252.676,340.906,242.681,339.538,231.721z"/>
	<path style="fill:#FFEA94;" d="M364.539,231.721c-5.329-42.694-32.879-77.9-70.15-94.612V110.69c0-11.046-8.954-20-20-20   s-20,8.954-20,20v16.284c-2.976-0.223-5.979-0.341-9.006-0.341c-3.813,0-7.584,0.187-11.308,0.536V110.69c0-11.046-8.954-20-20-20   s-20,8.954-20,20v27.472c-40.619,19.276-68.777,60.687-68.777,108.557c0,30.743,11.618,58.821,30.687,80.085h-10.687   c-11.046,0-20,8.954-20,20s8.954,20,20,20h180.854c11.046,0,20-8.954,20-20s-8.954-20-20-20h-80.77   c-44.159,0-80.085-35.926-80.085-80.085c0-24.652,11.203-46.73,28.777-61.432v48.227c0,11.046,8.954,20,20,20s20-8.954,20-20   v-66.067c3.697-0.525,7.468-0.813,11.308-0.813c3.042,0,6.044,0.192,9.006,0.526v66.354c0,11.046,8.954,20,20,20s20-8.954,20-20   V183.42c16.336,12.644,27.741,31.482,30.459,53.255c1.367,10.961,11.37,18.739,22.323,17.369   C358.131,252.676,365.908,242.681,364.539,231.721z"/>
</g>















</svg>
