<?xml version="1.0" encoding="iso-8859-1"?>
<!-- Generator: Adobe Illustrator 19.0.0, SVG Export Plug-In . SVG Version: 6.00 Build 0)  -->
<svg xmlns="http://www.w3.org/2000/svg" xmlns:xlink="http://www.w3.org/1999/xlink" version="1.1" id="Layer_1" x="0px" y="0px" viewBox="0 0 490 490" style="enable-background:new 0 0 490 490;" xml:space="preserve" width="512" height="512">
<g>
	<g>
		<path style="fill:#F0CD00;" d="M490,245c0,135.31-109.69,245-245,245c-71.33,0-135.54-30.48-180.31-79.13    c-11.76-12.77-22.17-26.8-31.03-41.85C12.27,332.64,0,290.25,0,245C0,109.69,109.69,0,245,0c45.26,0,87.65,12.27,124.02,33.67    c15.05,8.85,29.07,19.26,41.84,31.03C459.51,109.45,490,173.67,490,245z"/>
		<path style="fill:#FFDE50;" d="M490,245c0,132.26-104.79,240.04-235.88,244.83C123.03,485.04,18.24,377.26,18.24,245    S123.03,4.96,254.12,0.17C385.21,4.96,490,112.74,490,245z"/>
		<path style="fill:#FFEA94;" d="M410.86,64.7L64.69,410.87c-11.76-12.77-22.17-26.8-31.03-41.85L369.02,33.67    C384.07,42.52,398.09,52.93,410.86,64.7z"/>
		<path style="fill:#FFEA94;" d="M473.1,155.43L155.42,473.11c-22.49-8.84-43.36-20.91-62.03-35.64L437.47,93.39    C452.2,112.06,464.27,132.93,473.1,155.43z"/>
		<path style="fill:#FAA300;" d="M435.38,245c0,105.14-85.24,190.38-190.38,190.38c-36.62,0-70.82-10.34-99.85-28.26    c-12.65-7.8-24.31-17.05-34.77-27.51c-7.69-7.68-14.73-16.03-21.02-24.94c-8.66-12.27-15.91-25.61-21.5-39.78    c-8.28-20.95-12.94-43.73-13.22-67.55c-0.02-0.78-0.02-1.56-0.02-2.34c0-105.14,85.23-190.38,190.38-190.38    c0.78,0,1.57,0,2.35,0.02c23.82,0.28,46.59,4.95,67.54,13.22c14.17,5.6,27.51,12.84,39.78,21.5c8.91,6.3,17.25,13.33,24.94,21.02    c10.46,10.45,19.71,22.12,27.51,34.77C425.04,174.18,435.38,208.38,435.38,245z"/>
		<path style="fill:#FFBD00;" d="M379.61,110.38L110.38,379.61c-7.69-7.68-14.73-16.03-21.02-24.94    c-8.66-12.27-15.91-25.61-21.5-39.78c-8.28-20.95-12.94-43.73-13.22-67.55c-0.02-0.78-0.02-1.56-0.02-2.34    c0-105.14,85.23-190.38,190.38-190.38c0.78,0,1.57,0,2.35,0.02c23.82,0.28,46.59,4.95,67.54,13.22    c14.17,5.6,27.51,12.84,39.78,21.5C363.58,95.66,371.92,102.69,379.61,110.38z"/>
		<path style="fill:#F68E00;" d="M435.375,245c0,105.14-85.24,190.38-190.38,190.38c-3.61,0-7.19-0.1-10.75-0.3    c100.14-5.57,179.62-88.55,179.62-190.08s-79.48-184.51-179.62-190.08c3.56-0.2,7.14-0.3,10.75-0.3    C350.135,54.62,435.375,139.86,435.375,245z"/>
	</g>
	<path style="fill:#F68E00;" d="M321.65,256.95h-87.243c14.175-6.777,28.409-14.071,40.627-23.898h46.617   c10.557,0,19.115-8.558,19.115-19.115c0-10.557-8.558-19.115-19.115-19.115h-19.53c1.983-6.603,2.985-13.546,2.985-20.815   c0-49.687-40.423-90.11-90.111-90.11c-36.294,0-68.882,21.6-83.021,55.029c-4.113,9.723,0.436,20.939,10.159,25.052   c9.723,4.112,20.939-0.435,25.052-10.159c8.143-19.252,26.909-31.692,47.81-31.692c28.607,0,51.88,23.273,51.88,51.879   c0,8.134-2.49,14.844-7.164,20.815H108.34c-10.557,0-19.115,8.558-19.115,19.115c0,10.557,8.558,19.115,19.115,19.115h87.158   c-12.542,6.017-27.11,13.649-39.749,23.898H108.34c-10.557,0-19.115,8.558-19.115,19.115s8.558,19.115,19.115,19.115h19.681   c-2.008,6.37-3.137,13.286-3.137,20.815c0,49.687,40.423,90.11,90.11,90.11c18.421,0,36.14-5.526,51.24-15.979   c14.732-10.197,25.994-24.366,32.568-40.974c3.886-9.816-0.921-20.923-10.737-24.809c-9.815-3.886-20.923,0.921-24.809,10.737   c-7.887,19.922-26.832,32.795-48.263,32.795c-28.606,0-51.879-23.273-51.879-51.879c0-7.835,2.962-14.667,7.995-20.815h150.54   c10.557,0,19.115-8.558,19.115-19.115S332.207,256.95,321.65,256.95z"/>
	<path style="fill:#FFEA94;" d="M351.652,256.95h-87.243c14.175-6.777,28.409-14.071,40.627-23.898h46.617   c10.557,0,19.115-8.558,19.115-19.115c0-10.557-8.558-19.115-19.115-19.115h-19.53c1.983-6.603,2.985-13.546,2.985-20.815   c0-49.687-40.423-90.11-90.111-90.11c-36.294,0-68.882,21.6-83.021,55.029c-4.113,9.723,0.436,20.939,10.159,25.052   c9.723,4.112,20.939-0.435,25.052-10.159c8.143-19.252,26.909-31.692,47.81-31.692c28.607,0,51.88,23.273,51.88,51.879   c0,8.134-2.49,14.844-7.164,20.815H138.342c-10.557,0-19.115,8.558-19.115,19.115c0,10.557,8.558,19.115,19.115,19.115H225.5   c-12.542,6.017-27.11,13.649-39.749,23.898h-47.409c-10.557,0-19.115,8.558-19.115,19.115s8.558,19.115,19.115,19.115h19.681   c-2.008,6.37-3.137,13.286-3.137,20.815c0,49.687,40.423,90.11,90.11,90.11c18.421,0,36.14-5.526,51.24-15.979   c14.732-10.197,25.994-24.366,32.568-40.974c3.886-9.816-0.921-20.923-10.737-24.809c-9.815-3.886-20.923,0.921-24.809,10.737   c-7.887,19.922-26.832,32.795-48.263,32.795c-28.606,0-51.879-23.273-51.879-51.879c0-7.835,2.962-14.667,7.995-20.815h150.54   c10.557,0,19.115-8.558,19.115-19.115S362.209,256.95,351.652,256.95z"/>
</g>















</svg>
