<?xml version="1.0" encoding="iso-8859-1"?>
<!-- Generator: Adobe Illustrator 19.0.0, SVG Export Plug-In . SVG Version: 6.00 Build 0)  -->
<svg xmlns="http://www.w3.org/2000/svg" xmlns:xlink="http://www.w3.org/1999/xlink" version="1.1" id="Layer_1" x="0px" y="0px" viewBox="0 0 490 490" style="enable-background:new 0 0 490 490;" xml:space="preserve" width="512" height="512">
<g>
	<g>
		<path style="fill:#F0CD00;" d="M490,245c0,135.31-109.69,245-245,245c-71.33,0-135.54-30.48-180.31-79.13    c-11.76-12.77-22.17-26.8-31.03-41.85C12.27,332.64,0,290.25,0,245C0,109.69,109.69,0,245,0c45.26,0,87.65,12.27,124.02,33.67    c15.05,8.85,29.07,19.26,41.84,31.03C459.51,109.45,490,173.67,490,245z"/>
		<path style="fill:#FFDE50;" d="M490,245c0,132.26-104.79,240.04-235.88,244.83C123.03,485.04,18.24,377.26,18.24,245    S123.03,4.96,254.12,0.17C385.21,4.96,490,112.74,490,245z"/>
		<path style="fill:#FFEA94;" d="M410.86,64.7L64.69,410.87c-11.76-12.77-22.17-26.8-31.03-41.85L369.02,33.67    C384.07,42.52,398.09,52.93,410.86,64.7z"/>
		<path style="fill:#FFEA94;" d="M473.1,155.43L155.42,473.11c-22.49-8.84-43.36-20.91-62.03-35.64L437.47,93.39    C452.2,112.06,464.27,132.93,473.1,155.43z"/>
		<path style="fill:#FAA300;" d="M435.38,245c0,105.14-85.24,190.38-190.38,190.38c-36.62,0-70.82-10.34-99.85-28.26    c-12.65-7.8-24.31-17.05-34.77-27.51c-7.69-7.68-14.73-16.03-21.02-24.94c-8.66-12.27-15.91-25.61-21.5-39.78    c-8.28-20.95-12.94-43.73-13.22-67.55c-0.02-0.78-0.02-1.56-0.02-2.34c0-105.14,85.23-190.38,190.38-190.38    c0.78,0,1.57,0,2.35,0.02c23.82,0.28,46.59,4.95,67.54,13.22c14.17,5.6,27.51,12.84,39.78,21.5c8.91,6.3,17.25,13.33,24.94,21.02    c10.46,10.45,19.71,22.12,27.51,34.77C425.04,174.18,435.38,208.38,435.38,245z"/>
		<path style="fill:#FFBD00;" d="M379.61,110.38L110.38,379.61c-7.69-7.68-14.73-16.03-21.02-24.94    c-8.66-12.27-15.91-25.61-21.5-39.78c-8.28-20.95-12.94-43.73-13.22-67.55c-0.02-0.78-0.02-1.56-0.02-2.34    c0-105.14,85.23-190.38,190.38-190.38c0.78,0,1.57,0,2.35,0.02c23.82,0.28,46.59,4.95,67.54,13.22    c14.17,5.6,27.51,12.84,39.78,21.5C363.58,95.66,371.92,102.69,379.61,110.38z"/>
		<path style="fill:#F68E00;" d="M435.375,245c0,105.14-85.24,190.38-190.38,190.38c-3.61,0-7.19-0.1-10.75-0.3    c100.14-5.57,179.62-88.55,179.62-190.08s-79.48-184.51-179.62-190.08c3.56-0.2,7.14-0.3,10.75-0.3    C350.135,54.62,435.375,139.86,435.375,245z"/>
	</g>
	<path style="fill:#F68E00;" d="M306.247,285.591c-8.701-5.206-19.976-2.374-25.185,6.33c-7.173,11.989-16.855,21.187-27.797,26.835   l34.587-114.091c5.548,3.1,12.548,3.245,18.394-0.251c8.702-5.207,11.536-16.482,6.33-25.184   c-3.579-5.982-7.6-11.513-11.995-16.553l11.252-37.115c2.943-9.704-2.54-19.957-12.244-22.899   c-9.71-2.945-19.958,2.54-22.899,12.245l-7.098,23.413c-6.399-3.253-13.1-5.773-20.009-7.488l1.598-5.271   c2.943-9.704-2.54-19.957-12.244-22.899c-9.712-2.945-19.958,2.54-22.899,12.245l-4.432,14.618   c-21.868,3.834-41.93,15.526-57.655,33.875c-18.794,21.93-29.145,50.911-29.145,81.602c0,29.844,9.789,58.068,27.61,79.768   l-12.027,39.673c-2.942,9.704,2.54,19.957,12.245,22.899c1.776,0.538,3.569,0.795,5.334,0.795c7.878,0,15.161-5.11,17.565-13.04   l7.48-24.673c6.332,3.462,12.972,6.161,19.833,8.07l-1.803,5.949c-2.942,9.704,2.54,19.957,12.245,22.899   c1.776,0.538,3.569,0.795,5.334,0.795c7.878,0,15.162-5.11,17.566-13.04l4.289-14.149c29.078-4.159,55.399-22.256,72.102-50.173   C317.783,302.072,314.949,290.797,306.247,285.591z M161.53,245.001c0-31.481,15.04-58.776,36.858-71.876l-31.43,103.676   C163.469,267.047,161.53,256.294,161.53,245.001z M194.048,314.021l44.853-147.954c6.926,1.483,13.595,4.309,19.758,8.318   l-45.147,148.923C206.554,321.469,200.002,318.296,194.048,314.021z"/>
	<path style="fill:#FFEA94;" d="M331.249,285.591c-8.701-5.206-19.976-2.374-25.185,6.33c-7.173,11.989-16.855,21.187-27.797,26.835   l34.587-114.091c5.548,3.1,12.548,3.245,18.394-0.251c8.702-5.207,11.536-16.482,6.33-25.184   c-3.579-5.982-7.6-11.513-11.995-16.553l11.252-37.115c2.943-9.704-2.54-19.957-12.244-22.899   c-9.71-2.945-19.958,2.54-22.899,12.245l-7.098,23.413c-6.399-3.253-13.1-5.773-20.009-7.488l1.598-5.271   c2.943-9.704-2.54-19.957-12.244-22.899c-9.712-2.945-19.958,2.54-22.899,12.245l-4.431,14.618   c-21.868,3.834-41.93,15.526-57.655,33.875c-18.794,21.93-29.145,50.911-29.145,81.602c0,29.844,9.789,58.068,27.61,79.768   l-12.027,39.673c-2.942,9.704,2.54,19.957,12.245,22.899c1.776,0.538,3.569,0.795,5.334,0.795c7.878,0,15.161-5.11,17.565-13.04   l7.48-24.673c6.332,3.462,12.972,6.161,19.833,8.07l-1.803,5.949c-2.942,9.704,2.54,19.957,12.245,22.899   c1.776,0.538,3.569,0.795,5.334,0.795c7.878,0,15.162-5.11,17.566-13.04l4.289-14.149c29.078-4.159,55.399-22.256,72.102-50.173   C342.785,302.072,339.951,290.797,331.249,285.591z M186.531,245.001c0-31.481,15.04-58.776,36.858-71.876l-31.43,103.676   C188.47,267.047,186.531,256.294,186.531,245.001z M219.049,314.021l44.853-147.954c6.926,1.483,13.595,4.309,19.758,8.318   l-45.147,148.923C231.555,321.469,225.004,318.296,219.049,314.021z"/>
</g>















</svg>
