<?xml version="1.0" encoding="iso-8859-1"?>
<!-- Generator: Adobe Illustrator 19.0.0, SVG Export Plug-In . SVG Version: 6.00 Build 0)  -->
<svg xmlns="http://www.w3.org/2000/svg" xmlns:xlink="http://www.w3.org/1999/xlink" version="1.1" id="Layer_1" x="0px" y="0px" viewBox="0 0 490 490" style="enable-background:new 0 0 490 490;" xml:space="preserve" width="512" height="512">
<g>
	<g>
		<path style="fill:#F0CD00;" d="M490,245c0,135.31-109.69,245-245,245c-71.33,0-135.54-30.48-180.31-79.13    c-11.76-12.77-22.17-26.8-31.03-41.85C12.27,332.64,0,290.25,0,245C0,109.69,109.69,0,245,0c45.26,0,87.65,12.27,124.02,33.67    c15.05,8.85,29.07,19.26,41.84,31.03C459.51,109.45,490,173.67,490,245z"/>
		<path style="fill:#FFDE50;" d="M490,245c0,132.26-104.79,240.04-235.88,244.83C123.03,485.04,18.24,377.26,18.24,245    S123.03,4.96,254.12,0.17C385.21,4.96,490,112.74,490,245z"/>
		<path style="fill:#FFEA94;" d="M410.86,64.7L64.69,410.87c-11.76-12.77-22.17-26.8-31.03-41.85L369.02,33.67    C384.07,42.52,398.09,52.93,410.86,64.7z"/>
		<path style="fill:#FFEA94;" d="M473.1,155.43L155.42,473.11c-22.49-8.84-43.36-20.91-62.03-35.64L437.47,93.39    C452.2,112.06,464.27,132.93,473.1,155.43z"/>
		<path style="fill:#FAA300;" d="M435.38,245c0,105.14-85.24,190.38-190.38,190.38c-36.62,0-70.82-10.34-99.85-28.26    c-12.65-7.8-24.31-17.05-34.77-27.51c-7.69-7.68-14.73-16.03-21.02-24.94c-8.66-12.27-15.91-25.61-21.5-39.78    c-8.28-20.95-12.94-43.73-13.22-67.55c-0.02-0.78-0.02-1.56-0.02-2.34c0-105.14,85.23-190.38,190.38-190.38    c0.78,0,1.57,0,2.35,0.02c23.82,0.28,46.59,4.95,67.54,13.22c14.17,5.6,27.51,12.84,39.78,21.5c8.91,6.3,17.25,13.33,24.94,21.02    c10.46,10.45,19.71,22.12,27.51,34.77C425.04,174.18,435.38,208.38,435.38,245z"/>
		<path style="fill:#FFBD00;" d="M379.61,110.38L110.38,379.61c-7.69-7.68-14.73-16.03-21.02-24.94    c-8.66-12.27-15.91-25.61-21.5-39.78c-8.28-20.95-12.94-43.73-13.22-67.55c-0.02-0.78-0.02-1.56-0.02-2.34    c0-105.14,85.23-190.38,190.38-190.38c0.78,0,1.57,0,2.35,0.02c23.82,0.28,46.59,4.95,67.54,13.22    c14.17,5.6,27.51,12.84,39.78,21.5C363.58,95.66,371.92,102.69,379.61,110.38z"/>
		<path style="fill:#F68E00;" d="M435.375,245c0,105.14-85.24,190.38-190.38,190.38c-3.61,0-7.19-0.1-10.75-0.3    c100.14-5.57,179.62-88.55,179.62-190.08s-79.48-184.51-179.62-190.08c3.56-0.2,7.14-0.3,10.75-0.3    C350.135,54.62,435.375,139.86,435.375,245z"/>
	</g>
	<path style="fill:#F68E00;" d="M294.417,279.434c-9.99-4.714-21.909-0.435-26.622,9.554c-7.213,15.289-17.582,26.556-29.439,32.549   V168.463c11.857,5.993,22.226,17.26,29.439,32.549c4.712,9.989,16.629,14.268,26.622,9.554c9.989-4.713,14.267-16.632,9.554-26.622   c-14.187-30.068-38.305-50.932-65.615-57.858V102.09c0-11.046-8.954-20-20-20s-20,8.954-20,20v23.907   c-19.624,4.854-37.483,16.864-51.591,34.996c-17.625,22.651-27.331,52.486-27.331,84.007s9.706,61.355,27.331,84.007   c14.108,18.132,31.967,30.142,51.591,34.996v23.907c0,11.046,8.954,20,20,20s20-8.954,20-20v-23.996   c27.31-6.926,51.429-27.79,65.615-57.858C308.684,296.066,304.407,284.147,294.417,279.434z M178.334,304.443   c-12.188-15.665-18.9-36.775-18.9-59.443s6.712-43.779,18.9-59.443c5.897-7.579,12.708-13.317,20.021-17.037V321.48   C191.042,317.761,184.232,312.022,178.334,304.443z"/>
	<path style="fill:#FFEA94;" d="M319.419,279.434c-9.99-4.714-21.909-0.435-26.622,9.554c-7.213,15.289-17.582,26.556-29.439,32.549   V168.463c11.857,5.993,22.226,17.26,29.439,32.549c4.712,9.989,16.629,14.268,26.622,9.554c9.989-4.713,14.267-16.632,9.554-26.622   c-14.187-30.068-38.305-50.932-65.615-57.858V102.09c0-11.046-8.954-20-20-20s-20,8.954-20,20v23.907   c-19.624,4.854-37.483,16.864-51.591,34.996c-17.625,22.651-27.331,52.486-27.331,84.007s9.706,61.355,27.331,84.007   c14.108,18.132,31.967,30.142,51.591,34.996v23.907c0,11.046,8.954,20,20,20s20-8.954,20-20v-23.996   c27.31-6.926,51.429-27.79,65.615-57.858C333.686,296.066,329.408,284.147,319.419,279.434z M203.336,304.443   c-12.188-15.665-18.9-36.775-18.9-59.443s6.712-43.779,18.9-59.443c5.897-7.579,12.708-13.317,20.021-17.037V321.48   C216.044,317.761,209.233,312.022,203.336,304.443z"/>
</g>















</svg>
