<?xml version="1.0" encoding="iso-8859-1"?>
<!-- Generator: Adobe Illustrator 19.0.0, SVG Export Plug-In . SVG Version: 6.00 Build 0)  -->
<svg xmlns="http://www.w3.org/2000/svg" xmlns:xlink="http://www.w3.org/1999/xlink" version="1.1" id="Layer_1" x="0px" y="0px" viewBox="0 0 490 490" style="enable-background:new 0 0 490 490;" xml:space="preserve" width="512" height="512">
<g>
	<g>
		<path style="fill:#F0CD00;" d="M490,245c0,135.31-109.69,245-245,245c-71.33,0-135.54-30.48-180.31-79.13    c-11.76-12.77-22.17-26.8-31.03-41.85C12.27,332.64,0,290.25,0,245C0,109.69,109.69,0,245,0c45.26,0,87.65,12.27,124.02,33.67    c15.05,8.85,29.07,19.26,41.84,31.03C459.51,109.45,490,173.67,490,245z"/>
		<path style="fill:#FFDE50;" d="M490,245c0,132.26-104.79,240.04-235.88,244.83C123.03,485.04,18.24,377.26,18.24,245    S123.03,4.96,254.12,0.17C385.21,4.96,490,112.74,490,245z"/>
		<path style="fill:#FFEA94;" d="M410.86,64.7L64.69,410.87c-11.76-12.77-22.17-26.8-31.03-41.85L369.02,33.67    C384.07,42.52,398.09,52.93,410.86,64.7z"/>
		<path style="fill:#FFEA94;" d="M473.1,155.43L155.42,473.11c-22.49-8.84-43.36-20.91-62.03-35.64L437.47,93.39    C452.2,112.06,464.27,132.93,473.1,155.43z"/>
		<path style="fill:#FAA300;" d="M435.38,245c0,105.14-85.24,190.38-190.38,190.38c-36.62,0-70.82-10.34-99.85-28.26    c-12.65-7.8-24.31-17.05-34.77-27.51c-7.69-7.68-14.73-16.03-21.02-24.94c-8.66-12.27-15.91-25.61-21.5-39.78    c-8.28-20.95-12.94-43.73-13.22-67.55c-0.02-0.78-0.02-1.56-0.02-2.34c0-105.14,85.23-190.38,190.38-190.38    c0.78,0,1.57,0,2.35,0.02c23.82,0.28,46.59,4.95,67.54,13.22c14.17,5.6,27.51,12.84,39.78,21.5c8.91,6.3,17.25,13.33,24.94,21.02    c10.46,10.45,19.71,22.12,27.51,34.77C425.04,174.18,435.38,208.38,435.38,245z"/>
		<path style="fill:#FFBD00;" d="M379.61,110.38L110.38,379.61c-7.69-7.68-14.73-16.03-21.02-24.94    c-8.66-12.27-15.91-25.61-21.5-39.78c-8.28-20.95-12.94-43.73-13.22-67.55c-0.02-0.78-0.02-1.56-0.02-2.34    c0-105.14,85.23-190.38,190.38-190.38c0.78,0,1.57,0,2.35,0.02c23.82,0.28,46.59,4.95,67.54,13.22    c14.17,5.6,27.51,12.84,39.78,21.5C363.58,95.66,371.92,102.69,379.61,110.38z"/>
		<path style="fill:#F68E00;" d="M435.375,245c0,105.14-85.24,190.38-190.38,190.38c-3.61,0-7.19-0.1-10.75-0.3    c100.14-5.57,179.62-88.55,179.62-190.08s-79.48-184.51-179.62-190.08c3.56-0.2,7.14-0.3,10.75-0.3    C350.135,54.62,435.375,139.86,435.375,245z"/>
	</g>
	<g>
		<path style="fill:#F68E00;" d="M132.134,153.567h174.43c11.046,0,20-8.954,20-20s-8.954-20-20-20h-174.43    c-11.046,0-20,8.954-20,20S121.089,153.567,132.134,153.567z"/>
		<path style="fill:#F68E00;" d="M332.016,324.384c-7.81-7.811-20.474-7.811-28.284,0l-23.482,23.482V223.622h26.315    c11.046,0,20-8.954,20-20s-8.954-20-20-20h-174.43c-11.046,0-20,8.954-20,20s8.954,20,20,20h40.229    c0.65,19.408,1.128,41.077-5.193,59.805c-7.116,21.084-21.861,35.744-46.402,46.135c-10.171,4.307-14.926,16.044-10.619,26.215    c3.229,7.626,10.635,12.207,18.426,12.207c2.601,0,5.244-0.511,7.79-1.588c34.853-14.758,57.969-38.369,68.705-70.178    c8.415-24.932,8.022-51.036,7.316-72.596h27.864v130.981c0,15.104,9.016,28.597,22.97,34.377    c4.631,1.918,9.477,2.852,14.277,2.851c9.663,0,19.138-3.782,26.273-10.917l28.246-28.246    C339.827,344.858,339.827,332.195,332.016,324.384z"/>
	</g>
	<g>
		<path style="fill:#FFEA94;" d="M157.136,153.567h174.43c11.046,0,20-8.954,20-20s-8.954-20-20-20h-174.43    c-11.046,0-20,8.954-20,20S146.09,153.567,157.136,153.567z"/>
		<path style="fill:#FFEA94;" d="M357.018,324.384c-7.81-7.811-20.474-7.811-28.284,0l-23.482,23.482V223.622h26.315    c11.046,0,20-8.954,20-20s-8.954-20-20-20h-174.43c-11.046,0-20,8.954-20,20s8.954,20,20,20h40.229    c0.65,19.408,1.128,41.077-5.193,59.805c-7.116,21.084-21.861,35.744-46.402,46.135c-10.171,4.307-14.926,16.044-10.619,26.215    c3.229,7.626,10.635,12.207,18.426,12.207c2.601,0,5.244-0.511,7.79-1.588c34.853-14.758,57.969-38.369,68.705-70.178    c8.415-24.932,8.022-51.036,7.316-72.596h27.864v130.981c0,15.104,9.016,28.597,22.97,34.377    c4.631,1.918,9.477,2.852,14.277,2.851c9.663,0,19.138-3.782,26.273-10.917l28.246-28.246    C364.828,344.858,364.828,332.195,357.018,324.384z"/>
	</g>
</g>















</svg>
