<?xml version="1.0" encoding="iso-8859-1"?>
<!-- Generator: Adobe Illustrator 19.0.0, SVG Export Plug-In . SVG Version: 6.00 Build 0)  -->
<svg xmlns="http://www.w3.org/2000/svg" xmlns:xlink="http://www.w3.org/1999/xlink" version="1.1" id="Layer_1" x="0px" y="0px" viewBox="0 0 490 490" style="enable-background:new 0 0 490 490;" xml:space="preserve" width="512" height="512">
<g>
	<g>
		<path style="fill:#F0CD00;" d="M490,245c0,135.31-109.69,245-245,245c-71.33,0-135.54-30.48-180.31-79.13    c-11.76-12.77-22.17-26.8-31.03-41.85C12.27,332.64,0,290.25,0,245C0,109.69,109.69,0,245,0c45.26,0,87.65,12.27,124.02,33.67    c15.05,8.85,29.07,19.26,41.84,31.03C459.51,109.45,490,173.67,490,245z"/>
		<path style="fill:#FFDE50;" d="M490,245c0,132.26-104.79,240.04-235.88,244.83C123.03,485.04,18.24,377.26,18.24,245    S123.03,4.96,254.12,0.17C385.21,4.96,490,112.74,490,245z"/>
		<path style="fill:#FFEA94;" d="M410.86,64.7L64.69,410.87c-11.76-12.77-22.17-26.8-31.03-41.85L369.02,33.67    C384.07,42.52,398.09,52.93,410.86,64.7z"/>
		<path style="fill:#FFEA94;" d="M473.1,155.43L155.42,473.11c-22.49-8.84-43.36-20.91-62.03-35.64L437.47,93.39    C452.2,112.06,464.27,132.93,473.1,155.43z"/>
		<path style="fill:#FAA300;" d="M435.38,245c0,105.14-85.24,190.38-190.38,190.38c-36.62,0-70.82-10.34-99.85-28.26    c-12.65-7.8-24.31-17.05-34.77-27.51c-7.69-7.68-14.73-16.03-21.02-24.94c-8.66-12.27-15.91-25.61-21.5-39.78    c-8.28-20.95-12.94-43.73-13.22-67.55c-0.02-0.78-0.02-1.56-0.02-2.34c0-105.14,85.23-190.38,190.38-190.38    c0.78,0,1.57,0,2.35,0.02c23.82,0.28,46.59,4.95,67.54,13.22c14.17,5.6,27.51,12.84,39.78,21.5c8.91,6.3,17.25,13.33,24.94,21.02    c10.46,10.45,19.71,22.12,27.51,34.77C425.04,174.18,435.38,208.38,435.38,245z"/>
		<path style="fill:#FFBD00;" d="M379.61,110.38L110.38,379.61c-7.69-7.68-14.73-16.03-21.02-24.94    c-8.66-12.27-15.91-25.61-21.5-39.78c-8.28-20.95-12.94-43.73-13.22-67.55c-0.02-0.78-0.02-1.56-0.02-2.34    c0-105.14,85.23-190.38,190.38-190.38c0.78,0,1.57,0,2.35,0.02c23.82,0.28,46.59,4.95,67.54,13.22    c14.17,5.6,27.51,12.84,39.78,21.5C363.58,95.66,371.92,102.69,379.61,110.38z"/>
		<path style="fill:#F68E00;" d="M435.375,245c0,105.14-85.24,190.38-190.38,190.38c-3.61,0-7.19-0.1-10.75-0.3    c100.14-5.57,179.62-88.55,179.62-190.08s-79.48-184.51-179.62-190.08c3.56-0.2,7.14-0.3,10.75-0.3    C350.135,54.62,435.375,139.86,435.375,245z"/>
	</g>
	<path style="fill:#F68E00;" d="M367.044,267.452h-30.292l11.027-30.4h19.265c11.046,0,20-8.954,20-20s-8.954-20-20-20h-4.755   l7.289-20.094c3.767-10.383-1.598-21.854-11.981-25.621c-10.382-3.766-21.854,1.599-25.621,11.981l-12.237,33.733h-60.297   l-12.014-33.64c-2.843-7.96-10.383-13.273-18.835-13.273c-8.453,0-15.992,5.313-18.835,13.273l-12.014,33.64h-60.296   l-12.236-33.733c-3.767-10.384-15.239-15.748-25.621-11.981c-10.384,3.767-15.748,15.238-11.981,25.621l7.289,20.094H82.954   c-11.046,0-20,8.954-20,20s8.954,20,20,20h26.454l11.027,30.4H82.954c-11.046,0-20,8.954-20,20s8.954,20,20,20h51.991   l14.233,39.236c2.871,7.913,10.387,13.181,18.801,13.18c0.017,0,0.034,0,0.05,0c8.434-0.021,15.949-5.331,18.785-13.273   l13.979-39.143h55.602l13.979,39.143c2.836,7.943,10.351,13.252,18.785,13.273c0.017,0,0.033,0,0.05,0   c8.414,0,15.931-5.268,18.801-13.18l14.233-39.236h44.802c11.046,0,20-8.954,20-20S378.09,267.452,367.044,267.452z    M305.229,237.052l-11.027,30.4h-9.618l-10.857-30.4H305.229z M151.958,237.052h31.502l-10.857,30.4h-9.618L151.958,237.052z    M215.077,267.452l10.857-30.4h5.319l10.857,30.4H215.077z"/>
	<path style="fill:#FFEA94;" d="M387.045,267.452h-30.292l11.027-30.4h19.265c11.046,0,20-8.954,20-20s-8.954-20-20-20h-4.755   l7.289-20.094c3.767-10.383-1.598-21.854-11.981-25.621c-10.382-3.766-21.854,1.599-25.621,11.981l-12.237,33.733h-60.297   l-12.014-33.64c-2.843-7.96-10.383-13.273-18.835-13.273c-8.453,0-15.992,5.313-18.835,13.273l-12.014,33.64h-60.296   l-12.236-33.733c-3.767-10.384-15.239-15.748-25.621-11.981c-10.384,3.767-15.748,15.238-11.981,25.621l7.289,20.094h-11.944   c-11.046,0-20,8.954-20,20s8.954,20,20,20h26.454l11.027,30.4h-37.481c-11.046,0-20,8.954-20,20s8.954,20,20,20h51.991   l14.233,39.236c2.871,7.913,10.387,13.181,18.801,13.18c0.017,0,0.034,0,0.05,0c8.434-0.021,15.949-5.331,18.785-13.273   l13.979-39.143h55.602l13.979,39.143c2.836,7.943,10.351,13.252,18.785,13.273c0.017,0,0.033,0,0.05,0   c8.414,0,15.931-5.268,18.801-13.18l14.233-39.236h44.802c11.046,0,20-8.954,20-20S398.091,267.452,387.045,267.452z    M325.23,237.052l-11.027,30.4h-9.618l-10.857-30.4H325.23z M171.959,237.052h31.502l-10.857,30.4h-9.618L171.959,237.052z    M235.078,267.452l10.857-30.4h5.319l10.857,30.4H235.078z"/>
</g>















</svg>
