<?xml version="1.0" encoding="iso-8859-1"?>
<!-- Generator: Adobe Illustrator 19.0.0, SVG Export Plug-In . SVG Version: 6.00 Build 0)  -->
<svg xmlns="http://www.w3.org/2000/svg" xmlns:xlink="http://www.w3.org/1999/xlink" version="1.1" id="Layer_1" x="0px" y="0px" viewBox="0 0 490 490" style="enable-background:new 0 0 490 490;" xml:space="preserve" width="512" height="512">
<g>
	<g>
		<path style="fill:#F0CD00;" d="M490,245c0,135.31-109.69,245-245,245c-71.33,0-135.54-30.48-180.31-79.13    c-11.76-12.77-22.17-26.8-31.03-41.85C12.27,332.64,0,290.25,0,245C0,109.69,109.69,0,245,0c45.26,0,87.65,12.27,124.02,33.67    c15.05,8.85,29.07,19.26,41.84,31.03C459.51,109.45,490,173.67,490,245z"/>
		<path style="fill:#FFDE50;" d="M490,245c0,132.26-104.79,240.04-235.88,244.83C123.03,485.04,18.24,377.26,18.24,245    S123.03,4.96,254.12,0.17C385.21,4.96,490,112.74,490,245z"/>
		<path style="fill:#FFEA94;" d="M410.86,64.7L64.69,410.87c-11.76-12.77-22.17-26.8-31.03-41.85L369.02,33.67    C384.07,42.52,398.09,52.93,410.86,64.7z"/>
		<path style="fill:#FFEA94;" d="M473.1,155.43L155.42,473.11c-22.49-8.84-43.36-20.91-62.03-35.64L437.47,93.39    C452.2,112.06,464.27,132.93,473.1,155.43z"/>
		<path style="fill:#FAA300;" d="M435.38,245c0,105.14-85.24,190.38-190.38,190.38c-36.62,0-70.82-10.34-99.85-28.26    c-12.65-7.8-24.31-17.05-34.77-27.51c-7.69-7.68-14.73-16.03-21.02-24.94c-8.66-12.27-15.91-25.61-21.5-39.78    c-8.28-20.95-12.94-43.73-13.22-67.55c-0.02-0.78-0.02-1.56-0.02-2.34c0-105.14,85.23-190.38,190.38-190.38    c0.78,0,1.57,0,2.35,0.02c23.82,0.28,46.59,4.95,67.54,13.22c14.17,5.6,27.51,12.84,39.78,21.5c8.91,6.3,17.25,13.33,24.94,21.02    c10.46,10.45,19.71,22.12,27.51,34.77C425.04,174.18,435.38,208.38,435.38,245z"/>
		<path style="fill:#FFBD00;" d="M379.61,110.38L110.38,379.61c-7.69-7.68-14.73-16.03-21.02-24.94    c-8.66-12.27-15.91-25.61-21.5-39.78c-8.28-20.95-12.94-43.73-13.22-67.55c-0.02-0.78-0.02-1.56-0.02-2.34    c0-105.14,85.23-190.38,190.38-190.38c0.78,0,1.57,0,2.35,0.02c23.82,0.28,46.59,4.95,67.54,13.22    c14.17,5.6,27.51,12.84,39.78,21.5C363.58,95.66,371.92,102.69,379.61,110.38z"/>
		<path style="fill:#F68E00;" d="M435.375,245c0,105.14-85.24,190.38-190.38,190.38c-3.61,0-7.19-0.1-10.75-0.3    c100.14-5.57,179.62-88.55,179.62-190.08s-79.48-184.51-179.62-190.08c3.56-0.2,7.14-0.3,10.75-0.3    C350.135,54.62,435.375,139.86,435.375,245z"/>
	</g>
	<g>
		<path style="fill:#F68E00;" d="M169.813,140.17h-58.44c-11.046,0-20,8.954-20,20v82.504v82.504c0,11.046,8.954,20,20,20h58.44    c33.774,0,61.252-27.478,61.252-61.252c0-15.876-6.073-30.358-16.016-41.252c9.943-10.894,16.016-25.376,16.016-41.252    C231.065,167.648,203.587,140.17,169.813,140.17z M131.372,180.17h38.44c11.719,0,21.252,9.534,21.252,21.252    c0,11.718-9.533,21.251-21.252,21.251h-38.44V180.17z M169.813,305.178h-38.44v-42.504h38.44c11.719,0,21.252,9.534,21.252,21.252    S181.532,305.178,169.813,305.178z"/>
		<path style="fill:#F68E00;" d="M348.798,142.042c-10.011-4.665-21.909-0.331-26.576,9.681l-76.887,165.008    c-4.665,10.012-0.33,21.911,9.682,26.576c2.733,1.273,5.605,1.876,8.435,1.876c7.534,0,14.749-4.278,18.142-11.558l76.887-165.008    C363.144,158.605,358.809,146.707,348.798,142.042z"/>
		<path style="fill:#F68E00;" d="M355.429,321.27c-1.618-7.974-8.021-14.276-16.022-15.763c-8.089-1.503-16.53,2.345-20.741,9.397    c-4.339,7.269-3.579,16.746,1.9,23.208c5.471,6.453,14.667,8.748,22.54,5.679C351.998,340.326,357.332,330.644,355.429,321.27z"/>
	</g>
	<g>
		<path style="fill:#FFEA94;" d="M194.814,140.17h-58.44c-11.046,0-20,8.954-20,20v82.504v82.504c0,11.046,8.954,20,20,20h58.44    c33.774,0,61.252-27.478,61.252-61.252c0-15.876-6.073-30.358-16.016-41.252c9.943-10.894,16.016-25.376,16.016-41.252    C256.066,167.648,228.589,140.17,194.814,140.17z M156.374,180.17h38.44c11.719,0,21.252,9.534,21.252,21.252    c0,11.718-9.533,21.251-21.252,21.251h-38.44V180.17z M194.814,305.178h-38.44v-42.504h38.44c11.719,0,21.252,9.534,21.252,21.252    S206.533,305.178,194.814,305.178z"/>
		<path style="fill:#FFEA94;" d="M373.799,142.042c-10.011-4.665-21.909-0.331-26.576,9.681l-76.887,165.008    c-4.665,10.012-0.33,21.911,9.682,26.576c2.733,1.273,5.605,1.876,8.435,1.876c7.534,0,14.749-4.278,18.142-11.558l76.887-165.008    C388.146,158.605,383.811,146.707,373.799,142.042z"/>
		<path style="fill:#FFEA94;" d="M380.43,321.27c-1.618-7.974-8.021-14.276-16.022-15.763c-8.089-1.503-16.53,2.345-20.741,9.397    c-4.339,7.269-3.579,16.746,1.9,23.208c5.471,6.453,14.667,8.748,22.54,5.679C376.999,340.326,382.334,330.644,380.43,321.27z"/>
	</g>
</g>















</svg>
