<?xml version="1.0" encoding="iso-8859-1"?>
<!-- Generator: Adobe Illustrator 19.0.0, SVG Export Plug-In . SVG Version: 6.00 Build 0)  -->
<svg xmlns="http://www.w3.org/2000/svg" xmlns:xlink="http://www.w3.org/1999/xlink" version="1.1" id="Layer_1" x="0px" y="0px" viewBox="0 0 490 490" style="enable-background:new 0 0 490 490;" xml:space="preserve" width="512" height="512">
<g>
	<g>
		<path style="fill:#F0CD00;" d="M490,245c0,135.31-109.69,245-245,245c-71.33,0-135.54-30.48-180.31-79.13    c-11.76-12.77-22.17-26.8-31.03-41.85C12.27,332.64,0,290.25,0,245C0,109.69,109.69,0,245,0c45.26,0,87.65,12.27,124.02,33.67    c15.05,8.85,29.07,19.26,41.84,31.03C459.51,109.45,490,173.67,490,245z"/>
		<path style="fill:#FFDE50;" d="M490,245c0,132.26-104.79,240.04-235.88,244.83C123.03,485.04,18.24,377.26,18.24,245    S123.03,4.96,254.12,0.17C385.21,4.96,490,112.74,490,245z"/>
		<path style="fill:#FFEA94;" d="M410.86,64.7L64.69,410.87c-11.76-12.77-22.17-26.8-31.03-41.85L369.02,33.67    C384.07,42.52,398.09,52.93,410.86,64.7z"/>
		<path style="fill:#FFEA94;" d="M473.1,155.43L155.42,473.11c-22.49-8.84-43.36-20.91-62.03-35.64L437.47,93.39    C452.2,112.06,464.27,132.93,473.1,155.43z"/>
		<path style="fill:#FAA300;" d="M435.38,245c0,105.14-85.24,190.38-190.38,190.38c-36.62,0-70.82-10.34-99.85-28.26    c-12.65-7.8-24.31-17.05-34.77-27.51c-7.69-7.68-14.73-16.03-21.02-24.94c-8.66-12.27-15.91-25.61-21.5-39.78    c-8.28-20.95-12.94-43.73-13.22-67.55c-0.02-0.78-0.02-1.56-0.02-2.34c0-105.14,85.23-190.38,190.38-190.38    c0.78,0,1.57,0,2.35,0.02c23.82,0.28,46.59,4.95,67.54,13.22c14.17,5.6,27.51,12.84,39.78,21.5c8.91,6.3,17.25,13.33,24.94,21.02    c10.46,10.45,19.71,22.12,27.51,34.77C425.04,174.18,435.38,208.38,435.38,245z"/>
		<path style="fill:#FFBD00;" d="M379.61,110.38L110.38,379.61c-7.69-7.68-14.73-16.03-21.02-24.94    c-8.66-12.27-15.91-25.61-21.5-39.78c-8.28-20.95-12.94-43.73-13.22-67.55c-0.02-0.78-0.02-1.56-0.02-2.34    c0-105.14,85.23-190.38,190.38-190.38c0.78,0,1.57,0,2.35,0.02c23.82,0.28,46.59,4.95,67.54,13.22    c14.17,5.6,27.51,12.84,39.78,21.5C363.58,95.66,371.92,102.69,379.61,110.38z"/>
		<path style="fill:#F68E00;" d="M435.375,245c0,105.14-85.24,190.38-190.38,190.38c-3.61,0-7.19-0.1-10.75-0.3    c100.14-5.57,179.62-88.55,179.62-190.08s-79.48-184.51-179.62-190.08c3.56-0.2,7.14-0.3,10.75-0.3    C350.135,54.62,435.375,139.86,435.375,245z"/>
	</g>
	<path style="fill:#F68E00;" d="M323.493,224.692c-13.301-16.116-32.904-25.36-53.784-25.36c-10.833,0-21.096,2.485-30.251,6.913   c-2.065-8.847-9.983-15.444-19.458-15.444c-11.046,0-20,8.954-20,20v149.33c-11.634-5.085-22.512-14.569-31.737-27.91   c-15.923-23.026-24.692-54.002-24.692-87.223s8.77-64.198,24.692-87.223c14.366-20.775,32.74-32.217,51.737-32.217   c20.528,0,40.676,13.728,55.275,37.665c5.751,9.43,18.059,12.411,27.488,6.66c9.431-5.752,12.412-18.059,6.66-27.489   c-22.03-36.12-54.624-56.836-89.424-56.836c-32.521,0-62.578,17.567-84.637,49.466C114.86,164.673,103.569,203.729,103.569,245   s11.291,80.327,31.793,109.974c22.059,31.898,52.116,49.466,84.637,49.466c34.8,0,67.394-20.716,89.424-56.836   c5.752-9.43,2.771-21.737-6.66-27.489c-9.428-5.75-21.736-2.771-27.488,6.66c-9.785,16.042-22.062,27.49-35.275,33.302v-91.035   c0-16.382,13.328-29.71,29.71-29.71c8.899,0,17.259,3.944,22.933,10.82c7.029,8.518,19.636,9.727,28.155,2.696   C329.316,245.817,330.523,233.212,323.493,224.692z"/>
	<path style="fill:#FFEA94;" d="M348.494,224.692c-13.301-16.116-32.904-25.36-53.784-25.36c-10.833,0-21.096,2.485-30.251,6.913   c-2.065-8.847-9.983-15.444-19.458-15.444c-11.046,0-20,8.954-20,20v149.33c-11.634-5.085-22.512-14.569-31.737-27.91   C177.34,309.198,168.57,278.221,168.57,245s8.77-64.198,24.692-87.223c14.366-20.775,32.74-32.217,51.737-32.217   c20.528,0,40.676,13.728,55.275,37.665c5.751,9.43,18.059,12.411,27.488,6.66c9.431-5.752,12.412-18.059,6.66-27.489   C312.394,106.276,279.8,85.56,245,85.56c-32.521,0-62.578,17.567-84.637,49.466C139.861,164.673,128.57,203.729,128.57,245   s11.291,80.327,31.793,109.974c22.059,31.898,52.116,49.466,84.637,49.466c34.8,0,67.394-20.716,89.424-56.836   c5.752-9.43,2.771-21.737-6.66-27.489c-9.428-5.75-21.736-2.771-27.488,6.66c-9.785,16.042-22.063,27.49-35.275,33.302v-91.035   c0-16.382,13.328-29.71,29.71-29.71c8.899,0,17.259,3.944,22.933,10.82c7.029,8.518,19.636,9.727,28.155,2.696   C354.317,245.817,355.524,233.212,348.494,224.692z"/>
</g>















</svg>
