<?xml version="1.0" encoding="iso-8859-1"?>
<!-- Generator: Adobe Illustrator 19.0.0, SVG Export Plug-In . SVG Version: 6.00 Build 0)  -->
<svg xmlns="http://www.w3.org/2000/svg" xmlns:xlink="http://www.w3.org/1999/xlink" version="1.1" id="Layer_1" x="0px" y="0px" viewBox="0 0 490 490" style="enable-background:new 0 0 490 490;" xml:space="preserve" width="512" height="512">
<g>
	<g>
		<path style="fill:#F0CD00;" d="M490,245c0,135.31-109.69,245-245,245c-71.33,0-135.54-30.48-180.31-79.13    c-11.76-12.77-22.17-26.8-31.03-41.85C12.27,332.64,0,290.25,0,245C0,109.69,109.69,0,245,0c45.26,0,87.65,12.27,124.02,33.67    c15.05,8.85,29.07,19.26,41.84,31.03C459.51,109.45,490,173.67,490,245z"/>
		<path style="fill:#FFDE50;" d="M490,245c0,132.26-104.79,240.04-235.88,244.83C123.03,485.04,18.24,377.26,18.24,245    S123.03,4.96,254.12,0.17C385.21,4.96,490,112.74,490,245z"/>
		<path style="fill:#FFEA94;" d="M410.86,64.7L64.69,410.87c-11.76-12.77-22.17-26.8-31.03-41.85L369.02,33.67    C384.07,42.52,398.09,52.93,410.86,64.7z"/>
		<path style="fill:#FFEA94;" d="M473.1,155.43L155.42,473.11c-22.49-8.84-43.36-20.91-62.03-35.64L437.47,93.39    C452.2,112.06,464.27,132.93,473.1,155.43z"/>
		<path style="fill:#FAA300;" d="M435.38,245c0,105.14-85.24,190.38-190.38,190.38c-36.62,0-70.82-10.34-99.85-28.26    c-12.65-7.8-24.31-17.05-34.77-27.51c-7.69-7.68-14.73-16.03-21.02-24.94c-8.66-12.27-15.91-25.61-21.5-39.78    c-8.28-20.95-12.94-43.73-13.22-67.55c-0.02-0.78-0.02-1.56-0.02-2.34c0-105.14,85.23-190.38,190.38-190.38    c0.78,0,1.57,0,2.35,0.02c23.82,0.28,46.59,4.95,67.54,13.22c14.17,5.6,27.51,12.84,39.78,21.5c8.91,6.3,17.25,13.33,24.94,21.02    c10.46,10.45,19.71,22.12,27.51,34.77C425.04,174.18,435.38,208.38,435.38,245z"/>
		<path style="fill:#FFBD00;" d="M379.61,110.38L110.38,379.61c-7.69-7.68-14.73-16.03-21.02-24.94    c-8.66-12.27-15.91-25.61-21.5-39.78c-8.28-20.95-12.94-43.73-13.22-67.55c-0.02-0.78-0.02-1.56-0.02-2.34    c0-105.14,85.23-190.38,190.38-190.38c0.78,0,1.57,0,2.35,0.02c23.82,0.28,46.59,4.95,67.54,13.22    c14.17,5.6,27.51,12.84,39.78,21.5C363.58,95.66,371.92,102.69,379.61,110.38z"/>
		<path style="fill:#F68E00;" d="M435.375,245c0,105.14-85.24,190.38-190.38,190.38c-3.61,0-7.19-0.1-10.75-0.3    c100.14-5.57,179.62-88.55,179.62-190.08s-79.48-184.51-179.62-190.08c3.56-0.2,7.14-0.3,10.75-0.3    C350.135,54.62,435.375,139.86,435.375,245z"/>
		<g>
			<path style="fill:#F68E00;" d="M131.216,300.032h-26.713c-15.565,0-30.151-7.638-39.016-20.431     c-8.866-12.793-10.896-29.132-5.431-43.706c3.62-9.653,14.379-14.543,24.031-10.923c9.652,3.619,14.543,14.378,10.923,24.03     c-1.622,4.326,0.031,7.706,1.16,9.335c1.129,1.63,3.714,4.364,8.333,4.364h26.713c0.665,0,1.224-0.255,1.658-0.759     c0.435-0.504,0.607-1.093,0.509-1.752l-19.588-132.993c-0.791-5.367,0.793-10.813,4.339-14.919     c3.546-4.106,8.702-6.466,14.127-6.466h20.675c10.309,0,18.665,8.357,18.665,18.665c0,9.995-7.855,18.154-17.728,18.642     l16.442,111.631c1.675,11.374-1.673,22.888-9.187,31.589C153.615,295.041,142.712,300.032,131.216,300.032z"/>
			<path style="fill:#F68E00;" d="M266.179,276.136h-32.496c-19.444,0-36.243-14.506-39.076-33.742l-11.155-75.739     c-1.502-10.198,5.548-19.684,15.746-21.186c10.197-1.501,19.684,5.548,21.186,15.746l11.155,75.739     c0.155,1.056,1.077,1.851,2.144,1.851h13.83v-13.384c0-10.309,8.357-18.665,18.665-18.665s18.665,8.357,18.665,18.665v32.049     C284.844,267.779,276.488,276.136,266.179,276.136z"/>
			<path style="fill:#F68E00;" d="M247.924,382.611c-8.989,0-16.909-6.51-18.4-15.669c-1.656-10.175,5.249-19.766,15.423-21.422     l46.518-7.573l38.82-60.444c4.118-6.413,4.008-14.627-0.28-20.928l-25.733-37.802c-5.801-8.522-3.595-20.132,4.927-25.933     c8.522-5.801,20.133-3.595,25.933,4.927l25.733,37.802c12.727,18.697,13.053,43.076,0.831,62.107l-43.315,67.444     c-2.861,4.455-7.48,7.485-12.706,8.336l-54.729,8.91C249.931,382.531,248.92,382.611,247.924,382.611z"/>
			<circle style="fill:#F68E00;" cx="207.913" cy="310.338" r="13.357"/>
			<circle style="fill:#F68E00;" cx="251.706" cy="310.338" r="13.357"/>
		</g>
	</g>
	<g>
		<path style="fill:#FFEA94;" d="M161.218,300.032h-26.713c-15.565,0-30.151-7.638-39.016-20.431    c-8.866-12.793-10.896-29.132-5.431-43.706c3.62-9.653,14.379-14.543,24.031-10.923c9.652,3.619,14.543,14.378,10.923,24.03    c-1.622,4.326,0.031,7.706,1.16,9.335c1.129,1.63,3.714,4.364,8.333,4.364h26.713c0.665,0,1.224-0.255,1.658-0.759    c0.435-0.504,0.607-1.093,0.509-1.752l-19.588-132.993c-0.791-5.367,0.793-10.813,4.339-14.919    c3.546-4.106,8.702-6.466,14.127-6.466h20.675c10.309,0,18.665,8.357,18.665,18.665c0,9.995-7.855,18.154-17.728,18.642    l16.442,111.631c1.675,11.374-1.673,22.888-9.187,31.589C183.617,295.041,172.714,300.032,161.218,300.032z"/>
		<path style="fill:#FFEA94;" d="M296.181,276.136h-32.496c-19.444,0-36.243-14.506-39.076-33.742l-11.155-75.739    c-1.502-10.198,5.548-19.684,15.746-21.186c10.197-1.501,19.684,5.548,21.186,15.746l11.155,75.739    c0.155,1.056,1.077,1.851,2.144,1.851h13.83v-13.384c0-10.309,8.357-18.665,18.665-18.665s18.665,8.357,18.665,18.665v32.049    C314.846,267.779,306.49,276.136,296.181,276.136z"/>
		<path style="fill:#FFEA94;" d="M277.926,382.611c-8.989,0-16.909-6.51-18.4-15.669c-1.656-10.175,5.249-19.766,15.423-21.422    l46.518-7.573l38.82-60.444c4.118-6.413,4.008-14.627-0.28-20.928l-25.733-37.802c-5.801-8.522-3.595-20.132,4.927-25.933    c8.522-5.801,20.133-3.595,25.933,4.927l25.733,37.802c12.727,18.697,13.053,43.076,0.831,62.107l-43.315,67.444    c-2.861,4.455-7.48,7.485-12.706,8.336l-54.729,8.91C279.932,382.531,278.922,382.611,277.926,382.611z"/>
		<circle style="fill:#FFEA94;" cx="237.915" cy="310.338" r="13.357"/>
		<circle style="fill:#FFEA94;" cx="281.708" cy="310.338" r="13.357"/>
	</g>
</g>















</svg>
