<?xml version="1.0" encoding="utf-8"?>
<!-- Generator: Adobe Illustrator 22.1.0, SVG Export Plug-In . SVG Version: 6.00 Build 0)  -->
<svg version="1.1" xmlns="http://www.w3.org/2000/svg" xmlns:xlink="http://www.w3.org/1999/xlink" x="0px" y="0px"
	 viewBox="0 0 407.4 407.4" style="enable-background:new 0 0 407.4 407.4;" xml:space="preserve">
<style type="text/css">
	.st0{fill:none;}
	.st1{fill:url(#SVGID_1_);}
	.st2{fill:url(#SVGID_2_);}
	.st3{fill:url(#SVGID_3_);}
	.st4{fill:url(#SVGID_4_);}
	.st5{display:none;}
	.st6{display:inline;}
	.st7{fill:#E2ED7A;}
	.st8{fill:#FFFFFF;}
	.st9{fill:#62C765;}
	.st10{fill:#8CC63F;}
	.st11{fill:#55B034;}
	.st12{fill:#DC4B7F;}
	.st13{fill:#269468;}
	.st14{fill:#C2E070;}
	.st15{fill:#69C97D;}
	.st16{fill:#6CD9FF;}
	.st17{fill:#87DCFF;}
	.st18{fill:#55ABE0;}
	.st19{fill:#CAFDFF;}
	.st20{fill:#4BA6EB;}
	.st21{fill:#328CC4;}
	.st22{fill:#99FFF7;}
	.st23{fill:#79E8DD;}
	.st24{fill:#64E8DB;}
	.st25{fill:#ED5F91;}
	.st26{fill:#FF82AF;}
	.st27{fill:#0074C2;fill-opacity:0.1;}
	.st28{fill:#ED5A9F;}
	.st29{fill:#FFB0D0;}
	.st30{fill:#FC68A4;}
	.st31{fill:#FF7AB1;}
	.st32{fill:#FEF8A6;}
	.st33{fill:#7F3FFC;}
	.st34{fill:#9569FF;}
	.st35{fill:#8965FC;}
	.st36{fill:#BEA4FF;}
	.st37{fill:#AB80FF;}
	.st38{fill:#825AFF;}
	.st39{fill:#FF0303;}
	.st40{fill:#F43838;}
	.st41{fill:#F94646;}
	.st42{fill:#F71C1C;}
	.st43{fill:#FF4D4D;}
	.st44{fill:#FF5F5F;}
	.st45{fill:#FF5757;}
	.st46{fill:#FF1A1A;}
	.st47{fill:#FF3333;}
	.st48{fill:#E83636;}
	.st49{fill:#EF3A3A;}
	.st50{fill:#FF2222;}
	.st51{fill:#FF6464;}
	.st52{opacity:0.5;fill:#C62100;}
	.st53{opacity:0.5;fill:#ED861F;}
	.st54{fill:#FFC551;}
	.st55{fill:#FCE221;}
	.st56{fill:#FCB435;}
	.st57{fill:#E8930C;}
	.st58{fill:#FFCC71;}
	.st59{fill:#E89A0F;}
</style>
<g id="Layer_1">
	<title>Diamond-Green</title>
	<g>
		<g id="Layer_1_1_">
			<polygon class="st0" points="103,413.3 103,413.9 103.5,413.9 			"/>
			
				<linearGradient id="SVGID_1_" gradientUnits="userSpaceOnUse" x1="353.6319" y1="1056.4501" x2="46.8806" y2="681.7081" gradientTransform="matrix(1 0 0 1 0 -670)">
				<stop  offset="0" style="stop-color:#999999"/>
				<stop  offset="0.13" style="stop-color:#ADADAD"/>
				<stop  offset="0.34" style="stop-color:#C8C8C8"/>
				<stop  offset="0.55" style="stop-color:#DCDCDC"/>
				<stop  offset="0.77" style="stop-color:#E7E7E7"/>
				<stop  offset="1" style="stop-color:#EBEBEB"/>
			</linearGradient>
			<circle class="st1" cx="204.9" cy="204.7" r="202.5"/>
			
				<linearGradient id="SVGID_2_" gradientUnits="userSpaceOnUse" x1="-2632.6892" y1="-256.8166" x2="-2884.5461" y2="-502.6236" gradientTransform="matrix(-1 0 0 -1 -2548.6602 -170.04)">
				<stop  offset="0" style="stop-color:#FFFFFF"/>
				<stop  offset="0.99" style="stop-color:#999999"/>
			</linearGradient>
			<circle class="st2" cx="204.9" cy="204.7" r="157.2"/>
			
				<linearGradient id="SVGID_3_" gradientUnits="userSpaceOnUse" x1="-2657.3645" y1="-243.4444" x2="-2855.8152" y2="-514.4235" gradientTransform="matrix(-1 0 0 -1 -2548.6602 -170.04)">
				<stop  offset="0" style="stop-color:#CCCCCC"/>
				<stop  offset="1" style="stop-color:#E6E6E6"/>
			</linearGradient>
			<circle class="st3" cx="204.9" cy="204.7" r="153.3"/>
			
				<linearGradient id="SVGID_4_" gradientUnits="userSpaceOnUse" x1="126.8334" y1="751.183" x2="295.316" y2="1017.8949" gradientTransform="matrix(1 0 0 1 0 -670)">
				<stop  offset="0" style="stop-color:#FFFFFF"/>
				<stop  offset="0.99" style="stop-color:#999999"/>
			</linearGradient>
			<circle class="st4" cx="204.9" cy="204.7" r="131"/>
		</g>
	</g>
</g>
<g id="Layer_4" class="st5">
	<g class="st6">
		<path class="st7" d="M282.1,138.3c-2.2-4.6-8.2-8.3-13.3-8.3h-55c-5.1,0-13.4,0-18.5,0h-55c-5.1,0-11.1,3.7-13.3,8.3l-23.8,48.8
			c-2.2,4.6-1.1,11.2,2.5,14.8l92.2,90.8c3.6,3.6,9.6,3.6,13.2,0l92.3-90.8c3.6-3.6,4.8-10.2,2.5-14.8L282.1,138.3z"/>
		<path class="st8" d="M258.5,154.4c-5.7-5.4-11.4-10.8-17.3-16c-0.2-0.2-0.5-0.4-0.7-0.7l-92.6,66.9l14.1,19.5L258.5,154.4z"/>
		<path class="st8" d="M274,168.9c-2.1-2-4.2-3.9-6.3-5.9l-107.7,77.9l5.4,7.5l109.2-79C274.4,169.3,274.2,169.1,274,168.9z"/>
		<path class="st9" d="M306.5,196.7c1-3.2,0.9-6.8-0.5-9.6l-23.8-48.8c-1.1-2.2-3.1-4.3-5.5-5.8l-21.6,62.6L306.5,196.7z"/>
		<path class="st10" d="M154.1,195.2l50.5-65.2c-3.3,0-6.7,0-9.2,0h-55c-2.7,0-5.7,1.1-8.2,2.8L154.1,195.2z"/>
		<path class="st11" d="M277.1,132.8c-2.5-1.7-5.5-2.8-8.2-2.8h-55c-2.5,0-5.9,0-9.2,0l50.5,65.2L277.1,132.8z"/>
		<path class="st12" d="M132.4,132.6c-2.3,1.5-4.2,3.5-5.3,5.7l-23.8,48.8c-1.2,2.5-1.4,5.5-0.8,8.4l52.3,1.4L132.4,132.6z"/>
		<path class="st13" d="M132.4,132.6c-2.3,1.5-4.2,3.5-5.3,5.7l-23.8,48.8c-1.2,2.5-1.4,5.5-0.8,8.4l52.3,1.4L132.4,132.6z"/>
		<path class="st11" d="M105.8,201.9l92.2,90.8c1.3,1.3,2.9,2.1,4.6,2.5l-48.5-100.1h-51.8C102.9,197.7,104,200.2,105.8,201.9z"/>
		<path class="st12" d="M206.6,295.2c1.7-0.4,3.3-1.2,4.6-2.5l92.3-90.8c1.8-1.7,2.9-4.2,3.4-6.8h-51.8L206.6,295.2z"/>
		<path class="st10" d="M206.6,295.2c1.7-0.4,3.3-1.2,4.6-2.5l92.3-90.8c1.8-1.7,2.9-4.2,3.4-6.8h-51.8L206.6,295.2z"/>
		<path class="st14" d="M154.1,195.2l48.5,100.1c1.3,0.3,2.6,0.3,3.9,0l48.5-100.1H154.1z"/>
		<path class="st8" d="M157.6,165.8c-9,2.9-11.3,5.3-14.2,14.3c-2.9-9-5.3-11.3-14.3-14.2c9-2.9,11.3-5.3,14.2-14.2
			C146.2,160.6,148.6,162.9,157.6,165.8z"/>
		<path class="st8" d="M182,145.5c-4.9,1.6-6.2,2.9-7.7,7.7c-1.6-4.9-2.9-6.1-7.7-7.7c4.9-1.6,6.2-2.9,7.7-7.7
			C175.8,142.6,177.1,143.9,182,145.5z"/>
		<path class="st8" d="M185.7,235.7c-4.9,1.6-6.2,2.9-7.7,7.7c-1.6-4.9-2.9-6.2-7.7-7.7c4.9-1.6,6.2-2.9,7.7-7.7
			C179.5,232.8,180.8,234.1,185.7,235.7z"/>
	</g>
</g>
<g id="Layer_3" class="st5">
	<g class="st6">
		<path class="st10" d="M209.4,102.5c-3.2-3.1-8.3-3.1-11.5,0l-59.4,58.8c-3.2,3.1-5.7,9.1-5.7,13.3v61c0,4.2,2.6,10.2,5.7,13.3
			L198,308c3.2,3.1,8.3,3.1,11.5,0l59.4-58.8c3.2-3.1,5.7-9.1,5.7-13.3v-61c0-4.2-2.6-10.2-5.7-13.3L209.4,102.5z"/>
		<path class="st9" d="M136.9,163.4c-2.4,3.3-4.1,7.9-4.1,11.4v61c0,4.2,2.6,10.2,5.7,13.3l2.4,2.4c16.5-6.3,34.7-13.5,36.5-14.1
			c3.5-1.2,0-57.1,0-57.1L136.9,163.4z"/>
		<path class="st11" d="M138.6,161.4c-1.7,1.6-3.2,4.1-4.2,6.7l41.1,13.7l28.2-31.8v-49.7c-2.1,0-4.2,0.8-5.7,2.3L138.6,161.4z"/>
		<path class="st14" d="M232.4,181.7L273,168c-1-2.6-2.5-5-4.2-6.7l-59.4-58.8c-1.6-1.6-3.7-2.3-5.7-2.3v49.7L232.4,181.7z"/>
		<path class="st13" d="M174.9,228.8l-40.3,14.2c1,2.3,2.4,4.5,4,6.1L198,308c1.6,1.6,3.7,2.3,5.7,2.3v-49L174.9,228.8z"/>
		<path class="st15" d="M268.8,249.1c1.5-1.5,2.9-3.7,4-6.1l-40.3-14.2l-28.8,32.4v49c2.1,0,4.2-0.8,5.7-2.3L268.8,249.1z"/>
		<polygon class="st7" points="167,231.6 167,178.9 203.7,142.5 240.4,178.9 240.4,231.6 203.7,268 		"/>
		<path class="st8" d="M167,212.2l64.7-41.9l8.6,8.5v10.4l-70.2,45.4l-3.2-3.1V212.2z M240.4,211.5V202l-62.4,40.4l5.8,5.7
			L240.4,211.5z"/>
		<path class="st8" d="M186.5,155.9c-9.4,2.7-11.9,4.9-14.9,13.4c-3.1-8.4-5.5-10.6-14.9-13.4c9.4-2.7,11.9-4.9,14.9-13.4
			C174.6,151,177.1,153.2,186.5,155.9z"/>
		<path class="st8" d="M156.7,172.7c-5.1,1.5-6.4,2.7-8.1,7.3c-1.7-4.6-3-5.8-8.1-7.3c5.1-1.5,6.4-2.7,8.1-7.2
			C150.2,170,151.6,171.2,156.7,172.7z"/>
	</g>
</g>
<g id="Layer_2" class="st5">
	<g class="st6">
		<g>
			<path class="st14" d="M180.1,151h44.1l14.9-35.8c-2.2-0.9-4.6-1.5-6.6-1.5h-59.7c-2,0-4.4,0.6-6.6,1.5L180.1,151z"/>
			<path class="st13" d="M151.1,181.8l30-30.4l-14.9-36.2c-2.2,0.9-4.3,2.2-5.7,3.6L118.3,161c-1.4,1.4-2.7,3.5-3.6,5.7L151.1,181.8
				z"/>
			<path class="st10" d="M114.6,239.7c0.9,2.2,2.2,4.3,3.6,5.7l42.2,42.2c1.4,1.4,3.5,2.7,5.7,3.6l14.4-34.7l-31.2-31.2L114.6,239.7
				z"/>
			<path class="st15" d="M255.2,180.5l-0.3,45.8l35.8,13.4c0.9-2.2,1.5-4.6,1.5-6.6v-59.7c0-2-0.6-4.4-1.5-6.6L255.2,180.5z"/>
			<path class="st10" d="M224.2,149.9l31.7,31.2l34.7-14.4c-0.9-2.2-2.2-4.3-3.6-5.7l-42.2-42.2c-1.4-1.4-3.5-2.7-5.7-3.6
				L224.2,149.9z"/>
			<path class="st15" d="M113.1,173.4v59.7c0,2,0.6,4.4,1.5,6.6l34.7-14.4v-44.1l-34.7-14.4C113.7,169,113.1,171.4,113.1,173.4z"/>
			<path class="st14" d="M172.8,292.7h59.7c2,0,4.4-0.6,6.6-1.5l-15.3-36.5h-42.4l-15.2,36.5C168.4,292.1,170.8,292.7,172.8,292.7z"
				/>
			<path class="st13" d="M254.9,224.8l-31,29.9l15.3,36.5c2.2-0.9,4.3-2.2,5.7-3.6l42.2-42.2c1.4-1.4,2.7-3.5,3.6-5.7L254.9,224.8z"
				/>
			<polygon class="st7" points="180.6,256.5 149.4,225.3 149.4,181.1 180.6,149.9 224.7,149.9 255.9,181.1 255.9,225.3 224.7,256.5 
							"/>
			<g>
				<polygon class="st8" points="171.8,247.7 255.9,186.9 255.9,181.1 242.2,167.4 154.7,230.7 				"/>
				<polygon class="st8" points="255.9,213.4 255.9,202.1 180.7,256.5 196.3,256.5 				"/>
			</g>
			<path class="st8" d="M154.9,161.2c-8.2,2.7-10.4,4.8-13,13c-2.7-8.2-4.8-10.4-13-13c8.2-2.7,10.4-4.8,13-13
				C144.6,156.4,146.7,158.5,154.9,161.2z"/>
			<path class="st8" d="M138.3,191.4c-4.5,1.4-5.6,2.6-7.1,7.1c-1.4-4.5-2.6-5.6-7.1-7.1c4.5-1.4,5.6-2.6,7.1-7.1
				C132.7,188.8,133.9,190,138.3,191.4z"/>
			<path class="st8" d="M273.5,242.8c-4.5,1.4-5.6,2.6-7.1,7.1c-1.4-4.5-2.6-5.6-7.1-7.1c4.5-1.4,5.6-2.6,7.1-7.1
				C267.9,240.2,269.1,241.3,273.5,242.8z"/>
		</g>
	</g>
</g>
<g id="Layer_5" class="st5">
	<g class="st6">
		<path class="st16" d="M208.4,103.4c-3.1-3.1-8.2-3.1-11.3,0L138.4,162c-3.1,3.1-5.7,9.1-5.7,13.3v60.8c0,4.2,2.5,10.2,5.7,13.3
			l58.7,58.6c3.1,3.1,8.2,3.1,11.3,0l58.7-58.6c3.1-3.1,5.7-9.1,5.7-13.3v-60.8c0-4.2-2.5-10.2-5.7-13.3L208.4,103.4z"/>
		<path class="st17" d="M136.8,164c-2.3,3.3-4.1,7.9-4.1,11.3v60.8c0,4.2,2.6,10.2,5.7,13.3l2.4,2.4c16.4-6.3,34.5-13.4,36.4-14
			c3.4-1.2,0-56.8,0-56.8L136.8,164z"/>
		<path class="st18" d="M138.4,162c-1.7,1.6-3.1,4.1-4.2,6.6l40.9,13.6l28.1-31.7v-49.5c-2.1,0-4.1,0.8-5.7,2.3L138.4,162z"/>
		<path class="st19" d="M231.8,182.3l40.5-13.6c-1-2.5-2.5-5-4.2-6.6L209,103.4c-1.6-1.6-3.6-2.3-5.7-2.3v49.5L231.8,182.3z"/>
		<path class="st20" d="M174.6,229.2l-40.1,14.2c1,2.3,2.4,4.5,3.9,6l59.2,58.6c1.6,1.6,3.6,2.3,5.7,2.3v-48.8L174.6,229.2z"/>
		<path class="st21" d="M268.1,249.4c1.5-1.5,2.9-3.7,3.9-6L232,229.2l-28.7,32.3v48.8c2.1,0,4.1-0.8,5.7-2.3L268.1,249.4z"/>
		<polygon class="st22" points="166.8,232 166.8,179.4 203.3,143.3 239.8,179.4 239.8,232 203.3,268.1 		"/>
		<path class="st8" d="M166.8,212.6l64.4-41.7l8.6,8.5v10.4l-69.9,45.3l-3.1-3.1V212.6z M239.8,211.9v-9.4l-62.2,40.3l5.7,5.7
			L239.8,211.9z"/>
		<path class="st8" d="M186.1,156.5c-9.4,2.7-11.8,4.9-14.8,13.3c-3-8.4-5.5-10.6-14.9-13.3c9.4-2.7,11.8-4.9,14.8-13.3
			C174.3,151.6,176.8,153.8,186.1,156.5z"/>
		<path class="st8" d="M156.4,173.3c-5.1,1.5-6.4,2.7-8.1,7.2c-1.6-4.5-3-5.7-8.1-7.2c5.1-1.5,6.4-2.7,8.1-7.2
			C150,170.6,151.4,171.8,156.4,173.3z"/>
	</g>
</g>
<g id="Layer_6" class="st5">
	<g class="st6">
		<path class="st23" d="M180.3,150.8h44l14.9-35.7c-2.2-0.9-4.6-1.5-6.6-1.5h-59.5c-2,0-4.4,0.6-6.6,1.5L180.3,150.8z"/>
		<path class="st18" d="M151.4,181.6l30-30.3l-14.9-36.2c-2.2,0.9-4.3,2.2-5.7,3.6l-42.1,42.1c-1.4,1.4-2.7,3.5-3.6,5.7L151.4,181.6
			z"/>
		<path class="st20" d="M115,239.3c0.9,2.2,2.2,4.3,3.6,5.7l42.1,42.1c1.4,1.4,3.5,2.7,5.7,3.6l14.4-34.7l-31.1-31.1L115,239.3z"/>
		<path class="st16" d="M255.3,180.2l-0.3,45.8l35.7,13.3c0.9-2.2,1.5-4.6,1.5-6.6v-59.5c0-2-0.6-4.4-1.5-6.6L255.3,180.2z"/>
		<path class="st19" d="M224.3,149.7l31.7,31.1l34.6-14.4c-0.9-2.2-2.2-4.3-3.6-5.7l-42.1-42.1c-1.4-1.4-3.5-2.7-5.7-3.6
			L224.3,149.7z"/>
		<path class="st17" d="M113.5,173.1v59.6c0,2,0.6,4.4,1.5,6.6l34.6-14.4v-44L115,166.5C114.1,168.8,113.5,171.1,113.5,173.1z"/>
		<path class="st21" d="M173,292.2h59.6c2,0,4.4-0.6,6.6-1.5L224,254.3h-42.3l-15.2,36.4C168.7,291.6,171.1,292.2,173,292.2z"/>
		<path class="st24" d="M254.9,224.5l-31,29.8l15.2,36.4c2.2-0.9,4.3-2.2,5.7-3.6L287,245c1.4-1.4,2.7-3.5,3.6-5.7L254.9,224.5z"/>
		<polygon class="st22" points="180.8,256.1 149.7,224.9 149.7,180.9 180.8,149.7 224.9,149.7 256,180.9 256,224.9 224.9,256.1 		
			"/>
		<g>
			<polygon class="st8" points="172.1,247.3 256,186.7 256,180.9 242.3,167.2 155,230.3 			"/>
			<polygon class="st8" points="256,213.1 256,201.8 180.9,256.1 196.5,256.1 			"/>
		</g>
		<path class="st8" d="M155.2,161c-8.2,2.7-10.3,4.8-13,13c-2.7-8.2-4.8-10.3-13-13c8.2-2.7,10.3-4.8,13-13
			C144.9,156.2,147,158.3,155.2,161z"/>
		<path class="st8" d="M138.7,191.2c-4.4,1.4-5.6,2.6-7.1,7.1c-1.4-4.4-2.6-5.6-7.1-7.1c4.4-1.4,5.6-2.6,7.1-7.1
			C133,188.5,134.2,189.7,138.7,191.2z"/>
		<path class="st8" d="M273.6,242.4c-4.4,1.4-5.6,2.6-7.1,7.1c-1.4-4.5-2.6-5.6-7.1-7.1c4.4-1.4,5.6-2.6,7.1-7.1
			C267.9,239.8,269.1,241,273.6,242.4z"/>
	</g>
</g>
<g id="Layer_7" class="st5">
	<g class="st6">
		<path class="st22" d="M281.4,138.6c-2.2-4.5-8.1-8.2-13.2-8.2h-54.4c-5,0-13.3,0-18.3,0H141c-5,0-11,3.7-13.2,8.2L104.3,187
			c-2.2,4.5-1.1,11.1,2.5,14.6l91.3,89.9c3.6,3.5,9.5,3.5,13,0l91.3-89.9c3.6-3.5,4.7-10.1,2.5-14.6L281.4,138.6z"/>
		<path class="st8" d="M257.9,154.5c-5.7-5.3-11.3-10.6-17.1-15.8c-0.2-0.2-0.5-0.4-0.7-0.6l-91.7,66.3l13.9,19.3L257.9,154.5z"/>
		<path class="st8" d="M273.3,168.9c-2.1-1.9-4.2-3.9-6.3-5.8l-106.7,77.1l5.4,7.4l108.1-78.2C273.7,169.3,273.5,169.1,273.3,168.9z
			"/>
		<path class="st16" d="M305.5,196.4c1-3.2,0.9-6.7-0.5-9.5l-23.6-48.4c-1.1-2.2-3.1-4.2-5.4-5.7l-21.4,62L305.5,196.4z"/>
		<path class="st16" d="M154.7,194.9l50-64.5c-3.3,0-6.6,0-9.2,0H141c-2.7,0-5.7,1.1-8.2,2.8L154.7,194.9z"/>
		<path class="st19" d="M276.4,133.2c-2.5-1.7-5.5-2.8-8.2-2.8h-54.4c-2.5,0-5.8,0-9.2,0l50,64.5L276.4,133.2z"/>
		<path class="st12" d="M133.1,133c-2.3,1.5-4.2,3.4-5.3,5.6L104.3,187c-1.2,2.4-1.4,5.5-0.8,8.3l51.8,1.4L133.1,133z"/>
		<path class="st18" d="M133.1,133c-2.3,1.5-4.2,3.4-5.3,5.6L104.3,187c-1.2,2.4-1.4,5.5-0.8,8.3l51.8,1.4L133.1,133z"/>
		<path class="st20" d="M106.8,201.6l91.3,89.9c1.3,1.3,2.9,2.1,4.6,2.4l-48-99.1h-51.3C103.9,197.5,105,199.9,106.8,201.6z"/>
		<path class="st12" d="M206.6,294c1.7-0.4,3.3-1.2,4.6-2.4l91.3-89.9c1.7-1.7,2.9-4.1,3.4-6.7h-51.3L206.6,294z"/>
		<path class="st21" d="M206.6,294c1.7-0.4,3.3-1.2,4.6-2.4l91.3-89.9c1.7-1.7,2.9-4.1,3.4-6.7h-51.3L206.6,294z"/>
		<path class="st19" d="M154.7,194.9l48,99.1c1.3,0.3,2.6,0.3,3.9,0l48-99.1H154.7z"/>
		<path class="st8" d="M158.1,165.9c-8.9,2.9-11.2,5.2-14.1,14.1c-2.9-8.9-5.2-11.2-14.1-14.1c8.9-2.9,11.2-5.2,14.1-14.1
			C146.8,160.7,149.2,163,158.1,165.9z"/>
		<path class="st8" d="M182.2,145.7c-4.8,1.6-6.1,2.8-7.7,7.7c-1.6-4.8-2.8-6.1-7.7-7.7c4.8-1.6,6.1-2.8,7.7-7.7
			C176.1,142.9,177.4,144.2,182.2,145.7z"/>
		<path class="st8" d="M185.9,235c-4.8,1.6-6.1,2.8-7.7,7.7c-1.6-4.8-2.8-6.1-7.7-7.7c4.8-1.6,6.1-2.8,7.7-7.7
			C179.8,232.2,181,233.4,185.9,235z"/>
	</g>
</g>
<g id="Layer_8" class="st5">
	<g class="st6">
		<path class="st25" d="M208.5,103.4c-3.1-3.1-8.2-3.1-11.3,0L138.5,162c-3.1,3.1-5.7,9.1-5.7,13.3V236c0,4.2,2.5,10.2,5.7,13.3
			l58.7,58.6c3.1,3.1,8.2,3.1,11.3,0l58.7-58.6c3.1-3.1,5.7-9.1,5.7-13.3v-60.7c0-4.2-2.5-10.2-5.7-13.3L208.5,103.4z"/>
		<path class="st26" d="M136.9,164c-2.3,3.3-4.1,7.9-4.1,11.3V236c0,4.2,2.6,10.2,5.7,13.3l2.4,2.4c16.4-6.3,34.5-13.4,36.3-14
			c3.4-1.2,0-56.8,0-56.8L136.9,164z"/>
		<path class="st27" d="M138.5,162c-1.7,1.6-3.1,4.1-4.2,6.6l40.9,13.6l28.1-31.7v-49.5c-2.1,0-4.1,0.8-5.7,2.3L138.5,162z"/>
		<path class="st26" d="M231.8,182.2l40.5-13.6c-1-2.5-2.5-5-4.2-6.6L209,103.4c-1.6-1.6-3.6-2.3-5.7-2.3v49.5L231.8,182.2z"/>
		<path class="st28" d="M174.7,229.1l-40.1,14.2c1,2.3,2.4,4.5,3.9,6l59.1,58.6c1.6,1.6,3.6,2.3,5.7,2.3v-48.8L174.7,229.1z"/>
		<path class="st26" d="M268.1,249.3c1.5-1.5,2.9-3.7,3.9-6L232,229.1l-28.7,32.3v48.8c2.1,0,4.1-0.8,5.7-2.3L268.1,249.3z"/>
		<polygon class="st29" points="166.8,231.9 166.8,179.4 203.3,143.2 239.8,179.4 239.8,231.9 203.3,268 		"/>
		<path class="st8" d="M166.8,212.6l64.4-41.7l8.6,8.5v10.4L170,235l-3.1-3.1V212.6z M239.8,211.8v-9.4l-62.1,40.2l5.7,5.7
			L239.8,211.8z"/>
		<path class="st8" d="M186.2,156.5c-9.4,2.7-11.8,4.9-14.8,13.3c-3-8.4-5.5-10.6-14.9-13.3c9.4-2.7,11.8-4.9,14.8-13.3
			C174.4,151.6,176.8,153.8,186.2,156.5z"/>
		<path class="st8" d="M156.5,173.2c-5.1,1.5-6.4,2.7-8.1,7.2c-1.6-4.5-3-5.7-8.1-7.2c5.1-1.5,6.4-2.7,8.1-7.2
			C150.1,170.6,151.4,171.8,156.5,173.2z"/>
	</g>
</g>
<g id="Layer_9" class="st5">
	<g class="st6">
		<path class="st30" d="M180.3,150.8h44l14.9-35.7c-2.2-0.9-4.6-1.5-6.6-1.5h-59.5c-2,0-4.4,0.6-6.6,1.5L180.3,150.8z"/>
		<path class="st25" d="M151.4,181.6l30-30.3l-14.9-36.2c-2.2,0.9-4.3,2.2-5.7,3.6l-42.1,42.1c-1.4,1.4-2.7,3.5-3.6,5.7L151.4,181.6
			z"/>
		<path class="st26" d="M115,239.3c0.9,2.2,2.2,4.3,3.6,5.7l42.1,42.1c1.4,1.4,3.5,2.7,5.7,3.6l14.4-34.7l-31.1-31.1L115,239.3z"/>
		<path class="st25" d="M255.3,180.2l-0.3,45.8l35.7,13.3c0.9-2.2,1.5-4.6,1.5-6.6v-59.5c0-2-0.6-4.4-1.5-6.6L255.3,180.2z"/>
		<path class="st26" d="M224.3,149.7l31.7,31.1l34.6-14.4c-0.9-2.2-2.2-4.3-3.6-5.7l-42.1-42.1c-1.4-1.4-3.5-2.7-5.7-3.6
			L224.3,149.7z"/>
		<path class="st26" d="M113.5,173.1v59.6c0,2,0.6,4.4,1.5,6.6l34.6-14.4v-44L115,166.5C114.1,168.8,113.5,171.1,113.5,173.1z"/>
		<path class="st29" d="M173,292.2h59.6c2,0,4.4-0.6,6.6-1.5L224,254.3h-42.3l-15.2,36.4C168.7,291.6,171.1,292.2,173,292.2z"/>
		<path class="st31" d="M254.9,224.5l-31,29.8l15.2,36.4c2.2-0.9,4.3-2.2,5.7-3.6L287,245c1.4-1.4,2.7-3.5,3.6-5.7L254.9,224.5z"/>
		<polygon class="st29" points="180.8,256.1 149.7,224.9 149.7,180.9 180.8,149.7 224.9,149.7 256,180.9 256,224.9 224.9,256.1 		
			"/>
		<g>
			<polygon class="st8" points="172.1,247.3 256,186.7 256,180.9 242.3,167.2 155,230.3 			"/>
			<polygon class="st8" points="256,213.1 256,201.8 180.9,256.1 196.5,256.1 			"/>
		</g>
		<path class="st8" d="M155.2,161c-8.2,2.7-10.3,4.8-13,13c-2.7-8.2-4.8-10.3-13-13c8.2-2.7,10.3-4.8,13-13
			C144.9,156.2,147,158.3,155.2,161z"/>
		<path class="st8" d="M138.7,191.2c-4.4,1.4-5.6,2.6-7.1,7.1c-1.4-4.4-2.6-5.6-7.1-7.1c4.4-1.4,5.6-2.6,7.1-7.1
			C133,188.5,134.2,189.7,138.7,191.2z"/>
		<path class="st8" d="M273.6,242.4c-4.4,1.4-5.6,2.6-7.1,7.1c-1.4-4.5-2.6-5.6-7.1-7.1c4.4-1.4,5.6-2.6,7.1-7.1
			C267.9,239.8,269.1,241,273.6,242.4z"/>
	</g>
</g>
<g id="Layer_10" class="st5">
	<g class="st6">
		<path class="st29" d="M281.4,138.6c-2.2-4.5-8.1-8.2-13.2-8.2h-54.4c-5,0-13.3,0-18.3,0h-54.4c-5,0-11,3.7-13.2,8.2l-23.6,48.3
			c-2.2,4.5-1.1,11.1,2.5,14.6l91.3,89.9c3.6,3.5,9.5,3.5,13,0l91.3-89.9c3.6-3.5,4.7-10.1,2.5-14.6L281.4,138.6z"/>
		<g>
			<path class="st32" d="M257.9,154.5c-5.7-5.3-11.3-10.6-17.1-15.8c-0.2-0.2-0.5-0.4-0.7-0.6l-91.6,66.2l13.9,19.3L257.9,154.5z"/>
		</g>
		<g>
			<path class="st32" d="M273.3,168.9c-2.1-1.9-4.2-3.9-6.3-5.8l-106.6,77.1l5.4,7.4l108.1-78.1
				C273.7,169.2,273.5,169.1,273.3,168.9z"/>
		</g>
		<path class="st25" d="M305.4,196.4c1-3.1,0.9-6.7-0.5-9.5l-23.6-48.3c-1.1-2.2-3.1-4.2-5.4-5.7l-21.4,62L305.4,196.4z"/>
		<path class="st25" d="M154.7,194.9l49.9-64.5c-3.3,0-6.6,0-9.1,0h-54.4c-2.7,0-5.7,1.1-8.2,2.8L154.7,194.9z"/>
		<path class="st26" d="M276.4,133.2c-2.5-1.7-5.5-2.8-8.2-2.8h-54.4c-2.5,0-5.8,0-9.1,0l49.9,64.5L276.4,133.2z"/>
		<path class="st12" d="M133.2,133c-2.3,1.5-4.2,3.4-5.3,5.6l-23.6,48.3c-1.2,2.4-1.4,5.5-0.8,8.3l51.8,1.4L133.2,133z"/>
		<path class="st27" d="M133.2,133c-2.3,1.5-4.2,3.4-5.3,5.6l-23.6,48.3c-1.2,2.4-1.4,5.5-0.8,8.3l51.8,1.4L133.2,133z"/>
		<path class="st28" d="M106.8,201.6l91.3,89.9c1.3,1.3,2.9,2.1,4.6,2.4l-48-99h-51.2C104,197.4,105.1,199.9,106.8,201.6z"/>
		<path class="st12" d="M206.6,293.9c1.7-0.4,3.3-1.2,4.6-2.4l91.3-89.9c1.7-1.7,2.9-4.1,3.4-6.7h-51.2L206.6,293.9z"/>
		<path class="st27" d="M206.6,293.9c1.7-0.4,3.3-1.2,4.6-2.4l91.3-89.9c1.7-1.7,2.9-4.1,3.4-6.7h-51.2L206.6,293.9z"/>
		<path class="st31" d="M154.7,194.9l48,99c1.3,0.3,2.6,0.3,3.9,0l48-99H154.7z"/>
		<path class="st8" d="M158.1,165.9c-8.9,2.9-11.2,5.2-14.1,14.1c-2.9-8.9-5.2-11.2-14.1-14.1c8.9-2.9,11.2-5.2,14.1-14.1
			C146.9,160.7,149.2,163,158.1,165.9z"/>
		<path class="st8" d="M182.3,145.7c-4.8,1.6-6.1,2.8-7.7,7.7c-1.6-4.8-2.8-6.1-7.7-7.6c4.8-1.6,6.1-2.8,7.7-7.7
			C176.2,142.9,177.4,144.2,182.3,145.7z"/>
		<path class="st8" d="M185.9,234.9c-4.8,1.6-6.1,2.8-7.7,7.7c-1.6-4.8-2.8-6.1-7.7-7.7c4.8-1.6,6.1-2.8,7.7-7.6
			C179.8,232.1,181.1,233.4,185.9,234.9z"/>
	</g>
</g>
<g id="Layer_11" class="st5">
	<g class="st6">
		<path class="st33" d="M209.2,104c-3.1-3.1-8.3-3.1-11.4,0l-58.9,58.4c-3.1,3.1-5.7,9.1-5.7,13.2v60.6c0,4.2,2.6,10.1,5.7,13.2
			l58.9,58.4c3.1,3.1,8.3,3.1,11.4,0l59-58.4c3.1-3.1,5.7-9.1,5.7-13.2v-60.6c0-4.2-2.6-10.1-5.7-13.2L209.2,104z"/>
		<path class="st34" d="M137.2,164.4c-2.3,3.3-4.1,7.9-4.1,11.3v60.6c0,4.2,2.6,10.1,5.7,13.2l2.4,2.3c16.3-6.3,34.4-13.4,36.2-14
			c3.4-1.2,0-56.6,0-56.6L137.2,164.4z"/>
		<path class="st33" d="M138.8,162.4c-1.6,1.6-3.1,4.1-4.2,6.6l40.8,13.6l28-31.6v-49.3c-2.1,0-4.1,0.8-5.7,2.3L138.8,162.4z"/>
		<path class="st35" d="M231.9,182.6l40.4-13.6c-1-2.5-2.5-5-4.2-6.6l-59-58.4c-1.6-1.5-3.6-2.3-5.7-2.3V151L231.9,182.6z"/>
		<path class="st33" d="M174.9,229.3l-40,14.1c1,2.3,2.4,4.5,3.9,6l58.9,58.4c1.6,1.6,3.6,2.3,5.7,2.3v-48.7L174.9,229.3z"/>
		<path class="st34" d="M268.1,249.4c1.5-1.5,2.9-3.7,3.9-6l-40-14.1l-28.6,32.2v48.7c2.1,0,4.1-0.8,5.7-2.3L268.1,249.4z"/>
		<polygon class="st36" points="167.1,232.1 167.1,179.7 203.5,143.7 239.9,179.7 239.9,232.1 203.5,268.1 		"/>
		<path class="st8" d="M167.1,212.8l64.2-41.6l8.6,8.5v10.4l-69.6,45.1l-3.1-3.1V212.8z M239.9,212.1v-9.4l-62,40.1l5.7,5.7
			L239.9,212.1z"/>
		<path class="st8" d="M186.4,156.9c-9.3,2.7-11.8,4.9-14.8,13.3c-3-8.3-5.5-10.5-14.8-13.3c9.3-2.7,11.8-4.9,14.8-13.3
			C174.6,152,177.1,154.2,186.4,156.9z"/>
		<path class="st8" d="M156.8,173.6c-5.1,1.5-6.4,2.7-8,7.2c-1.6-4.5-3-5.7-8-7.2c5.1-1.5,6.4-2.7,8-7.2
			C150.4,171,151.7,172.1,156.8,173.6z"/>
	</g>
</g>
<g id="Layer_12" class="st5">
	<g class="st6">
		<g>
			<path class="st34" d="M180.7,150.9h43.9l14.8-35.6c-2.2-0.9-4.6-1.5-6.6-1.5h-59.3c-2,0-4.4,0.6-6.6,1.5L180.7,150.9z"/>
			<path class="st33" d="M151.9,181.6l29.8-30.2l-14.8-36c-2.2,0.9-4.3,2.2-5.7,3.6l-41.9,41.9c-1.4,1.4-2.7,3.5-3.6,5.7
				L151.9,181.6z"/>
			<path class="st37" d="M115.7,239.1c0.9,2.2,2.2,4.3,3.6,5.7l41.9,41.9c1.4,1.4,3.5,2.7,5.7,3.6l14.3-34.5l-31-31L115.7,239.1z"/>
			<path class="st33" d="M255.5,180.2l-0.3,45.6l35.5,13.3c0.9-2.2,1.5-4.6,1.5-6.6v-59.3c0-2-0.6-4.4-1.5-6.6L255.5,180.2z"/>
			<path class="st37" d="M224.6,149.9l31.5,31l34.5-14.3c-0.9-2.2-2.2-4.3-3.6-5.7L245.1,119c-1.4-1.4-3.5-2.7-5.7-3.6L224.6,149.9z
				"/>
			<path class="st35" d="M114.3,173.2v59.3c0,2,0.6,4.3,1.5,6.6l34.5-14.3v-43.9l-34.5-14.3C114.8,168.8,114.3,171.2,114.3,173.2z"
				/>
			<path class="st36" d="M173.5,291.8h59.3c2,0,4.3-0.6,6.6-1.5L224.3,254h-42.1L167,290.3C169.2,291.2,171.6,291.8,173.5,291.8z"/>
			<path class="st34" d="M255.1,224.3L224.3,254l15.2,36.3c2.2-0.9,4.3-2.2,5.7-3.6l41.9-41.9c1.4-1.4,2.7-3.5,3.6-5.7L255.1,224.3z
				"/>
			<polygon class="st36" points="181.3,255.8 150.3,224.8 150.3,180.9 181.3,149.9 225.1,149.9 256.1,180.9 256.1,224.8 
				225.1,255.8 			"/>
			<g>
				<polygon class="st8" points="172.6,247.1 256.1,186.6 256.1,180.9 242.5,167.3 155.6,230.1 				"/>
				<polygon class="st8" points="256.1,213 256.1,201.7 181.4,255.8 196.9,255.8 				"/>
			</g>
			<path class="st8" d="M155.8,161.1c-8.2,2.7-10.3,4.8-12.9,13c-2.6-8.2-4.8-10.3-13-13c8.2-2.6,10.3-4.8,13-12.9
				C145.5,156.3,147.6,158.4,155.8,161.1z"/>
			<path class="st8" d="M139.3,191.1c-4.4,1.4-5.6,2.6-7,7c-1.4-4.4-2.6-5.6-7-7c4.4-1.4,5.6-2.6,7-7
				C133.7,188.5,134.9,189.7,139.3,191.1z"/>
			<path class="st8" d="M273.6,242.2c-4.4,1.4-5.6,2.6-7,7c-1.4-4.4-2.6-5.6-7-7c4.4-1.4,5.6-2.6,7-7
				C268,239.6,269.2,240.7,273.6,242.2z"/>
		</g>
	</g>
</g>
<g id="Layer_13">
	<g>
		<path class="st36" d="M281.5,138.6c-2.2-4.5-8.1-8.2-13.2-8.2h-54.4c-5,0-13.3,0-18.3,0h-54.4c-5,0-11,3.7-13.2,8.2l-23.6,48.3
			c-2.2,4.5-1.1,11.1,2.5,14.6l91.3,89.9c3.6,3.5,9.5,3.5,13,0l91.3-89.9c3.6-3.5,4.7-10.1,2.5-14.6L281.5,138.6z"/>
		<path class="st8" d="M258.1,154.5c-5.7-5.3-11.3-10.6-17.1-15.8c-0.2-0.2-0.5-0.4-0.7-0.6l-91.6,66.2l13.9,19.3L258.1,154.5z"/>
		<path class="st8" d="M273.5,168.9c-2.1-1.9-4.2-3.9-6.3-5.8l-106.6,77.1l5.4,7.4L274,169.4C273.8,169.2,273.6,169.1,273.5,168.9z"
			/>
		<path class="st35" d="M305.6,196.4c1-3.1,0.9-6.7-0.5-9.5l-23.6-48.3c-1.1-2.2-3.1-4.2-5.4-5.7l-21.4,62L305.6,196.4z"/>
		<path class="st34" d="M153.9,194.9l47.7-64.5c-3.2,0-6.3,0-8.7,0h-52c-2.6,0-5.4,1.1-7.8,2.8L153.9,194.9z"/>
		<path class="st37" d="M276.5,133.2c-2.5-1.7-5.5-2.8-8.2-2.8h-54.4c-2.5,0-5.8,0-9.1,0l49.9,64.5L276.5,133.2z"/>
		<path class="st12" d="M133.3,133c-2.3,1.5-4.2,3.4-5.3,5.6l-23.6,48.3c-1.2,2.4-1.4,5.5-0.8,8.3l51.8,1.4L133.3,133z"/>
		<path class="st33" d="M133.3,133c-2.3,1.5-4.2,3.4-5.3,5.6l-23.6,48.3c-1.2,2.4-1.4,5.5-0.8,8.3l51.8,1.4L133.3,133z"/>
		<path class="st38" d="M107,201.6l91.3,89.9c1.3,1.3,2.9,2.1,4.6,2.4l-48-99h-51.2C104.1,197.4,105.2,199.9,107,201.6z"/>
		<path class="st12" d="M206.7,293.9c1.7-0.4,3.3-1.2,4.6-2.4l91.3-89.9c1.7-1.7,2.9-4.1,3.4-6.7h-51.2L206.7,293.9z"/>
		<path class="st33" d="M206.7,293.9c1.7-0.4,3.3-1.2,4.6-2.4l91.3-89.9c1.7-1.7,2.9-4.1,3.4-6.7h-51.2L206.7,293.9z"/>
		<path class="st37" d="M154.8,194.9l48,99c1.3,0.3,2.6,0.3,3.9,0l48-99H154.8z"/>
		<path class="st8" d="M158.2,165.9c-8.9,2.9-11.2,5.2-14.1,14.1c-2.9-8.9-5.2-11.2-14.1-14.1c8.9-2.9,11.2-5.2,14.1-14.1
			C147,160.7,149.4,163,158.2,165.9z"/>
		<path class="st8" d="M182.4,145.7c-4.8,1.6-6.1,2.8-7.7,7.7c-1.6-4.8-2.8-6.1-7.7-7.6c4.8-1.6,6.1-2.8,7.7-7.7
			C176.3,142.9,177.6,144.2,182.4,145.7z"/>
		<path class="st8" d="M186,234.9c-4.8,1.6-6.1,2.8-7.7,7.7c-1.6-4.8-2.8-6.1-7.7-7.7c4.8-1.6,6.1-2.8,7.7-7.6
			C179.9,232.1,181.2,233.4,186,234.9z"/>
	</g>
</g>
<g id="Layer_14" class="st5">
	<g class="st6">
		<path class="st39" d="M209.2,103.4c-3.1-3.1-8.3-3.1-11.4,0l-58.9,58.4c-3.1,3.1-5.7,9.1-5.7,13.2v60.6c0,4.2,2.6,10.1,5.7,13.2
			l58.9,58.4c3.1,3.1,8.3,3.1,11.4,0l59-58.4c3.1-3.1,5.7-9.1,5.7-13.2V175c0-4.2-2.6-10.1-5.7-13.2L209.2,103.4z"/>
		<path class="st40" d="M137.2,163.7c-2.3,3.3-4.1,7.9-4.1,11.3v60.6c0,4.2,2.6,10.1,5.7,13.2l2.4,2.3c16.3-6.3,34.4-13.4,36.2-14
			c3.4-1.2,0-56.6,0-56.6L137.2,163.7z"/>
		<path class="st39" d="M138.8,161.8c-1.6,1.6-3.1,4.1-4.2,6.6l40.8,13.6l28-31.6V101c-2.1,0-4.1,0.8-5.7,2.3L138.8,161.8z"/>
		<path class="st41" d="M231.9,182l40.4-13.6c-1-2.5-2.5-5-4.2-6.6l-59-58.4c-1.6-1.5-3.6-2.3-5.7-2.3v49.3L231.9,182z"/>
		<path class="st42" d="M174.9,228.7l-40,14.1c1,2.3,2.4,4.5,3.9,6l58.9,58.4c1.6,1.6,3.6,2.3,5.7,2.3v-48.7L174.9,228.7z"/>
		<path class="st43" d="M268.1,248.8c1.5-1.5,2.9-3.7,3.9-6l-40-14.1l-28.6,32.2v48.7c2.1,0,4.1-0.8,5.7-2.3L268.1,248.8z"/>
		<polygon class="st44" points="167.1,231.5 167.1,179.1 203.5,143.1 239.9,179.1 239.9,231.5 203.5,267.5 		"/>
		<path class="st8" d="M167.1,212.2l64.2-41.6l8.6,8.5v10.4l-69.6,45.1l-3.1-3.1V212.2z M239.9,211.5v-9.4l-62,40.1l5.7,5.7
			L239.9,211.5z"/>
		<path class="st8" d="M186.4,156.3c-9.3,2.7-11.8,4.9-14.8,13.3c-3-8.3-5.5-10.5-14.8-13.3c9.3-2.7,11.8-4.9,14.8-13.3
			C174.6,151.4,177.1,153.6,186.4,156.3z"/>
		<path class="st8" d="M156.8,173c-5.1,1.5-6.4,2.7-8,7.2c-1.6-4.5-3-5.7-8-7.2c5.1-1.5,6.4-2.7,8-7.2
			C150.4,170.3,151.7,171.5,156.8,173z"/>
	</g>
</g>
<g id="Layer_15" class="st5">
	<g class="st6">
		<g>
			<path class="st45" d="M180.7,151.1h43.5l14.7-35.3c-2.2-0.9-4.6-1.5-6.5-1.5h-58.8c-2,0-4.3,0.6-6.5,1.5L180.7,151.1z"/>
			<path class="st39" d="M152.1,181.5l29.6-29.9L167,115.8c-2.2,0.9-4.3,2.2-5.7,3.6L119.8,161c-1.4,1.4-2.6,3.5-3.6,5.7
				L152.1,181.5z"/>
			<path class="st46" d="M116.2,238.5c0.9,2.2,2.2,4.3,3.6,5.7l41.6,41.6c1.4,1.4,3.4,2.6,5.7,3.6l14.2-34.2l-30.8-30.8L116.2,238.5
				z"/>
			<path class="st39" d="M254.8,180.1l-0.3,45.2l35.2,13.2c0.9-2.2,1.5-4.6,1.5-6.5v-58.8c0-2-0.6-4.3-1.5-6.5L254.8,180.1z"/>
			<path class="st47" d="M224.2,150.1l31.3,30.8l34.2-14.2c-0.9-2.2-2.2-4.3-3.6-5.7l-41.6-41.6c-1.4-1.4-3.5-2.6-5.7-3.6
				L224.2,150.1z"/>
			<path class="st48" d="M114.7,173.1V232c0,2,0.6,4.3,1.5,6.5l34.2-14.2v-43.5l-34.2-14.2C115.3,168.8,114.7,171.2,114.7,173.1z"/>
			<path class="st47" d="M173.5,290.8h58.8c2,0,4.3-0.6,6.5-1.5l-15-36H182l-15,36C169.2,290.2,171.6,290.8,173.5,290.8z"/>
			<path class="st45" d="M254.4,223.9l-30.6,29.4l15,36c2.2-0.9,4.3-2.2,5.7-3.6l41.6-41.6c1.4-1.4,2.6-3.5,3.6-5.7L254.4,223.9z"/>
			<polygon class="st44" points="181.2,255.1 150.4,224.3 150.4,180.8 181.2,150.1 224.7,150.1 255.4,180.8 255.4,224.3 
				224.7,255.1 			"/>
			<g>
				<polygon class="st8" points="172.6,246.4 255.4,186.5 255.4,180.8 241.9,167.3 155.7,229.6 				"/>
				<polygon class="st8" points="255.4,212.6 255.4,201.5 181.3,255.1 196.7,255.1 				"/>
			</g>
			<path class="st8" d="M155.9,161.1c-8.1,2.6-10.2,4.8-12.8,12.9c-2.6-8.1-4.8-10.2-12.9-12.8c8.1-2.6,10.2-4.7,12.8-12.8
				C145.7,156.4,147.8,158.5,155.9,161.1z"/>
			<path class="st8" d="M139.6,191c-4.4,1.4-5.5,2.6-7,7c-1.4-4.4-2.6-5.5-7-7c4.4-1.4,5.5-2.6,7-7C134,188.4,135.2,189.5,139.6,191
				z"/>
			<path class="st8" d="M272.8,241.6c-4.4,1.4-5.5,2.6-7,7c-1.4-4.4-2.6-5.5-7-7c4.4-1.4,5.5-2.6,7-7
				C267.2,239,268.4,240.1,272.8,241.6z"/>
		</g>
	</g>
</g>
<g id="Layer_16" class="st5">
	<g class="st6">
		<path class="st44" d="M281.3,138.6c-2.2-4.5-8.1-8.2-13.1-8.2h-54.3c-5,0-13.2,0-18.2,0h-54.3c-5,0-10.9,3.7-13.1,8.2l-23.5,48.2
			c-2.2,4.5-1.1,11.1,2.5,14.6l91,89.6c3.6,3.5,9.4,3.5,13,0l91-89.6c3.6-3.5,4.7-10.1,2.5-14.6L281.3,138.6z"/>
		<path class="st8" d="M257.9,154.4c-5.6-5.3-11.3-10.6-17.1-15.7c-0.2-0.2-0.5-0.4-0.7-0.6l-91.4,66.1l13.9,19.2L257.9,154.4z"/>
		<path class="st8" d="M273.3,168.8c-2.1-1.9-4.2-3.9-6.3-5.8l-106.3,76.9l5.3,7.4l107.8-77.9C273.6,169.1,273.4,169,273.3,168.8z"
			/>
		<path class="st41" d="M305.3,196.2c1-3.1,0.9-6.7-0.5-9.4l-23.5-48.2c-1.1-2.2-3.1-4.2-5.4-5.7l-21.3,61.8L305.3,196.2z"/>
		<path class="st49" d="M154,194.7l47.6-64.3c-3.2,0-6.3,0-8.7,0H141c-2.6,0-5.4,1.1-7.8,2.8L154,194.7z"/>
		<path class="st49" d="M276.3,133.2c-2.5-1.7-5.4-2.8-8.1-2.8h-54.3c-2.5,0-5.8,0-9.1,0l49.8,64.3L276.3,133.2z"/>
		<path class="st12" d="M133.5,133c-2.3,1.5-4.2,3.4-5.3,5.6l-23.5,48.2c-1.2,2.4-1.4,5.5-0.8,8.3l51.6,1.4L133.5,133z"/>
		<path class="st39" d="M133.5,133c-2.3,1.5-4.2,3.4-5.3,5.6l-23.5,48.2c-1.2,2.4-1.4,5.5-0.8,8.3l51.6,1.4L133.5,133z"/>
		<path class="st50" d="M107.2,201.4l91,89.6c1.3,1.3,2.9,2.1,4.6,2.4L155,194.7h-51.1C104.4,197.3,105.5,199.7,107.2,201.4z"/>
		<path class="st12" d="M206.7,293.5c1.7-0.4,3.3-1.2,4.6-2.4l91-89.6c1.7-1.7,2.9-4.1,3.4-6.7h-51.1L206.7,293.5z"/>
		<path class="st39" d="M206.7,293.5c1.7-0.4,3.3-1.2,4.6-2.4l91-89.6c1.7-1.7,2.9-4.1,3.4-6.7h-51.1L206.7,293.5z"/>
		<path class="st51" d="M155,194.7l47.9,98.8c1.3,0.3,2.6,0.3,3.9,0l47.9-98.8H155z"/>
		<path class="st8" d="M158.4,165.8c-8.9,2.9-11.2,5.2-14.1,14.1c-2.9-8.9-5.2-11.2-14.1-14.1c8.9-2.9,11.2-5.2,14.1-14.1
			C147.2,160.6,149.5,162.9,158.4,165.8z"/>
		<path class="st8" d="M182.5,145.7c-4.8,1.6-6.1,2.8-7.6,7.6c-1.6-4.8-2.8-6.1-7.6-7.6c4.8-1.6,6.1-2.8,7.6-7.6
			C176.4,142.9,177.6,144.1,182.5,145.7z"/>
		<path class="st8" d="M186.1,234.7c-4.8,1.6-6.1,2.8-7.6,7.6c-1.6-4.8-2.8-6.1-7.6-7.6c4.8-1.6,6.1-2.8,7.6-7.6
			C180,231.8,181.3,233.1,186.1,234.7z"/>
	</g>
</g>
<g id="Layer_17" class="st5">
	<g class="st6">
		<path class="st52" d="M209.4,103.4c-3.1-3.1-8.3-3.1-11.4,0L139,161.8c-3.1,3.1-5.7,9.1-5.7,13.2v60.6c0,4.2,2.6,10.1,5.7,13.2
			l58.9,58.4c3.1,3.1,8.3,3.1,11.4,0l59-58.4c3.1-3.1,5.7-9.1,5.7-13.2V175c0-4.2-2.6-10.1-5.7-13.2L209.4,103.4z"/>
		<path class="st52" d="M137.4,163.7c-2.3,3.3-4.1,7.9-4.1,11.3v60.6c0,4.2,2.6,10.1,5.7,13.2l2.4,2.3c16.3-6.3,34.4-13.4,36.2-14
			c3.4-1.2,0-56.6,0-56.6L137.4,163.7z"/>
		<path class="st53" d="M139,161.8c-1.6,1.6-3.1,4.1-4.2,6.6l40.8,13.6l28-31.6V101c-2.1,0-4.1,0.8-5.7,2.3L139,161.8z"/>
		<path class="st54" d="M232.1,182l40.4-13.6c-1-2.5-2.5-5-4.2-6.6l-59-58.4c-1.6-1.5-3.6-2.3-5.7-2.3v49.3L232.1,182z"/>
		<path class="st54" d="M175.1,228.7l-40,14.1c1,2.3,2.4,4.5,3.9,6l58.9,58.4c1.6,1.6,3.6,2.3,5.7,2.3v-48.7L175.1,228.7z"/>
		<path class="st53" d="M268.3,248.8c1.5-1.5,2.9-3.7,3.9-6l-40-14.1l-28.6,32.2v48.7c2.1,0,4.1-0.8,5.7-2.3L268.3,248.8z"/>
		<polygon class="st55" points="167.3,231.5 167.3,179.1 203.7,143.1 240.1,179.1 240.1,231.5 203.7,267.5 		"/>
		<path class="st8" d="M167.3,212.2l64.2-41.6l8.6,8.5v10.4l-69.6,45.1l-3.1-3.1V212.2z M240.1,211.5v-9.4l-62,40.1l5.7,5.7
			L240.1,211.5z"/>
		<path class="st8" d="M186.6,156.3c-9.3,2.7-11.8,4.9-14.8,13.3c-3-8.3-5.5-10.5-14.8-13.3c9.3-2.7,11.8-4.9,14.8-13.3
			C174.8,151.4,177.3,153.6,186.6,156.3z"/>
		<path class="st8" d="M157,173c-5.1,1.5-6.4,2.7-8,7.2c-1.6-4.5-3-5.7-8-7.2c5.1-1.5,6.4-2.7,8-7.2
			C150.6,170.3,151.9,171.5,157,173z"/>
	</g>
</g>
<g id="Layer_18" class="st5">
	<g class="st6">
		<g>
			<path class="st54" d="M180.7,151.1h43.5l14.7-35.3c-2.2-0.9-4.6-1.5-6.5-1.5h-58.8c-2,0-4.3,0.6-6.5,1.5L180.7,151.1z"/>
			<path class="st52" d="M152.1,181.5l29.6-29.9L167,115.8c-2.2,0.9-4.3,2.2-5.7,3.6L119.8,161c-1.4,1.4-2.6,3.5-3.6,5.7
				L152.1,181.5z"/>
			<path class="st54" d="M116.2,238.5c0.9,2.2,2.2,4.3,3.6,5.7l41.6,41.6c1.4,1.4,3.4,2.6,5.7,3.6l14.2-34.2l-30.8-30.8L116.2,238.5
				z"/>
			<path class="st53" d="M254.8,180.1l-0.3,45.2l35.2,13.2c0.9-2.2,1.5-4.6,1.5-6.5v-58.8c0-2-0.6-4.3-1.5-6.5L254.8,180.1z"/>
			<path class="st56" d="M224.2,150.1l31.3,30.8l34.2-14.2c-0.9-2.2-2.2-4.3-3.6-5.7l-41.6-41.6c-1.4-1.4-3.5-2.6-5.7-3.6
				L224.2,150.1z"/>
			<path class="st56" d="M114.7,173.1V232c0,2,0.6,4.3,1.5,6.5l34.2-14.2v-43.5l-34.2-14.2C115.3,168.8,114.7,171.2,114.7,173.1z"/>
			<path class="st57" d="M173.5,290.8h58.8c2,0,4.3-0.6,6.5-1.5l-15-36H182l-15,36C169.2,290.2,171.6,290.8,173.5,290.8z"/>
			<path class="st52" d="M254.4,223.9l-30.6,29.4l15,36c2.2-0.9,4.3-2.2,5.7-3.6l41.6-41.6c1.4-1.4,2.6-3.5,3.6-5.7L254.4,223.9z"/>
			<polygon class="st55" points="181.2,255.1 150.4,224.3 150.4,180.8 181.2,150.1 224.7,150.1 255.4,180.8 255.4,224.3 
				224.7,255.1 			"/>
			<g>
				<polygon class="st8" points="172.6,246.4 255.4,186.5 255.4,180.8 241.9,167.3 155.7,229.6 				"/>
				<polygon class="st8" points="255.4,212.6 255.4,201.5 181.3,255.1 196.7,255.1 				"/>
			</g>
			<path class="st8" d="M155.9,161.1c-8.1,2.6-10.2,4.8-12.8,12.9c-2.6-8.1-4.8-10.2-12.9-12.8c8.1-2.6,10.2-4.7,12.8-12.8
				C145.7,156.4,147.8,158.5,155.9,161.1z"/>
			<path class="st8" d="M139.6,191c-4.4,1.4-5.5,2.6-7,7c-1.4-4.4-2.6-5.5-7-7c4.4-1.4,5.5-2.6,7-7C134,188.4,135.2,189.5,139.6,191
				z"/>
			<path class="st8" d="M272.8,241.6c-4.4,1.4-5.5,2.6-7,7c-1.4-4.4-2.6-5.5-7-7c4.4-1.4,5.5-2.6,7-7
				C267.2,239,268.4,240.1,272.8,241.6z"/>
		</g>
	</g>
</g>
<g id="Layer_19" class="st5">
	<g class="st6">
		<path class="st55" d="M281.9,136.4c-2.2-4.6-8.2-8.3-13.3-8.3h-55c-5.1,0-13.4,0-18.5,0h-55c-5.1,0-11.1,3.7-13.3,8.3l-23.9,48.9
			c-2.2,4.6-1.1,11.2,2.5,14.8l92.3,90.9c3.6,3.6,9.6,3.6,13.2,0l92.3-90.9c3.6-3.6,4.8-10.2,2.5-14.8L281.9,136.4z"/>
		<path class="st8" d="M258.3,152.5c-5.7-5.4-11.5-10.8-17.3-16c-0.2-0.2-0.5-0.4-0.7-0.7l-92.7,67l14.1,19.5L258.3,152.5z"/>
		<path class="st8" d="M273.8,167c-2.1-2-4.2-3.9-6.3-5.9l-107.8,77.9l5.4,7.5l109.3-79C274.2,167.4,274,167.2,273.8,167z"/>
		<path class="st52" d="M306.3,194.9c1-3.2,0.9-6.8-0.5-9.6l-23.9-48.9c-1.1-2.2-3.1-4.3-5.5-5.8l-21.6,62.7L306.3,194.9z"/>
		<path class="st54" d="M153.9,193.3l50.5-65.2c-3.4,0-6.7,0-9.3,0h-55c-2.7,0-5.7,1.1-8.3,2.8L153.9,193.3z"/>
		<path class="st58" d="M276.9,130.9c-2.5-1.7-5.5-2.8-8.3-2.8h-55c-2.5,0-5.9,0-9.3,0l50.5,65.2L276.9,130.9z"/>
		<path class="st53" d="M132.1,130.7c-2.3,1.5-4.3,3.5-5.3,5.7l-23.9,48.9c-1.2,2.5-1.4,5.5-0.8,8.4l51.7-0.4L132.1,130.7z"/>
		<path class="st52" d="M105.4,200.1l92.3,90.9c1.3,1.3,2.9,2.1,4.6,2.5l-48.5-100.2H102C102.5,195.9,103.7,198.4,105.4,200.1z"/>
		<path class="st12" d="M206.3,293.5c1.7-0.4,3.3-1.2,4.6-2.5l92.3-90.9c1.8-1.7,2.9-4.2,3.4-6.8h-51.8L206.3,293.5z"/>
		<path class="st59" d="M206.3,293.5c1.7-0.4,3.3-1.2,4.6-2.5l92.3-90.9c1.8-1.7,2.9-4.2,3.4-6.8h-51.8L206.3,293.5z"/>
		<path class="st54" d="M153.9,193.3l48.5,100.2c1.3,0.3,2.6,0.3,3.9,0l48.5-100.2H153.9z"/>
		<path class="st8" d="M157.3,164c-9,2.9-11.3,5.3-14.3,14.3c-2.9-9-5.3-11.3-14.3-14.3c9-2.9,11.3-5.3,14.3-14.3
			C145.9,158.7,148.3,161.1,157.3,164z"/>
		<path class="st8" d="M181.7,143.6c-4.9,1.6-6.2,2.9-7.7,7.7c-1.6-4.9-2.9-6.2-7.7-7.7c4.9-1.6,6.2-2.9,7.7-7.7
			C175.6,140.7,176.8,142,181.7,143.6z"/>
		<path class="st8" d="M185.4,233.8c-4.9,1.6-6.2,2.9-7.7,7.7c-1.6-4.9-2.9-6.2-7.7-7.7c4.9-1.6,6.2-2.9,7.7-7.7
			C179.2,231,180.5,232.3,185.4,233.8z"/>
	</g>
</g>
</svg>
