<?xml version="1.0" encoding="utf-8"?>
<!-- Generator: Adobe Illustrator 22.1.0, SVG Export Plug-In . SVG Version: 6.00 Build 0)  -->
<svg version="1.1" id="Capa_1" xmlns="http://www.w3.org/2000/svg" xmlns:xlink="http://www.w3.org/1999/xlink" x="0px" y="0px"
	 viewBox="0 0 512 512" style="enable-background:new 0 0 512 512;" xml:space="preserve">
<style type="text/css">
	.st0{fill:#495F7A;}
	.st1{fill:#31465B;}
	.st2{fill:#FFFFFF;}
	.st3{fill:#FFC200;}
	.st4{fill:#E9EDF5;}
	.st5{fill:#FF9500;}
</style>
<g>
	<g>
		<g>
			<g>
				<g>
					<g>
						<g>
							<g>
								<g>
									<g>
										<circle class="st0" cx="256" cy="256" r="256"/>
									</g>
								</g>
							</g>
						</g>
					</g>
				</g>
			</g>
		</g>
	</g>
	<path class="st1" d="M512,256c0-14.8-1.3-29.2-3.7-43.3L409,113.4l-73.2,25.4L274,77l-2.8,49.8L103,147.4l35.5,35.5L66.7,327.3
		l184.6,184.6c1.6,0,3.1,0.1,4.7,0.1C397.4,512,512,397.4,512,256z"/>
	<g>
		<g>
			<polygon class="st2" points="92.2,302.4 61.2,288.5 139.4,114.5 217.7,288.5 186.7,302.4 139.4,197.4 			"/>
		</g>
		<g>
			<path class="st3" d="M230.3,284.4c0,39.6-40.7,71.6-90.9,71.6S48.6,324,48.6,284.4H230.3z"/>
		</g>
		<g>
			<polygon class="st4" points="419.8,302.4 372.6,197.4 325.3,302.4 294.3,288.5 372.6,114.5 450.8,288.5 			"/>
		</g>
		<g>
			<path class="st5" d="M463.4,284.4c0,39.6-40.7,71.6-90.9,71.6s-90.9-32.1-90.9-71.6H463.4z"/>
		</g>
	</g>
	<g>
		<rect x="103" y="113.4" class="st2" width="306" height="34"/>
	</g>
	<g>
		<rect x="255.9" y="113.4" class="st4" width="153.1" height="34"/>
	</g>
	<g>
		<rect x="238" y="77" class="st3" width="36" height="339"/>
	</g>
	<g>
		<rect x="255.9" y="77" class="st5" width="18.1" height="339"/>
	</g>
	<g>
		<rect x="172.7" y="395.3" class="st3" width="166.6" height="36"/>
	</g>
	<g>
		<rect x="255.9" y="395.3" class="st5" width="83.4" height="36"/>
	</g>
</g>
</svg>
