<?xml version="1.0" encoding="utf-8"?>
<!-- Generator: Adobe Illustrator 22.1.0, SVG Export Plug-In . SVG Version: 6.00 Build 0)  -->
<svg version="1.1" id="Layer_1" xmlns="http://www.w3.org/2000/svg" xmlns:xlink="http://www.w3.org/1999/xlink" x="0px" y="0px"
	 viewBox="0 0 512 512" style="enable-background:new 0 0 512 512;" xml:space="preserve">
<style type="text/css">
	.st0{fill:#57A4FF;}
	.st1{fill:#FFFFFF;}
	.st2{fill:#FF3F62;}
	.st3{fill:#2488FF;}
	.st4{fill:#C6C5CA;}
	.st5{fill:#C70024;}
</style>
<path class="st0" d="M463.5,297.5c0,114.3-92.7,207-207,207c-114.3,0-207-92.7-207-207s92.7-207,207-207
	C370.8,90.5,463.5,183.2,463.5,297.5z"/>
<path class="st0" d="M317.1,54.2H195.9c-1.5-1.5-2.3-2.3-3.8-3.7V11.2c1.5-1.5,2.3-2.3,3.8-3.7h121.3c1.5,1.5,2.3,2.3,3.8,3.7v39.2
	C319.4,51.9,318.6,52.7,317.1,54.2z"/>
<path class="st1" d="M223.2,54.2h66.6v35.1h-66.6V54.2z"/>
<path class="st1" d="M413.1,297.5c0,86.5-70.1,156.6-156.6,156.6C170,454.1,99.9,384,99.9,297.5S170,140.9,256.5,140.9
	C343,140.9,413.1,211,413.1,297.5z"/>
<path class="st2" d="M256.5,140.9c86.3,0,156.6,70.2,156.6,156.6H256.5V140.9z"/>
<path class="st3" d="M79.5,297.5c0-109.3,84.7-198.8,192-206.5c-5-0.4-9.9-0.5-15-0.5c-114.3,0-207,92.7-207,207
	c0,114.3,92.7,207,207,207c5,0,10-0.2,15-0.5C164.2,496.3,79.5,406.8,79.5,297.5z"/>
<path class="st3" d="M222.1,11.2c1.5-1.5,2.3-2.3,3.7-3.7h-30c-1.5,1.5-2.3,2.3-3.8,3.7v39.2l3.8,3.7h30l-3.7-3.7V11.2z"/>
<path class="st4" d="M223.2,54.2h30v35.1h-30V54.2z"/>
<path class="st4" d="M129.9,297.5c0-81.4,62.1-148.3,141.6-155.9c-4.9-0.5-9.9-0.7-15-0.7C170,140.9,99.9,211,99.9,297.5
	c0,86.5,70.1,156.6,156.6,156.6c5.1,0,10.1-0.3,15-0.7C192,445.8,129.9,378.9,129.9,297.5z"/>
<path class="st5" d="M256.5,140.9v156.6h30V143.8C276.8,141.9,266.8,140.9,256.5,140.9z"/>
<path d="M297.3,86.9V61.7h22.9l8.1-8.1V8.1L320.2,0H192.8l-8.1,8.1v45.4l8.1,8.1h22.9v25.2C118.6,105.5,42,191.1,42,297.5
	C42,416,137.9,512,256.5,512C375,512,471,416.1,471,297.5C471,191.1,394.4,105.5,297.3,86.9z M199.6,15h113.8v31.7h-16.1V27.5h-15
	v19.2H264V27.5h-15v19.2h-18.5V27.5h-15v19.2h-15.9V15z M282.3,61.7v20.1h-51.6V61.7H282.3z M256.5,497C146.5,497,57,407.5,57,297.5
	S146.5,98,256.5,98S456,187.5,456,297.5S366.5,497,256.5,497z"/>
<path d="M256.5,133.4C166,133.4,92.4,207,92.4,297.5S166,461.6,256.5,461.6S420.6,388,420.6,297.5S347,133.4,256.5,133.4z
	 M356.4,187l-25.3,25.3l10.6,10.6l25.3-25.3c23.9,26.5,38.6,61.5,38.6,99.9S391,371,367,397.4l-25.3-25.3l-10.6,10.6l25.3,25.3
	c-24.7,22.4-57,36.6-92.4,38.4v-35.8h-15v35.8c-35.5-1.8-67.7-16-92.4-38.4l25.3-25.3l-10.6-10.6L146,397.4
	c-22.4-24.7-36.6-57-38.4-92.4h35.8v-15h-35.8c1.8-35.5,16-67.7,38.4-92.4l25.3,25.3l10.6-10.6L156.6,187
	c26.5-23.9,61.5-38.6,99.9-38.6S330,163,356.4,187z"/>
<path d="M393.1,290H264V160.9h-15V305h144.1V290z"/>
<path class="st1" d="M365.9,162.7c-18.4-15.2-39.3-26.2-62.2-32.7l4.1-14.4c24.8,7.1,47.6,19,67.6,35.6L365.9,162.7z M294.5,127.7
	c-4.6-1-9.4-1.9-14.1-2.6l2.1-14.9c5.1,0.7,10.3,1.7,15.4,2.8L294.5,127.7z M270.9,124c-4.7-0.4-9.6-0.6-14.4-0.6v-15
	c5.2,0,10.4,0.2,15.6,0.6L270.9,124z"/>
</svg>
