<?xml version="1.0" encoding="utf-8"?>
<!-- Generator: Adobe Illustrator 22.1.0, SVG Export Plug-In . SVG Version: 6.00 Build 0)  -->
<svg version="1.1" id="Layer_1" xmlns="http://www.w3.org/2000/svg" xmlns:xlink="http://www.w3.org/1999/xlink" x="0px" y="0px"
	 viewBox="0 0 512 512" style="enable-background:new 0 0 512 512;" xml:space="preserve">
<style type="text/css">
	.st0{fill:#FFDC00;}
	.st1{fill:#FEC108;}
	.st2{fill:#FF9801;}
	.st3{fill:#F57C00;}
</style>
<g id="_x30_36---Up-Arrow">
	<g id="Icons" transform="translate(2)">
		<path id="Shape" class="st0" d="M497.2,230.4v43.7c-0.1,22.4-10.1,43.7-27.3,58s-39.9,20.4-62,16.5c-26-4.3-37.8-17.9-58.4-36.3
			c-2.5-2.3-6.1-2.8-9.2-1.4c-3.1,1.4-5.1,4.5-5,7.8v107.8c0,22.6-10,44.1-27.3,58.7c-17.3,14.6-40.1,20.9-62.4,17.1h-0.1
			c-37.5-7.2-64.5-40.2-64.2-78.4V318.8c0-3.4-2-6.5-5-7.8c-3.1-1.4-6.7-0.8-9.2,1.4c-13.7,12.2-9.1,8.2-20,17.8
			c-22.4,20-54.4,25.2-81.9,13.1c-27.5-12.1-45.4-39.1-45.8-69.2v-43.8c0.4-22.6,10.3-44,27.1-59.1C184.6,48,206.5,29.3,206.5,28.4
			c19.9-18.1,47.9-24.5,73.7-16.7c23.3,7.1,21.3,9.1,190,159.7C487,186.4,496.8,207.8,497.2,230.4L497.2,230.4z"/>
		<path id="Shape_1_" class="st1" d="M470.1,171.3C301.5,20.8,303.5,18.8,280.2,11.7c-11.5-3.1-23.5-3.8-35.3-1.9
			c3.1,0.5,6.4,1.1,9.7,1.9c23.3,7.1,21.3,9.1,190,159.7c16.9,15,26.7,36.5,27.1,59.1v43.7c-0.1,37-26.9,68.5-63.4,74.6
			c22.1,3.8,44.7-2.3,61.8-16.7s27.1-35.6,27.2-57.9v-43.7C496.8,207.8,487,186.4,470.1,171.3z"/>
		<path id="Shape_2_" class="st1" d="M323.9,312.4c-2.5-2.3-6.1-2.8-9.2-1.4c-3.1,1.4-5.1,4.5-5,7.8v107.8
			c-0.1,37.5-27.2,69.5-64.2,75.8h0.1c22.3,3.7,45.1-2.5,62.4-17.1c17.3-14.6,27.3-36,27.3-58.7V322.7
			C331.7,319.4,328,316.1,323.9,312.4z"/>
		<path id="Shape_3_" class="st2" d="M181.3,276.1v42.7c0-3.4-2-6.5-5-7.8s-6.7-0.8-9.2,1.4l-20,17.8
			c-15.9,14.2-36.9,21.1-58.1,19.2c-21.2-1.9-40.7-12.5-53.8-29.2c-10.3-13.1-15.9-29.4-15.8-46.1l0-42.6c0,12.3,3,24.5,8.8,35.3
			c2,3.7,4.4,7.3,7,10.7c13.1,16.8,32.6,27.3,53.8,29.2s42.3-5.1,58.1-19.2l20-17.8c2.5-2.3,6.1-2.8,9.2-1.4
			C179.3,269.7,181.3,272.8,181.3,276.1L181.3,276.1z"/>
		<path id="Shape_4_" class="st2" d="M335.2,383.9v42.7c0,21.3-8.9,41.6-24.4,56.1c-15.6,14.5-36.4,21.9-57.7,20.5
			c-41-3.5-72.3-38.1-71.9-79.3v-42.7c-0.5,41.2,30.8,75.7,71.9,79.3c21.2,1.4,42.1-6,57.7-20.5S335.2,405.2,335.2,383.9z"/>
		<path id="Shape_5_" class="st3" d="M497.2,231.4l0,42.7c0.1,17.4-6,34.3-17.1,47.8c-14.6,17.7-36.4,27.9-59.4,27.9
			c-4.3,0-8.6-0.4-12.9-1.1c-14.3-2.4-27.6-8.8-38.4-18.4l-20-17.8c-2.5-2.3-6.1-2.8-9.2-1.4c-3.1,1.4-5.1,4.5-5,7.8v-42.7
			c0-3.4,2-6.5,5-7.8c3.1-1.4,6.7-0.8,9.2,1.4l20,17.8c10.8,9.7,24.1,16,38.4,18.4c4.3,0.8,8.6,1.1,12.9,1.1
			c18,0,35.5-6.3,49.3-17.8C487.3,275,497.3,253.8,497.2,231.4z"/>
	</g>
	<g id="Layer_10" transform="translate(0 -1)">
		<path id="Shape_6_" d="M74.7,205.8c4.6,0-2.9,5.5,101.3-87.5c2.3-2,3.3-5.1,2.7-8.1c-0.6-3-2.8-5.4-5.7-6.4
			c-2.9-1-6.1-0.3-8.4,1.7L69,190.9c-2.6,2.4-3.6,6.1-2.3,9.4S71.2,205.8,74.7,205.8L74.7,205.8z"/>
		<path id="Shape_7_" d="M200.5,93.5c4.3,0,2,1.2,39.8-32.6c2.3-2,3.3-5.1,2.7-8.1c-0.6-3-2.8-5.4-5.7-6.4c-2.9-1-6.1-0.3-8.4,1.7
			l-34.1,30.5c-2.6,2.4-3.6,6.1-2.3,9.4C193.8,91.3,197,93.5,200.5,93.5z"/>
		<path id="Shape_8_" d="M174.8,424.9c-0.3,23,8.5,45.2,24.6,61.7s38,25.9,61,26.2c47.1,0,85.4-38.2,85.4-85.3V319.8l20,17.9
			c23.4,21,56.5,27.3,86,16.5c29.5-10.8,50.7-37,55.1-68.1c0.5-1.1,0.8-2.3,0.8-3.5c0-58.6,0.1-50.5-0.3-52.9
			c-0.7-24.4-11.4-47.5-29.6-63.8L316.6,22.1c-32.5-28.4-81.1-28.1-113.3,0.6L42.8,165.9c-19.1,16.9-30,41.2-30,66.6
			c0,54.3-0.3,51.1,0.8,53.4c4.4,31.2,25.6,57.4,55.1,68.1c29.6,10.8,62.6,4.4,86.1-16.6l20-17.8V424.9z M377.2,324.9l-20-17.8
			c-3.1-2.8-7.2-4.3-11.4-4.2v-25.7l20,17.8c17.6,15.8,41,23.5,64.6,21.4c23.6-2.1,45.2-13.9,59.7-32.5
			c-3.6,24.9-20.5,45.8-44.2,54.4C422.3,346.8,395.9,341.7,377.2,324.9L377.2,324.9z M54.1,178.7C274.7-18.3,199,49.8,215.2,35
			c20.1-17.6,48.6-21.9,73.1-11c13.9,6.2,8.4,3.1,178.2,154.8c28.1,24.5,32.1,66.7,9.1,96c-11.9,14.3-29.1,23.3-47.6,24.7
			c-18.6,1.4-36.9-4.8-50.8-17.2l-20-17.8c-5-4.5-12.2-5.6-18.4-2.9c-6.2,2.8-10.1,8.9-10.1,15.6v107.8c0.1,18.9-7.8,36.9-21.6,49.8
			c-20.3,18.8-49.9,23.5-75,12.1s-41-36.8-40.2-64.5V277.1c0-6.7-3.9-12.9-10.1-15.6s-13.3-1.6-18.4,2.9l-19.9,17.8
			c-18.4,16.4-44.3,21.7-67.7,13.7c-23.4-8-40.6-28-45.1-52.3S35.2,194.5,54.1,178.7L54.1,178.7z M163.4,307l-20,17.8
			c-18.7,16.8-45,21.9-68.6,13.4c-23.6-8.5-40.6-29.4-44.2-54.2c14.6,18.5,36.3,30.2,59.8,32.2c23.5,2.1,46.8-5.7,64.4-21.4l20-17.8
			v25.7C170.6,302.8,166.5,304.3,163.4,307L163.4,307z M328,436.7c-2,15.5-9.4,29.9-20.9,40.6c-18.7,17.5-45.6,23.1-69.7,14.4
			c-24.1-8.6-41.3-30.1-44.6-55.5c15.9,21.3,40.9,33.9,67.5,34S312,458,328,436.7L328,436.7z"/>
	</g>
</g>
</svg>
