<?xml version="1.0" encoding="utf-8"?>
<!-- Generator: Adobe Illustrator 22.1.0, SVG Export Plug-In . SVG Version: 6.00 Build 0)  -->
<svg version="1.1" id="Layer_1" xmlns="http://www.w3.org/2000/svg" xmlns:xlink="http://www.w3.org/1999/xlink" x="0px" y="0px"
	 viewBox="0 0 512 512" style="enable-background:new 0 0 512 512;" xml:space="preserve">
<style type="text/css">
	.st0{fill:#FF7045;}
	.st1{fill:#EA3F24;}
	.st2{fill:#414952;}
	.st3{fill:#23272B;}
	.st4{fill:#FFFFFF;}
	.st5{fill:#E9EDF5;}
</style>
<path class="st0" d="M512,256c0,141.4-114.6,256-256,256S0,397.4,0,256S114.6,0,256,0S512,114.6,512,256z"/>
<path class="st1" d="M107.3,333l177.4,177.4C412.6,496.1,512,387.7,512,256c0-13.9-1.1-27.5-3.2-40.7L404.7,111.2L107.3,333z"/>
<path class="st2" d="M404.7,111.2H107.3V333h93.5l55.2,83.4l55.2-83.4h93.5V111.2z"/>
<path class="st3" d="M256,111.2v305.2l55.2-83.4h93.5V111.2H256z"/>
<g>
	<path class="st4" d="M162.6,268.1h-14.8v-55.9c-5.4,5.1-11.8,8.8-19.2,11.3V210c3.9-1.3,8.1-3.7,12.6-7.2c4.5-3.5,7.7-7.7,9.3-12.4
		h12V268.1z"/>
	<path class="st4" d="M209.8,190.4c7.5,0,13.4,2.7,17.6,8c5,6.3,7.6,16.8,7.6,31.5c0,14.6-2.5,25.2-7.6,31.6
		c-4.2,5.3-10,7.9-17.5,7.9c-7.5,0-13.6-2.9-18.2-8.7c-4.6-5.8-6.9-16.1-6.9-31c0-14.6,2.5-25.1,7.6-31.5
		C196.5,193,202.3,190.4,209.8,190.4z M209.8,202.7c-1.8,0-3.4,0.6-4.8,1.7s-2.5,3.2-3.3,6.2c-1,3.8-1.5,10.3-1.5,19.4
		s0.5,15.3,1.4,18.7c0.9,3.4,2.1,5.7,3.5,6.8c1.4,1.1,3,1.7,4.8,1.7c1.8,0,3.4-0.6,4.8-1.7c1.4-1.1,2.5-3.2,3.3-6.2
		c1-3.8,1.5-10.2,1.5-19.3s-0.5-15.3-1.4-18.7c-0.9-3.4-2.1-5.7-3.5-6.8S211.6,202.7,209.8,202.7z"/>
	<path class="st4" d="M270,190.4c7.5,0,13.4,2.7,17.6,8c5,6.3,7.6,16.8,7.6,31.5c0,14.6-2.5,25.2-7.6,31.6c-4.2,5.3-10,7.9-17.5,7.9
		c-7.5,0-13.6-2.9-18.2-8.7c-4.6-5.8-6.9-16.1-6.9-31c0-14.6,2.5-25.1,7.6-31.5C256.6,193,262.5,190.4,270,190.4z M270,202.7
		c-1.8,0-3.4,0.6-4.8,1.7c-1.4,1.1-2.5,3.2-3.3,6.2c-1,3.8-1.5,10.3-1.5,19.4s0.5,15.3,1.4,18.7c0.9,3.4,2.1,5.7,3.5,6.8
		c1.4,1.1,3,1.7,4.8,1.7c1.8,0,3.4-0.6,4.8-1.7c1.4-1.1,2.5-3.2,3.3-6.2c1-3.8,1.5-10.2,1.5-19.3s-0.5-15.3-1.4-18.7
		c-0.9-3.4-2.1-5.7-3.5-6.8S271.7,202.7,270,202.7z"/>
</g>
<path class="st5" d="M287.5,198.4c-4.2-5.4-10.1-8-17.6-8c-5.6,0-10.2,1.5-14,4.4V265c3.9,3,8.5,4.5,14,4.5c7.5,0,13.3-2.6,17.5-7.9
	c5.1-6.4,7.6-16.9,7.6-31.6C295.1,215.3,292.6,204.8,287.5,198.4z M278,249.3c-0.8,3-1.9,5-3.3,6.2s-3,1.7-4.8,1.7
	c-1.8,0-3.4-0.6-4.8-1.7c-1.4-1.1-2.5-3.4-3.5-6.8c-0.9-3.4-1.4-9.6-1.4-18.7s0.5-15.5,1.5-19.4c0.8-3,1.9-5,3.3-6.2
	c1.4-1.1,3-1.7,4.8-1.7c1.8,0,3.4,0.6,4.8,1.7c1.4,1.1,2.5,3.4,3.5,6.8c0.9,3.4,1.4,9.6,1.4,18.7S279.1,245.5,278,249.3z"/>
<path class="st5" d="M322.4,223c-2.5,0-4.8-0.4-6.9-1.3c-2.2-0.9-4.1-2-5.7-3.5c-1.6-1.5-2.9-3.2-3.8-5.2c-0.9-2-1.4-4.1-1.4-6.4
	c0-2.2,0.5-4.4,1.4-6.4c0.9-2,2.2-3.8,3.8-5.2s3.5-2.6,5.7-3.5c2.2-0.9,4.5-1.3,6.9-1.3c2.5,0,4.9,0.4,7,1.3c2.2,0.9,4.1,2,5.7,3.5
	c1.6,1.4,2.9,3.2,3.8,5.2c0.9,2,1.4,4.1,1.4,6.4c0,2.3-0.5,4.5-1.4,6.4c-0.9,2-2.2,3.7-3.8,5.2c-1.6,1.5-3.5,2.6-5.7,3.5
	C327.2,222.6,324.9,223,322.4,223z M310.7,263l30.5-35.6l28.1-37l6.6,5.8l-29.8,34.8l-28.8,37.7L310.7,263z M322.4,215.8
	c1.1,0,2.1-0.3,3-0.8c0.9-0.5,1.7-1.2,2.4-2c0.7-0.8,1.3-1.8,1.7-2.9c0.4-1.1,0.6-2.3,0.6-3.5c0-2.5-0.8-4.7-2.3-6.4
	c-1.5-1.8-3.3-2.6-5.4-2.6c-1.1,0-2.1,0.3-3,0.8c-0.9,0.5-1.7,1.2-2.4,2c-0.7,0.8-1.3,1.8-1.7,2.9c-0.4,1.1-0.6,2.2-0.6,3.5
	c0,1.3,0.2,2.5,0.6,3.6c0.4,1.1,1,2.1,1.7,2.9c0.7,0.8,1.5,1.5,2.5,1.9S321.4,215.8,322.4,215.8z M364.1,269.2
	c-2.5,0-4.8-0.4-6.9-1.3c-2.2-0.9-4-2-5.6-3.5s-2.8-3.2-3.8-5.1c-0.9-2-1.4-4.1-1.4-6.4s0.5-4.4,1.4-6.4s2.2-3.7,3.8-5.2
	s3.5-2.6,5.6-3.5c2.2-0.9,4.5-1.3,6.9-1.3c2.5,0,4.9,0.4,7,1.3c2.2,0.9,4.1,2,5.7,3.5s2.9,3.2,3.8,5.2c0.9,2,1.4,4.1,1.4,6.4
	s-0.4,4.4-1.4,6.4s-2.2,3.7-3.8,5.1s-3.5,2.6-5.7,3.5C369,268.8,366.6,269.2,364.1,269.2z M364.1,262c2.2,0,4-0.9,5.5-2.7
	c1.5-1.8,2.3-3.9,2.3-6.4c0-2.5-0.8-4.7-2.3-6.5c-1.6-1.8-3.4-2.7-5.5-2.7c-1.1,0-2.1,0.3-3,0.8c-0.9,0.5-1.7,1.2-2.4,2
	c-0.7,0.8-1.3,1.8-1.7,2.9c-0.4,1.1-0.6,2.3-0.6,3.5c0,2.5,0.8,4.7,2.3,6.4S362,262,364.1,262z"/>
</svg>
