<?xml version="1.0" encoding="utf-8"?>
<!-- Generator: Adobe Illustrator 22.1.0, SVG Export Plug-In . SVG Version: 6.00 Build 0)  -->
<svg version="1.1" xmlns="http://www.w3.org/2000/svg" xmlns:xlink="http://www.w3.org/1999/xlink" x="0px" y="0px"
	 viewBox="0 0 368 368" style="enable-background:new 0 0 368 368;" xml:space="preserve">
<style type="text/css">
	.st0{fill:none;stroke:#2E8A00;stroke-width:13;stroke-miterlimit:10;}
	.st1{opacity:0.72;fill:#2E8A00;}
	.st2{fill:#FFFFFF;}
</style>
<g id="Layer_1">
	<circle class="st0" cx="184.4" cy="184.6" r="173.6"/>
</g>
<g id="Layer_3">
	<circle class="st1" cx="183.5" cy="184" r="173.6"/>
</g>
<g id="Layer_2">
	<g>
		<path class="st2" d="M89.5,203.5c-14.4,0-25.4,11.6-25.4,25.4s11.6,25.4,25.4,25.4s25.4-11.6,25.4-25.4
			C114.9,215.1,103.3,203.5,89.5,203.5"/>
		<path class="st2" d="M183.5,127.8c14.4,0,25.4-11.6,25.4-25.4s-11.6-26-25.4-26c-14.4,0-25.4,11.6-25.4,25.4
			S169.1,127.8,183.5,127.8"/>
		<path class="st2" d="M297.9,214c-4.4-6.1-11.6-9.4-18.8-10c-7.7-0.6-14.4-4.4-18.8-10.5l0,0c-4.4-6.1-6.6-13.8-5-21
			c0-1.1,0.6-1.7,0.6-2.8l0,0c0-0.6,0-1.7,0-2.2V167c0-0.6,0-1.1,0-2.2v-0.6c0-0.6,0-1.1,0-1.7c0-0.6,0-0.6,0-1.1
			c0-0.6,0-1.1-0.6-1.7c0-0.6,0-0.6,0-1.1s-0.6-1.1-0.6-1.7c0,0,0-0.6-0.6-0.6c-0.6-0.6-0.6-1.7-1.1-2.2c0,0,0,0,0-0.6
			c-1.7-2.8-3.9-5.5-7.2-7.7c-4.4-3.3-10-5-14.9-5c-5.5,0-10.5,1.7-14.9,5c-2.8,2.2-5.5,5-7.2,7.7c0,0,0,0,0,0.6
			c-0.6,0.6-0.6,1.1-1.1,2.2c0,0,0,0.6-0.6,0.6c0,0.6-0.6,1.1-0.6,1.7s0,0.6,0,1.1s-0.6,1.1-0.6,1.7c0,0.6,0,0.6,0,1.1s0,1.1,0,1.7
			v0.6c0,0.6,0,1.1,0,2.2v0.6c0,0.6,0,1.7,0,2.2l0,0c0,1.1,0,1.7,0.6,2.8c1.7,7.2-0.6,14.9-5,21l0,0c-3.9,5.5-10,9.4-17.1,10.5
			c-6.6-1.1-12.7-5-17.1-10.5l0,0c-4.4-6.1-6.6-13.8-5-21c1.7-7.2,0-14.4-4.4-20.5c-8.3-11.1-24.3-13.8-35.9-5.5
			c-11.6,8.3-13.8,24.9-5.5,35.9c4.4,6.1,11.1,9.4,17.7,10c7.7,0.6,14.9,4.4,19.9,11.1c4.4,5.5,6.1,12.7,5,19.9
			c-2.8,10,0.6,21,8.8,27.1c4.4,3.3,9.4,5,14.9,5.5c0.6,0,0.6,0,1.1,0c0.6,0,0.6,0,1.1,0c5,0,10.5-1.7,14.9-5.5
			c8.3-6.6,11.6-17.1,8.8-27.1c-0.6-7.2,0.6-14.4,5-19.9c4.4-5.5,10.5-9.4,17.1-10.5c6.6,1.1,12.7,5,17.1,10.5
			c5,6.1,6.1,14.4,5,22.1c-1.1,6.6,0,13.8,4.4,19.9c8.3,11.6,24.9,13.8,36.5,5C304,241.1,306.2,225,297.9,214"/>
	</g>
</g>
</svg>
