<?xml version="1.0"?>
<svg xmlns="http://www.w3.org/2000/svg" height="512px" viewBox="0 0 367.99362 367" width="512px" class=""><g><path d="m293.535156 182.355469c-.007812-.007813-.015625-.015625-.015625-.023438l-118.863281-178.296875c-.0625-.097656-.167969-.160156-.234375-.257812-.15625-.214844-.351563-.382813-.535156-.582032-.496094-.550781-1.03125-1.015624-1.648438-1.398437-.132812-.089844-.214843-.226563-.359375-.304687-.101562-.058594-.222656-.058594-.335937-.105469-.765625-.382813-1.582031-.65625-2.445313-.777344-.097656-.015625-.195312-.0625-.289062-.070313-.800782-.082031-1.617188-.046874-2.433594.113282-.121094.023437-.222656.09375-.34375.125-.246094.066406-.457031.175781-.695312.257812-.664063.238282-1.28125.542969-1.847657.9375-.242187.160156-.457031.328125-.671875.511719-.617187.535156-1.144531 1.152344-1.578125 1.847656-.0625.101563-.167969.160157-.222656.261719l-99.433594 179.015625c0 .007813-.007812.007813-.015625.019531l-30.320312 54.484375c0 .007813 0 .019531-.007813.019531l-30.230469 54.460938c-2.023437 3.640625-.9101558 8.226562 2.550782 10.539062l96 64c.328125.214844.6875.316407 1.042968.484376.253907.121093.484376.257812.75.355468.855469.300782 1.746094.503906 2.648438.503906.648438 0 1.296875-.082031 1.9375-.242187l256-64c2.519531-.625 4.582031-2.449219 5.519531-4.871094.933594-2.425781.640625-5.160156-.808593-7.320312l-36.5625-54.878907zm-162.839844 76.007812 4.648438-25.464843 148.007812-36.984376 27.113282 40.671876-184.183594 46.066406zm7.769532-42.71875 33.863281-186.25 101.601563 152.402344zm-15.9375-1.792969-43.390625-28.914062 72.328125-130.222656zm-51.191406-14.871093 48.078124 32.03125-2.964843 16.320312-.511719 2.808594-5.546875 30.292969-27.101563-18.046875-34.464843-22.953125zm-30.3125 54.488281 60.625 40.367188 5.617187 3.734374-.160156.863282-8.808594 48.617187-79.730469-53.144531zm73.0625 96.238281 9.050781-49.777343 196.75-49.207032 27.160156 40.734375zm0 0" data-original="#000000" class="active-path" data-old_color="#000000" fill="#9A9FBF"/></g> </svg>
