<svg height="480pt" viewBox="0 0 480 480" width="480pt" xmlns="http://www.w3.org/2000/svg"><path d="m464 416h-448v-272c0-8.839844 7.160156-16 16-16h416c8.839844 0 16 7.160156 16 16zm0 0" fill="#bbbec2"/><path d="m48 160h384v224h-384zm0 0" fill="#71dbfb"/><path d="m48 160h360v224h-360zm0 0" fill="#aae9fd"/><path d="m88 0h304v320h-304zm0 0" fill="#ffcc5c"/><path d="m296 112h48v32h-48zm0 0" fill="#4fb99f"/><path d="m296 144h48v32h-48zm0 0" fill="#3b8b77"/><path d="m296 176h48v32h-48zm0 0" fill="#4fb99f"/><path d="m216 144h48v32h-48zm0 0" fill="#4fb99f"/><path d="m216 176h48v32h-48zm0 0" fill="#3b8b77"/><path d="m136 176h48v32h-48zm0 0" fill="#4fb99f"/><path d="m136 208h48v32h-48zm0 0" fill="#3b8b77"/><path d="m216 208h48v32h-48zm0 0" fill="#4fb99f"/><path d="m296 208h48v32h-48zm0 0" fill="#3b8b77"/><path d="m296 240h48v48h-48zm0 0" fill="#4fb99f"/><path d="m216 240h48v48h-48zm0 0" fill="#3b8b77"/><path d="m136 240h48v48h-48zm0 0" fill="#4fb99f"/><path d="m88 288h304v32h-304zm0 0" fill="#bf9945"/><path d="m448 480h-416c-17.671875 0-32-14.328125-32-32v-32h480v32c0 17.671875-14.328125 32-32 32zm0 0" fill="#5e6266"/><path d="m456 448v-32h-456v32c0 17.671875 14.328125 32 32 32h392c17.671875 0 32-14.328125 32-32zm0 0" fill="#8d9299"/><path d="m168 416v16c0 8.839844 7.160156 16 16 16h112c8.839844 0 16-7.160156 16-16v-16" fill="#474a4d"/><path d="m288 432v-16h-120v16c0 8.839844 7.160156 16 16 16h88c8.839844 0 16-7.160156 16-16zm0 0" fill="#5e6266"/><g fill="#8c8f92"><path d="m141.65625 141.65625-11.3125-11.3125 56-56c3.128906-3.128906 8.183594-3.128906 11.3125 0l26.34375 26.34375 74.34375-74.34375 11.3125 11.3125-80 80c-3.128906 3.128906-8.183594 3.128906-11.3125 0l-26.34375-26.34375zm0 0"/><path d="m312 72h-16v-32h-32v-16h40c4.425781 0 8 3.585938 8 8zm0 0"/></g></svg>