<?xml version="1.0" encoding="iso-8859-1"?>
<!-- Generator: Adobe Illustrator 19.0.0, SVG Export Plug-In . SVG Version: 6.00 Build 0)  -->
<svg version="1.1" id="Capa_1" xmlns="http://www.w3.org/2000/svg" xmlns:xlink="http://www.w3.org/1999/xlink" x="0px" y="0px"
	 viewBox="0 0 512 512" style="enable-background:new 0 0 512 512;" xml:space="preserve">
<path style="fill:#8B9BA9;" d="M0,136.103V15.694C0,7.169,6.912,0.257,15.437,0.257h480.611c8.525,0,15.437,6.912,15.437,15.437
	v120.409l-255.743,41.169L0,136.103z"/>
<g>
	<path style="fill:#6C7A88;" d="M496.563,0.772h-15.437v140.816l30.874-4.97V16.209C512,7.684,505.088,0.772,496.563,0.772z"/>
	<path style="fill:#6C7A88;" d="M511.485,275.038c0,8.525-6.912,15.437-15.437,15.437h-85.934H101.371H15.437
		C6.912,290.475,0,283.564,0,275.038V136.103h511.485V275.038z"/>
</g>
<path style="fill:#596775;" d="M480.611,259.601H0v15.437c0,8.525,6.912,15.437,15.437,15.437h85.934h308.744h85.934
	c8.525,0,15.437-6.912,15.437-15.437V136.103h-30.874V259.601z"/>
<path style="fill:#35404A;" d="M70.496,244.164v-30.874c0-8.525,6.912-15.437,15.437-15.437h339.618
	c8.525,0,15.437,6.912,15.437,15.437v30.874c0,8.525-6.912,15.437-15.437,15.437H85.934
	C77.408,259.601,70.496,252.689,70.496,244.164z"/>
<path style="fill:#60F375;" d="M129.674,197.852v298.453c0,8.525,6.912,15.437,15.437,15.437h221.263
	c8.525,0,15.437-6.912,15.437-15.437V197.852H129.674z"/>
<path style="fill:#28D05B;" d="M350.937,197.852v283.016H129.674v15.437c0,8.525,6.912,15.437,15.437,15.437h221.263
	c8.525,0,15.437-6.912,15.437-15.437V197.852H350.937z"/>
<ellipse style="fill:#60F375;" cx="255.743" cy="313.632" rx="64.322" ry="51.457"/>
<g>
	<path style="fill:#00B04B;" d="M343.218,197.852c0,61.771,0,207.73,0,213.975c-32.15,3.57-57.753,29.173-61.323,61.323h-52.306
		c-3.57-32.15-29.173-57.753-61.323-61.323V197.852h-15.437V419.12c0,4.263,3.456,7.719,7.719,7.719
		c29.793,0,54.03,24.237,54.03,54.03c0,4.263,3.456,7.719,7.719,7.719h66.891c4.263,0,7.719-3.456,7.719-7.719
		c0-29.793,24.237-54.03,54.03-54.03c4.263,0,7.719-3.456,7.719-7.719c0-2.46,0-161.996,0-221.267H343.218z"/>
	<path style="fill:#00B04B;" d="M255.743,372.811c39.723,0,72.04-26.546,72.04-59.176s-32.317-59.176-72.04-59.176
		s-72.04,26.546-72.04,59.176C183.703,346.265,216.02,372.811,255.743,372.811z M255.743,357.374
		c-31.211,0-56.603-19.621-56.603-43.739c0-24.118,25.392-43.739,56.603-43.739s56.603,19.621,56.603,43.739
		C312.346,337.753,286.954,357.374,255.743,357.374z"/>
	<path style="fill:#00B04B;" d="M247.766,313.636c0-2.127-1.732-3.859-3.858-3.859s-3.858,1.732-3.858,3.859v10.035
		c0,4.264-3.455,7.719-7.719,7.719c-4.264,0-7.719-3.455-7.719-7.719V321.1c-4.264,0-7.717-3.456-7.717-7.718
		c0-4.263,3.453-7.719,7.717-7.719h1.744c3.041-6.668,9.755-11.323,17.55-11.323c10.638,0,19.293,8.655,19.293,19.294
		c0,2.128,1.733,3.859,3.859,3.859s3.858-1.733,3.858-3.859v-11.577c0-4.263,3.455-7.719,7.719-7.719s7.719,3.456,7.719,7.719v3.604
		h0.515c4.263,0,7.719,3.455,7.719,7.719c0,4.262-3.456,7.718-7.719,7.718h-2.019c-2.925,6.943-9.796,11.83-17.79,11.83
		C256.422,332.93,247.766,324.275,247.766,313.636z"/>
	<path style="fill:#00B04B;" d="M326.153,472.095c3.014-3.014,7.902-3.014,10.916,0c1.405,1.405,3.689,1.405,5.094,0
		c1.404-1.405,1.404-3.689,0-5.094c-3.014-3.014-3.014-7.902,0-10.915c3.014-3.014,7.902-3.014,10.915,0
		c3.711,3.711,5.568,8.587,5.568,13.463c0,4.875-1.857,9.751-5.568,13.463c-7.423,7.422-19.502,7.422-26.926,0
		C323.139,479.996,323.139,475.109,326.153,472.095z"/>
	<path style="fill:#00B04B;" d="M169.322,467.001c-1.404,1.405-1.404,3.689,0,5.094c1.405,1.404,3.689,1.404,5.094,0
		c3.014-3.014,7.902-3.013,10.916,0c1.507,1.508,2.26,3.483,2.26,5.458c0,1.975-0.753,3.951-2.261,5.459
		c-7.423,7.422-19.502,7.422-26.926,0c-7.423-7.423-7.423-19.502,0-26.926c3.014-3.014,7.902-3.014,10.915,0
		C172.337,459.099,172.337,463.986,169.322,467.001z"/>
</g>
<g>
</g>
<g>
</g>
<g>
</g>
<g>
</g>
<g>
</g>
<g>
</g>
<g>
</g>
<g>
</g>
<g>
</g>
<g>
</g>
<g>
</g>
<g>
</g>
<g>
</g>
<g>
</g>
<g>
</g>
</svg>
