<?xml version="1.0"?>
<svg xmlns="http://www.w3.org/2000/svg" height="512px" viewBox="0 -34 436.90667 436" width="512px"><g><path d="m147.828125 227.300781c-1.382813 0-2.773437-.414062-3.976563-1.28125-3.066406-2.199219-3.765624-6.464843-1.566406-9.527343l51.996094-72.371094-22.179688-15.925782-53.3125 74.210938c-2.203124 3.066406-6.480468 3.765625-9.527343 1.566406-3.066407-2.199218-3.765625-6.464844-1.566407-9.527344l57.296876-79.757812c2.195312-3.066406 6.476562-3.765625 9.527343-1.566406l33.265625 23.894531c1.472656 1.058594 2.46875 2.652344 2.761719 4.4375.285156 1.789063-.140625 3.621094-1.195313 5.085937l-55.972656 77.914063c-1.332031 1.859375-3.425781 2.847656-5.550781 2.847656zm0 0" data-original="#000000" class="active-path" data-old_color="#000000" fill="#9A9FBF"/><path d="m88.746094 369.09375c-48.933594 0-88.746094-39.8125-88.746094-88.746094s39.8125-88.746094 88.746094-88.746094c42.378906 0 79.015625 30.144532 87.105468 71.679688.722657 3.699219-1.691406 7.285156-5.390624 8.003906-3.699219.71875-7.289063-1.691406-8.007813-5.390625-6.847656-35.140625-37.847656-60.640625-73.707031-60.640625-41.40625 0-75.09375 33.6875-75.09375 75.09375s33.6875 75.09375 75.09375 75.09375c30.972656 0 58.378906-18.601562 69.820312-47.390625 1.398438-3.503906 5.367188-5.207031 8.867188-3.824219 3.507812 1.390626 5.210937 5.367188 3.824218 8.867188-13.515624 34.019531-45.90625 56-82.511718 56zm0 0" data-original="#000000" class="active-path" data-old_color="#000000" fill="#9A9FBF"/><path d="m218.453125 177.945312c-10.167969 0-20.125-1.707031-29.617187-5.066406-3.554688-1.257812-5.414063-5.160156-4.15625-8.710937 1.246093-3.554688 5.15625-5.414063 8.714843-4.15625 8.019531 2.839843 16.453125 4.28125 25.058594 4.28125 41.40625 0 75.09375-33.6875 75.09375-75.09375s-33.6875-75.09375-75.09375-75.09375-75.09375 33.6875-75.09375 75.09375c0 15.839843 4.867187 30.980469 14.082031 43.785156 2.207032 3.0625 1.503906 7.328125-1.554687 9.527344-3.058594 2.199219-7.320313 1.507812-9.527344-1.550781-10.894531-15.140626-16.652344-33.039063-16.652344-51.761719 0-48.933594 39.8125-88.746094 88.746094-88.746094s88.746094 39.8125 88.746094 88.746094c0 48.933593-39.8125 88.746093-88.746094 88.746093zm0 0" data-original="#000000" class="active-path" data-old_color="#000000" fill="#9A9FBF"/><path d="m163.839844 96.027344c-3.773438 0-6.828125-3.054688-6.828125-6.828125 0-33.878907 27.5625-61.4375 61.441406-61.4375 3.773437 0 6.828125 3.050781 6.828125 6.824219 0 3.773437-3.054688 6.828124-6.828125 6.828124-26.347656 0-47.785156 21.4375-47.785156 47.785157 0 3.773437-3.054688 6.828125-6.828125 6.828125zm0 0" data-original="#000000" class="active-path" data-old_color="#000000" fill="#9A9FBF"/><path d="m348.160156 369.09375c-48.933594 0-88.746094-39.8125-88.746094-88.746094 0-20.222656 6.980469-40.007812 19.660157-55.714844 2.351562-2.933593 6.667969-3.398437 9.601562-1.027343 2.933594 2.367187 3.390625 6.664062 1.027344 9.601562-10.730469 13.292969-16.636719 30.035157-16.636719 47.140625 0 41.40625 33.6875 75.09375 75.09375 75.09375s75.09375-33.6875 75.09375-75.09375-33.6875-75.09375-75.09375-75.09375c-7.101562 0-14.113281.984375-20.855468 2.933594-3.625 1.039062-7.40625-1.039062-8.453126-4.667969-1.042968-3.617187 1.046876-7.40625 4.667969-8.453125 7.964844-2.300781 16.261719-3.464844 24.640625-3.464844 48.933594 0 88.746094 39.8125 88.746094 88.746094s-39.8125 88.746094-88.746094 88.746094zm0 0" data-original="#000000" class="active-path" data-old_color="#000000" fill="#9A9FBF"/><path d="m313.90625 271.359375c-2.125 0-4.21875-.988281-5.550781-2.847656l-70.035157-97.480469c-1.265624-1.765625-1.621093-4.03125-.941406-6.097656.675782-2.074219 2.300782-3.695313 4.367188-4.371094 11.988281-3.910156 22.9375-10.925781 31.648437-20.300781 1.390625-1.496094 3.320313-2.230469 5.433594-2.167969 2.039063.125 3.921875 1.167969 5.113281 2.832031l68.773438 95.734375c1.054687 1.464844 1.480468 3.300782 1.191406 5.085938-.292969 1.785156-1.285156 3.378906-2.757812 4.441406l-33.265626 23.890625c-1.203124.867187-2.597656 1.28125-3.976562 1.28125zm-59.347656-101.125 60.902344 84.773437 22.179687-15.929687-60.152344-83.730469c-6.855469 6.125-14.609375 11.160156-22.929687 14.886719zm0 0" data-original="#000000" class="active-path" data-old_color="#000000" fill="#9A9FBF"/><path d="m271 314.480469h-141.292969c-3.773437 0-6.828125-3.054688-6.828125-6.828125v-40.960938c0-3.773437 3.054688-6.824218 6.828125-6.824218h137.761719c2.003906 0 3.910156.886718 5.210938 2.414062 1.296874 1.53125 1.855468 3.558594 1.523437 5.539062-.761719 4.546876-1.132813 8.644532-1.132813 12.527344 0 8.414063 1.464844 16.839844 4.367188 25.027344.738281 2.09375.417969 4.410156-.863281 6.21875-1.28125 1.8125-3.359375 2.886719-5.574219 2.886719zm-134.464844-13.652344h125.324219c-1.625-6.761719-2.445313-13.617187-2.445313-20.480469 0-2.222656.101563-4.488281.300782-6.828125h-123.179688zm0 0" data-original="#000000" class="active-path" data-old_color="#000000" fill="#9A9FBF"/></g> </svg>
