<svg height="512pt" viewBox="-92 0 512 512" width="512pt" xmlns="http://www.w3.org/2000/svg"><path d="m165.542969 300.738281-123.914063-214.625c-10.222656-17.707031-10.222656-39.707031 0-57.410156s29.273438-28.703125 49.714844-28.703125h148.394531c20.445313 0 39.496094 11 49.71875 28.703125 10.222657 17.707031 10.222657 39.703125 0 57.410156zm-44.699219-220.179687 44.699219 77.417968 49.996093-86.597656h-89.394531c-4.710937.003906-7.65625 5.101563-5.300781 9.179688zm0 0" fill="#9255d3"/><path d="m195.746094 248.421875 93.710937-162.308594c7.515625-13.015625 9.496094-28.351562 5.964844-42.597656h-191.480469c-11.777344 0-19.136718 12.75-13.25 22.945313zm-30.203125-90.445313-44.699219-77.417968c-2.355469-4.078125.589844-9.175782 5.300781-9.175782h89.394531zm0 0" fill="#7c49bd"/><path d="m289.457031 28.703125c-9.183593-15.898437-25.484375-26.386719-43.523437-28.359375.519531 10.835938-2.003906 21.792969-7.589844 31.46875l-22.847656 39.570312h.039062l-49.996094 86.59375-.019531-.035156-41.210937 71.382813 41.230468 71.414062 123.917969-214.625c10.222657-17.707031 10.222657-39.703125 0-57.410156zm0 0" fill="#d49bf5"/><path d="m289.457031 28.703125c-2.210937-3.824219-4.839843-7.328125-7.796875-10.480469 2.285156 13.882813-.183594 28.394532-7.410156 40.914063l-124.097656 214.945312 15.390625 26.65625 123.914062-214.625c10.222657-17.707031 10.222657-39.703125 0-57.410156zm0 0" fill="#b474ed"/><path d="m294.652344 348.304688c0 11.359374-9.511719 21.316406-12.3125 31.792968-2.898438 10.839844.277344 24.207032-5.214844 33.695313-5.570312 9.628906-18.785156 13.527343-26.597656 21.34375-7.8125 7.8125-11.714844 21.027343-21.34375 26.597656-9.488282 5.488281-22.855469 2.316406-33.695313 5.210937-10.476562 2.800782-20.433593 12.316407-31.792969 12.316407-11.359374 0-21.316406-9.515625-31.792968-12.316407-10.839844-2.894531-24.207032.277344-33.695313-5.214843-9.628906-5.570313-13.527343-18.78125-21.34375-26.597657-7.8125-7.8125-21.027343-11.710937-26.597656-21.339843-5.488281-9.492188-2.316406-22.855469-5.210937-33.695313-2.800782-10.476562-12.316407-20.4375-12.316407-31.792968 0-11.363282 9.515625-21.320313 12.316407-31.796876 2.894531-10.839843-.277344-24.203124 5.214843-33.695312 5.570313-9.628906 18.78125-13.527344 26.597657-21.339844 7.8125-7.816406 11.710937-21.027344 21.339843-26.597656 9.492188-5.492188 22.855469-2.316406 33.695313-5.214844 10.476562-2.800781 20.4375-12.3125 31.792968-12.3125 11.363282 0 21.320313 9.511719 31.796876 12.3125 10.839843 2.898438 24.203124-.277344 33.695312 5.214844 9.628906 5.570312 13.527344 18.785156 21.339844 26.597656 7.816406 7.8125 21.027344 11.714844 26.597656 21.34375 5.492188 9.488282 2.316406 22.855469 5.214844 33.695313 2.800781 10.476562 12.3125 20.433593 12.3125 31.792969zm0 0" fill="#fa0"/><path d="m327.390625 348.304688c0 14.199218-11.886719 26.644531-15.390625 39.742187-3.621094 13.550781.347656 30.257813-6.515625 42.121094-6.964844 12.035156-23.480469 16.910156-33.25 26.675781-9.765625 9.765625-14.640625 26.285156-26.675781 33.246094-11.863282 6.863281-28.570313 2.898437-42.117188 6.519531-13.097656 3.5-25.546875 15.390625-39.746094 15.390625-14.199218 0-26.644531-11.890625-39.742187-15.390625-13.550781-3.621094-30.257813.34375-42.121094-6.519531-12.035156-6.960938-16.910156-23.480469-26.675781-33.246094s-26.285156-14.644531-33.246094-26.675781c-6.863281-11.863281-2.898437-28.570313-6.519531-42.121094-3.5-13.09375-15.390625-25.542969-15.390625-39.742187 0-14.199219 11.890625-26.648438 15.390625-39.742188 3.621094-13.550781-.34375-30.257812 6.519531-42.121094 6.960938-12.035156 23.480469-16.910156 33.246094-26.675781 9.765625-9.769531 14.644531-26.285156 26.675781-33.246094 11.863281-6.867187 28.570313-2.898437 42.121094-6.519531 13.09375-3.5 25.542969-15.390625 39.742187-15.390625 14.199219 0 26.648438 11.890625 39.742188 15.390625 13.550781 3.621094 30.257812-.347656 42.121094 6.519531 12.035156 6.960938 16.910156 23.476563 26.675781 33.246094 9.769531 9.765625 26.285156 14.640625 33.246094 26.675781 6.867187 11.863282 2.898437 28.570313 6.519531 42.121094 3.5 13.09375 15.390625 25.542969 15.390625 39.742188zm0 0" fill="#ffdc13"/><path d="m312 308.5625c-3.621094-13.550781.347656-30.257812-6.515625-42.121094-6.964844-12.035156-23.480469-16.910156-33.25-26.675781-9.765625-9.769531-14.640625-26.285156-26.675781-33.246094-9.140625-5.289062-21.152344-4.152343-32.382813-5.003906 9.851563 7.984375 23.792969 13.03125 30.046875 23.835937 6.863282 11.863282 2.894532 28.570313 6.519532 42.121094 3.5 13.09375 15.390624 25.542969 15.390624 39.742188 0 14.199218-11.890624 26.644531-15.390624 39.742187-3.625 13.550781.34375 30.257813-6.519532 42.121094-6.960937 12.035156-23.480468 16.910156-33.246094 26.675781-9.765624 9.765625-14.644531 26.285156-26.675781 33.246094-11.867187 6.863281-28.570312 2.898438-42.121093 6.519531-13.09375 3.5-25.542969 15.390625-39.742188 15.390625s-26.648438-11.890625-39.742188-15.390625c-3.113281-.832031-6.390624-1.261719-9.734374-1.515625 1.117187.90625 2.199218 1.84375 3.195312 2.839844 9.769531 9.765625 14.644531 26.285156 26.679688 33.246094 11.863281 6.863281 28.566406 2.898437 42.117187 6.519531 13.097656 3.5 25.542969 15.390625 39.742187 15.390625 14.199219 0 26.648438-11.890625 39.742188-15.390625 13.550781-3.621094 30.257812.34375 42.121094-6.519531 12.035156-6.960938 16.910156-23.480469 26.675781-33.246094 9.769531-9.765625 26.285156-14.644531 33.246094-26.675781 6.867187-11.863281 2.898437-28.570313 6.519531-42.121094 3.5-13.097656 15.390625-25.542969 15.390625-39.742187 0-14.199219-11.890625-26.648438-15.390625-39.742188zm0 0" fill="#fa0"/><path d="m288.035156 348.304688c0 68.671874-55.667968 124.339843-124.339844 124.339843-68.671874 0-124.339843-55.667969-124.339843-124.339843 0-68.671876 55.667969-124.339844 124.339843-124.339844 68.671876 0 124.339844 55.667968 124.339844 124.339844zm0 0" fill="#fa0"/><path d="m120.75 465.027344c13.386719 4.925781 27.851562 7.617187 42.945312 7.617187 68.671876 0 124.339844-55.667969 124.339844-124.339843 0-36.050782-15.347656-68.511719-39.859375-91.222657.246094 3.574219.679688 7.074219 1.5625 10.390625 3.5 13.09375 15.390625 25.542969 15.390625 39.742188 0 14.199218-11.890625 26.644531-15.390625 39.742187-3.621093 13.550781.347657 30.257813-6.515625 42.121094-6.964844 12.035156-23.480468 16.910156-33.25 26.675781-9.765625 9.765625-14.640625 26.285156-26.675781 33.246094-11.863281 6.863281-28.570313 2.898438-42.117187 6.519531-6.875 1.835938-13.566407 5.980469-20.429688 9.507813zm0 0" fill="#ff8500"/><path d="m234.316406 348.304688c0 39.003906-31.617187 70.621093-70.621094 70.621093-39.003906 0-70.621093-31.617187-70.621093-70.621093 0-39.003907 31.617187-70.621094 70.621093-70.621094 39.003907 0 70.621094 31.617187 70.621094 70.621094zm0 0" fill="#ff8500"/><path d="m163.695312 277.683594c-4.167968 0-8.246093.378906-12.21875 1.074218 33.175782 5.789063 58.40625 34.710938 58.40625 69.546876 0 34.832031-25.230468 63.757812-58.40625 69.546874 3.972657.691407 8.050782 1.074219 12.21875 1.074219 39.003907 0 70.621094-31.617187 70.621094-70.621093 0-39.003907-31.617187-70.621094-70.621094-70.621094zm0 0" fill="#ff6d00"/><path d="m173.097656 388.40625c0 4.695312-3.925781 5.832031-7.855468 5.832031-3.925782 0-7.855469-1.136719-7.855469-5.832031v-66.261719c-1.140625 1.144531-2.664063 1.910157-3.925781 2.414063l-6.847657 2.664062c-2.65625 1.007813-5.570312-.519531-6.710937-3.300781-1.265625-3.167969-.761719-6.582031 2.40625-8.234375l16.980468-9.757812c1.773438-1.136719 3.542969-1.519532 5.953126-1.519532 3.929687 0 7.855468 1.144532 7.855468 5.828125zm0 0" fill="#ffdc13"/></svg>