<?xml version="1.0"?>
<svg xmlns="http://www.w3.org/2000/svg" height="512px" viewBox="0 0 504 504" width="512px" class=""><g><path d="m302.570312 252c0 27.929688-22.640624 50.570312-50.570312 50.570312s-50.570312-22.640624-50.570312-50.570312 22.640624-50.570312 50.570312-50.570312 50.570312 22.640624 50.570312 50.570312zm0 0" fill="#4370ff" data-original="#4370FF" class="active-path" style="fill:#F4F6FB" data-old_color="#EDEFF8"/><path d="m318.570312 252c0-36.765625-29.804687-66.570312-66.570312-66.570312s-66.570312 29.804687-66.570312 66.570312 29.804687 66.570312 66.570312 66.570312c36.75-.042968 66.527344-29.820312 66.570312-66.570312zm-101.140624 0c0-19.09375 15.476562-34.570312 34.570312-34.570312s34.570312 15.476562 34.570312 34.570312-15.476562 34.570312-34.570312 34.570312c-19.082031-.023437-34.546875-15.488281-34.570312-34.570312zm0 0" data-original="#000000" class="" style="fill:#9A9FBF" data-old_color="#000000"/><path d="m504 252c0-58.15625-44.71875-109.460938-112.457031-139.546875-30.082031-67.734375-81.386719-112.453125-139.542969-112.453125-118.21875 0-200.960938 181.398438-154.960938 348.195312-40.136718-24.59375-65.039062-58.636718-65.039062-96.195312.503906-23.40625 9.488281-45.835938 25.28125-63.121094 2.824219-17.796875 6.941406-35.363281 12.320312-52.558594-43.121093 30.160157-69.601562 70.878907-69.601562 115.679688 0 58.15625 44.71875 109.460938 112.457031 139.546875 30.082031 67.734375 81.386719 112.453125 139.542969 112.453125 44.558594 0 85.121094-26.238281 115.199219-69.039062-17.085938 5.261718-34.550781 9.222656-52.238281 11.839843-17.230469 15.765625-39.609376 24.722657-62.960938 25.199219-37.558594 0-71.601562-24.902344-96.195312-65.039062 169.78125 46.828124 348.195312-38.609376 348.195312-154.960938zm-32 0c0 37.585938-24.9375 71.648438-65.125 96.246094 17.050781-63.011719 17.078125-129.417969.085938-192.441406 40.136718 24.59375 65.039062 58.636718 65.039062 96.195312zm-220-220c37.558594 0 71.601562 24.902344 96.195312 65.039062-63.015624-16.980468-129.410156-16.964843-192.417968.046876 24.597656-40.164063 58.652344-65.085938 96.222656-65.085938zm-115.460938 104.644531c74.574219-27.085937 156.296876-27.113281 230.890626-.078125 27.011718 74.582032 27.011718 156.277344 0 230.859375-74.585938 27.011719-156.28125 27.011719-230.863282 0-26.992187-74.558593-27-156.214843-.027344-230.78125zm0 0" data-original="#000000" class="" style="fill:#9A9FBF" data-old_color="#000000"/></g> </svg>
