<?xml version="1.0"?>
<svg xmlns="http://www.w3.org/2000/svg" xmlns:xlink="http://www.w3.org/1999/xlink" version="1.1" id="Capa_1" x="0px" y="0px" viewBox="0 0 512 512" style="enable-background:new 0 0 512 512;" xml:space="preserve" width="512px" height="512px" class=""><g><g>
	<g>
		<path d="M480,213.333h-36.907c-4.484-19.474-12.007-38.12-22.293-55.253l87.36-87.36c4.136-4.16,4.136-10.88,0-15.04L456.32,3.84    c-4.16-4.136-10.88-4.136-15.04,0L353.92,91.2c-17.133-10.286-35.779-17.81-55.253-22.293V32c0-17.673-14.327-32-32-32h-32    c-17.673,0-32,14.327-32,32v39.68c-16.725,4.901-32.697,12.08-47.467,21.333L126.187,64c-12.494-12.478-32.733-12.478-45.227,0    L58.347,86.293c-12.478,12.494-12.478,32.733,0,45.227l30.4,30.4c-9.081,16.08-15.765,33.401-19.84,51.413H32    c-17.673,0-32,14.327-32,32v21.333c0,17.673,14.327,32,32,32h36.907c4.444,19.47,11.931,38.117,22.187,55.253l-46.507,46.613    c-0.899,0.929-1.622,2.013-2.133,3.2h0.213L0.96,496.96c-2.393,5.383,0.031,11.687,5.414,14.08c2.759,1.226,5.908,1.226,8.666,0    l93.227-41.707c1.187-0.511,2.271-1.234,3.2-2.133l46.613-46.613c13.955,8.463,28.94,15.095,44.587,19.733V480    c0,17.673,14.327,32,32,32h32c17.673,0,32-14.327,32-32v-36.907c17.976-4.083,35.26-10.767,51.307-19.84L375.147,448    c12.494,12.478,32.733,12.478,45.227,0l22.613-22.613c12.478-12.494,12.478-32.733,0-45.227l-23.573-23.68    c11.037-17.829,19.039-37.365,23.68-57.813H480c17.673,0,32-14.327,32-32v-21.333C512,227.66,497.673,213.333,480,213.333z     M448.747,26.453l36.8,36.8l-34.56,34.453l-36.693-36.693L448.747,26.453z M399.147,76.053l36.8,36.8l-27.2,27.2    c-10.554-13.868-22.932-26.247-36.8-36.8L399.147,76.053z M32,480l23.893-53.333l29.44,29.76L32,480z M103.893,444.8L67.2,408.107    l235.733-235.733c15.401,8.671,28.129,21.399,36.8,36.8L103.893,444.8z M160,256c0.04-53.019,43.054-95.967,96.073-95.927    c8.589,0.007,17.139,1.166,25.42,3.447L163.52,281.493C161.208,273.192,160.024,264.617,160,256z M348.48,230.507    c14.024,51.131-16.057,103.95-67.189,117.973c-16.621,4.559-34.163,4.559-50.785,0L348.48,230.507z M490.667,266.667    c0,5.891-4.776,10.667-10.667,10.667h-45.653c-5.216-0.085-9.728,3.615-10.667,8.747c-4.135,23.627-13.262,46.101-26.773,65.92    c-2.883,4.237-2.345,9.925,1.28,13.547l29.76,29.76c4.136,4.16,4.136,10.88,0,15.04l-22.613,22.933    c-4.148,4.183-10.902,4.21-15.085,0.062c-0.021-0.021-0.041-0.041-0.062-0.062l-30.933-30.933    c-3.519-3.525-9.01-4.145-13.227-1.493c-18.323,11.447-38.674,19.268-59.947,23.04c-5.132,0.938-8.832,5.451-8.747,10.667V480    c0,5.891-4.776,10.667-10.667,10.667h-32c-5.891,0-10.667-4.776-10.667-10.667v-47.893c0.135-5.052-3.294-9.506-8.213-10.667    c-14.663-3.474-28.797-8.891-42.027-16.107l39.573-40c60.37,23.551,128.402-6.297,151.953-66.667    c23.551-60.37-6.296-128.402-66.667-151.953c-60.37-23.551-128.402,6.296-151.953,66.667c-10.698,27.422-10.698,57.864,0,85.287    l-40,39.573C97.613,322,91.306,304.376,88,286.08c-0.938-5.132-5.451-8.832-10.667-8.747H32c-5.891,0-10.667-4.776-10.667-10.667    v-21.333c0-5.891,4.776-10.667,10.667-10.667h45.653c5.216,0.085,9.728-3.615,10.667-8.747    c3.777-21.271,11.598-41.621,23.04-59.947c2.652-4.217,2.032-9.707-1.493-13.227L73.6,116.48c-4.136-4.16-4.136-10.88,0-15.04    L96,78.72c4.148-4.183,10.902-4.21,15.085-0.062c0.021,0.021,0.041,0.041,0.062,0.062l35.093,35.093    c3.622,3.625,9.31,4.163,13.547,1.28c17.037-11.6,36.052-19.987,56.107-24.747c4.919-1.161,8.348-5.614,8.213-10.667V32    c0-5.891,4.776-10.667,10.667-10.667h32c5.891,0,10.667,4.776,10.667,10.667v45.653c-0.085,5.216,3.615,9.728,8.747,10.667    c70.125,12.624,125.029,67.484,137.707,137.6c0.938,5.132,5.451,8.832,10.667,8.747H480c5.891,0,10.667,4.776,10.667,10.667    V266.667z" data-original="#000000" class="active-path" data-old_color="#000000" fill="#9A9FBF"/>
	</g>
</g></g> </svg>
