<svg height="464pt" viewBox="0 0 464.01604 464" width="464pt" xmlns="http://www.w3.org/2000/svg"><path d="m367.703125 43.8125c-92.320313-66.542969-219.277344-56.320312-299.761719 24.136719-.960937.960937-1.839844 1.960937-2.78125 2.929687l61.847656 3.632813 3.269532 55.582031c46.132812-45.992188 117.398437-55.269531 173.769531-22.625l-26.105469 26.144531 56-3.285156 55.585938-3.273437 3.632812-61.839844 2.925782-49.71875zm0 0" fill="#4db7e5"/><path d="m337.007812 389.519531-3.273437-55.578125c-46.125 45.972656-117.371094 55.246094-173.726563 22.617188l26.101563-26.105469-56 3.289063-55.582031 3.273437-3.632813 61.839844-2.929687 49.726562 28.371094-28.367187c92.320312 66.542968 219.273437 56.320312 299.757812-24.136719.953125-.960937 1.839844-1.953125 2.777344-2.929687zm0 0" fill="#4db7e5"/><path d="m107.460938 160.015625 26.144531 26.0625-3.289063-56-3.269531-55.582031-61.847656-3.632813-49.753907-2.914062 28.359376 28.371093c-66.542969 92.320313-56.320313 219.273438 24.136718 299.757813.960938.960937 1.960938 1.839844 2.929688 2.777344l3.632812-61.839844 55.582032-3.273437c-45.976563-46.121094-55.253907-117.367188-22.625-173.726563zm0 0" fill="#348fd9"/><path d="m396.070312 67.949219c-.960937-.949219-1.960937-1.839844-2.929687-2.773438l-3.628906 61.839844-55.585938 3.269531c45.996094 46.128906 55.277344 117.402344 22.625 173.769532l-26.105469-26.105469 3.289063 56 3.273437 55.578125 61.839844 3.632812 49.71875 2.925782-28.359375-28.367188c66.546875-92.324219 56.324219-219.28125-24.136719-299.769531zm0 0" fill="#348fd9"/><path d="m320.007812 248.015625v-32h-17.847656c-1.800781-7.898437-4.929687-15.429687-9.25-22.28125l12.632813-12.632813-22.625-22.625-12.632813 12.632813c-6.847656-4.320313-14.382812-7.449219-22.277344-9.246094v-17.847656h-32v17.847656c-7.898437 1.796875-15.433593 4.925781-22.28125 9.246094l-12.632812-12.632813-22.625 22.625 12.632812 12.632813c-4.320312 6.851563-7.449218 14.382813-9.246093 22.28125h-17.847657v32h17.847657c1.796875 7.894531 4.925781 15.429687 9.246093 22.277344l-12.632812 12.632812 22.625 22.625 12.632812-12.632812c6.847657 4.320312 14.382813 7.449219 22.28125 9.25v17.847656h32v-17.847656c7.894532-1.800781 15.429688-4.929688 22.277344-9.25l12.632813 12.632812 22.625-22.625-12.632813-12.632812c4.320313-6.847657 7.449219-14.382813 9.25-22.277344zm-88 16c-17.675781 0-32-14.328125-32-32 0-17.675781 14.324219-32 32-32 17.671876 0 32 14.324219 32 32 0 17.671875-14.328124 32-32 32zm0 0" fill="#ffb531"/><path d="m54.292969 123.839844c-3.3125 5.40625-6.398438 11.007812-9.183594 16.628906l14.34375 7.089844c2.5625-5.199219 5.417969-10.398438 8.480469-15.367188zm0 0" fill="#62a9e6"/><path d="m37.773438 157.109375c-14.46875 37.066406-17.902344 77.53125-9.878907 116.503906l15.671875-3.199219c-7.402344-35.960937-4.234375-73.292968 9.113282-107.496093zm0 0" fill="#62a9e6"/><path d="m292.910156 193.734375 12.632813-12.632813-11.3125-11.3125-39.601563 39.601563c8.320313 8.035156 11.65625 19.933594 8.726563 31.121094-2.925781 11.1875-11.664063 19.925781-22.851563 22.851562-11.191406 2.929688-23.085937-.40625-31.121094-8.726562l-39.601562 39.601562 11.3125 11.3125 12.632812-12.632812c6.847657 4.320312 14.382813 7.449219 22.28125 9.25v17.847656h32v-17.847656c7.894532-1.800781 15.429688-4.929688 22.277344-9.25l12.632813 12.632812 22.625-22.625-12.632813-12.632812c4.320313-6.847657 7.449219-14.382813 9.25-22.277344h17.847656v-32h-17.847656c-1.800781-7.898437-4.929687-15.429687-9.25-22.28125zm0 0" fill="#ffa912"/><path d="m401.445312 137.453125 3.511719-59.765625c-2.917969-3.265625-5.75-6.59375-8.886719-9.738281-.960937-.949219-1.960937-1.839844-2.929687-2.773438l-3.628906 61.839844-55.585938 3.269531c3.390625 3.394532 6.511719 6.945313 9.496094 10.578125l2.449219-.144531zm0 0" fill="#2d7dbf"/><path d="m398.847656 393.148438-61.839844-3.628907-3.273437-55.585937c-3.390625 3.394531-6.945313 6.519531-10.574219 9.496094l.140625 2.449218 3.265625 55.574219 59.769532 3.511719c3.269531-2.917969 6.589843-5.75 9.734374-8.886719.960938-.960937 1.839844-1.953125 2.777344-2.929687zm0 0" fill="#45a7d1"/><path d="m81.160156 58.941406-3.136718-.191406c-3.394532 3.015625-6.832032 5.953125-10.082032 9.199219-.960937.960937-1.839844 1.960937-2.78125 2.929687l61.847656 3.632813 3.269532 55.582031c4.964844-4.914062 10.277344-9.457031 15.898437-13.597656l-3.203125-53.921875zm0 0" fill="#45a7d1"/><path d="m70.871094 398.855469 3.632812-61.839844 55.582032-3.273437c-3.390626-3.390626-6.519532-6.945313-9.496094-10.574219l-2.449219.140625-55.574219 3.265625-3.511718 59.769531c2.917968 3.269531 5.75 6.589844 8.886718 9.734375.960938.960937 1.960938 1.839844 2.929688 2.777344zm0 0" fill="#2d7dbf"/></svg>