<?xml version="1.0"?>
<svg xmlns="http://www.w3.org/2000/svg" height="512px" viewBox="0 0 512.00039 512" width="512px" class=""><g><path d="m437.019531 74.980469c-48.351562-48.351563-112.640625-74.980469-181.019531-74.980469s-132.667969 26.628906-181.019531 74.980469c-48.351563 48.355469-74.97656275 112.640625-74.97656275 181.019531 0 51.359375 15.02734375 100.558594 43.54687475 142.847656l-42.183593 91.894532c-2.617188 5.699218-1.4101568 12.425781 3.027343 16.863281 2.875 2.875 6.710938 4.394531 10.609375 4.394531 2.113282 0 4.246094-.449219 6.253906-1.367188l91.894532-42.183593c42.292968 28.519531 91.492187 43.550781 142.847656 43.550781 68.382812 0 132.667969-26.628906 181.019531-74.980469 48.351563-48.351562 74.980469-112.640625 74.980469-181.019531s-26.628906-132.667969-74.980469-181.019531zm-181.019531 407.019531c-47.957031 0-93.773438-14.839844-132.492188-42.910156-2.605468-1.890625-5.695312-2.855469-8.808593-2.855469-2.125 0-4.257813.449219-6.253907 1.367187l-62.9375 28.890626 28.890626-62.941407c2.257812-4.921875 1.691406-10.675781-1.488282-15.0625-28.070312-38.714843-42.910156-84.53125-42.910156-132.488281 0-124.617188 101.382812-226 226-226s226 101.382812 226 226-101.382812 226-226 226zm0 0" data-original="#000000" class="active-path" data-old_color="#000000" fill="#9A9FBF"/><path d="m256.839844 64.277344c-.277344-.007813-.554688-.011719-.828125-.011719-.003907 0-.007813 0-.011719 0-.28125 0-.5625.003906-.847656.011719-105.332032.457031-190.882813 86.285156-190.882813 191.722656s85.550781 191.261719 190.886719 191.722656c.28125.003906.5625.011719.84375.011719h.011719c.273437 0 .550781-.007813.828125-.011719 105.335937-.457031 190.894531-86.28125 190.894531-191.722656s-85.558594-191.265625-190.894531-191.722656zm160.191406 176.722656h-87.328125c-1.171875-43.164062-7.394531-83.441406-17.816406-114.714844-3.324219-9.972656-6.863281-18.410156-10.527344-25.535156 62.542969 18.304688 109.5 73.453125 115.671875 140.25zm-161.03125 176.734375c-4.703125-.003906-16.484375-8.679687-27.425781-41.507813-9.457031-28.371093-15.128907-65.292968-16.269531-105.226562h87.386718c-1.136718 39.933594-6.808594 76.855469-16.265625 105.226562-10.945312 32.828126-22.722656 41.503907-27.425781 41.507813zm-43.695312-176.734375c1.140624-39.933594 6.8125-76.855469 16.269531-105.226562 10.941406-32.832032 22.722656-41.507813 27.425781-41.507813s16.480469 8.675781 27.425781 41.507813c9.457031 28.367187 15.128907 65.292968 16.269531 105.226562zm-1.664063-140.25c-3.660156 7.128906-7.199219 15.5625-10.527344 25.535156-10.421875 31.273438-16.644531 71.554688-17.816406 114.714844h-87.328125c6.171875-66.796875 53.128906-121.945312 115.671875-140.25zm-115.671875 170.25h87.328125c1.171875 43.160156 7.394531 83.441406 17.816406 114.710938 3.324219 9.976562 6.863281 18.410156 10.523438 25.535156-62.539063-18.300782-109.496094-73.453125-115.667969-140.246094zm206.390625 140.25c3.664063-7.128906 7.203125-15.5625 10.527344-25.539062 10.421875-31.269532 16.644531-71.550782 17.816406-114.710938h87.328125c-6.171875 66.792969-53.128906 121.945312-115.671875 140.25zm0 0" data-original="#000000" class="active-path" data-old_color="#000000" fill="#9A9FBF"/></g> </svg>
