<svg height="512pt" viewBox="0 0 512 512" width="512pt" xmlns="http://www.w3.org/2000/svg" xmlns:xlink="http://www.w3.org/1999/xlink"><linearGradient id="a" gradientUnits="userSpaceOnUse" x1="-.001" x2="511.9986759986" y1="255.9997879994" y2="255.9997879994"><stop offset="0" stop-color="#00f2fe"/><stop offset=".0208" stop-color="#03effe"/><stop offset=".2931" stop-color="#24d2fe"/><stop offset=".5538" stop-color="#3cbdfe"/><stop offset=".7956" stop-color="#4ab0fe"/><stop offset="1" stop-color="#4facfe"/></linearGradient><path d="m332 256c0-41.90625-34.09375-76-76-76-29.945312 0-57.261719 18.082031-69.589844 46.0625-4.457031 10.109375-16.261718 14.691406-26.367187 10.238281-10.109375-4.453125-14.691407-16.257812-10.238281-26.367187 18.71875-42.484375 60.402343-69.933594 106.195312-69.933594 63.960938 0 116 52.039062 116 116 0 46.394531-27.539062 88.230469-70.152344 106.582031-2.578125 1.109375-5.261718 1.636719-7.902344 1.636719-7.746093 0-15.117187-4.527344-18.378906-12.097656-4.367187-10.144532.316406-21.910156 10.460938-26.277344 27.925781-12.027344 45.972656-39.441406 45.972656-69.84375zm120-70h-10.074219c-2.648437 0-5.050781-1.667969-6.089843-4.1875l-.179688-.433594c-1.078125-2.59375-.5625-5.480468 1.3125-7.351562l7.121094-7.125c23.394531-23.394532 23.394531-61.457032 0-84.851563l-14.140625-14.140625c-11.335938-11.332031-26.402344-17.574218-42.429688-17.574218-16.023437 0-31.09375 6.242187-42.425781 17.574218l-7.121094 7.121094c-1.875 1.875-4.765625 2.386719-7.347656 1.316406l-.375-.15625c-2.582031-1.066406-4.25-3.46875-4.25-6.117187v-10.074219c0-33.085938-26.917969-60-60-60h-20c-33.085938 0-60 26.914062-60 60v10.074219c0 2.648437-1.667969 5.050781-4.230469 6.105469l-.390625.164062c-2.59375 1.074219-5.480468.5625-7.355468-1.3125l-7.121094-7.121094c-11.332032-11.332031-26.398438-17.574218-42.425782-17.574218-16.027343 0-31.09375 6.242187-42.425781 17.574218l-14.140625 14.140625c-23.394531 23.394531-23.394531 61.460938 0 84.855469l7.121094 7.121094c1.875 1.875 2.386719 4.761718 1.28125 7.429687l-.121094.292969c-1.066406 2.582031-3.46875 4.25-6.117187 4.25h-10.074219c-33.085938 0-60 26.917969-60 60v20c0 26.351562 16.882812 49.359375 42.007812 57.25 10.535157 3.308594 21.761719-2.550781 25.074219-13.085938 3.308594-10.539062-2.550781-21.765624-13.089843-25.074218-8.371094-2.628906-13.992188-10.300782-13.992188-19.089844v-20c0-11.027344 8.972656-20 20-20h10.074219c18.902343 0 35.816406-11.375 43.113281-29.046875l.09375-.226563c7.3125-17.605468 3.402344-37.617187-9.964844-50.984374l-7.121094-7.121094c-7.800781-7.796875-7.800781-20.484375 0-28.285156l14.140626-14.140626c3.777343-3.777343 8.800781-5.859374 14.140624-5.859374 5.34375 0 10.363282 2.078124 14.144532 5.859374l7.121094 7.121094c13.371093 13.367188 33.382812 17.277344 50.992187 9.960938l.28125-.117188c17.605469-7.269531 28.984375-24.183594 28.984375-43.085937v-10.074219c0-11.027344 8.972656-20 20-20h20c11.027344 0 20 8.972656 20 20v10.074219c0 18.90625 11.375 35.816406 29.003906 43.097656l.269532.113281c17.605468 7.308594 37.617187 3.398438 50.984374-9.96875l7.121094-7.121094c3.777344-3.777343 8.800782-5.859374 14.144532-5.859374 5.339843 0 10.363281 2.082031 14.140624 5.859374l14.140626 14.140626c7.800781 7.800781 7.800781 20.488281.003906 28.285156l-7.125 7.121094c-13.367188 13.367187-17.277344 33.378906-9.996094 50.910156l.152344.367187c7.269531 17.605469 24.179687 28.980469 43.085937 28.980469h10.074219c11.027344 0 20 8.972656 20 20v20c0 11.027344-8.972656 20-20 20h-10.074219c-18.90625 0-35.816406 11.375-43.089843 28.980469l-.128907.316406c-7.300781 17.597656-3.386719 37.597656 9.976563 50.960937l7.121094 7.121094c3.777343 3.777344 5.859374 8.800782 5.859374 14.140625 0 5.34375-2.082031 10.367188-5.859374 14.144531l-14.140626 14.140626c-3.777343 3.777343-8.800781 5.859374-14.144531 5.859374s-10.363281-2.082031-14.140625-5.859374l-7.125-7.121094c-13.367187-13.367188-33.378906-17.277344-50.988281-9.964844l-.285156.117188c-17.605469 7.269531-28.980469 24.183593-28.980469 43.089843v10.074219c0 11.027344-8.972656 20-20 20h-20c-8.308594 0-15.84375-5.226562-18.75-13-3.863281-10.347656-15.382812-15.601562-25.734375-11.734375-10.347656 3.867187-15.601563 15.386719-11.730469 25.734375 8.714844 23.324219 31.304688 39 56.214844 39h20c33.082031 0 60-26.917969 60-60v-10.074219c0-2.648437 1.667969-5.050781 4.226562-6.109375l.394532-.160156c2.59375-1.078125 5.480468-.5625 7.351562 1.3125l7.121094 7.121094c11.332031 11.332031 26.402344 17.574218 42.429688 17.574218 16.023437 0 31.09375-6.242187 42.425781-17.574218l14.140625-14.144532c11.332031-11.332031 17.574218-26.398437 17.574218-42.425781 0-16.023437-6.242187-31.09375-17.574218-42.425781l-7.121094-7.121094c-1.875-1.875-2.386719-4.761718-1.3125-7.355468l.152344-.363282c1.066406-2.585937 3.46875-4.253906 6.117187-4.253906h10.074219c33.082031 0 60-26.914062 60-60v-20c0-33.085938-26.917969-60-60-60zm-227.574219 188.425781-109.574219 109.367188c-2.4375 2.4375-5.464843 4.199219-8.789062 5.117187l-80.722656 22.363282c-1.765625.488281-3.558594.726562-5.339844.726562-5.316406 0-10.5-2.121094-14.316406-6.035156-5.09375-5.21875-6.941406-12.796875-4.820313-19.777344l23.914063-78.726562c.957031-3.152344 2.675781-6.019532 5.007812-8.34375l109.804688-109.558594c23.378906-23.378906 61.441406-23.378906 84.835937.015625s23.394531 61.457031 0 84.851562zm-60.457031 3.828125-28.289062-28.289062-74.089844 73.921875-11.886719 39.128906 40.613281-11.25zm32.171875-60.398437c-7.796875-7.796875-20.484375-7.796875-28.28125 0l-3.863281 3.855469 28.285156 28.285156 3.875-3.867188c7.785156-7.785156 7.785156-20.472656-.015625-28.273437zm0 0" fill="url(#a)"/></svg>