<?xml version="1.0" encoding="utf-8"?>
<!-- Generator: Adobe Illustrator 21.1.0, SVG Export Plug-In . SVG Version: 6.00 Build 0)  -->
<svg version="1.1" id="Layer_1" xmlns="http://www.w3.org/2000/svg" xmlns:xlink="http://www.w3.org/1999/xlink" x="0px" y="0px"
	 viewBox="0 0 36 32" style="enable-background:new 0 0 36 32;" xml:space="preserve">
<style type="text/css">
	.st0{fill:#9A9FBF;}
</style>
<title>heart-icon</title>
<path class="st0" d="M23.1,21.3h3.6v3.6h-3.6V21.3z"/>
<path class="st0" d="M32.5,3c-2-2-4.3-3-7-3c-2.6,0-5.5,2.1-7.7,4.3C15.5,2.1,12.7,0,10,0C7.3,0,5,0.8,3,2.7C-1,6.8-1,13.3,3,17.4
	C4.2,18.5,15.4,31,15.4,31c0.6,0.6,1.5,1,2.3,1s1.7-0.3,2.3-1l1.9-2l-2.5-2.5l-1.7,1.8C15.7,26,6.7,16,5.6,14.9c-1.3-1.3-2-3-2-4.8
	c0-1.8,0.7-3.5,2-4.8C6.7,4.1,8.1,3.6,10,3.6c0.5,0,2.2,0.2,5.3,3.3l2.5,2.5l2.5-2.5c2.2-2.2,4.2-3.2,5.2-3.2c1.8,0,3.1,0.6,4.5,2
	c1.3,1.3,2,3,2,4.8c0,1.8-0.7,3.5-2,4.8c-0.1,0.1-0.1,0.1-1.9,2L28,17.3l2.5,2.5l0.2-0.3c0,0,1.7-1.9,1.8-1.9
	C36.6,13.6,36.6,7,32.5,3L32.5,3z"/>
</svg>
