<?xml version="1.0"?>
<svg xmlns="http://www.w3.org/2000/svg" height="512px" viewBox="0 -15 456.31888 456" width="512px" class=""><g><path d="m25.964844 420.441406c.667968 3.808594 4.292968 6.355469 8.101562 5.691406l67.371094-11.785156c3.808594-.667968 6.355469-4.292968 5.691406-8.101562l-1.441406-8.246094 16.273438-13.21875c6.402343-5.332031 14.628906-7.964844 22.941406-7.339844l109.863281 8.03125c.15625.011719.3125.015625.46875.019532h.664063c23.980468-.050782 47.328124-7.691407 66.695312-21.832032.265625-.195312.519531-.410156.757812-.644531l130.863282-128.132813c2.648437-2.589843 2.816406-6.796874.386718-9.59375-14.660156-16.929687-40.042968-19.34375-57.636718-5.484374l-61.078125 45.671874c-12.144531-15.46875-31.800781-23.007812-51.175781-19.636718l-61.441407 10.75c-9.972656 1.730468-20.210937 1.195312-29.949219-1.5625l-6.871093-1.957032c-35.648438-10.238281-74.058594-1.875-102.21875 22.261719l-2.964844-16.933593c-.664063-3.804688-4.289063-6.351563-8.097656-5.6875l-67.375 11.785156c-3.804688.664062-6.355469 4.292968-5.6875 8.097656zm156.652344-153.898437 6.871093 1.953125c11.769531 3.335937 24.140625 3.980468 36.199219 1.886718l61.441406-10.746093c18.753906-3.253907 37.160156 7.351562 43.746094 25.210937l-93.484375 16.355469c-3.589844.613281-6.109375 3.875-5.792969 7.5.3125 3.628906 3.351563 6.410156 6.992188 6.398437.410156 0 .816406-.035156 1.214844-.105468l100.996093-17.664063c3.804688-.667969 6.351563-4.292969 5.6875-8.101562-.699219-3.988281-1.851562-7.886719-3.4375-11.617188l62.375-46.640625.144531-.109375c9.765626-7.730469 23.464844-8.0625 33.597657-.824219l-125.25 122.453126c-16.902344 12.152343-37.195313 18.683593-58.011719 18.667968h-.347656l-109.628906-7.847656c-11.902344-.867188-23.675782 2.917969-32.839844 10.5625l-10.160156 8.289062-15.816407-90.398437c24.777344-25.328125 61.449219-35.015625 95.503907-25.230469zm-113.933594 1.164062 23.449218 134.050781-53.582031 9.375-23.449219-134.054687zm0 0" data-original="#000000" class="active-path" data-old_color="#000000" fill="#9A9FBF"/><path d="m233.757812 208.566406c1.324219 1.625 3.304688 2.574219 5.402344 2.59375h.007813c2.101562-.019531 4.085937-.976562 5.40625-2.613281l111.742187-136.464844c1.886719-2.308593 2.113282-5.554687.558594-8.101562l-37.007812-60.503907c-1.277344-2.074218-3.542969-3.332031-5.976563-3.316406h-150.117187c-2.433594-.015625-4.699219 1.238282-5.972657 3.308594l-37.007812 60.523438c-1.558594 2.550781-1.328125 5.804687.566406 8.113281zm47.109376-134.40625-41.734376 110.265625-42.074218-110.265625zm-80.371094-14 38.363281-43 38.785156 43zm95.339844 14h40.324218l-74.976562 91.550782zm5.300781-14 14.242187-37.636718 23.007813 37.636718zm-11.914063-7.582031-34.652344-38.417969h49.1875zm-100.496094.234375-14.746093-38.652344h49.230469zm-11.992187 7.347656h-37.457031l23.0625-37.726562zm5.339844 14 34.960937 91.628906-75.476562-91.628906zm0 0" data-original="#000000" class="active-path" data-old_color="#000000" fill="#9A9FBF"/></g> </svg>
