<?xml version="1.0"?>
<svg xmlns="http://www.w3.org/2000/svg" height="512px" viewBox="0 0 512 512" width="512px" class=""><g><path d="m457.003906 0h-402.007812c-30.324219 0-54.996094 24.671875-54.996094 54.996094v402.007812c0 30.324219 24.671875 54.996094 54.996094 54.996094h402.007812c30.324219 0 54.996094-24.671875 54.996094-54.996094v-402.007812c0-30.324219-24.671875-54.996094-54.996094-54.996094zm-402.007812 30h402.007812c13.78125 0 24.996094 11.214844 24.996094 24.996094v66.003906h-452v-66.003906c0-13.78125 11.214844-24.996094 24.996094-24.996094zm402.007812 452h-402.007812c-13.78125 0-24.996094-11.214844-24.996094-24.996094v-306.003906h452v306.003906c0 13.78125-11.214844 24.996094-24.996094 24.996094zm0 0" data-original="#000000" class="active-path" data-old_color="#000000" fill="#9A9FBF"/><path d="m451 76c0 8.285156-6.714844 15-15 15s-15-6.714844-15-15 6.714844-15 15-15 15 6.714844 15 15zm0 0" data-original="#000000" class="active-path" data-old_color="#000000" fill="#9A9FBF"/><path d="m391 76c0 8.285156-6.714844 15-15 15s-15-6.714844-15-15 6.714844-15 15-15 15 6.714844 15 15zm0 0" data-original="#000000" class="active-path" data-old_color="#000000" fill="#9A9FBF"/><path d="m331 76c0 8.285156-6.714844 15-15 15s-15-6.714844-15-15 6.714844-15 15-15 15 6.714844 15 15zm0 0" data-original="#000000" class="active-path" data-old_color="#000000" fill="#9A9FBF"/><path d="m77.300781 331.046875h358.648438c8.285156 0 15-6.714844 15-15v-120c0-8.28125-6.714844-15-15-15h-358.648438c-8.285156 0-15 6.71875-15 15v120c0 8.285156 6.714844 15 15 15zm15-120h328.648438v90h-328.648438zm0 0" data-original="#000000" class="active-path" data-old_color="#000000" fill="#9A9FBF"/><path d="m76 391h149c8.285156 0 15-6.714844 15-15s-6.714844-15-15-15h-149c-8.285156 0-15 6.714844-15 15s6.714844 15 15 15zm0 0" data-original="#000000" class="active-path" data-old_color="#000000" fill="#9A9FBF"/><path d="m226 421h-150c-8.285156 0-15 6.714844-15 15s6.714844 15 15 15h150c8.285156 0 15-6.714844 15-15s-6.714844-15-15-15zm0 0" data-original="#000000" class="active-path" data-old_color="#000000" fill="#9A9FBF"/><path d="m435 361h-149c-8.285156 0-15 6.714844-15 15s6.714844 15 15 15h149c8.285156 0 15-6.714844 15-15s-6.714844-15-15-15zm0 0" data-original="#000000" class="active-path" data-old_color="#000000" fill="#9A9FBF"/><path d="m436 421h-150c-8.285156 0-15 6.714844-15 15s6.714844 15 15 15h150c8.285156 0 15-6.714844 15-15s-6.714844-15-15-15zm0 0" data-original="#000000" class="active-path" data-old_color="#000000" fill="#9A9FBF"/></g> </svg>
