<?xml version="1.0"?>
<svg xmlns="http://www.w3.org/2000/svg" height="512px" viewBox="0 0 384 384" width="512px"><path d="m368 64h-64v-48c0-8.832031-7.167969-16-16-16h-272c-8.832031 0-16 7.167969-16 16v352c0 8.832031 7.167969 16 16 16h32c8.832031 0 16-7.167969 16-16s-7.167969-16-16-16h-16v-320h240v296c0 8.59375 2.007812 16.710938 5.480469 24h-165.480469c-8.832031 0-16 7.167969-16 16s7.167969 16 16 16h216c30.878906 0 56-25.128906 56-56v-248c0-8.832031-7.167969-16-16-16zm-16 264c0 13.230469-10.769531 24-24 24s-24-10.769531-24-24v-232h48zm0 0" fill="#9a9fbf"/><path d="m80 160h64c8.832031 0 16-7.167969 16-16v-64c0-8.832031-7.167969-16-16-16h-64c-8.832031 0-16 7.167969-16 16v64c0 8.832031 7.167969 16 16 16zm16-64h32v32h-32zm0 0" fill="#9a9fbf"/><path d="m80 216h64c8.832031 0 16-7.167969 16-16s-7.167969-16-16-16h-64c-8.832031 0-16 7.167969-16 16s7.167969 16 16 16zm0 0" fill="#9a9fbf"/><path d="m208 216c8.832031 0 16-7.167969 16-16s-7.167969-16-16-16h-16c-8.832031 0-16 7.167969-16 16s7.167969 16 16 16zm0 0" fill="#9a9fbf"/><path d="m80 264h128c8.832031 0 16-7.167969 16-16s-7.167969-16-16-16h-128c-8.832031 0-16 7.167969-16 16s7.167969 16 16 16zm0 0" fill="#9a9fbf"/><path d="m224 296c0-8.832031-7.167969-16-16-16h-128c-8.832031 0-16 7.167969-16 16s7.167969 16 16 16h128c8.832031 0 16-7.167969 16-16zm0 0" fill="#9a9fbf"/></svg>
