<svg height="512pt" viewBox="0 0 512 512" width="512pt" xmlns="http://www.w3.org/2000/svg"><path d="m15 0c-8.289062 0-15 6.710938-15 15v241c0 6.0625 3.648438 11.542969 9.257812 13.855469 5.527344 2.308593 12.019532 1.078125 16.347657-3.25l56.605469-55.605469h173.789062l30-30v-150.0625l-30-30.9375zm0 0" fill="#575f64"/><path d="m497 0h-241v61c-24.851562 0-45 20.148438-45 45s20.148438 45 45 45v60h173.789062l56.605469 55.605469c4.324219 4.324219 10.816407 5.558593 16.347657 3.25 5.609374-2.3125 9.257812-7.792969 9.257812-13.855469v-241c0-8.289062-6.710938-15-15-15zm0 0" fill="#fdbf00"/><path d="m121 391c-49.5 0-90 41.5-90 91v15c0 8.402344 6.597656 15 15 15h150c8.402344 0 15-6.597656 15-15v-15c0-49.5-40.5-91-90-91zm0 0" fill="#ff637b"/><g fill="#32393f"><path d="m391 106c0 8.285156-6.714844 15-15 15s-15-6.714844-15-15 6.714844-15 15-15 15 6.714844 15 15zm0 0"/><path d="m451 106c0 8.285156-6.714844 15-15 15s-15-6.714844-15-15 6.714844-15 15-15 15 6.714844 15 15zm0 0"/><path d="m331 106c0 8.285156-6.714844 15-15 15s-15-6.714844-15-15 6.714844-15 15-15 15 6.714844 15 15zm0 0"/></g><path d="m211 482v15c0 8.402344-6.597656 15-15 15h-75v-121c49.5 0 90 41.5 90 91zm0 0" fill="#e63950"/><path d="m121 271c-33 0-60 27-60 60s27 60 60 60 60-27 60-60-27-60-60-60zm0 0" fill="#ffbd86"/><path d="m121 391v-120c33 0 60 27 60 60s-27 60-60 60zm0 0" fill="#f6a96c"/><path d="m391 391c-49.5 0-90 41.5-90 91v15c0 8.402344 6.597656 15 15 15h150c8.402344 0 15-6.597656 15-15v-15c0-49.5-40.5-91-90-91zm0 0" fill="#64e1dc"/><path d="m481 482v15c0 8.402344-6.597656 15-15 15h-75v-121c49.5 0 90 41.5 90 91zm0 0" fill="#00c8c8"/><path d="m391 271c-33 0-60 27-60 60s27 60 60 60 60-27 60-60-27-60-60-60zm0 0" fill="#ffbd86"/><path d="m391 391v-120c33 0 60 27 60 60s-27 60-60 60zm0 0" fill="#f6a96c"/></svg>