<?xml version="1.0"?>
<svg xmlns="http://www.w3.org/2000/svg" height="512px" viewBox="0 -20 512 512" width="512px"><path d="m60.035156 322.273438h119v30h-119zm0 0" fill="#9a9fbf"/><path d="m60.035156 382.324219h119v30h-119zm0 0" fill="#9a9fbf"/><path d="m472.582031 39.953125c-25.410156-25.550781-59.242187-39.738281-95.265625-39.94921875-.273437-.00390625-.542968-.00390625-.816406-.00390625-35.878906 0-69.734375 14.023438-95.402344 39.539062-22.25 22.121094-35.886718 50.441407-39.261718 80.960938h-36.613282l-20.015625-40.03125h-185.207031v391.902344h512v-336.871094c0-36.050781-14-69.984375-39.417969-95.546875zm-170.332031 20.863281c20.003906-19.890625 46.351562-30.816406 74.253906-30.816406.210938 0 .425782 0 .632813.003906 57.824219.339844 104.863281 47.664063 104.863281 105.496094 0 37.617188-20.285156 72.671875-52.9375 91.476562l-7.515625 4.328126v37.183593h-30.046875v-72.878906l40.859375-40.863281-21.210937-21.210938-34.648438 34.648438-34.648438-34.648438-21.210937 21.210938 40.859375 40.863281v72.878906h-30.046875v-37.183593l-7.515625-4.328126c-32.652344-18.804687-52.9375-53.859374-52.9375-91.476562 0-28.128906 11.097656-54.652344 31.25-74.683594zm29.203125 237.671875h90.09375v30.046875h-90.09375zm150.546875 143.882813h-452v-331.902344h136.664062l20.019532 40.03125h55.171875c4.445312 39.578125 26.265625 75.589844 59.597656 97.8125v110.222656h150.09375v-110.222656c11.636719-7.757812 21.867187-17.199219 30.453125-27.882812zm0 0" fill="#9a9fbf"/></svg>
