<?xml version="1.0" encoding="iso-8859-1"?>
<!-- Generator: Adobe Illustrator 19.0.0, SVG Export Plug-In . SVG Version: 6.00 Build 0)  -->
<svg version="1.1" id="Layer_1" xmlns="http://www.w3.org/2000/svg" xmlns:xlink="http://www.w3.org/1999/xlink" x="0px" y="0px"
	 viewBox="0 0 491.52 491.52" style="enable-background:new 0 0 491.52 491.52;" xml:space="preserve">
<g>
	<rect x="118.835" y="450.202" style="fill:#3A556A;" width="100.111" height="41.318"/>
	<rect x="338.022" y="450.202" style="fill:#3A556A;" width="100.111" height="41.318"/>
</g>
<path style="fill:#64798A;" d="M465.984,0H90.944C76.843,0,65.408,11.389,65.408,25.438v411.144
	c0,14.049,11.434,25.439,25.536,25.439h375.039c14.104,0,25.536-11.39,25.536-25.439V25.438C491.52,11.389,480.088,0,465.984,0z"/>
<rect x="103.066" y="37.53" style="fill:#3A556A;" width="350.771" height="386.97"/>
<polygon style="fill:#2F4859;" points="34.779,0.001 0,0.001 0,462.022 34.779,462.022 103.076,424.492 103.076,37.531 "/>
<rect style="fill:#64798A;" width="34.78" height="462.029"/>
<g>
	<ellipse style="fill:#2F4859;" cx="17.388" cy="56.074" rx="11.464" ry="11.418"/>
	<ellipse style="fill:#2F4859;" cx="17.388" cy="172.698" rx="11.464" ry="11.418"/>
	<ellipse style="fill:#2F4859;" cx="17.388" cy="289.331" rx="11.464" ry="11.418"/>
	<ellipse style="fill:#2F4859;" cx="17.388" cy="405.965" rx="11.464" ry="11.418"/>
</g>
<rect x="111.334" y="284.314" style="fill:#3EA69B;" width="147.149" height="22.518"/>
<g>
	<rect x="111.334" y="304.742" style="fill:#44C4A1;" width="147.149" height="2.058"/>
	<rect x="111.334" y="300.237" style="fill:#44C4A1;" width="147.149" height="2.058"/>
	<rect x="111.334" y="295.767" style="fill:#44C4A1;" width="147.149" height="2.058"/>
	<rect x="111.334" y="291.277" style="fill:#44C4A1;" width="147.149" height="2.058"/>
	<rect x="111.334" y="286.771" style="fill:#44C4A1;" width="147.149" height="2.058"/>
</g>
<rect x="169.882" y="284.314" style="fill:#FFFFFF;" width="30.003" height="22.518"/>
<g>
	<rect x="171.889" y="284.314" style="fill:#FCD462;" width="1.843" height="22.518"/>
	<rect x="196.096" y="284.314" style="fill:#FCD462;" width="1.843" height="22.518"/>
</g>
<rect x="118.938" y="261.786" style="fill:#3EA69B;" width="147.149" height="22.518"/>
<g>
	<rect x="118.938" y="282.214" style="fill:#44C4A1;" width="147.149" height="2.058"/>
	<rect x="118.938" y="277.76" style="fill:#44C4A1;" width="147.149" height="2.058"/>
	<rect x="118.938" y="273.254" style="fill:#44C4A1;" width="147.149" height="2.058"/>
	<rect x="118.938" y="268.749" style="fill:#44C4A1;" width="147.149" height="2.058"/>
	<rect x="118.938" y="264.269" style="fill:#44C4A1;" width="147.149" height="2.058"/>
</g>
<rect x="177.49" y="261.786" style="fill:#FFFFFF;" width="30.003" height="22.518"/>
<g>
	<rect x="179.456" y="261.786" style="fill:#FCD462;" width="1.843" height="22.518"/>
	<rect x="203.668" y="261.786" style="fill:#FCD462;" width="1.843" height="22.518"/>
</g>
<rect x="105.892" y="239.263" style="fill:#3EA69B;" width="147.149" height="22.518"/>
<g>
	<rect x="105.892" y="259.722" style="fill:#44C4A1;" width="147.149" height="2.058"/>
	<rect x="105.892" y="255.227" style="fill:#44C4A1;" width="147.149" height="2.058"/>
	<rect x="105.892" y="250.737" style="fill:#44C4A1;" width="147.149" height="2.058"/>
	<rect x="105.892" y="246.221" style="fill:#44C4A1;" width="147.149" height="2.058"/>
	<rect x="105.892" y="241.766" style="fill:#44C4A1;" width="147.149" height="2.058"/>
</g>
<rect x="164.454" y="239.263" style="fill:#FFFFFF;" width="30.003" height="22.518"/>
<g>
	<rect x="166.446" y="239.263" style="fill:#FCD462;" width="1.843" height="22.518"/>
	<rect x="190.669" y="239.263" style="fill:#FCD462;" width="1.843" height="22.518"/>
</g>
<rect x="118.938" y="216.73" style="fill:#3EA69B;" width="147.149" height="22.518"/>
<g>
	<rect x="118.938" y="237.21" style="fill:#44C4A1;" width="147.149" height="2.058"/>
	<rect x="118.938" y="232.704" style="fill:#44C4A1;" width="147.149" height="2.058"/>
	<rect x="118.938" y="228.219" style="fill:#44C4A1;" width="147.149" height="2.058"/>
	<rect x="118.938" y="223.724" style="fill:#44C4A1;" width="147.149" height="2.058"/>
	<rect x="118.938" y="219.233" style="fill:#44C4A1;" width="147.149" height="2.058"/>
</g>
<rect x="177.49" y="216.73" style="fill:#FFFFFF;" width="30.003" height="22.518"/>
<g>
	<rect x="179.456" y="216.73" style="fill:#FCD462;" width="1.843" height="22.518"/>
	<rect x="203.668" y="216.73" style="fill:#FCD462;" width="1.843" height="22.518"/>
</g>
<rect x="109.199" y="194.232" style="fill:#3EA69B;" width="147.149" height="22.518"/>
<g>
	<rect x="109.199" y="214.687" style="fill:#44C4A1;" width="147.149" height="2.058"/>
	<rect x="109.199" y="210.176" style="fill:#44C4A1;" width="147.149" height="2.058"/>
	<rect x="109.199" y="205.722" style="fill:#44C4A1;" width="147.149" height="2.058"/>
	<rect x="109.199" y="201.216" style="fill:#44C4A1;" width="147.149" height="2.058"/>
	<rect x="109.199" y="196.71" style="fill:#44C4A1;" width="147.149" height="2.058"/>
</g>
<rect x="167.772" y="194.232" style="fill:#FFFFFF;" width="30.003" height="22.518"/>
<g>
	<rect x="169.728" y="194.232" style="fill:#FCD462;" width="1.843" height="22.518"/>
	<rect x="193.956" y="194.232" style="fill:#FCD462;" width="1.843" height="22.518"/>
</g>
<rect x="130.094" y="171.715" style="fill:#3EA69B;" width="147.149" height="22.518"/>
<g>
	<rect x="130.094" y="192.169" style="fill:#44C4A1;" width="147.149" height="2.058"/>
	<rect x="130.094" y="187.679" style="fill:#44C4A1;" width="147.149" height="2.058"/>
	<rect x="130.094" y="183.183" style="fill:#44C4A1;" width="147.149" height="2.058"/>
	<rect x="130.094" y="178.693" style="fill:#44C4A1;" width="147.149" height="2.058"/>
	<rect x="130.094" y="174.182" style="fill:#44C4A1;" width="147.149" height="2.058"/>
</g>
<rect x="188.667" y="171.715" style="fill:#FFFFFF;" width="30.003" height="22.518"/>
<g>
	<rect x="190.669" y="171.715" style="fill:#FCD462;" width="1.843" height="22.518"/>
	<rect x="214.851" y="171.715" style="fill:#FCD462;" width="1.843" height="22.518"/>
</g>
<rect x="279.552" y="282.214" style="fill:#3EA69B;" width="147.149" height="22.518"/>
<g>
	<rect x="279.552" y="302.694" style="fill:#44C4A1;" width="147.149" height="2.058"/>
	<rect x="279.552" y="298.189" style="fill:#44C4A1;" width="147.149" height="2.058"/>
	<rect x="279.552" y="293.683" style="fill:#44C4A1;" width="147.149" height="2.058"/>
	<rect x="279.552" y="289.229" style="fill:#44C4A1;" width="147.149" height="2.058"/>
	<rect x="279.552" y="284.723" style="fill:#44C4A1;" width="147.149" height="2.058"/>
</g>
<rect x="338.125" y="282.214" style="fill:#FFFFFF;" width="30.003" height="22.518"/>
<g>
	<rect x="340.07" y="282.214" style="fill:#FCD462;" width="1.843" height="22.518"/>
	<rect x="364.288" y="282.214" style="fill:#FCD462;" width="1.843" height="22.518"/>
</g>
<rect x="287.13" y="259.722" style="fill:#3EA69B;" width="147.149" height="22.518"/>
<g>
	<rect x="287.13" y="280.177" style="fill:#44C4A1;" width="147.149" height="2.058"/>
	<rect x="287.13" y="275.686" style="fill:#44C4A1;" width="147.149" height="2.058"/>
	<rect x="287.13" y="271.191" style="fill:#44C4A1;" width="147.149" height="2.058"/>
	<rect x="287.13" y="266.701" style="fill:#44C4A1;" width="147.149" height="2.058"/>
	<rect x="287.13" y="262.195" style="fill:#44C4A1;" width="147.149" height="2.058"/>
</g>
<rect x="345.702" y="259.722" style="fill:#FFFFFF;" width="30.003" height="22.518"/>
<g>
	<rect x="347.674" y="259.722" style="fill:#FCD462;" width="1.843" height="22.518"/>
	<rect x="371.866" y="259.722" style="fill:#FCD462;" width="1.843" height="22.518"/>
</g>
<rect x="274.125" y="237.21" style="fill:#3EA69B;" width="147.149" height="22.518"/>
<g>
	<rect x="274.125" y="257.638" style="fill:#44C4A1;" width="147.149" height="2.058"/>
	<rect x="274.125" y="253.184" style="fill:#44C4A1;" width="147.149" height="2.058"/>
	<rect x="274.125" y="248.673" style="fill:#44C4A1;" width="147.149" height="2.058"/>
	<rect x="274.125" y="244.183" style="fill:#44C4A1;" width="147.149" height="2.058"/>
	<rect x="274.125" y="239.688" style="fill:#44C4A1;" width="147.149" height="2.058"/>
</g>
<rect x="332.672" y="237.21" style="fill:#FFFFFF;" width="30.003" height="22.518"/>
<g>
	<rect x="334.643" y="237.21" style="fill:#FCD462;" width="1.843" height="22.518"/>
	<rect x="358.861" y="237.21" style="fill:#FCD462;" width="1.843" height="22.518"/>
</g>
<rect x="287.13" y="214.687" style="fill:#3EA69B;" width="147.149" height="22.518"/>
<g>
	<rect x="287.13" y="235.141" style="fill:#44C4A1;" width="147.149" height="2.058"/>
	<rect x="287.13" y="230.656" style="fill:#44C4A1;" width="147.149" height="2.058"/>
	<rect x="287.13" y="226.15" style="fill:#44C4A1;" width="147.149" height="2.058"/>
	<rect x="287.13" y="221.645" style="fill:#44C4A1;" width="147.149" height="2.058"/>
	<rect x="287.13" y="217.19" style="fill:#44C4A1;" width="147.149" height="2.058"/>
</g>
<rect x="345.702" y="214.687" style="fill:#FFFFFF;" width="30.003" height="22.518"/>
<g>
	<rect x="347.674" y="214.687" style="fill:#FCD462;" width="1.843" height="22.518"/>
	<rect x="371.866" y="214.687" style="fill:#FCD462;" width="1.843" height="22.518"/>
</g>
<rect x="277.402" y="192.169" style="fill:#3EA69B;" width="147.149" height="22.518"/>
<g>
	<rect x="277.402" y="212.628" style="fill:#44C4A1;" width="147.149" height="2.058"/>
	<rect x="277.402" y="208.133" style="fill:#44C4A1;" width="147.149" height="2.058"/>
	<rect x="277.402" y="203.643" style="fill:#44C4A1;" width="147.149" height="2.058"/>
	<rect x="277.402" y="199.148" style="fill:#44C4A1;" width="147.149" height="2.058"/>
	<rect x="277.402" y="194.662" style="fill:#44C4A1;" width="147.149" height="2.058"/>
</g>
<rect x="335.974" y="192.169" style="fill:#FFFFFF;" width="30.003" height="22.518"/>
<g>
	<rect x="337.971" y="192.169" style="fill:#FCD462;" width="1.843" height="22.518"/>
	<rect x="362.138" y="192.169" style="fill:#FCD462;" width="1.843" height="22.518"/>
</g>
<rect x="298.291" y="169.677" style="fill:#3EA69B;" width="147.149" height="22.518"/>
<g>
	<rect x="298.291" y="190.106" style="fill:#44C4A1;" width="147.149" height="2.058"/>
	<rect x="298.291" y="185.6" style="fill:#44C4A1;" width="147.149" height="2.058"/>
	<rect x="298.291" y="181.146" style="fill:#44C4A1;" width="147.149" height="2.058"/>
	<rect x="298.291" y="176.63" style="fill:#44C4A1;" width="147.149" height="2.058"/>
	<rect x="298.291" y="172.14" style="fill:#44C4A1;" width="147.149" height="2.058"/>
</g>
<rect x="356.864" y="169.677" style="fill:#FFFFFF;" width="30.003" height="22.518"/>
<g>
	<rect x="358.861" y="169.677" style="fill:#FCD462;" width="1.843" height="22.518"/>
	<rect x="383.078" y="169.677" style="fill:#FCD462;" width="1.843" height="22.518"/>
</g>
<rect x="261.99" y="147.139" style="fill:#3EA69B;" width="147.149" height="22.518"/>
<g>
	<rect x="261.99" y="167.593" style="fill:#44C4A1;" width="147.149" height="2.058"/>
	<rect x="261.99" y="163.098" style="fill:#44C4A1;" width="147.149" height="2.058"/>
	<rect x="261.99" y="158.607" style="fill:#44C4A1;" width="147.149" height="2.058"/>
	<rect x="261.99" y="154.112" style="fill:#44C4A1;" width="147.149" height="2.058"/>
	<rect x="261.99" y="149.606" style="fill:#44C4A1;" width="147.149" height="2.058"/>
</g>
<rect x="320.563" y="147.139" style="fill:#FFFFFF;" width="30.003" height="22.518"/>
<g>
	<rect x="322.524" y="147.139" style="fill:#FCD462;" width="1.843" height="22.518"/>
	<rect x="346.726" y="147.139" style="fill:#FCD462;" width="1.843" height="22.518"/>
</g>
<rect x="279.552" y="124.621" style="fill:#3EA69B;" width="147.149" height="22.518"/>
<g>
	<rect x="279.552" y="145.075" style="fill:#44C4A1;" width="147.149" height="2.058"/>
	<rect x="279.552" y="140.585" style="fill:#44C4A1;" width="147.149" height="2.058"/>
	<rect x="279.552" y="136.09" style="fill:#44C4A1;" width="147.149" height="2.058"/>
	<rect x="279.552" y="131.599" style="fill:#44C4A1;" width="147.149" height="2.058"/>
	<rect x="279.552" y="127.104" style="fill:#44C4A1;" width="147.149" height="2.058"/>
</g>
<rect x="338.125" y="124.621" style="fill:#FFFFFF;" width="30.003" height="22.518"/>
<g>
	<rect x="340.07" y="124.621" style="fill:#FCD462;" width="1.843" height="22.518"/>
	<rect x="364.288" y="124.621" style="fill:#FCD462;" width="1.843" height="22.518"/>
</g>
<rect x="175.82" y="115.718" transform="matrix(-0.8845 0.4666 -0.4666 -0.8845 529.2231 122.9098)" style="fill:#3EA69B;" width="147.149" height="22.518"/>
<g>
	
		<rect x="180.582" y="134.999" transform="matrix(-0.8845 0.4666 -0.4666 -0.8845 542.4204 137.7451)" style="fill:#44C4A1;" width="147.149" height="2.058"/>
	
		<rect x="178.483" y="131.044" transform="matrix(-0.8845 0.4666 -0.4666 -0.8845 536.6205 131.271)" style="fill:#44C4A1;" width="147.149" height="2.058"/>
	
		<rect x="176.388" y="127.051" transform="matrix(-0.8845 0.4666 -0.4666 -0.8845 530.8091 124.7236)" style="fill:#44C4A1;" width="147.149" height="2.058"/>
	
		<rect x="174.291" y="123.089" transform="matrix(-0.8845 0.4666 -0.4666 -0.8845 525.0078 118.2365)" style="fill:#44C4A1;" width="147.149" height="2.058"/>
	
		<rect x="172.193" y="119.072" transform="matrix(-0.8845 0.4666 -0.4666 -0.8845 519.1794 111.6464)" style="fill:#44C4A1;" width="147.149" height="2.058"/>
</g>
<rect x="234.384" y="115.722" transform="matrix(-0.8845 0.4666 -0.4666 -0.8845 529.2083 122.9231)" style="fill:#FFFFFF;" width="30.003" height="22.518"/>
<g>
	
		<rect x="237.773" y="121.364" transform="matrix(-0.8845 0.4666 -0.4666 -0.8845 511.6941 138.5429)" style="fill:#FCD462;" width="1.843" height="22.518"/>
	
		<rect x="259.164" y="110.076" transform="matrix(-0.8845 0.4666 -0.4666 -0.8845 546.7372 107.29)" style="fill:#FCD462;" width="1.843" height="22.518"/>
</g>
<rect x="105.611" y="114.394" transform="matrix(-0.9474 0.3202 -0.3202 -0.9474 389.1683 187.3214)" style="fill:#3EA69B;" width="147.149" height="22.518"/>
<g>
	
		<rect x="108.885" y="134.298" transform="matrix(-0.9474 0.3202 -0.3202 -0.9474 398.6414 205.1134)" style="fill:#44C4A1;" width="147.149" height="2.058"/>
	
		<rect x="107.448" y="130.052" transform="matrix(-0.9474 0.3202 -0.3202 -0.9474 394.4837 197.304)" style="fill:#44C4A1;" width="147.149" height="2.058"/>
	
		<rect x="106.008" y="125.801" transform="matrix(-0.9474 0.3202 -0.3202 -0.9474 390.3183 189.4867)" style="fill:#44C4A1;" width="147.149" height="2.058"/>
	
		<rect x="104.571" y="121.54" transform="matrix(-0.9474 0.3202 -0.3202 -0.9474 386.1564 181.6489)" style="fill:#44C4A1;" width="147.149" height="2.058"/>
	
		<rect x="103.117" y="117.278" transform="matrix(-0.9474 0.3202 -0.3202 -0.9474 381.9593 173.8159)" style="fill:#44C4A1;" width="147.149" height="2.058"/>
</g>
<rect x="164.198" y="114.389" transform="matrix(-0.9474 0.3202 -0.3202 -0.9474 389.1951 187.3072)" style="fill:#FFFFFF;" width="30.003" height="22.518"/>
<g>
	
		<rect x="166.803" y="118.275" transform="matrix(-0.9474 0.3202 -0.3202 -0.9474 368.0924 198.5481)" style="fill:#FCD462;" width="1.843" height="22.518"/>
	
		<rect x="189.745" y="110.511" transform="matrix(-0.9474 0.3202 -0.3202 -0.9474 410.2847 176.0847)" style="fill:#FCD462;" width="1.843" height="22.518"/>
</g>
<path style="fill:#F6C358;" d="M359.976,413.678l-10.374-44.291c-0.457-1.952-2.199-3.332-4.203-3.332h-53.619
	c-2.004,0-3.746,1.38-4.203,3.332l-10.374,44.291c-0.635,2.709,1.421,5.301,4.203,5.301h74.367
	C358.554,418.979,360.61,416.386,359.976,413.678z"/>
<path style="fill:#FCD462;" d="M345.398,366.055h-53.619c-2.004,0-3.746,1.38-4.203,3.332l-10.374,44.291
	c-0.635,2.709,1.421,5.301,4.203,5.301c38.566-1.966,64.482-15.568,68.196-49.592C349.144,367.435,347.403,366.055,345.398,366.055z
	"/>
<path style="fill:#F6C358;" d="M448.47,413.678l-10.374-44.291c-0.457-1.952-2.199-3.332-4.203-3.332h-53.619
	c-2.004,0-3.746,1.38-4.203,3.332l-10.374,44.291c-0.635,2.709,1.421,5.301,4.203,5.301h74.367
	C447.049,418.979,449.104,416.386,448.47,413.678z"/>
<path style="fill:#FCD462;" d="M433.893,366.055h-53.619c-2.004,0-3.746,1.38-4.203,3.332l-10.374,44.291
	c-0.635,2.709,1.421,5.301,4.203,5.301c38.566-1.966,64.482-15.568,68.196-49.592C437.639,367.435,435.897,366.055,433.893,366.055z
	"/>
<path style="fill:#F6C358;" d="M404.223,360.754l-10.374-44.291c-0.457-1.952-2.199-3.332-4.203-3.332h-53.619
	c-2.004,0-3.746,1.38-4.203,3.332l-10.374,44.291c-0.635,2.709,1.421,5.301,4.203,5.301h74.367
	C402.801,366.055,404.857,363.462,404.223,360.754z"/>
<path style="fill:#FCD462;" d="M389.646,313.131h-53.619c-2.004,0-3.746,1.38-4.203,3.332l-10.374,44.291
	c-0.635,2.709,1.421,5.301,4.203,5.301c38.566-1.966,64.482-15.568,68.196-49.592C393.391,314.511,391.65,313.131,389.646,313.131z"
	/>
<path style="fill:#F6C358;" d="M317.138,360.754l-10.374-44.291c-0.457-1.952-2.199-3.332-4.203-3.332h-53.619
	c-2.004,0-3.746,1.38-4.203,3.332l-10.374,44.291c-0.635,2.709,1.421,5.301,4.203,5.301h74.367
	C315.717,366.055,317.772,363.462,317.138,360.754z"/>
<path style="fill:#FCD462;" d="M302.561,313.131h-53.619c-2.004,0-3.746,1.38-4.203,3.332l-10.374,44.291
	c-0.635,2.709,1.421,5.301,4.203,5.301c38.566-1.966,64.482-15.568,68.196-49.592C306.307,314.511,304.565,313.131,302.561,313.131z
	"/>
<path style="fill:#F6C358;" d="M185.965,413.678l-10.374-44.291c-0.457-1.952-2.199-3.332-4.203-3.332h-53.619
	c-2.004,0-3.746,1.38-4.203,3.332l-10.374,44.291c-0.635,2.709,1.421,5.301,4.203,5.301h74.367
	C184.544,418.979,186.599,416.386,185.965,413.678z"/>
<path style="fill:#FCD462;" d="M171.388,366.055h-53.619c-2.004,0-3.746,1.38-4.203,3.332l-10.374,44.291
	c-0.635,2.709,1.421,5.301,4.203,5.301c38.566-1.966,64.482-15.568,68.196-49.592C175.134,367.435,173.392,366.055,171.388,366.055z
	"/>
<path style="fill:#F6C358;" d="M274.459,413.678l-10.374-44.291c-0.457-1.952-2.199-3.332-4.203-3.332h-53.619
	c-2.004,0-3.746,1.38-4.203,3.332l-10.374,44.291c-0.635,2.709,1.421,5.301,4.203,5.301h74.367
	C273.038,418.979,275.093,416.386,274.459,413.678z"/>
<path style="fill:#FCD462;" d="M259.882,366.055h-53.619c-2.004,0-3.746,1.38-4.203,3.332l-10.374,44.291
	c-0.635,2.709,1.421,5.301,4.203,5.301c38.566-1.966,64.482-15.568,68.196-49.592C263.628,367.435,261.886,366.055,259.882,366.055z
	"/>
<path style="fill:#F6C358;" d="M230.212,360.754l-10.374-44.291c-0.457-1.952-2.199-3.332-4.203-3.332h-53.619
	c-2.004,0-3.746,1.38-4.203,3.332l-10.374,44.291c-0.635,2.709,1.421,5.301,4.203,5.301h74.367
	C228.791,366.055,230.846,363.462,230.212,360.754z"/>
<path style="fill:#FCD462;" d="M215.635,313.131h-53.619c-2.004,0-3.746,1.38-4.203,3.332l-10.374,44.291
	c-0.635,2.709,1.421,5.301,4.203,5.301c38.566-1.966,64.482-15.568,68.196-49.592C219.381,314.511,217.639,313.131,215.635,313.131z
	"/>
<g>
</g>
<g>
</g>
<g>
</g>
<g>
</g>
<g>
</g>
<g>
</g>
<g>
</g>
<g>
</g>
<g>
</g>
<g>
</g>
<g>
</g>
<g>
</g>
<g>
</g>
<g>
</g>
<g>
</g>
</svg>
