<?xml version="1.0"?>
<svg xmlns="http://www.w3.org/2000/svg" xmlns:xlink="http://www.w3.org/1999/xlink" version="1.1" id="Capa_1" x="0px" y="0px" viewBox="0 0 512 512" style="enable-background:new 0 0 512 512;" xml:space="preserve" width="512px" height="512px"><g><g>
	<g>
		<path d="M452,362.507v-16.509c0-24.813-20.187-45-45-45H271v-31.823c68.233-7.45,120-65.308,120-134.177    C391,59.743,329.38-0.504,254.999,0.006c-69.049,0.474-124.443,53.136-132.77,116.39C112.051,193.699,167.039,261.103,241,269.175    v31.823H105c-24.813,0-45,20.187-45,45v16.509c-34.192,6.968-60,37.271-60,73.491c0,41.463,33.535,76,75,76    c41.463,0,75-34.535,75-76c0-36.219-25.808-66.522-60-73.491v-16.509c0-8.271,6.729-15,15-15h136v31.509    c-34.192,6.968-60,37.271-60,73.491c0,41.463,33.535,76,75,76c41.463,0,75-34.535,75-76c0-36.219-25.808-66.522-60-73.491v-31.509    h136c8.271,0,15,6.729,15,15v16.509c-34.192,6.968-60,37.271-60,73.491c0,41.463,33.535,76,75.001,76    c41.461,0,74.999-34.534,74.999-76C512,399.779,486.192,369.476,452,362.507z M120,435.998c0,24.935-20.607,46-45,46    s-45-21.065-45-46c0-24.813,20.187-45,45-45S120,411.185,120,435.998z M174.689,201.426    c-19.372-23.723-26.532-52.139-22.718-81.113c6.363-48.335,49.127-90.327,104.198-90.327c58.377,0,104.83,47.847,104.83,105.013    c0,23.753-7.746,46.895-23.692,66.421c-7.971-16.777-20.987-30.901-37.786-40.185c10.2-10.76,16.478-25.275,16.478-41.236    c0-33.084-26.916-60-60-60s-60,26.916-60,60c0,15.962,6.277,30.476,16.478,41.236C195.681,170.517,182.66,184.646,174.689,201.426    z M286,119.998c0,16.542-13.458,30-30,30s-30-13.458-30-30s13.458-30,30-30S286,103.456,286,119.998z M301,435.998    c0,24.935-20.607,46-45,46s-45-21.065-45-46c0-24.813,20.187-45,45-45S301,411.185,301,435.998z M256,239.999    c-20.883-0.001-40.7-6.012-57.526-17.068c7.432-24.991,30.789-42.932,57.526-42.932c26.735,0,50.091,17.939,57.525,42.927    C296.698,233.986,276.881,239.999,256,239.999z M437.001,481.998H437c-24.393,0-45-21.065-45-46c0-24.813,20.188-45,45.001-45    c24.812,0,44.999,20.187,44.999,45C482,460.933,461.393,481.998,437.001,481.998z" data-original="#000000" class="active-path" data-old_color="#000000" fill="#9A9FBF"/>
	</g>
</g></g> </svg>
