<?xml version="1.0"?>
<svg xmlns="http://www.w3.org/2000/svg" height="512px" version="1.1" viewBox="0 0 512 512.001" width="512px"><g><g id="surface1">
<path d="M 495.84375 118.070312 C 485.421875 107.648438 471.570312 101.910156 456.832031 101.910156 C 426.414062 101.910156 401.667969 126.660156 401.667969 157.078125 L 401.667969 209.96875 C 390.632812 211.917969 380.46875 217.171875 372.382812 225.257812 L 309.898438 287.742188 C 307.085938 290.554688 305.503906 294.371094 305.503906 298.347656 L 305.503906 401.664062 L 304.4375 401.664062 C 296.15625 401.664062 289.4375 408.382812 289.4375 416.664062 L 289.4375 456.832031 C 289.4375 487.25 314.183594 511.996094 344.605469 511.996094 L 398.652344 511.996094 C 429.074219 511.996094 453.820312 487.25 453.820312 456.832031 L 453.820312 416.664062 C 453.820312 409.632812 448.96875 403.746094 442.4375 402.121094 L 495.839844 348.71875 C 506.273438 338.289062 512.011719 324.421875 512 309.675781 L 512 157.078125 C 512 142.34375 506.261719 128.488281 495.84375 118.070312 Z M 423.820312 456.832031 C 423.820312 470.710938 412.53125 482 398.652344 482 L 344.605469 482 C 330.726562 482 319.4375 470.710938 319.4375 456.832031 L 319.4375 431.667969 L 423.820312 431.667969 Z M 482 309.691406 C 482.003906 316.421875 479.386719 322.746094 474.628906 327.507812 L 412.148438 389.992188 C 411.796875 390.339844 411.464844 390.710938 411.148438 391.09375 C 411.011719 391.265625 410.890625 391.441406 410.757812 391.617188 C 410.59375 391.835938 410.425781 392.046875 410.277344 392.273438 C 410.132812 392.484375 410.011719 392.707031 409.878906 392.925781 C 409.761719 393.125 409.632812 393.320312 409.523438 393.527344 C 409.40625 393.753906 409.300781 393.984375 409.195312 394.214844 C 409.09375 394.429688 408.988281 394.640625 408.894531 394.859375 C 408.800781 395.082031 408.726562 395.3125 408.644531 395.539062 C 408.5625 395.773438 408.472656 396.003906 408.398438 396.242188 C 408.332031 396.472656 408.28125 396.707031 408.21875 396.9375 C 408.160156 397.179688 408.089844 397.421875 408.042969 397.667969 C 407.988281 397.9375 407.957031 398.210938 407.917969 398.484375 C 407.886719 398.695312 407.847656 398.902344 407.824219 399.117188 C 407.777344 399.613281 407.75 400.109375 407.75 400.605469 L 407.75 401.667969 L 335.503906 401.667969 L 335.503906 304.5625 L 393.597656 246.472656 C 398.347656 241.71875 404.667969 239.101562 411.390625 239.101562 C 412.621094 239.101562 413.832031 239.191406 415.023438 239.363281 C 415.070312 239.367188 415.113281 239.378906 415.15625 239.382812 C 420.449219 240.171875 425.332031 242.617188 429.1875 246.472656 C 433.941406 251.226562 436.558594 257.546875 436.558594 264.269531 C 436.558594 270.992188 433.941406 277.3125 429.1875 282.066406 L 389.425781 321.828125 C 383.566406 327.6875 383.566406 337.183594 389.425781 343.042969 C 395.28125 348.898438 404.78125 348.898438 410.636719 343.039062 L 450.398438 303.277344 C 460.820312 292.859375 466.558594 279.003906 466.558594 264.269531 C 466.558594 249.53125 460.820312 235.679688 450.402344 225.261719 C 444.96875 219.828125 438.601562 215.683594 431.667969 212.945312 L 431.667969 157.078125 C 431.667969 143.203125 442.957031 131.910156 456.835938 131.910156 C 463.558594 131.910156 469.878906 134.527344 474.632812 139.28125 C 479.382812 144.035156 482.003906 150.355469 482.003906 157.078125 Z M 482 309.691406 " data-original="#000000" class="active-path" data-old_color="#9a9fbf" fill="#9a9fbf"/>
<path d="M 318.058594 221.003906 C 318.074219 221.003906 318.089844 221.003906 318.105469 221.003906 C 326.378906 220.992188 333.082031 214.28125 333.082031 206.003906 C 333.082031 204.851562 332.953125 203.730469 332.707031 202.652344 L 322.324219 142.136719 L 366.886719 98.699219 C 370.976562 94.714844 372.449219 88.753906 370.683594 83.320312 C 368.917969 77.890625 364.226562 73.933594 358.574219 73.113281 L 296.992188 64.164062 L 269.453125 8.363281 C 266.925781 3.242188 261.710938 0 256 0 C 250.292969 0 245.078125 3.242188 242.550781 8.359375 L 215.007812 64.164062 L 153.425781 73.113281 C 147.777344 73.933594 143.082031 77.890625 141.316406 83.320312 C 139.550781 88.753906 141.023438 94.714844 145.113281 98.699219 L 189.675781 142.136719 L 179.15625 203.46875 C 178.191406 209.097656 180.503906 214.785156 185.121094 218.140625 C 187.734375 220.039062 190.828125 221.003906 193.941406 221.003906 C 196.328125 221.003906 198.722656 220.4375 200.917969 219.28125 L 256 190.324219 L 311.082031 219.28125 C 313.277344 220.4375 315.671875 221.003906 318.058594 221.003906 Z M 262.980469 160.097656 C 258.613281 157.800781 253.390625 157.800781 249.019531 160.097656 L 213.863281 178.585938 L 220.578125 139.4375 C 221.410156 134.570312 219.796875 129.605469 216.261719 126.160156 L 187.816406 98.429688 L 227.125 92.71875 C 232.011719 92.011719 236.234375 88.941406 238.417969 84.515625 L 256 48.894531 L 273.578125 84.515625 C 275.765625 88.941406 279.988281 92.011719 284.875 92.71875 L 324.183594 98.429688 L 295.738281 126.160156 C 292.203125 129.605469 290.589844 134.570312 291.425781 139.4375 L 298.140625 178.585938 Z M 262.980469 160.097656 " data-original="#000000" class="active-path" data-old_color="#9a9fbf" fill="#9a9fbf"/>
<path d="M 207.5625 401.667969 L 206.496094 401.667969 L 206.496094 298.351562 C 206.496094 294.371094 204.917969 290.558594 202.105469 287.746094 L 139.621094 225.261719 C 131.34375 216.984375 121.066406 211.90625 110.332031 210 L 110.332031 157.078125 C 110.332031 126.660156 85.585938 101.914062 55.167969 101.914062 C 55.167969 101.914062 55.164062 101.914062 55.164062 101.914062 C 40.429688 101.914062 26.578125 107.652344 16.160156 118.070312 C 5.738281 128.488281 0 142.34375 0 157.078125 L 0 309.664062 C -0.0117188 324.417969 5.726562 338.289062 16.15625 348.71875 L 69.5625 402.125 C 63.03125 403.746094 58.179688 409.632812 58.179688 416.667969 L 58.179688 456.835938 C 58.179688 487.253906 82.929688 512 113.347656 512 L 167.394531 512 C 197.816406 512 222.5625 487.253906 222.5625 456.835938 L 222.5625 416.667969 C 222.5625 408.382812 215.847656 401.667969 207.5625 401.667969 Z M 30 309.679688 L 30 157.078125 C 30 150.355469 32.617188 144.035156 37.371094 139.28125 C 42.125 134.527344 48.441406 131.910156 55.164062 131.910156 L 55.167969 131.910156 C 69.042969 131.910156 80.332031 143.203125 80.332031 157.078125 L 80.332031 212.976562 C 73.507812 215.660156 67.109375 219.75 61.601562 225.257812 C 51.179688 235.679688 45.445312 249.53125 45.445312 264.265625 C 45.445312 279.003906 51.183594 292.859375 61.605469 303.277344 L 101.367188 343.039062 C 107.222656 348.898438 116.71875 348.898438 122.578125 343.039062 C 128.4375 337.183594 128.4375 327.683594 122.578125 321.828125 L 82.816406 282.0625 C 78.0625 277.308594 75.445312 270.988281 75.445312 264.269531 C 75.445312 257.546875 78.0625 251.226562 82.816406 246.472656 C 92.628906 236.660156 108.59375 236.660156 118.40625 246.472656 L 176.496094 304.5625 L 176.496094 401.667969 L 104.25 401.667969 L 104.25 400.605469 C 104.25 400.109375 104.222656 399.613281 104.175781 399.117188 C 104.152344 398.902344 104.113281 398.695312 104.082031 398.484375 C 104.042969 398.210938 104.011719 397.9375 103.957031 397.667969 C 103.910156 397.421875 103.839844 397.179688 103.78125 396.9375 C 103.722656 396.707031 103.671875 396.472656 103.601562 396.242188 C 103.53125 396.003906 103.441406 395.773438 103.355469 395.539062 C 103.273438 395.3125 103.199219 395.082031 103.105469 394.859375 C 103.015625 394.640625 102.910156 394.429688 102.804688 394.214844 C 102.699219 393.984375 102.597656 393.753906 102.476562 393.527344 C 102.367188 393.320312 102.238281 393.125 102.121094 392.925781 C 101.988281 392.707031 101.867188 392.484375 101.722656 392.273438 C 101.574219 392.046875 101.40625 391.835938 101.242188 391.617188 C 101.113281 391.441406 100.992188 391.265625 100.851562 391.09375 C 100.535156 390.710938 100.203125 390.339844 99.855469 389.992188 L 37.371094 327.503906 C 32.609375 322.746094 29.992188 316.421875 30 309.679688 Z M 192.5625 456.832031 C 192.5625 470.710938 181.273438 482 167.394531 482 L 113.347656 482 C 99.472656 482 88.183594 470.710938 88.183594 456.832031 L 88.183594 431.667969 L 192.5625 431.667969 Z M 192.5625 456.832031 " data-original="#000000" class="active-path" data-old_color="#9a9fbf" fill="#9a9fbf"/>
</g></g> </svg>
