<?xml version="1.0" encoding="utf-8"?>
<!-- Generator: Adobe Illustrator 22.1.0, SVG Export Plug-In . SVG Version: 6.00 Build 0)  -->
<svg version="1.1" id="Layer_1" xmlns="http://www.w3.org/2000/svg" xmlns:xlink="http://www.w3.org/1999/xlink" x="0px" y="0px"
	 viewBox="0 0 512 512" style="enable-background:new 0 0 512 512;" xml:space="preserve">
<style type="text/css">
	.st0{fill:#9A9FBF;}
</style>
<g>
	<g>
		<g>
			<polygon class="st0" points="337.1,0 337.1,31.7 480.3,31.7 480.3,175.9 512,175.9 512,0 			"/>
		</g>
		<g>
			<polygon class="st0" points="480.3,480.3 337.1,480.3 337.1,512 512,512 512,336.1 480.3,336.1 			"/>
		</g>
		<g>
			<polygon class="st0" points="31.7,336.1 0,336.1 0,512 177,512 177,480.3 31.7,480.3 			"/>
		</g>
		<g>
			<polygon class="st0" points="0,175.9 31.7,175.9 31.7,31.7 177,31.7 177,0 0,0 			"/>
		</g>
		<g>
			<path class="st0" d="M180.1,175.9c0-29.3,20.1-46,60.3-50V103h36v22.9c40.3,4,60.5,20.7,60.5,50V207h-46.6v-31.1
				c0-14.3-10.5-21.5-31.6-21.6h-0.4c-21.2,0-31.8,7.2-31.8,21.6v23.7c0,13,19.3,28.2,57.9,45.7c35,16,52.5,34.9,52.5,57V335
				c0,29.4-20.2,46.2-60.5,50.2v31.2h-36v-31.2c-40.2-4.1-60.3-20.8-60.3-50.2v-30.8h46.4V335c0,14.4,10.7,21.6,32,21.6
				c21.2,0,31.8-7.2,31.8-21.6v-29.6c0-13.9-19.2-29.6-57.7-47.1c-35-16-52.5-35.4-52.5-58V175.9z"/>
		</g>
	</g>
</g>
</svg>
