<svg height="512pt" viewBox="0 -26 512 512" width="512pt" xmlns="http://www.w3.org/2000/svg"><path d="m455.71875 282.398438v50.542968h-30v-50.542968c0-2.5-2.070312-4.527344-4.617188-4.527344h-150.382812v55.070312h-30v-55.070312h-149.820312c-2.546876 0-4.617188 2.027344-4.617188 4.527344v50.542968h-30v-50.542968c0-19.039063 15.527344-34.527344 34.617188-34.527344h149.820312v-53.082032h30v53.082032h150.382812c19.089844 0 34.617188 15.488281 34.617188 34.527344zm0 0" fill="#f3eee9"/><path d="m455.71875 282.398438v50.542968h-30v-50.542968c0-2.5-2.070312-4.527344-4.617188-4.527344h-150.382812v55.070312h-14.980469v-138.152344h14.980469v53.082032h150.382812c19.089844 0 34.617188 15.488281 34.617188 34.527344zm0 0" fill="#e9dfda"/><path d="m411.171875 40.769531v128.21875c0 22.480469-18.292969 40.773438-40.773437 40.773438h-229.320313c-22.476563 0-40.769531-18.292969-40.769531-40.773438v-128.21875c0-22.480469 18.292968-40.769531 40.769531-40.769531h229.320313c22.480468 0 40.773437 18.289062 40.773437 40.769531zm0 0" fill="#ffda00"/><path d="m411.171875 40.769531v128.21875c0 22.480469-18.292969 40.773438-40.773437 40.773438h-114.660157v-209.761719h114.660157c22.480468 0 40.773437 18.289062 40.773437 40.769531zm0 0" fill="#ffbf00"/><path d="m296.800781 79.980469c0 8.28125-6.710937 15-15 15h-116.601562c-8.289063 0-15-6.71875-15-15 0-8.289063 6.710937-15 15-15h116.601562c8.289063 0 15 6.710937 15 15zm0 0" fill="#fff"/><path d="m348.09375 64.976562h-16.085938c-8.285156 0-15 6.714844-15 15 0 8.28125 6.714844 15 15 15h16.085938c8.285156 0 15-6.71875 15-15 0-8.285156-6.714844-15-15-15zm0 0" fill="#f3eee9"/><path d="m347.011719 129.78125c0 8.289062-6.722657 15-15 15h-166.8125c-8.289063 0-15-6.710938-15-15 0-8.28125 6.710937-15 15-15h166.8125c8.277343 0 15 6.71875 15 15zm0 0" fill="#fff"/><path d="m142.558594 354.789062v68.359376c0 20.320312-16.527344 36.851562-36.847656 36.851562h-68.859376c-20.320312 0-36.851562-16.53125-36.851562-36.851562v-68.359376c0-20.320312 16.53125-36.847656 36.851562-36.847656h68.859376c20.320312 0 36.847656 16.527344 36.847656 36.847656zm0 0" fill="#ffda00"/><path d="m327.28125 354.789062v68.359376c0 20.320312-16.53125 36.851562-36.851562 36.851562h-68.859376c-20.320312 0-36.851562-16.53125-36.851562-36.851562v-68.359376c0-20.320312 16.53125-36.847656 36.851562-36.847656h68.859376c20.320312 0 36.851562 16.527344 36.851562 36.847656zm0 0" fill="#00e1dc"/><path d="m512 354.789062v68.359376c0 20.320312-16.53125 36.851562-36.851562 36.851562h-68.859376c-20.320312 0-36.847656-16.53125-36.847656-36.851562v-68.359376c0-20.320312 16.527344-36.847656 36.847656-36.847656h68.859376c20.320312 0 36.851562 16.527344 36.851562 36.847656zm0 0" fill="#0051bd"/><path d="m327.28125 354.789062v68.359376c0 20.320312-16.53125 36.851562-36.851562 36.851562h-34.691407v-142.058594h34.691407c20.320312 0 36.851562 16.527344 36.851562 36.847656zm0 0" fill="#00c8c8"/><path d="m281.800781 94.980469h-26.0625v-30h26.0625c8.289063 0 15 6.710937 15 15 0 8.28125-6.710937 15-15 15zm0 0" fill="#f3eee9"/><path d="m332.011719 144.78125h-76.273438v-30h76.273438c8.277343 0 15 6.71875 15 15 0 8.289062-6.722657 15-15 15zm0 0" fill="#f3eee9"/><path d="m142.558594 354.789062v68.359376c0 20.320312-16.527344 36.851562-36.847656 36.851562h-34.429688v-142.058594h34.429688c20.320312 0 36.847656 16.527344 36.847656 36.847656zm0 0" fill="#ffbf00"/><path d="m512 354.789062v68.359376c0 20.320312-16.53125 36.851562-36.851562 36.851562h-34.429688v-142.058594h34.429688c20.320312 0 36.851562 16.527344 36.851562 36.847656zm0 0" fill="#00347b"/></svg>