<?xml version="1.0"?>
<svg xmlns="http://www.w3.org/2000/svg" height="512px" viewBox="0 0 512 512" width="512px" class=""><g><path d="m502 175.4375c-2.628906 0-5.210938 1.0625-7.070312 2.933594-1.859376 1.859375-2.929688 4.429687-2.929688 7.066406 0 2.632812 1.070312 5.210938 2.929688 7.070312 1.859374 1.859376 4.441406 2.929688 7.070312 2.929688s5.210938-1.066406 7.070312-2.929688c1.859376-1.859374 2.929688-4.4375 2.929688-7.070312 0-2.636719-1.070312-5.207031-2.929688-7.066406-1.859374-1.871094-4.441406-2.933594-7.070312-2.933594zm0 0" data-original="#000000" class="active-path" data-old_color="#000000" fill="#9A9FBF"/><path d="m446 0h-380c-36.394531 0-66 29.605469-66 66v380c0 36.394531 29.605469 66 66 66h380c36.394531 0 66-29.605469 66-66v-220.5625c0-5.523438-4.476562-10-10-10s-10 4.476562-10 10v220.5625c0 25.363281-20.636719 46-46 46h-380c-2.035156 0-4.035156-.148438-6-.402344v-101.097656c0-5.523438-4.476562-10-10-10s-10 4.476562-10 10v93.421875c-12.066406-8.300781-20-22.199219-20-37.921875v-380c0-25.363281 20.636719-46 46-46h380c25.363281 0 46 20.636719 46 46v79.4375c0 5.523438 4.476562 10 10 10s10-4.476562 10-10v-79.4375c0-36.394531-29.605469-66-66-66zm0 0" data-original="#000000" class="active-path" data-old_color="#000000" fill="#9A9FBF"/><path d="m42.929688 343.429688c-1.859376 1.859374-2.929688 4.441406-2.929688 7.070312s1.070312 5.210938 2.929688 7.070312c1.859374 1.859376 4.441406 2.929688 7.070312 2.929688s5.210938-1.070312 7.070312-2.929688c1.859376-1.859374 2.929688-4.441406 2.929688-7.070312s-1.070312-5.210938-2.929688-7.070312c-1.859374-1.859376-4.441406-2.929688-7.070312-2.929688s-5.210938 1.070312-7.070312 2.929688zm0 0" data-original="#000000" class="active-path" data-old_color="#000000" fill="#9A9FBF"/><path d="m135.96875 294.007812h56.0625c5.523438 0 10-4.480468 10-10v-102.546874l29.253906 29.253906c1.875 1.875 4.417969 2.929687 7.070313 2.929687 2.652343 0 5.195312-1.054687 7.070312-2.929687l39.644531-39.644532c3.90625-3.90625 3.90625-10.238281 0-14.144531l-114-113.996093c-3.90625-3.90625-10.238281-3.90625-14.144531 0l-114 113.996093c-3.902343 3.90625-3.902343 10.238281 0 14.144531l39.644531 39.644532c1.875 1.875 4.417969 2.929687 7.070313 2.929687s5.199219-1.054687 7.074219-2.929687l29.25-29.253906v102.546874c.003906 5.519532 4.480468 10 10.003906 10zm-46.324219-104.507812-25.5-25.5 99.855469-99.859375 99.859375 99.859375-25.503906 25.5-39.25-39.253906c-2.863281-2.859375-7.164063-3.714844-10.898438-2.167969-3.738281 1.550781-6.175781 5.195313-6.175781 9.238281v116.691406h-36.0625v-116.691406c0-4.042968-2.4375-7.6875-6.171875-9.238281-3.738281-1.546875-8.039063-.691406-10.898437 2.167969zm0 0" data-original="#000000" class="active-path" data-old_color="#000000" fill="#9A9FBF"/><path d="m337.925781 469.070312c1.953125 1.953126 4.511719 2.929688 7.070313 2.929688s5.121094-.976562 7.070312-2.929688l114-114c3.90625-3.902343 3.90625-10.234374 0-14.140624l-39.640625-39.644532c-1.875-1.875-4.421875-2.929687-7.074219-2.929687-2.652343 0-5.195312 1.054687-7.070312 2.929687l-29.253906 29.253906v-102.546874c0-5.519532-4.476563-10-10-10h-56.0625c-5.523438 0-10 4.480468-10 10v102.546874l-29.25-29.253906c-1.875-1.875-4.421875-2.929687-7.074219-2.929687s-5.195313 1.054687-7.070313 2.929687l-39.644531 39.644532c-3.902343 3.90625-3.902343 10.238281 0 14.144531zm-67.285156-146.570312 39.253906 39.253906c2.859375 2.859375 7.160157 3.710938 10.898438 2.167969 3.734375-1.550781 6.171875-5.195313 6.171875-9.238281v-116.691406h36.0625v116.691406c0 4.042968 2.4375 7.6875 6.171875 9.238281 3.738281 1.546875 8.039062.691406 10.898437-2.167969l39.253906-39.253906 25.5 25.5-99.855468 99.859375-99.859375-99.859375zm0 0" data-original="#000000" class="active-path" data-old_color="#000000" fill="#9A9FBF"/></g> </svg>
