<?xml version="1.0"?>
<svg xmlns="http://www.w3.org/2000/svg" xmlns:xlink="http://www.w3.org/1999/xlink" version="1.1" id="Capa_1" x="0px" y="0px" viewBox="0 0 512 512" style="enable-background:new 0 0 512 512;" xml:space="preserve" width="512px" height="512px" class=""><g><g>
	<path d="M502,411.867h-26.665v-248.4c0-27.57-22.43-50-50-50h-0.934V17.331   c0-5.523-4.477-10-10-10H296c-5.522,0-10,4.477-10,10c0,5.522,4.478,10,10,10h108.401v190.366l-97.057-89.556   c-3.829-3.532-9.732-3.534-13.563,0l-75.053,69.253l-37.783-34.862c-3.831-3.533-9.733-3.533-13.563,0l-59.785,55.165V27.331H216   c5.522,0,10-4.478,10-10c0-5.523-4.478-10-10-10H97.599c-5.522,0-10,4.477-10,10v96.136h-0.934c-27.57,0-50,22.43-50,50v248.4H10   c-5.522,0-10,4.478-10,10c0,23.965,4.453,43.077,13.236,56.806c11.036,17.25,28.339,25.997,51.429,25.997h382.67   c23.09,0,40.393-8.747,51.429-25.997C507.547,464.944,512,445.831,512,421.867C512,416.344,507.522,411.867,502,411.867z    M107.599,300.13h296.803v42.399H107.599V300.13z M174.165,183.488l37.783,34.862c3.831,3.533,9.733,3.533,13.563,0l75.053-69.253   l103.838,95.813v35.22H107.599v-35.22L174.165,183.488z M56.665,163.466c0-16.542,13.458-30,30-30h0.934V352.53   c0,5.522,4.478,10,10,10h316.803c5.523,0,10-4.478,10-10V133.466h0.934c16.542,0,30,13.458,30,30v248.4H56.665V163.466z    M481.917,467.894c-7.222,11.288-18.534,16.775-34.582,16.775H64.665c-16.048,0-27.36-5.487-34.582-16.775   c-5.534-8.65-8.812-20.741-9.779-36.027h26.361h418.67h26.361C490.728,447.153,487.451,459.244,481.917,467.894z" data-original="#000000" class="active-path" data-old_color="#000000" fill="#9A9FBF"/>
	<path d="M308.8,448.267H203.2c-5.522,0-10,4.478-10,10c0,5.522,4.478,10,10,10h105.6   c5.522,0,10-4.478,10-10C318.8,452.745,314.322,448.267,308.8,448.267z" data-original="#000000" class="active-path" data-old_color="#000000" fill="#9A9FBF"/>
	<path d="M136.819,95.209c0,20.593,16.753,37.347,37.346,37.347   c20.594,0,37.348-16.754,37.348-37.347c0-20.593-16.754-37.347-37.348-37.347C153.572,57.863,136.819,74.617,136.819,95.209z    M191.513,95.209c0,9.565-7.782,17.347-17.348,17.347c-9.564,0-17.346-7.781-17.346-17.347c0-9.565,7.781-17.347,17.346-17.347   C183.73,77.863,191.513,85.644,191.513,95.209z" data-original="#000000" class="active-path" data-old_color="#000000" fill="#9A9FBF"/>
	<path d="M256,27.331c5.508,0,10-4.492,10-10c0-5.508-4.492-10-10-10   c-5.507,0-10,4.492-10,10C246,22.838,250.493,27.331,256,27.331z" data-original="#000000" class="active-path" data-old_color="#000000" fill="#9A9FBF"/>
</g></g> </svg>
