<svg id="Layer_1" data-name="Layer 1" xmlns="http://www.w3.org/2000/svg" viewBox="0 0 277.09 27.05"><defs><style>.cls-1{fill:#fff;}</style></defs><title>Alchem-Logo-Icon-White-full</title><path class="cls-1" d="M58.72,25.93H57.6V19.77H49.88a2.1,2.1,0,0,0-1.79.79,2.79,2.79,0,0,0-.67,1.9,2.38,2.38,0,0,0,.78,1.79A2.63,2.63,0,0,0,50,25h5v1H50a3,3,0,0,1-2.57-1.12,3.58,3.58,0,0,1-.89-2.69,3.29,3.29,0,0,1,1-2.46,3.55,3.55,0,0,1,2.57-1h7.72a2.46,2.46,0,0,0-2.46-2.24H48.43v-1h6.93A3.45,3.45,0,0,1,58.83,19v6.94Z" transform="translate(-4.01 -6.67)"/><path class="cls-1" d="M73,25.93a3.45,3.45,0,0,1-3.47-3.47V15.52h1.12v6.94a2.54,2.54,0,0,0,.67,1.79A2,2,0,0,0,73,25h7v1H73Z" transform="translate(-4.01 -6.67)"/><path class="cls-1" d="M93.84,25.93a3.14,3.14,0,0,1-2.46-1,3.29,3.29,0,0,1-1-2.46V18.88a3.28,3.28,0,0,1,1-2.46,3.22,3.22,0,0,1,2.46-.9h7.83v1H94a2,2,0,0,0-1.67.78,2.73,2.73,0,0,0-.67,1.79v3.25a2.54,2.54,0,0,0,.67,1.79,2,2,0,0,0,1.67.78h7.72v1Z" transform="translate(-4.01 -6.67)"/><polygon class="cls-1" points="119.7 19.26 119.7 13.1 109.63 13.1 109.63 19.26 108.62 19.26 108.62 8.74 109.63 8.74 109.63 12.1 119.7 12.1 119.7 8.74 120.82 8.74 120.82 19.26 119.7 19.26"/><path class="cls-1" d="M139.48,25.93a3.55,3.55,0,0,1-2.57-1,3.3,3.3,0,0,1-1-2.46V18.88a3.29,3.29,0,0,1,1-2.46,3.37,3.37,0,0,1,2.57-1h7.05v1h-7.05a2,2,0,0,0-1.68.78,2.79,2.79,0,0,0-.67,1.79v1.34h9.4v1h-9.4v.89A2.55,2.55,0,0,0,137.8,24a2,2,0,0,0,1.68.79h7.05v1h-7.05Z" transform="translate(-4.01 -6.67)"/><path class="cls-1" d="M172,25.93V19a2.28,2.28,0,0,0-.67-1.68,2.52,2.52,0,0,0-1.79-.67h-3.91v9.29h-1.12V16.64h-3.69a2.73,2.73,0,0,0-1.79.67,2.28,2.28,0,0,0-.67,1.68v6.94h-1V19a3.29,3.29,0,0,1,1-2.46,3.54,3.54,0,0,1,2.57-1h8.5A3.46,3.46,0,0,1,173,19.1v6.71h-1Z" transform="translate(-4.01 -6.67)"/><path class="cls-1" d="M193.4,25.93h-5.15a3.74,3.74,0,0,1-2.57-1,3.3,3.3,0,0,1-1-2.46V15.52h1.12v6.94a2,2,0,0,0,.79,1.68,2.56,2.56,0,0,0,1.79.67h5.14a2.79,2.79,0,0,0,1.79-.67,2.38,2.38,0,0,0,.78-1.68V15.52h1.12v6.71a3.55,3.55,0,0,1-1,2.58,4.3,4.3,0,0,1-2.8,1.12" transform="translate(-4.01 -6.67)"/><path class="cls-1" d="M220.69,25.93h-1.11V19a2,2,0,0,0-.79-1.68,2.52,2.52,0,0,0-1.79-.67h-5.14a2.73,2.73,0,0,0-1.79.67,2.39,2.39,0,0,0-.79,1.68v6.94h-1.11V19a3.28,3.28,0,0,1,1-2.46,3.56,3.56,0,0,1,2.58-1h5.14a3.46,3.46,0,0,1,3.58,3.58v6.83Z" transform="translate(-4.01 -6.67)"/><rect class="cls-1" x="228.32" y="8.74" width="1.23" height="10.52"/><polygon class="cls-1" points="248 9.97 248 19.26 247 19.26 247 9.97 241.18 9.97 241.18 8.97 253.82 8.97 253.82 9.97 248 9.97"/><polygon class="cls-1" points="271.61 14.45 271.61 19.26 270.49 19.26 270.49 14.22 265.23 9.75 265.23 8.97 266.01 8.97 271.16 13.33 276.31 8.97 277.09 8.97 277.09 9.75 271.61 14.45"/><path class="cls-1" d="M7.91,25.93a3.89,3.89,0,1,0,3.89,3.89,3.91,3.91,0,0,0-3.89-3.89" transform="translate(-4.01 -6.67)"/><path class="cls-1" d="M22.13,14.46a3.9,3.9,0,1,0-3.9-3.9,3.88,3.88,0,0,0,3.9,3.9" transform="translate(-4.01 -6.67)"/><path class="cls-1" d="M39.44,27.49A3.89,3.89,0,0,0,36.64,26a4,4,0,0,1-2.87-1.65h0A4.17,4.17,0,0,1,33,21.1a3.38,3.38,0,0,0,.09-.42v-.89c0-.09,0-.17,0-.25a.14.14,0,0,0,0-.13.65.65,0,0,0-.08-.26s0-.08,0-.12a2.67,2.67,0,0,1-.09-.26s0-.08,0-.12a.59.59,0,0,0-.17-.3,0,0,0,0,0,0,0,4.15,4.15,0,0,0-1.06-1.19,4,4,0,0,0-4.57,0,3.52,3.52,0,0,0-1.06,1.19,0,0,0,0,1,0,0c0,.08-.13.21-.17.3s0,.08,0,.12a.54.54,0,0,0-.09.26s0,.08,0,.12,0,.17-.08.26a.16.16,0,0,1-.05.13c0,.08,0,.16,0,.25v.89a1.51,1.51,0,0,0,.09.42,4,4,0,0,1-.77,3.22h0A4,4,0,0,1,22,25.93a4.18,4.18,0,0,1-2.58-1.61h0a4.2,4.2,0,0,1-.76-3.22,3.91,3.91,0,0,0-6.1-4,3.89,3.89,0,0,0-.84,5.46,3.8,3.8,0,0,0,2.71,1.53,4.19,4.19,0,0,1,3,1.65,4.14,4.14,0,0,1,.76,3,3.86,3.86,0,0,0,3.6,4.91h.34a4.07,4.07,0,0,0,2.24-.8,4,4,0,0,0,1.36-4.11,4.14,4.14,0,0,1,.76-3,4,4,0,0,1,2.58-1.57,4.2,4.2,0,0,1,2.58,1.57,4.26,4.26,0,0,1,.72,3.34,3.91,3.91,0,1,0,7-1.61" transform="translate(-4.01 -6.67)"/></svg>