<svg id="Capa_1" data-name="Capa 1" xmlns="http://www.w3.org/2000/svg" viewBox="0 0 512 512"><defs><style>.cls-1{fill:#fedb41;}.cls-2{fill:#fc3;}.cls-3{fill:#fea832;}.cls-4{fill:#fe9923;}</style></defs><title>AlchemFiatCoin</title><path class="cls-1" d="M257,0C116.3,0,0,114.3,0,255S116.3,512,257,512,512,395.7,512,255,397.7,0,257,0Z"/><path class="cls-2" d="M512,255c0,140.7-114.3,257-255,257V0C397.7,0,512,114.3,512,255Z"/><path class="cls-3" d="M257,60C149.6,60,60,147.6,60,255s89.6,197,197,197,195-89.6,195-197S364.4,60,257,60Z"/><path class="cls-4" d="M452,255c0,107.4-87.6,197-195,197V60C364.4,60,452,147.6,452,255Z"/><path class="cls-1" d="M287,240H272V180h15a14.85,14.85,0,0,1,15,15c0,19.8,30,19.8,30,0a44.94,44.94,0,0,0-45-45H272V135c0-9.9-7.5-15-15-15s-15,5.1-15,15v15H225a44.94,44.94,0,0,0-45,45v30a44.94,44.94,0,0,0,45,45h17v62H225a14.85,14.85,0,0,1-15-15c0-19.8-30-19.8-30,0a44.94,44.94,0,0,0,45,45h17v15c0,9.9,7.5,15,15,15s15-5.1,15-15V362h15a44.94,44.94,0,0,0,45-45V285A44.94,44.94,0,0,0,287,240Zm-45,0H225a14.85,14.85,0,0,1-15-15V195a14.85,14.85,0,0,1,15-15h17Zm60,77a14.85,14.85,0,0,1-15,15H272V270h15a14.85,14.85,0,0,1,15,15Z"/><path class="cls-2" d="M287,240H272V180h15a14.85,14.85,0,0,1,15,15c0,19.8,30,19.8,30,0a44.94,44.94,0,0,0-45-45H272V135c0-9.9-7.5-15-15-15V392c7.5,0,15-5.1,15-15V362h15a44.94,44.94,0,0,0,45-45V285A44.94,44.94,0,0,0,287,240Zm15,77a14.85,14.85,0,0,1-15,15H272V270h15a14.85,14.85,0,0,1,15,15Z"/></svg>