<?xml version="1.0" encoding="utf-8"?>
<!-- Generator: Adobe Illustrator 21.1.0, SVG Export Plug-In . SVG Version: 6.00 Build 0)  -->
<svg version="1.1" id="Layer_1" xmlns="http://www.w3.org/2000/svg" xmlns:xlink="http://www.w3.org/1999/xlink" x="0px" y="0px"
	 viewBox="0 0 87.4 71.3" style="enable-background:new 0 0 87.4 71.3;" xml:space="preserve">
<style type="text/css">
	.st0{fill:#FFFFFF;}
</style>
<g>
	<path class="st0" d="M-51,101.3h-1v-5.5h-6.9c-0.7,0-1.2,0.2-1.6,0.7c-0.4,0.5-0.6,1-0.6,1.7c0,0.6,0.2,1.1,0.7,1.6
		c0.4,0.4,1,0.7,1.6,0.7h4.5v0.9h-4.5c-1,0-1.8-0.3-2.3-1c-0.6-0.6-0.8-1.4-0.8-2.4c0-0.9,0.3-1.6,0.9-2.2c0.6-0.6,1.4-0.9,2.3-0.9
		h6.9c-0.1-0.7-0.4-1.2-0.8-1.5c-0.4-0.3-0.8-0.5-1.4-0.5h-6.2v-0.9h6.2c0.9,0,1.6,0.3,2.2,0.9c0.6,0.6,0.9,1.3,0.9,2.2V101.3z"/>
	<path class="st0" d="M-38.2,101.3c-0.9,0-1.6-0.3-2.2-0.9c-0.6-0.6-0.9-1.3-0.9-2.2v-6.2h1v6.2c0,0.6,0.2,1.2,0.6,1.6
		c0.4,0.5,0.9,0.7,1.5,0.7h6.3v0.9H-38.2z"/>
	<path class="st0" d="M-19.6,101.3c-0.9,0-1.7-0.3-2.2-0.9c-0.6-0.6-0.9-1.3-0.9-2.2V95c0-0.9,0.3-1.6,0.9-2.2
		c0.6-0.6,1.3-0.8,2.2-0.8h7v0.9h-6.9c-0.6,0-1.1,0.2-1.5,0.7c-0.4,0.5-0.6,1-0.6,1.6v2.9c0,0.6,0.2,1.2,0.6,1.6
		c0.4,0.5,0.9,0.7,1.5,0.7h6.9v0.9H-19.6z"/>
	<polygon class="st0" points="7.1,101.3 7.1,95.8 -1.9,95.8 -1.9,101.3 -2.8,101.3 -2.8,91.9 -1.9,91.9 -1.9,94.9 7.1,94.9 
		7.1,91.9 8.1,91.9 8.1,101.3 	"/>
	<path class="st0" d="M21.2,101.3c-0.9,0-1.7-0.3-2.3-0.9c-0.6-0.6-0.9-1.3-0.9-2.2V95c0-0.9,0.3-1.6,0.9-2.2
		c0.6-0.6,1.3-0.9,2.3-0.9h6.3v0.9h-6.3c-0.6,0-1.1,0.2-1.5,0.7c-0.4,0.5-0.6,1-0.6,1.6v1.2h8.4v0.9h-8.4v0.8c0,0.6,0.2,1.2,0.6,1.6
		c0.4,0.5,0.9,0.7,1.5,0.7h6.3v0.9H21.2z"/>
	<path class="st0" d="M50.3,101.3v-6.2c0-0.6-0.2-1.1-0.6-1.5c-0.4-0.4-1-0.6-1.6-0.6h-3.5v8.3h-1V93h-3.3c-0.6,0-1.1,0.2-1.6,0.6
		c-0.4,0.4-0.6,0.9-0.6,1.5v6.2h-0.9v-6.2c0-0.9,0.3-1.6,0.9-2.2c0.6-0.6,1.4-0.9,2.3-0.9H48c0.9,0,1.7,0.3,2.3,0.9
		c0.6,0.6,0.9,1.4,0.9,2.3v6H50.3z"/>
	<path class="st0" d="M69.4,101.3h-4.6c-0.9,0-1.6-0.3-2.3-0.9c-0.6-0.6-0.9-1.3-0.9-2.2v-6.2h1v6.2c0,0.6,0.2,1.1,0.7,1.5
		c0.4,0.4,1,0.6,1.6,0.6h4.6c0.6,0,1.1-0.2,1.6-0.6c0.4-0.4,0.7-0.9,0.7-1.5v-6.2h1v6c0,0.9-0.3,1.7-0.9,2.3
		C71,101,70.3,101.3,69.4,101.3"/>
	<path class="st0" d="M93.8,101.3h-1v-6.2c0-0.6-0.2-1.1-0.7-1.5c-0.4-0.4-1-0.6-1.6-0.6h-4.6c-0.6,0-1.1,0.2-1.6,0.6
		c-0.4,0.4-0.7,0.9-0.7,1.5v6.2h-1v-6.2c0-0.9,0.3-1.6,0.9-2.2c0.6-0.6,1.4-0.9,2.3-0.9h4.6c0.9,0,1.7,0.3,2.3,0.9
		c0.6,0.6,0.9,1.4,0.9,2.3V101.3z"/>
	<rect x="104.2" y="91.9" class="st0" width="1.1" height="9.4"/>
	<polygon class="st0" points="121.8,93 121.8,101.3 120.9,101.3 120.9,93 115.7,93 115.7,92.1 127,92.1 127,93 	"/>
	<polygon class="st0" points="142.9,97 142.9,101.3 141.9,101.3 141.9,96.8 137.2,92.8 137.2,92.1 137.9,92.1 142.5,96 147.1,92.1 
		147.8,92.1 147.8,92.8 	"/>
	<path class="st0" d="M10.2,49C5.1,49,1,53.2,1,58.2s4.1,9.2,9.2,9.2s9.2-4.1,9.2-9.2S15.2,49,10.2,49"/>
	<path class="st0" d="M43.8,21.9c5.1,0,9.2-4.1,9.2-9.2s-4.1-9.2-9.2-9.2c-5.1,0-9.2,4.1-9.2,9.2S38.7,21.9,43.8,21.9"/>
	<path class="st0" d="M84.7,52.7c-1.7-2.2-4.1-3.4-6.6-3.6c-2.7-0.2-5.2-1.7-6.8-3.9l0,0c-1.6-2.2-2.3-4.9-1.8-7.6
		c0.1-0.3,0.1-0.6,0.2-1c0,0,0,0,0-0.1c0-0.3,0-0.6,0-0.8c0-0.1,0-0.1,0-0.2c0-0.2,0-0.5,0-0.7c0-0.1,0-0.2,0-0.3
		c0-0.2-0.1-0.4-0.1-0.6c0-0.1,0-0.2-0.1-0.3c0-0.2-0.1-0.4-0.2-0.6c0-0.1-0.1-0.2-0.1-0.3c-0.1-0.2-0.1-0.4-0.2-0.6
		c0-0.1-0.1-0.2-0.1-0.3c-0.1-0.3-0.2-0.5-0.4-0.7c0,0,0-0.1-0.1-0.1c-0.6-1.1-1.5-2-2.5-2.8c-1.6-1.2-3.5-1.7-5.4-1.7
		c-1.9,0-3.8,0.5-5.4,1.7c-1.1,0.8-1.9,1.7-2.5,2.8c0,0,0,0.1-0.1,0.1c-0.1,0.2-0.3,0.5-0.4,0.7c0,0.1-0.1,0.2-0.1,0.3
		c-0.1,0.2-0.2,0.4-0.2,0.6c0,0.1-0.1,0.2-0.1,0.3c-0.1,0.2-0.1,0.4-0.2,0.6c0,0.1,0,0.2-0.1,0.3c0,0.2-0.1,0.4-0.1,0.6
		c0,0.1,0,0.2,0,0.3c0,0.2,0,0.5,0,0.7c0,0.1,0,0.1,0,0.2c0,0.3,0,0.6,0,0.8c0,0,0,0,0,0.1c0,0.3,0.1,0.6,0.2,1
		c0.6,2.6-0.2,5.4-1.8,7.6l0,0c-1.5,2-3.6,3.4-6.1,3.8c-2.4-0.4-4.6-1.8-6.1-3.8l0,0c-1.6-2.2-2.3-5-1.8-7.6c0.5-2.5,0-5.2-1.6-7.4
		c-2.9-4-8.8-4.9-12.8-2c-4.2,3-5,8.8-2,12.9c1.6,2.1,3.9,3.4,6.4,3.6c2.8,0.3,5.4,1.6,7.1,3.9c1.5,2,2.1,4.6,1.8,7.1
		c-0.9,3.5,0.2,7.4,3.2,9.7c1.6,1.2,3.4,1.8,5.3,1.9c0.1,0,0.3,0,0.4,0c0.1,0,0.3,0,0.4,0c1.8-0.1,3.7-0.7,5.3-1.9
		c3-2.3,4.1-6.2,3.2-9.7c-0.3-2.5,0.3-5.1,1.8-7.1c1.5-2,3.7-3.3,6.1-3.7c2.4,0.5,4.6,1.7,6.1,3.7c1.7,2.3,2.2,5.1,1.7,7.9
		c-0.5,2.4,0.1,5,1.7,7.2c3.1,4.1,8.9,4.9,12.9,1.8C86.9,62.5,87.7,56.6,84.7,52.7"/>
</g>
</svg>
