<svg height="512pt" viewBox="0 0 512 512" width="512pt" xmlns="http://www.w3.org/2000/svg"><path d="m512 256c0 68.378906-26.628906 132.671875-74.980469 181.019531-48.347656 48.351563-112.640625 74.980469-181.019531 74.980469s-132.671875-26.628906-181.019531-74.980469c-48.351563-48.347656-74.980469-112.640625-74.980469-181.019531s26.628906-132.671875 74.980469-181.019531c48.347656-48.351563 112.640625-74.980469 181.019531-74.980469s132.671875 26.628906 181.019531 74.980469c48.351563 48.347656 74.980469 112.640625 74.980469 181.019531zm0 0" fill="#00a6ff"/><path d="m512 256c0 68.378906-26.628906 132.671875-74.980469 181.019531-48.347656 48.351563-112.640625 74.980469-181.019531 74.980469v-512c68.378906 0 132.671875 26.628906 181.019531 74.980469 48.351563 48.347656 74.980469 112.640625 74.980469 181.019531zm0 0" fill="#006ef5"/><path d="m340.738281 297.308594 20 116.632812-104.738281-55.0625-104.738281 55.0625 20-116.632812-84.730469-82.597656 117.097656-17.011719 52.371094-106.121094 52.371094 106.121094 117.097656 17.011719zm0 0" fill="#ffdf48"/><path d="m340.738281 297.308594 20 116.632812-104.738281-55.0625v-267.300781l52.371094 106.121094 117.097656 17.011719zm0 0" fill="#ffd400"/></svg>