<svg id="Capa_1" data-name="Capa 1" xmlns="http://www.w3.org/2000/svg" viewBox="0 0 512 512"><defs><style>.cls-1{fill:#ff9136;}.cls-2{fill:#e26917;}.cls-3{fill:#fff9eb;}.cls-4{fill:#d3cdbf;}.cls-5{fill:#515151;}.cls-6{fill:#fff;}</style></defs><title>AlchemToken</title><ellipse class="cls-1" cx="256" cy="255.99" rx="248.5" ry="248.49"/><path class="cls-2" d="M409.27,60.38a30,30,0,0,0,1.23,41.11,218.5,218.5,0,0,1-309,309,30,30,0,0,0-41.11-1.23A248.06,248.06,0,0,0,256,504.49c137.24,0,248.5-111.26,248.5-248.49A248.05,248.05,0,0,0,409.27,60.38Z"/><path class="cls-3" d="M160.88,26.37,256,256,351.12,26.37a249.16,249.16,0,0,0-190.23,0Z"/><path class="cls-3" d="M7.5,256a247.72,247.72,0,0,0,18.87,95.11L256,256,26.37,160.88A247.73,247.73,0,0,0,7.5,256Z"/><path class="cls-3" d="M256,256l229.63,95.11a249.14,249.14,0,0,0,0-190.23Z"/><path class="cls-3" d="M256,504.49a247.73,247.73,0,0,0,95.12-18.87L256,256,160.88,485.62A247.71,247.71,0,0,0,256,504.49Z"/><path class="cls-4" d="M485.62,160.88,458,172.33a220,220,0,0,1,0,167.32l27.65,11.45C512,285.17,509.51,218.39,485.62,160.88Z"/><path class="cls-4" d="M351.12,485.62,339.66,458a220,220,0,0,1-167.32,0l-11.45,27.64A249,249,0,0,0,351.12,485.62Z"/><path class="cls-1" d="M256,437C156.2,437,75,355.8,75,256S156.2,75,256,75s181,81.19,181,181S355.8,437,256,437Z"/><path class="cls-2" d="M361,108.68a30,30,0,0,0,1.72,40.54c58.88,58.87,58.88,154.67,0,213.54a151.21,151.21,0,0,1-213.55,0A30,30,0,0,0,108.69,361,180.9,180.9,0,0,0,256,437c99.8,0,181-81.19,181-181A180.89,180.89,0,0,0,361,108.68Z"/><path class="cls-5" d="M437,75A256,256,0,0,0,75,437,256,256,0,0,0,437,75Zm44.41,266.28-48.54-20.11a188.49,188.49,0,0,0,0-130.3l48.54-20.11a241.16,241.16,0,0,1,0,170.51Zm-5.76-184.36-55.33,22.92a7.5,7.5,0,0,0-4.06,9.79h0a173.4,173.4,0,0,1,.07,132.61l-.07.17-.06.14a175.27,175.27,0,0,1-93.85,93.75,173.38,173.38,0,0,1-132.76,0,175.26,175.26,0,0,1-93.91-93.91,173.39,173.39,0,0,1-.07-132.59l.08-.18.07-.17a175.28,175.28,0,0,1,93.83-93.72,173.38,173.38,0,0,1,132.76,0A175.78,175.78,0,0,1,403.1,164.1a7.5,7.5,0,0,0,12.71-8A189.68,189.68,0,0,0,335,84.88l20.11-48.54A242.5,242.5,0,0,1,475.67,156.89ZM341.26,30.57,321.15,79.12a188.52,188.52,0,0,0-130.3,0L170.74,30.57a241.16,241.16,0,0,1,170.51,0ZM156.89,36.33,177,84.88A189.58,189.58,0,0,0,84.88,177L36.33,156.89A242.51,242.51,0,0,1,156.89,36.33ZM30.57,170.74l48.54,20.11a188.52,188.52,0,0,0,0,130.3L30.57,341.26a241.17,241.17,0,0,1,0-170.51Zm5.76,184.36L84.88,335A189.67,189.67,0,0,0,177,427.12l-20.11,48.54A242.5,242.5,0,0,1,36.33,355.11ZM170.74,481.43l20.11-48.54A186.87,186.87,0,0,0,256,444.5h0a186.87,186.87,0,0,0,65.13-11.61l20.11,48.54a241.17,241.17,0,0,1-170.51,0Zm184.37-5.76L335,427.12A189.67,189.67,0,0,0,427.12,335l48.55,20.11A242.51,242.51,0,0,1,355.11,475.67Z"/><path class="cls-6" d="M159.06,272.45a25.31,25.31,0,1,0,25.31,25.31,25.31,25.31,0,0,0-25.31-25.31"/><path class="cls-6" d="M251.71,197.62a25.31,25.31,0,1,0-25.31-25.31,25.31,25.31,0,0,0,25.31,25.31"/><path class="cls-6" d="M364.69,282.48a25.22,25.22,0,0,0-18.29-10,26,26,0,0,1-18.74-10.63h0a26.07,26.07,0,0,1-4.9-20.89,26.08,26.08,0,0,0,.43-2.65s0-.1,0-.15q.12-1.17.13-2.33c0-.16,0-.32,0-.49q0-1-.09-2c0-.25-.05-.49-.08-.74q-.1-.87-.26-1.74c-.06-.29-.11-.58-.18-.88-.12-.55-.27-1.08-.43-1.62-.08-.29-.17-.58-.26-.88-.19-.57-.41-1.13-.64-1.69-.09-.24-.18-.47-.29-.71-.31-.69-.66-1.37-1-2l-.15-.28a25.23,25.23,0,0,0-7-7.77,26,26,0,0,0-29.71,0,25.23,25.23,0,0,0-7,7.77l-.15.28c-.37.66-.72,1.34-1,2-.11.23-.19.47-.29.71-.23.56-.45,1.12-.64,1.69-.1.29-.18.58-.27.88-.16.54-.3,1.08-.42,1.62-.07.29-.12.58-.18.88-.11.58-.19,1.16-.26,1.74,0,.25-.06.49-.08.74-.06.66-.08,1.33-.09,2,0,.16,0,.32,0,.49q0,1.17.14,2.33l0,.15a24.62,24.62,0,0,0,.43,2.65,26.07,26.07,0,0,1-4.9,20.89h0a26.28,26.28,0,0,1-16.72,10.36A26.3,26.3,0,0,1,235,261.9h0a26.07,26.07,0,0,1-4.88-21,25.21,25.21,0,0,0-4.35-20.36,25.66,25.66,0,0,0-35.23-5.48,25.3,25.3,0,0,0,12.23,45.66,27.59,27.59,0,0,1,19.47,10.7,27.29,27.29,0,0,1,5,19.6,25.69,25.69,0,0,0,8.87,26.79A25.18,25.18,0,0,0,250.67,323c.35,0,.7,0,1,0s.7,0,1,0a25.19,25.19,0,0,0,14.53-5.22A25.69,25.69,0,0,0,276.17,291,26.58,26.58,0,0,1,298,261.12a27.25,27.25,0,0,1,16.85,10.3,27.59,27.59,0,0,1,4.73,21.71,25.3,25.3,0,0,0,40.32,24.68,25.66,25.66,0,0,0,4.74-35.33"/></svg>