<svg height="498pt" viewBox="0 -5 498.55988 498" width="498pt" xmlns="http://www.w3.org/2000/svg"><path d="m441.238281 240.28125v-144l-192-88-192 88v144c0 31.984375 6.84375 63.601562 20.082031 92.71875 22.324219 49.238281 61.679688 88.753906 110.824219 111.28125l61.09375 28 61.097657-28c49.144531-22.527344 88.5-62.042969 110.824218-111.28125 13.234375-29.117188 20.082032-60.734375 20.078125-92.71875zm-24 0c-.125 78.320312-45.757812 149.425781-116.902343 182.175781l-51.097657 23.421875-51.09375-23.421875c-71.144531-32.75-116.777343-103.855469-116.90625-182.175781v-128.601562l168-77 168 77zm0 0" fill="#78b9eb"/><path d="m129.238281 236.921875c0 66.273437 53.726563 120 120 120 66.277344 0 120-53.726563 120-120s-53.722656-120-120-120c-66.273437 0-120 53.726563-120 120zm193.867188-16-45.648438 33.167969 17.429688 53.664062-45.648438-33.167968-45.644531 33.167968 17.429688-53.664062-45.648438-33.167969h56.425781l17.4375-53.664063 17.441407 53.664063zm0 0" fill="#78b9eb"/><g fill="#1a6fb0"><path d="m425.238281 111.679688c0-3.125-1.820312-5.96875-4.664062-7.269532l-168-77c-2.117188-.972656-4.550781-.972656-6.671875 0l-168 77c-2.839844 1.300782-4.664063 4.144532-4.664063 7.269532v128.601562c.148438 81.449219 47.609375 155.390625 121.601563 189.4375l51.097656 23.417969c2.117188.972656 4.550781.972656 6.671875 0l51.03125-23.417969c73.988281-34.046875 121.453125-107.988281 121.597656-189.4375zm-16 128.601562c-.121093 75.191406-43.925781 143.460938-112.230469 174.902344l-47.769531 21.898437-47.765625-21.898437c-68.304687-31.441406-112.109375-99.710938-112.234375-174.902344v-123.464844l160-73.335937 160 73.335937zm0 0"/><path d="m496.175781 396.703125-65.648437-65.644531c12.300781-28.6875 18.664062-59.566406 18.710937-90.777344v-144c0-3.128906-1.820312-5.96875-4.664062-7.273438l-192-88c-2.117188-.9726558-4.550781-.9726558-6.671875 0l-192 88c-2.839844 1.304688-4.664063 4.144532-4.664063 7.273438v144c.050781 31.210938 6.414063 62.085938 18.707031 90.777344l-65.601562 65.644531c-2.015625 2.019531-2.808594 4.957031-2.074219 7.710937.730469 2.757813 2.875 4.917969 5.625 5.667969l57.832031 15.75 15.753907 57.832031c.757812 2.742188 2.914062 4.875 5.664062 5.601563.667969.179687 1.359375.269531 2.054688.269531 2.121093 0 4.15625-.84375 5.65625-2.34375l56.257812-56.253906c11.273438 7.914062 23.234375 14.804688 35.734375 20.589844l61.097656 28c2.117188.972656 4.554688.972656 6.671876 0l61.09375-28c12.5-5.785156 24.460937-12.675782 35.738281-20.589844l56.253906 56.253906c1.5 1.5 3.535156 2.34375 5.65625 2.34375.695313 0 1.386719-.089844 2.054687-.269531 2.75-.726563 4.90625-2.859375 5.664063-5.601563l15.753906-57.832031 57.832031-15.75c2.75-.75 4.894532-2.910156 5.628907-5.667969.730469-2.753906-.058594-5.691406-2.078125-7.710937zm-404.917969 69.449219-13.335937-48.9375c-.75-2.722656-2.878906-4.851563-5.601563-5.597656l-48.953124-13.351563 51.808593-51.808594c14.890625 28.910157 35.65625 54.390625 60.96875 74.808594zm215.75-29.152344-57.769531 26.480469-57.765625-26.480469c-76.824218-35.367188-126.09375-112.148438-126.234375-196.71875v-138.863281l184-84.335938 184 84.335938v138.863281c-.136719 84.570312-49.40625 161.355469-126.230469 196.71875zm119.199219-25.398438c-2.722656.746094-4.851562 2.875-5.597656 5.597657l-13.335937 48.9375-44.890626-44.886719c25.3125-20.417969 46.078126-45.898438 60.96875-74.808594l51.808594 51.808594zm0 0"/><path d="m121.238281 236.921875c0 70.691406 57.308594 128 128 128 70.695313 0 128-57.308594 128-128 0-70.695313-57.304687-128-128-128-70.65625.082031-127.914062 57.339844-128 128zm240 0c0 61.855469-50.140625 112-112 112-61.855469 0-112-50.144531-112-112s50.144531-112 112-112c61.832031.066406 111.933594 50.171875 112 112zm0 0"/><path d="m241.632812 164.785156-15.640624 48.136719h-50.617188c-3.464844 0-6.539062 2.230469-7.609375 5.527344-1.070313 3.292969.101563 6.90625 2.90625 8.945312l40.96875 29.75-15.640625 48.136719c-1.070312 3.296875.101562 6.90625 2.90625 8.945312 2.804688 2.035157 6.601562 2.035157 9.40625 0l40.925781-29.753906 40.953125 29.753906c2.804688 2.035157 6.601563 2.035157 9.40625 0 2.804688-2.039062 3.976563-5.648437 2.90625-8.945312l-15.664062-48.136719 40.945312-29.75c2.800782-2.035156 3.972656-5.640625 2.910156-8.933593-1.066406-3.296876-4.128906-5.53125-7.589843-5.539063h-50.617188l-15.640625-48.136719c-1.078125-3.285156-4.144531-5.503906-7.601562-5.503906-3.453125 0-6.519532 2.21875-7.597656 5.503906zm17.4375 58.609375c1.074219 3.292969 4.144532 5.527344 7.609376 5.527344h31.800781l-25.730469 18.695313c-2.800781 2.039062-3.972656 5.648437-2.902344 8.945312l9.792969 30.246094-25.695313-18.6875c-2.804687-2.039063-6.605468-2.039063-9.410156 0l-25.695312 18.6875 9.824218-30.246094c1.070313-3.296875-.101562-6.90625-2.902343-8.945312l-25.761719-18.695313h31.800781c3.464844 0 6.535157-2.234375 7.605469-5.527344l9.832031-30.25zm0 0"/></g></svg>