<?xml version="1.0" encoding="iso-8859-1"?>
<!-- Generator: Adobe Illustrator 19.0.0, SVG Export Plug-In . SVG Version: 6.00 Build 0)  -->
<svg version="1.1" id="Capa_1" xmlns="http://www.w3.org/2000/svg" xmlns:xlink="http://www.w3.org/1999/xlink" x="0px" y="0px"
	 viewBox="0 0 512 512" style="enable-background:new 0 0 512 512;" xml:space="preserve">
<circle style="fill:#FFAF10;" cx="256" cy="267" r="245"/>
<path style="fill:#2E4C89;" d="M80.25,305c2.559,0,5.063,0.237,7.5,0.668V224.11c0-1.355,1.145-2.5,2.5-2.5h32.237v-15H90.25
	c-9.649,0-17.5,7.851-17.5,17.5v81.558C75.188,305.237,77.691,305,80.25,305z"/>
<path style="fill:#445EA0;" d="M138.513,185H131c-5.5,0-10,4.5-10,10v37c0,5.5,4.5,10,10,10h7.513V185z"/>
<path style="fill:#2E4C89;" d="M411.5,67.913V259h15V67.913c0-9.649-7.851-17.5-17.5-17.5h-17.918v15H409
	C410.355,65.413,411.5,66.558,411.5,67.913z"/>
<path style="fill:#2BB381;" d="M374.744,401v-20.663H257.228c-2.345,0-4.253-1.907-4.253-4.252V263.253
	c0-2.345,1.908-4.253,4.253-4.253h117.515V83H137.256v318H374.744z"/>
<path style="fill:#159E97;" d="M358.744,401v-20.663H257.228c-2.345,0-4.253-1.907-4.253-4.252V263.253
	c0-2.345,1.908-4.253,4.253-4.253h101.515V83H153.256v318H358.744z"/>
<path style="fill:#94C2ED;" d="M355.976,391.669c4.15,0,8.133,0.972,11.727,2.685v-14.017H344.25v14.017
	C347.843,392.641,351.825,391.669,355.976,391.669z"/>
<g>
	<path style="fill:#FFFFFF;" d="M199.5,138.746V83h-15v74.474C187.607,149.88,192.859,143.388,199.5,138.746z"/>
	<path style="fill:#FFFFFF;" d="M223.681,131.128c0.274,0,0.546,0.01,0.819,0.015V83h-15v50.58
		C213.936,131.997,218.708,131.128,223.681,131.128z"/>
	<path style="fill:#FFFFFF;" d="M234.5,83v49.523c0.596,0.157,1.19,0.324,1.778,0.508c0.499,0.156,1.014,0.234,1.529,0.234
		c1.781,0,3.461-0.947,4.385-2.471c1.937-3.196,4.434-5.957,7.308-8.21V83H234.5z"/>
</g>
<path style="fill:#2E4C89;" d="M366.542,34.641V5c0-2.75-2.25-5-5-5H150.458c-2.75,0-5,2.25-5,5v29.641H366.542z"/>
<path style="fill:#293D7C;" d="M171,0h-20.542c-2.75,0-5,2.25-5,5v29.641H166V5C166,2.25,168.25,0,171,0z"/>
<path style="fill:#60D882;" d="M300.727,34.641l-2.964-10.185c-1.008-3.464-4.783-6.298-8.391-6.298h-66.744
	c-3.607,0-7.384,2.834-8.392,6.298l-2.964,10.185H300.727z"/>
<path style="fill:#2BB381;" d="M243.355,18.157h-20.728c-3.607,0-7.384,2.834-8.392,6.298l-2.964,10.185H232l2.964-10.185
	C235.972,20.991,239.748,18.157,243.355,18.157z"/>
<g>
	<path style="fill:#445EA0;" d="M335.791,399.082H124.459c-0.511,0-0.994,0.1-1.459,0.244V428h169.976v-6.331c0-4.963,4.038-9,9-9
		h26.266C329.463,407.435,332.128,402.766,335.791,399.082z"/>
	<path style="fill:#445EA0;" d="M392.541,412.669v-8.587c0-2.75-2.25-5-5-5H376.16c3.663,3.684,6.328,8.353,7.55,13.587H392.541z"/>
	<path style="fill:#445EA0;" d="M392.541,79.359c0,2.75-2.25,5-5,5H124.459c-2.75,0-5-2.25-5-5V38c0-2.75,2.25-5,5-5h263.082
		c2.75,0,5,2.25,5,5L392.541,79.359L392.541,79.359z"/>
</g>
<g>
	<path style="fill:#2E4C89;" d="M133.918,79.359V38c0-2.75,2.25-5,5-5h-14.459c-2.75,0-5,2.25-5,5v41.359c0,2.75,2.25,5,5,5h14.459
		C136.168,84.359,133.918,82.109,133.918,79.359z"/>
	<path style="fill:#2E4C89;" d="M292.976,429v-3H123v46.771C161.302,497.584,206.964,512,256,512
		c12.571,0,24.915-0.961,36.976-2.788V429z"/>
</g>
<path style="fill:#FF8DB9;" d="M293.132,248.402c-0.728,0-1.428-0.291-1.944-0.806l-24.116-24.116
	c-0.78-0.778-1.816-1.209-2.918-1.209H185.86c-12.133,0-22.005-9.871-22.005-22.005c0-9.143,5.474-17.187,13.944-20.49
	c1.663-0.647,2.716-2.282,2.62-4.064c-0.04-0.755-0.06-1.511-0.06-2.263c0-23.887,19.434-43.321,43.321-43.321
	c4.419,0,8.759,0.655,12.896,1.948c0.402,0.125,0.815,0.188,1.23,0.188c1.434,0,2.786-0.763,3.529-1.989
	c5.709-9.424,16.071-15.275,27.042-15.275c13.302,0,24.907,8.017,29.564,20.422c0.485,1.291,1.575,2.251,2.918,2.569
	c16.504,3.885,28.031,18.465,28.031,35.458c0,0.477-0.009,0.955-0.029,1.433c-0.078,1.934,1.172,3.638,3.042,4.146
	c9.563,2.597,16.242,11.331,16.242,21.238c0,12.134-9.872,22.005-22.005,22.005h-16.43c-1.295,0-2.532,0.62-3.307,1.659
	c-0.775,1.04-1.017,2.401-0.648,3.644l5.142,17.294c0.248,0.831,0.087,1.731-0.432,2.43c-0.52,0.695-1.336,1.104-2.205,1.104
	L293.132,248.402L293.132,248.402z"/>
<g>
	<path style="fill:#FF71AB;" d="M206.028,188.351c0.136,0,0.272-0.004,0.41-0.011c4.136-0.223,7.308-3.757,7.085-7.893
		c-0.016-0.291-0.023-0.581-0.023-0.871c0-9.305,7.57-16.875,16.876-16.875c1.729,0,3.416,0.254,5.016,0.754
		c3.952,1.234,8.16-0.965,9.398-4.917c1.237-3.953-0.964-8.16-4.917-9.398c-3.051-0.955-6.246-1.439-9.496-1.439
		c-17.577,0-31.876,14.299-31.876,31.875c0,0.558,0.015,1.117,0.045,1.678C198.761,185.253,202.07,188.351,206.028,188.351z"/>
	<path style="fill:#FF71AB;" d="M284.634,154.061c-0.555,0-1.112,0.016-1.669,0.045c-4.136,0.218-7.313,3.748-7.095,7.885
		s3.748,7.331,7.885,7.094c9.65-0.51,17.754,7.255,17.754,16.852c0,4.143,3.358,7.5,7.5,7.5s7.5-3.357,7.5-7.5
		C316.509,168.36,302.21,154.061,284.634,154.061z"/>
	<path style="fill:#FF71AB;" d="M286.961,144.727c2.929-2.93,2.929-7.678,0-10.607c-5.054-5.054-11.781-7.837-18.942-7.837
		c-7.161,0-13.888,2.783-18.931,7.826c-0.335,0.334-0.661,0.678-0.979,1.032c-2.769,3.081-2.516,7.822,0.564,10.592
		c1.433,1.288,3.225,1.922,5.011,1.922c2.054,0,4.1-0.839,5.581-2.486c0.133-0.147,0.269-0.292,0.419-0.442
		c2.22-2.22,5.18-3.443,8.334-3.443s6.115,1.224,8.335,3.444C279.283,147.655,284.032,147.655,286.961,144.727z"/>
	<path style="fill:#FF71AB;" d="M259,172.701h-25c-4.142,0-7.5,3.357-7.5,7.5s3.358,7.5,7.5,7.5h25c4.142,0,7.5-3.357,7.5-7.5
		C266.5,176.059,263.142,172.701,259,172.701z"/>
	<path style="fill:#FF71AB;" d="M291,193.701h-14c-4.142,0-7.5,3.357-7.5,7.5s3.358,7.5,7.5,7.5h14c4.142,0,7.5-3.357,7.5-7.5
		C298.5,197.059,295.142,193.701,291,193.701z"/>
	<path style="fill:#FF71AB;" d="M219.053,193.701h-27.105c-4.142,0-7.5,3.357-7.5,7.5s3.358,7.5,7.5,7.5h27.105
		c4.142,0,7.5-3.357,7.5-7.5C226.553,197.059,223.195,193.701,219.053,193.701z"/>
</g>
<g>
	<circle style="fill:#60D882;" cx="326.45" cy="103.45" r="11.449"/>
	<circle style="fill:#60D882;" cx="343.53" cy="135.61" r="8.603"/>
	<circle style="fill:#60D882;" cx="326.81" cy="162.25" r="7.926"/>
	<circle style="fill:#60D882;" cx="217.35" cy="263.04" r="12.07"/>
	<circle style="fill:#60D882;" cx="199.35" cy="296.93" r="9.07"/>
	<circle style="fill:#60D882;" cx="184.35" cy="242.94" r="8.353"/>
</g>
<path style="fill:#6A8AC4;" d="M355.976,391.669c4.15,0,8.133,0.972,11.727,2.685v-14.017H344.25v14.017
	C347.843,392.641,351.825,391.669,355.976,391.669z"/>
<g>
	<path style="fill:#94C2ED;" d="M355.976,390.669c-13.501,0-24.791,9.396-27.734,22h55.469
		C380.767,400.065,369.477,390.669,355.976,390.669z"/>
	<path style="fill:#94C2ED;" d="M361.121,391.141c-1.669-0.305-3.387-0.472-5.145-0.472c-13.501,0-24.791,9.396-27.734,22h10.29
		C341.091,401.705,349.969,393.178,361.121,391.141z"/>
	<path style="fill:#94C2ED;" d="M409.976,411.669h-108c-5.5,0-10,4.5-10,10v87.695c48.843-7.188,92.994-28.784,128-60.339v-27.356
		C419.976,416.169,415.476,411.669,409.976,411.669z"/>
</g>
<path style="fill:#6A8AC4;" d="M312,421.669c0-5.5,4.5-10,10-10h-20.024c-5.5,0-10,4.5-10,10v87.695
	c6.77-0.996,13.446-2.279,20.024-3.817V421.669z"/>
<g>
	<path style="fill:#94C2ED;" d="M459.976,376.085c0,2.889-2.363,5.252-5.252,5.252H257.228c-2.89,0-5.253-2.363-5.253-5.252V263.253
		c0-2.889,2.363-5.253,5.253-5.253h197.495c2.889,0,5.252,2.364,5.252,5.253v112.832H459.976z"/>
	<path style="fill:#94C2ED;" d="M267.582,368.731c-1.65,0-3-1.35-3-3v-92.125c0-1.65,1.35-3,3-3H444.37c1.65,0,3,1.35,3,3v92.125
		c0,1.65-1.35,3-3,3H267.582z"/>
</g>
<path style="fill:#6A8AC4;" d="M275,365.731v-92.125c0-1.65,1.35-3,3-3h-10.418c-1.65,0-3,1.35-3,3v92.125c0,1.65,1.35,3,3,3H278
	C276.35,368.731,275,367.382,275,365.731z"/>
<path style="fill:#0F9390;" d="M380.897,432.669c5.5,0,10,4.5,10,10v1.453c0,5.5-4.5,10-10,10h-49.844c-5.5,0-10-4.5-10-10v-1.453
	c0-5.5,4.5-10,10-10H380.897z"/>
<path style="fill:#2E4C89;" d="M380.897,466.669h-49.844c-5.5,0-10,4.5-10,10v1.453c0,5.5,4.5,10,10,10h30.561
	c9.787-4.683,19.208-10.003,28.224-15.896C388.194,468.943,384.803,466.669,380.897,466.669z"/>
<g>
	<path style="fill:#FFFFFF;" d="M304.831,295.169h-16.855c-4.142,0-7.5-3.357-7.5-7.5s3.358-7.5,7.5-7.5h16.855
		c4.142,0,7.5,3.357,7.5,7.5C312.331,291.811,308.973,295.169,304.831,295.169z"/>
	<path style="fill:#FFFFFF;" d="M346.962,295.169H330.11c-4.142,0-7.5-3.357-7.5-7.5s3.358-7.5,7.5-7.5h16.852
		c4.142,0,7.5,3.357,7.5,7.5C354.462,291.811,351.104,295.169,346.962,295.169z"/>
	<path style="fill:#FFFFFF;" d="M422.805,295.169h-50.561c-4.142,0-7.5-3.357-7.5-7.5s3.358-7.5,7.5-7.5h50.561
		c4.142,0,7.5,3.357,7.5,7.5C430.305,291.811,426.947,295.169,422.805,295.169z"/>
	<path style="fill:#FFFFFF;" d="M422.805,316.16h-16.853c-4.142,0-7.5-3.357-7.5-7.5s3.358-7.5,7.5-7.5h16.853
		c4.142,0,7.5,3.357,7.5,7.5S426.947,316.16,422.805,316.16z"/>
	<path style="fill:#FFFFFF;" d="M380.669,316.16h-16.854c-4.142,0-7.5-3.357-7.5-7.5s3.358-7.5,7.5-7.5h16.854
		c4.142,0,7.5,3.357,7.5,7.5S384.811,316.16,380.669,316.16z"/>
	<path style="fill:#FFFFFF;" d="M338.536,316.16h-50.561c-4.142,0-7.5-3.357-7.5-7.5s3.358-7.5,7.5-7.5h50.561
		c4.142,0,7.5,3.357,7.5,7.5S342.678,316.16,338.536,316.16z"/>
	<path style="fill:#FFFFFF;" d="M304.831,337.151h-16.855c-4.142,0-7.5-3.357-7.5-7.5s3.358-7.5,7.5-7.5h16.855
		c4.142,0,7.5,3.357,7.5,7.5S308.973,337.151,304.831,337.151z"/>
	<path style="fill:#FFFFFF;" d="M346.962,337.151H330.11c-4.142,0-7.5-3.357-7.5-7.5s3.358-7.5,7.5-7.5h16.852
		c4.142,0,7.5,3.357,7.5,7.5C354.462,333.794,351.104,337.151,346.962,337.151z"/>
	<path style="fill:#FFFFFF;" d="M422.805,337.151h-50.561c-4.142,0-7.5-3.357-7.5-7.5s3.358-7.5,7.5-7.5h50.561
		c4.142,0,7.5,3.357,7.5,7.5S426.947,337.151,422.805,337.151z"/>
	<path style="fill:#FFFFFF;" d="M304.831,358.142h-16.855c-4.142,0-7.5-3.357-7.5-7.5s3.358-7.5,7.5-7.5h16.855
		c4.142,0,7.5,3.357,7.5,7.5S308.973,358.142,304.831,358.142z"/>
	<path style="fill:#FFFFFF;" d="M378.563,358.142H330.11c-4.142,0-7.5-3.357-7.5-7.5s3.358-7.5,7.5-7.5h48.452
		c4.142,0,7.5,3.357,7.5,7.5S382.705,358.142,378.563,358.142z"/>
	<path style="fill:#FFFFFF;" d="M422.805,358.142h-17.758c-4.142,0-7.5-3.357-7.5-7.5s3.358-7.5,7.5-7.5h17.758
		c4.142,0,7.5,3.357,7.5,7.5S426.947,358.142,422.805,358.142z"/>
</g>
<path style="fill:#1A2B63;" d="M80.25,304c-24.301,0-44,19.699-44,44v27.412c19.872,40.203,50.439,74.175,88,98.179V348
	C124.25,323.699,104.551,304,80.25,304z"/>
<path style="fill:#445EA0;" d="M97.25,339h-34c-5.5,0-10,4.5-10,10v55.57c14.829,21.813,33.09,41.097,54,57.099V349
	C107.25,343.5,102.75,339,97.25,339z"/>
<path style="fill:#FF9518;" d="M63.25,418.253c2.61,3.321,5.31,6.567,8.085,9.747H97.25v-10h-34V418.253z"/>
<rect x="63.25" y="401" style="fill:#FFCA51;" width="34" height="10"/>
<path style="fill:#60D882;" d="M97.25,360v-8c0-1.65-1.35-3-3-3h-28c-1.65,0-3,1.35-3,3v8H97.25z"/>
<path style="fill:#FF9518;" d="M97.25,453.596V435H77.688C83.862,441.55,90.394,447.757,97.25,453.596z"/>
<rect x="63.25" y="367" style="fill:#60D882;" width="34" height="10"/>
<g>
	<rect x="63.25" y="384" style="fill:#FFCA51;" width="34" height="10"/>
	<circle style="fill:#FFCA51;" cx="206.63" cy="58" r="9.126"/>
</g>
<circle style="fill:#FFFFFF;" cx="179.41" cy="58" r="9.126"/>
<circle style="fill:#EF8318;" cx="152.13" cy="58" r="9.126"/>
<g>
</g>
<g>
</g>
<g>
</g>
<g>
</g>
<g>
</g>
<g>
</g>
<g>
</g>
<g>
</g>
<g>
</g>
<g>
</g>
<g>
</g>
<g>
</g>
<g>
</g>
<g>
</g>
<g>
</g>
</svg>
