<?xml version="1.0" encoding="utf-8"?>
<!-- Generator: Adobe Illustrator 21.1.0, SVG Export Plug-In . SVG Version: 6.00 Build 0)  -->
<svg version="1.1" xmlns:x="&ns_extend;" xmlns:i="&ns_ai;" xmlns:graph="&ns_graphs;"
	 xmlns="http://www.w3.org/2000/svg" xmlns:xlink="http://www.w3.org/1999/xlink" x="0px" y="0px" viewBox="0 0 750 136"
	 style="enable-background:new 0 0 750 136;" xml:space="preserve">
<style type="text/css">
	.st0{fill:url(#SVGID_1_);}
	.st1{fill:url(#SVGID_2_);}
	.st2{fill:url(#SVGID_3_);}
	.st3{fill:#FFFFFF;}
	.st4{clip-path:url(#SVGID_5_);fill:#FFFFFF;}
	.st5{opacity:0.4;fill:#FFFFFF;}
	.st6{font-family:'HelveticaNeueLTStd-Hv';}
	.st7{font-size:36px;}
	.st8{font-size:32.4657px;}
	.st9{font-family:'HelveticaNeueLTStd-Md';}
	.st10{font-size:27px;}
</style>
<metadata>
	<sfw  xmlns="&ns_sfw;">
		<slices></slices>
		<sliceSourceBounds  bottomLeftOrigin="true" height="248" width="750" x="0" y="-112"></sliceSourceBounds>
	</sfw>
</metadata>
<g id="Layer_3">
	<radialGradient id="SVGID_1_" cx="964" cy="315" r="1245.5765" gradientUnits="userSpaceOnUse">
		<stop  offset="0" style="stop-color:#733FFF"/>
		<stop  offset="0.5295" style="stop-color:#6269FF"/>
		<stop  offset="1" style="stop-color:#558AFF"/>
	</radialGradient>
	<rect class="st0" width="750" height="136"/>
	<linearGradient id="SVGID_2_" gradientUnits="userSpaceOnUse" x1="252.1588" y1="-42.1134" x2="-5.9607" y2="142.2576">
		<stop  offset="0" style="stop-color:#733FFF"/>
		<stop  offset="0.5295" style="stop-color:#6269FF"/>
		<stop  offset="1" style="stop-color:#558AFF"/>
	</linearGradient>
	<polygon class="st1" points="184,136 12,136 12,0 235,0 	"/>
	<linearGradient id="SVGID_3_" gradientUnits="userSpaceOnUse" x1="39.864" y1="121.4748" x2="205.3596" y2="-58.3228">
		<stop  offset="0" style="stop-color:#733FFF"/>
		<stop  offset="0.5295" style="stop-color:#6269FF"/>
		<stop  offset="1" style="stop-color:#558AFF"/>
	</linearGradient>
	<polygon class="st2" points="178.2,136 0,136 0,0 231,0 	"/>
</g>
<g id="Layer_2">
	<g id="XMLID_2861_">
		<g id="XMLID_2925_">
			<g id="XMLID_2926_">
				<polygon id="XMLID_2927_" class="st3" points="106.1,81 97.7,68.8 89.2,81 93.8,81 93.8,108 101.8,108 101.8,81 				"/>
				<polygon id="XMLID_2928_" class="st3" points="66.8,68.6 58.4,80.8 62.9,80.8 62.9,107.7 70.9,107.7 70.9,80.8 75.3,80.8 				
					"/>
			</g>
			<g id="XMLID_2929_">
				<polygon id="XMLID_2930_" class="st3" points="83,18.9 34.5,54.1 53,111.1 70.9,111.1 70.9,101.1 60.3,101.1 46.3,58 83,31.3 
					119.7,58 105.7,101.1 93.8,101.1 93.8,111.1 113,111.1 131.5,54.1 				"/>
				<polygon id="XMLID_2931_" class="st3" points="82.2,51.7 71.2,67.5 77.1,67.5 77.1,111.1 87.5,111.1 87.5,67.5 93.1,67.5 				
					"/>
			</g>
			<g id="XMLID_1_">
				<g>
					<defs>
						<polygon id="SVGID_4_" points="83,18.9 46.3,58 53,111.1 34.5,54.1 						"/>
					</defs>
					<use xlink:href="#SVGID_4_"  style="overflow:visible;fill:#FFFFFF;"/>
					<clipPath id="SVGID_5_">
						<use xlink:href="#SVGID_4_"  style="overflow:visible;"/>
					</clipPath>
					<rect x="34.5" y="18.9" class="st4" width="48.5" height="92.3"/>
					<path class="st4" d="M83.6,57.3v41.3v12.5h2.2c-8.4,2.9-17.7,4.5-27.4,4.5c-9.7,0-19-1.7-27.4-4.7h3V18.3h49.7V57.3z"/>
					<path class="st4" d="M83.6,57.3v41v12.4h2c-8.4,2.9-17.6,4.5-27.2,4.5c-9.6,0-18.8-1.7-27.2-4.7h2.8V18.3h49.7V57.3z"/>
					<path class="st4" d="M83.6,57.3V98v12.3h1.8c-8.3,2.9-17.4,4.5-27,4.4c-9.6,0-18.7-1.7-27-4.6h2.6V18.3h49.7V57.3z"/>
					<path class="st4" d="M83.6,57.3v40.3v12.2h1.6c-8.2,2.9-17.3,4.4-26.8,4.4c-9.5,0-18.5-1.7-26.8-4.6h2.4V18.3h49.7V57.3z"/>
					<path class="st4" d="M83.6,57.3v40v12.1h1.4c-8.2,2.8-17.2,4.4-26.6,4.4c-9.4,0-18.4-1.6-26.6-4.5h2.2V18.3h49.7V57.3z"/>
					<path class="st4" d="M83.6,57.3V97v12h1.1c-8.1,2.8-17,4.4-26.4,4.3c-9.4,0-18.3-1.6-26.4-4.5h1.9V18.3h49.7V57.3z"/>
					<path class="st4" d="M83.6,57.3v39.4v11.9h0.9c-8.1,2.8-16.9,4.3-26.2,4.3c-9.3,0-18.1-1.6-26.2-4.5h1.7V18.3h49.7V57.3z"/>
					<path class="st4" d="M83.6,57.3v39.1v11.8h0.7c-8,2.8-16.8,4.3-26,4.3c-9.2,0-18-1.6-25.9-4.4h1.5V18.3h49.7V57.3z"/>
					<path class="st4" d="M83.6,57.3v38.8v11.7h0.5c-7.9,2.8-16.6,4.3-25.8,4.2c-9.1,0-17.8-1.6-25.7-4.4h1.3V18.3h49.7V57.3z"/>
					<path class="st4" d="M83.6,57.3v38.5v11.6h0.3c-7.9,2.7-16.5,4.2-25.6,4.2c-9.1,0-17.7-1.6-25.5-4.4h1.1V18.3h49.7V57.3z"/>
					<path class="st4" d="M83.6,57.3v38.1V107h0.1c-7.8,2.7-16.4,4.2-25.4,4.2s-17.5-1.6-25.3-4.3h0.9V18.3h49.7V57.3z"/>
					<path class="st4" d="M83.6,57.3v37.8v10.4h2.8c-0.9,0.4-1.9,0.7-2.9,1.1c-7.7,2.7-16.2,4.2-25.1,4.1c-8.9,0-17.4-1.6-25.1-4.3
						h0.7V18.3h49.7V57.3z"/>
					<path class="st4" d="M83.6,57.3v37.5v10.3h2.5c-0.9,0.4-1.9,0.7-2.8,1.1c-7.7,2.7-16.1,4.1-24.9,4.1c-8.8,0-17.3-1.5-24.9-4.3
						h0.5V18.3h49.7V57.3z"/>
					<path class="st4" d="M83.6,57.3v37.2v10.2h2.3c-0.9,0.4-1.9,0.7-2.8,1c-7.6,2.6-16,4.1-24.7,4.1c-8.8,0-17.1-1.5-24.7-4.2h0.3
						V18.3h49.7V57.3z"/>
					<path class="st4" d="M83.6,57.3v36.9v10.1h2.1c-0.9,0.4-1.8,0.7-2.8,1c-7.5,2.6-15.8,4.1-24.5,4c-8.7,0-17-1.5-24.5-4.2h0.1
						V18.3h49.7V57.3z"/>
					<path class="st4" d="M83.6,57.3v36.6v10h1.9c-0.9,0.4-1.8,0.7-2.8,1c-7.5,2.6-15.7,4-24.3,4c-8.6,0-16.8-1.5-24.3-4.2
						c-0.9-0.3-1.9-0.7-2.8-1h2.6V18.3h49.7V57.3z"/>
					<path class="st4" d="M83.6,57.3v36.3v9.9h1.6c-0.9,0.4-1.8,0.7-2.7,1c-7.4,2.6-15.6,4-24.1,4c-8.5,0-16.7-1.5-24.1-4.1
						c-0.9-0.3-1.8-0.7-2.7-1h2.4v-85h49.7V57.3z"/>
					<path class="st4" d="M83.6,57.3v36v9.8H85c-0.9,0.4-1.8,0.7-2.7,1c-7.3,2.6-15.4,4-23.9,3.9c-8.5,0-16.5-1.5-23.9-4.1
						c-0.9-0.3-1.8-0.7-2.7-1h2.2V18.3h49.7V57.3z"/>
					<path class="st4" d="M83.6,57.3V93v8.6h3.8c-1.7,0.8-3.5,1.5-5.3,2.1c-7.3,2.5-15.3,3.9-23.7,3.9c-8.4,0-16.4-1.5-23.7-4
						c-0.9-0.3-1.8-0.7-2.7-1h1.9V18.3h49.7V57.3z"/>
					<path class="st4" d="M83.6,57.3v35.3v8.6h3.5c-1.7,0.8-3.5,1.5-5.3,2.1c-7.2,2.5-15.2,3.9-23.5,3.9c-8.3,0-16.3-1.5-23.5-4
						c-0.9-0.3-1.8-0.7-2.7-1h1.7V18.3h49.7V57.3z"/>
					<path class="st4" d="M83.6,57.3v35v8.5h3.3c-1.7,0.8-3.4,1.4-5.2,2.1c-7.2,2.5-15,3.8-23.3,3.8c-8.3,0-16.1-1.4-23.2-4
						c-0.9-0.3-1.8-0.7-2.6-1h1.5V18.3h49.7V57.3z"/>
					<path class="st4" d="M83.6,57.3V92v8.4h3c-1.7,0.8-3.4,1.4-5.2,2.1c-7.1,2.5-14.9,3.8-23.1,3.8c-8.2,0-16-1.4-23-3.9
						c-1.8-0.6-3.5-1.3-5.2-2.1h3.8V18.3h49.7V57.3z"/>
					<path class="st4" d="M83.6,57.3v34.4v8.3h2.8c-1.7,0.7-3.4,1.4-5.1,2c-7,2.4-14.8,3.8-22.9,3.8c-8.1,0-15.8-1.4-22.8-3.9
						c-1.8-0.6-3.5-1.3-5.1-2.1h3.5V18.3h49.7V57.3z"/>
					<path class="st4" d="M83.6,57.3v34.1v8.3h2.5c-1.7,0.7-3.3,1.4-5.1,2c-7,2.4-14.6,3.7-22.7,3.7c-8,0-15.7-1.4-22.6-3.9
						c-1.7-0.6-3.4-1.3-5.1-2.1h3.3V18.3h49.7V57.3z"/>
					<path class="st4" d="M83.6,57.3v33.8v8.2h2.3c-1.6,0.7-3.3,1.4-5,2c-6.9,2.4-14.5,3.7-22.4,3.7c-8,0-15.5-1.4-22.4-3.8
						c-1.7-0.6-3.4-1.3-5-2h3V18.3h49.7V57.3z"/>
					<path class="st4" d="M83.6,57.3v33.5v8.1h2c-1.6,0.7-3.3,1.4-5,2c-6.8,2.4-14.4,3.7-22.2,3.6s-15.4-1.4-22.2-3.8
						c-1.7-0.6-3.4-1.3-5-2h2.8V18.3h49.7V57.3z"/>
					<path class="st4" d="M83.6,57.3v33.1v8h1.8c-1.6,0.7-3.3,1.4-5,2c-6.8,2.4-14.2,3.6-22,3.6c-7.8,0-15.2-1.4-22-3.8
						c-1.7-0.6-3.3-1.3-4.9-2h2.5v-80h49.7V57.3z"/>
					<path class="st4" d="M83.6,57.3v32.8v8h1.5c-1.6,0.7-3.2,1.4-4.9,1.9c-6.7,2.3-14.1,3.6-21.8,3.6c-7.7,0-15.1-1.4-21.8-3.7
						c-1.7-0.6-3.3-1.3-4.9-2h2.2V18.3h49.7V57.3z"/>
					<path class="st4" d="M83.6,57.3v32.5v7.9h1.3c-1.6,0.7-3.2,1.3-4.9,1.9c-6.6,2.3-14,3.6-21.6,3.5s-15-1.3-21.6-3.7
						c-1.7-0.6-3.3-1.2-4.8-2h2V18.3h49.7V57.3z"/>
					<path class="st4" d="M83.6,57.3v32.2v7.8h1c-1.6,0.7-3.2,1.3-4.8,1.9c-6.6,2.3-13.8,3.5-21.4,3.5s-14.8-1.3-21.4-3.7
						c-1.6-0.6-3.2-1.2-4.8-1.9h1.7V18.3h49.7V57.3z"/>
					<path class="st4" d="M83.6,57.3v31.9v7.7h0.8c-1.5,0.7-3.1,1.3-4.8,1.9c-6.5,2.3-13.7,3.5-21.2,3.5c-7.5,0-14.7-1.3-21.2-3.6
						c-1.6-0.6-3.2-1.2-4.8-1.9h1.5V18.3h49.7V57.3z"/>
					<path class="st4" d="M83.6,57.3v31.6v7.7h0.5c-1.5,0.7-3.1,1.3-4.7,1.9c-6.5,2.2-13.5,3.5-21,3.4c-7.4,0-14.5-1.3-21-3.6
						c-1.6-0.6-3.2-1.2-4.7-1.9h1.2V18.3h49.7V57.3z"/>
					<path class="st4" d="M83.6,57.3v31.3v7.6h0.3c-1.5,0.7-3.1,1.3-4.7,1.8c-6.4,2.2-13.4,3.4-20.8,3.4c-7.4,0-14.4-1.3-20.8-3.6
						C36,97.3,34.5,96.7,33,96h1V18.3h49.7V57.3z"/>
					<path class="st4" d="M83.6,57.3v31v7.5h0c-1.5,0.7-3,1.3-4.6,1.8c-6.3,2.2-13.3,3.4-20.6,3.4c-7.3,0-14.2-1.3-20.6-3.5
						c-1.6-0.6-3.1-1.2-4.6-1.9h0.7V18.4h-0.5c1.5-0.7,3-1.3,4.6-1.8v1.7h41.1v-1.5c1.6,0.6,3.1,1.2,4.6,1.9h-0.3V57.3z"/>
					<path class="st4" d="M83.6,57.3v30.6v6.4h1.9c-0.7,0.4-1.5,0.7-2.2,1c-1.5,0.7-3,1.3-4.6,1.8c-6.3,2.2-13.1,3.4-20.4,3.3
						c-7.2,0-14.1-1.3-20.3-3.5c-1.6-0.6-3.1-1.2-4.6-1.8h0.5V18.8h-0.2c1.5-0.7,3-1.3,4.6-1.8v1.3H79v-1.1c1.6,0.6,3.1,1.2,4.6,1.8
						h0V57.3z"/>
					<path class="st4" d="M83.6,57.3v30.3v5.2h3.8c-2.8,1.5-5.7,2.9-8.8,3.9c-6.2,2.2-13,3.3-20.2,3.3c-7.1,0-14-1.2-20.1-3.4
						c-1.5-0.5-3.1-1.2-4.5-1.8h0.2V20.3h-2.1c0.7-0.4,1.4-0.7,2.2-1c1.5-0.7,3-1.3,4.5-1.8v0.9h40.3v-0.7c3.1,1.1,6,2.4,8.8,4h-4
						V57.3z"/>
					<path class="st4" d="M83.6,57.3v30v5.2h3.5c-2.7,1.5-5.6,2.8-8.7,3.9c-6.1,2.1-12.9,3.3-20,3.3c-7.1,0-13.8-1.2-19.9-3.4
						c-1.5-0.5-3-1.1-4.5-1.8c-0.7-0.3-1.4-0.7-2.1-1h2.1V21.7H30c2.7-1.5,5.6-2.8,8.7-3.9v0.5h39.9V18c3.1,1.1,6,2.4,8.7,4h-3.7
						V57.3z"/>
					<path class="st4" d="M83.6,57.3V87v5.1h3.2c-2.7,1.5-5.6,2.8-8.6,3.9c-6.1,2.1-12.7,3.3-19.7,3.2c-7,0-13.7-1.2-19.7-3.4
						c-3-1.1-5.9-2.4-8.6-3.9h3.9V22.1h-3.6c2.7-1.5,5.6-2.8,8.6-3.9v0h19.7V15c7,0,13.7,1.2,19.7,3.4c3,1.1,5.9,2.4,8.6,3.9h-3.4
						V57.3z"/>
					<path class="st4" d="M83.6,57.3v29.4v5.1h2.9c-2.7,1.5-5.5,2.8-8.5,3.8c-6,2.1-12.6,3.2-19.5,3.2c-6.9,0-13.5-1.2-19.5-3.3
						c-3-1.1-5.8-2.4-8.5-3.9h3.6V22.5h-3.3c2.7-1.5,5.5-2.8,8.5-3.8c6-2.1,12.6-3.2,19.5-3.2c6.9,0,13.5,1.2,19.5,3.3
						c3,1.1,5.8,2.4,8.5,3.9h-3.1V57.3z"/>
					<path class="st4" d="M83.6,57.3v29.1v5h2.6c-2.6,1.5-5.5,2.7-8.4,3.8c-5.9,2.1-12.5,3.2-19.3,3.2c-6.9,0-13.4-1.2-19.3-3.3
						c-3-1.1-5.8-2.3-8.4-3.8h3.3V22.8h-3c2.6-1.5,5.5-2.7,8.4-3.8c5.9-2.1,12.5-3.2,19.3-3.2c6.9,0,13.4,1.2,19.3,3.3
						c3,1.1,5.8,2.3,8.4,3.8h-2.8V57.3z"/>
					<path class="st4" d="M83.6,57.3V86v5h2.3c-2.6,1.5-5.4,2.7-8.4,3.7c-5.9,2-12.3,3.2-19.1,3.1c-6.8,0-13.2-1.2-19.1-3.3
						c-2.9-1-5.7-2.3-8.3-3.8h3V23.2h-2.7c2.6-1.5,5.4-2.7,8.4-3.7c5.9-2,12.3-3.2,19.1-3.1c6.8,0,13.2,1.2,19.1,3.3
						c2.9,1,5.7,2.3,8.3,3.8h-2.5V57.3z"/>
					<path class="st4" d="M83.6,57.3v28.5v4.9h2c-2.6,1.4-5.4,2.7-8.3,3.7c-5.8,2-12.2,3.1-18.9,3.1c-6.7,0-13.1-1.2-18.9-3.2
						c-2.9-1-5.7-2.3-8.2-3.7h2.7V23.6h-2.4c2.6-1.4,5.4-2.7,8.3-3.7c5.8-2,12.2-3.1,18.9-3.1c6.7,0,13.1,1.2,18.9,3.2
						c2.9,1,5.7,2.3,8.2,3.7h-2.2V57.3z"/>
					<path class="st4" d="M83.6,57.3v28.2v4.8h1.7c-2.6,1.4-5.3,2.6-8.2,3.6C71.3,95.9,65,97,58.4,97c-6.6,0-12.9-1.2-18.7-3.2
						c-2.9-1-5.6-2.3-8.1-3.7h2.4V23.9h-2.1c2.6-1.4,5.3-2.6,8.2-3.6c5.8-2,12.1-3.1,18.7-3.1s12.9,1.2,18.7,3.2
						c2.9,1,5.6,2.3,8.1,3.7h-1.9V57.3z"/>
					<path class="st4" d="M83.6,57.3v27.8v4.8H85c-2.5,1.4-5.2,2.6-8.1,3.6c-5.7,2-11.9,3.1-18.5,3c-6.6,0-12.8-1.1-18.5-3.2
						c-2.8-1-5.5-2.2-8.1-3.7h2.1V24.3h-1.8c2.5-1.4,5.2-2.6,8.1-3.6c5.7-2,11.9-3.1,18.5-3c6.6,0,12.8,1.1,18.5,3.2
						c2.8,1,5.5,2.2,8.1,3.7h-1.6V57.3z"/>
					<path class="st4" d="M83.6,57.3v27.5v4.7h1.1c-2.5,1.4-5.2,2.6-8,3.6c-5.6,2-11.8,3-18.3,3c-6.5,0-12.7-1.1-18.3-3.1
						c-2.8-1-5.5-2.2-8-3.6h1.8V24.7h-1.5c2.5-1.4,5.2-2.6,8-3.6c5.6-2,11.8-3,18.3-3c6.5,0,12.7,1.1,18.3,3.1c2.8,1,5.5,2.2,8,3.6
						h-1.3V57.3z"/>
					<path class="st4" d="M83.6,57.3v27.2v4.7h0.8c-2.5,1.4-5.1,2.6-7.9,3.5c-5.6,1.9-11.7,3-18.1,3c-6.4,0-12.5-1.1-18.1-3.1
						c-2.8-1-5.4-2.2-7.9-3.6h1.5V25h-1.3c2.5-1.4,5.1-2.6,7.9-3.5c5.6-1.9,11.7-3,18.1-3c6.4,0,12.5,1.1,18.1,3.1
						c2.8,1,5.4,2.2,7.9,3.6h-1V57.3z"/>
					<path class="st4" d="M83.6,57.3v26.9v4.6h0.5c-2.4,1.4-5.1,2.5-7.8,3.5c-5.5,1.9-11.5,3-17.9,2.9c-6.3,0-12.4-1.1-17.9-3.1
						c-2.7-1-5.3-2.2-7.8-3.5h1.2V25.4h-1c2.4-1.4,5.1-2.5,7.8-3.5c5.5-1.9,11.5-3,17.9-2.9C65,19,71,20.1,76.5,22
						c2.7,1,5.3,2.2,7.8,3.5h-0.7V57.3z"/>
					<path class="st4" d="M83.6,57.3v26.6v4.6h0.2c-2.4,1.3-5,2.5-7.7,3.4c-5.4,1.9-11.4,2.9-17.7,2.9c-6.3,0-12.2-1.1-17.6-3
						c-2.7-1-5.3-2.1-7.7-3.5h0.9V25.8h-0.7c2.4-1.3,5-2.5,7.7-3.4c5.4-1.9,11.4-2.9,17.7-2.9c6.3,0,12.2,1.1,17.6,3
						c2.7,1,5.3,2.1,7.7,3.5h-0.4V57.3z"/>
					<path class="st4" d="M83.6,57.3v26.3v2.4h3.4c-1.1,0.8-2.3,1.5-3.5,2.1c-2.4,1.3-4.9,2.5-7.6,3.4c-5.4,1.9-11.3,2.9-17.5,2.9
						s-12.1-1.1-17.4-3c-2.7-1-5.2-2.1-7.6-3.5h0.6V26.1h-0.4c2.4-1.3,4.9-2.5,7.6-3.4c5.4-1.9,11.3-2.9,17.5-2.9s12.1,1.1,17.4,3
						c2.7,1,5.2,2.1,7.6,3.5h-0.1V57.3z"/>
					<path class="st4" d="M83.6,57.2v26v2.4h3c-1.1,0.7-2.2,1.4-3.4,2.1c-2.4,1.3-4.9,2.4-7.5,3.4c-5.3,1.8-11.1,2.9-17.3,2.8
						c-6.1,0-11.9-1.1-17.2-2.9c-2.6-0.9-5.2-2.1-7.5-3.4h0.3v-61h-0.1c2.4-1.3,4.9-2.4,7.5-3.4c5.3-1.8,11.1-2.9,17.3-2.8
						c6.1,0,11.9,1.1,17.2,2.9c2.6,0.9,5.2,2.1,7.5,3.4c1.2,0.7,2.3,1.4,3.4,2.1h-3.2V57.2z"/>
					<path class="st4" d="M83.6,57.2v25.7v2.3h2.7c-1.1,0.7-2.2,1.4-3.4,2.1c-2.3,1.3-4.8,2.4-7.4,3.3c-5.2,1.8-11,2.8-17,2.8
						c-6,0-11.8-1.1-17-2.9c-2.6-0.9-5.1-2.1-7.4-3.4c-1.2-0.7-2.3-1.4-3.4-2.1h3.3V29h-3.1c1.1-0.7,2.2-1.4,3.4-2.1
						c2.3-1.3,4.8-2.4,7.4-3.3c5.2-1.8,11-2.8,17-2.8c6,0,11.8,1.1,17,2.9c2.6,0.9,5.1,2.1,7.4,3.4c1.2,0.7,2.3,1.4,3.4,2.1h-2.9
						V57.2z"/>
					<path class="st4" d="M83.6,57.2v25.3v2.3h2.4c-1.1,0.7-2.2,1.4-3.3,2.1c-2.3,1.3-4.8,2.4-7.4,3.3C70.1,92,64.4,93,58.4,93
						c-6,0-11.7-1-16.8-2.9c-2.6-0.9-5-2-7.3-3.3c-1.1-0.6-2.3-1.3-3.3-2.1h3V29.3h-2.8c1.1-0.7,2.2-1.4,3.3-2.1
						c2.3-1.3,4.8-2.4,7.4-3.3c5.2-1.8,10.9-2.8,16.8-2.8c6,0,11.7,1,16.8,2.9c2.6,0.9,5,2,7.3,3.3c1.1,0.6,2.3,1.3,3.3,2.1h-2.5
						V57.2z"/>
					<path class="st4" d="M83.6,57.2v25v2.3h2c-1.1,0.7-2.2,1.4-3.3,2c-2.3,1.3-4.7,2.4-7.3,3.2c-5.1,1.8-10.7,2.7-16.6,2.7
						c-5.9,0-11.5-1-16.6-2.8c-2.6-0.9-5-2-7.2-3.3c-1.1-0.6-2.2-1.3-3.3-2.1h2.7V29.6h-2.5c1.1-0.7,2.2-1.4,3.3-2
						c2.3-1.3,4.7-2.4,7.3-3.2c5.1-1.8,10.7-2.7,16.6-2.7c5.9,0,11.5,1,16.6,2.8c2.6,0.9,5,2,7.2,3.3c1.1,0.6,2.2,1.3,3.3,2.1h-2.2
						V57.2z"/>
					<path class="st4" d="M83.6,57.2V82v2.2h1.7c-1,0.7-2.1,1.4-3.3,2c-2.2,1.3-4.6,2.3-7.2,3.2c-5.1,1.8-10.6,2.7-16.4,2.7
						c-5.8,0-11.4-1-16.4-2.8c-2.5-0.9-4.9-2-7.2-3.3c-1.1-0.6-2.2-1.3-3.2-2h2.3V30h-2.1c1-0.7,2.1-1.4,3.3-2
						c2.2-1.3,4.6-2.3,7.2-3.2c5.1-1.8,10.6-2.7,16.4-2.7c5.8,0,11.4,1,16.4,2.8c2.5,0.9,4.9,2,7.2,3.3c1.1,0.6,2.2,1.3,3.2,2h-1.9
						V57.2z"/>
					<path class="st4" d="M83.6,57.2v24.4v2.2h1.3c-1,0.7-2.1,1.4-3.2,2c-2.2,1.2-4.6,2.3-7.1,3.2c-5,1.7-10.5,2.7-16.2,2.7
						c-5.7,0-11.2-1-16.2-2.8c-2.5-0.9-4.9-2-7.1-3.2c-1.1-0.6-2.2-1.3-3.2-2h2V30.3h-1.8c1-0.7,2.1-1.4,3.2-2
						c2.2-1.2,4.6-2.3,7.1-3.2c5-1.7,10.5-2.7,16.2-2.7c5.7,0,11.2,1,16.2,2.8c2.5,0.9,4.9,2,7.1,3.2c1.1,0.6,2.2,1.3,3.2,2h-1.5
						V57.2z"/>
					<path class="st4" d="M83.6,57.2v24.1h3.9c-7.5,6.2-17.7,9.9-29.1,9.9c-5.7,0-11.1-1-16-2.7c-2.5-0.9-4.8-1.9-7-3.2
						c-1.1-0.6-2.1-1.3-3.2-2h1.6V30.7h-1.5c1-0.7,2.1-1.3,3.2-2c2.2-1.2,4.5-2.3,7-3.1c4.9-1.7,10.3-2.6,16-2.6
						c5.7,0,11.1,1,16,2.7c2.5,0.9,4.8,1.9,7,3.2c1.1,0.6,2.1,1.3,3.2,2h-1.2V57.2z"/>
					<path class="st4" d="M83.6,57.2V81h3.6c-7.4,6.1-17.5,9.8-28.7,9.8c-5.6,0-10.9-1-15.8-2.7c-2.4-0.9-4.7-1.9-6.9-3.1
						c-1.1-0.6-2.1-1.3-3.1-1.9h1.3V33.2h-4c7.4-6.1,17.5-9.8,28.7-9.8s21.3,3.8,28.7,10h-3.7V57.2z"/>
					<path class="st4" d="M83.6,57.2v23.5h3.2c-7.3,6-17.3,9.7-28.3,9.6c-11.1,0-21.1-3.8-28.3-9.8h3.8v-47h-3.6
						c7.3-6,17.3-9.7,28.3-9.6c11.1,0,21.1,3.8,28.3,9.8h-3.3V57.2z"/>
					<path class="st4" d="M83.6,57.2v23.2h2.8c-7.2,5.9-17.1,9.5-28,9.5c-10.9,0-20.8-3.7-27.9-9.7h3.4V33.8h-3.3
						c7.2-5.9,17.1-9.5,28-9.5S79.4,28,86.5,34h-3V57.2z"/>
					<path class="st4" d="M83.6,57.2v22.8H86c-7.1,5.8-16.8,9.4-27.6,9.4c-10.8,0-20.5-3.7-27.5-9.6h3V34.1H31
						c7.1-5.8,16.8-9.4,27.6-9.4c10.8,0,20.5,3.7,27.5,9.6h-2.6V57.2z"/>
					<path class="st4" d="M83.6,57.2v22.5h2.1C78.7,85.5,69,89,58.4,89s-20.2-3.6-27.1-9.4h2.7V34.4h-2.5c7-5.8,16.6-9.3,27.2-9.3
						c10.6,0,20.2,3.6,27.1,9.4h-2.2V57.2z"/>
					<path class="st4" d="M83.6,57.2v22.2h1.7c-6.9,5.7-16.4,9.2-26.8,9.1c-10.5,0-19.9-3.6-26.8-9.3h2.3V34.8h-2.1
						c6.9-5.7,16.4-9.2,26.8-9.1c10.5,0,19.9,3.6,26.8,9.3h-1.8V57.2z"/>
					<path class="st4" d="M83.6,57.2v21.9h1.3c-6.8,5.6-16.1,9-26.5,9c-10.3,0-19.7-3.5-26.4-9.2h1.9V35.1h-1.8
						c6.8-5.6,16.1-9,26.5-9c10.3,0,19.7,3.5,26.4,9.2h-1.5V57.2z"/>
					<path class="st4" d="M83.6,57.2v21.6h0.9c-6.7,5.5-15.9,8.9-26.1,8.9c-10.2,0-19.4-3.5-26-9h1.5V35.4h-1.4
						c6.7-5.5,15.9-8.9,26.1-8.9s19.4,3.5,26,9h-1.1V57.2z"/>
					<path class="st4" d="M83.6,57.2v21.3h0.6c-6.6,5.4-15.7,8.8-25.7,8.7c-10,0-19.1-3.4-25.6-8.9h1.1V35.7h-1
						c6.6-5.4,15.7-8.8,25.7-8.7c10,0,19.1,3.4,25.6,8.9h-0.7V57.2z"/>
					<path class="st4" d="M83.6,57.2v21h0.2c-6.5,5.4-15.4,8.6-25.3,8.6c-9.9,0-18.8-3.4-25.3-8.8h0.8V36h-0.6
						c6.5-5.4,15.4-8.6,25.3-8.6c9.9,0,18.8,3.4,25.3,8.8h-0.3V57.2z"/>
					<path class="st4" d="M83.6,57.2v11.4v7.2h2.1c-0.7,0.7-1.5,1.4-2.3,2.1c-6.4,5.3-15.2,8.5-24.9,8.5c-9.7,0-18.5-3.3-24.9-8.7
						h0.4V36.3h-0.2c6.4-5.3,15.2-8.5,24.9-8.5c9.7,0,18.5,3.3,24.9,8.7c0.8,0.7,1.6,1.4,2.3,2.1h-2.2V57.2z"/>
					<path class="st4" d="M83.6,57.2v11.2v4.9h3.7c-1.3,1.5-2.7,3-4.3,4.3c-6.3,5.2-15,8.4-24.6,8.4c-9.6,0-18.3-3.3-24.5-8.5h0
						V38.7h-2.1c0.7-0.7,1.5-1.4,2.2-2c6.3-5.2,15-8.4,24.6-8.4c9.6,0,18.3,3.3,24.5,8.5c1.6,1.3,3,2.7,4.2,4.3h-3.8V57.2z"/>
					<path class="st4" d="M83.6,57.2v11v4.8h3.2c-1.2,1.5-2.6,2.9-4.2,4.2c-6.2,5.1-14.8,8.3-24.2,8.2c-9.4,0-18-3.2-24.1-8.4
						c-1.5-1.3-2.9-2.7-4.2-4.2h3.8V41.1h-3.7c1.2-1.5,2.6-2.9,4.2-4.2c6.2-5.1,14.8-8.3,24.2-8.2c9.4,0,18,3.2,24.1,8.4
						c1.5,1.3,2.9,2.7,4.2,4.2h-3.3V57.2z"/>
					<path class="st4" d="M83.6,57.2v10.9v4.7h2.8c-1.2,1.5-2.6,2.9-4.1,4.1c-6.1,5-14.5,8.1-23.8,8.1c-9.3,0-17.7-3.2-23.8-8.3
						c-1.5-1.3-2.9-2.7-4.1-4.1h3.3V41.4h-3.2c1.2-1.5,2.6-2.9,4.1-4.1c6.1-5,14.5-8.1,23.8-8.1c9.3,0,17.7,3.2,23.8,8.3
						c1.5,1.3,2.9,2.7,4.1,4.1h-2.9V57.2z"/>
					<path class="st4" d="M83.6,57.2v10.7v4.7h2.4c-1.2,1.5-2.6,2.8-4.1,4.1c-6,5-14.3,8-23.4,8c-9.1,0-17.4-3.1-23.4-8.1
						c-1.5-1.2-2.8-2.6-4-4.1h2.9V41.6h-2.8c1.2-1.5,2.6-2.8,4.1-4.1c6-5,14.3-8,23.4-8c9.1,0,17.4,3.1,23.4,8.1
						c1.5,1.2,2.8,2.6,4,4.1h-2.5V57.2z"/>
					<path class="st4" d="M83.6,57.2v10.5v4.6h1.9c-1.2,1.4-2.5,2.8-4,4c-5.9,4.9-14.1,7.9-23.1,7.8c-9,0-17.1-3.1-23-8
						c-1.5-1.2-2.8-2.6-4-4h2.5V41.9h-2.4c1.2-1.4,2.5-2.8,4-4c5.9-4.9,14.1-7.9,23.1-7.8c9,0,17.1,3.1,23,8c1.5,1.2,2.8,2.6,4,4h-2
						V57.2z"/>
					<path class="st4" d="M83.6,57.2v10.3v4.5H85c-1.2,1.4-2.5,2.7-3.9,3.9c-5.8,4.8-13.8,7.7-22.7,7.7c-8.8,0-16.8-3-22.6-7.9
						c-1.4-1.2-2.8-2.5-3.9-4h2V42.1H32c1.2-1.4,2.5-2.7,3.9-3.9c5.8-4.8,13.8-7.7,22.7-7.7c8.8,0,16.8,3,22.6,7.9
						c1.4,1.2,2.8,2.5,3.9,4h-1.6V57.2z"/>
					<path class="st4" d="M83.6,57.2v10.2h4c-1.6,3.1-3.9,5.9-6.8,8.3c-5.7,4.7-13.6,7.6-22.3,7.6c-8.7,0-16.6-3-22.3-7.7
						c-1.4-1.2-2.7-2.5-3.8-3.9h1.6V42.4h-1.5c1.1-1.4,2.4-2.7,3.9-3.9c5.7-4.7,13.6-7.6,22.3-7.6c8.7,0,16.6,3,22.3,7.7
						c2.8,2.4,5.1,5.2,6.7,8.3h-4V57.2z"/>
					<path class="st4" d="M83.6,57.2v10H87c-1.6,3.1-3.9,5.8-6.7,8.2C74.7,80,67,82.8,58.4,82.8c-8.6,0-16.3-2.9-21.9-7.6
						c-2.8-2.3-5.1-5.1-6.6-8.2h4V47H30c1.6-3.1,3.9-5.8,6.7-8.2c5.6-4.6,13.4-7.5,21.9-7.5c8.6,0,16.3,2.9,21.9,7.6
						c2.8,2.3,5.1,5.1,6.6,8.2h-3.5V57.2z"/>
					<path class="st4" d="M83.6,57.2V67h3c-1.6,3-3.8,5.7-6.6,8c-5.5,4.6-13.1,7.4-21.6,7.3c-8.4,0-16-2.9-21.5-7.5
						c-2.7-2.3-5-5-6.5-8.1h3.5V47.2h-3.4c1.6-3,3.8-5.7,6.6-8c5.5-4.6,13.1-7.4,21.6-7.3s16,2.9,21.5,7.5c2.7,2.3,5,5,6.5,8.1h-3
						V57.2z"/>
					<path class="st4" d="M83.6,57.2v9.7h2.5c-1.5,3-3.7,5.6-6.4,7.9c-5.4,4.5-12.9,7.2-21.2,7.2c-8.3,0-15.7-2.8-21.1-7.3
						c-2.7-2.3-4.9-4.9-6.4-7.9h3V47.3H31c1.5-3,3.7-5.6,6.4-7.9c5.4-4.5,12.9-7.2,21.2-7.2c8.3,0,15.7,2.8,21.1,7.3
						c2.7,2.3,4.9,4.9,6.4,7.9h-2.5V57.2z"/>
					<path class="st4" d="M83.6,57.2v9.5h2c-1.5,2.9-3.7,5.5-6.3,7.7c-5.3,4.4-12.7,7.1-20.8,7.1c-8.1,0-15.4-2.8-20.8-7.2
						c-2.7-2.2-4.8-4.9-6.3-7.8h2.5v-19h-2.4c1.5-2.9,3.7-5.5,6.3-7.7c5.3-4.4,12.7-7.1,20.8-7.1c8.1,0,15.4,2.8,20.8,7.2
						c2.7,2.2,4.8,4.9,6.3,7.8h-2.1V57.2z"/>
					<path class="st4" d="M87.4,57.2c0,13.2-13,23.9-28.9,23.9c-8,0-15.2-2.7-20.4-7.1c-2.6-2.2-4.7-4.8-6.2-7.6h2V47.7H32
						c1.5-2.9,3.6-5.4,6.2-7.6c5.2-4.3,12.5-7,20.4-6.9C74.5,33.2,87.4,44,87.4,57.2z"/>
					
						<ellipse transform="matrix(3.393681e-03 -1 1 3.393681e-03 1.2279 115.4292)" class="st4" cx="58.5" cy="57.1" rx="23.5" ry="28.3"/>
					
						<ellipse transform="matrix(3.392538e-03 -1 1 3.392538e-03 1.228 115.4292)" class="st4" cx="58.5" cy="57.1" rx="23.1" ry="27.8"/>
					
						<ellipse transform="matrix(3.393464e-03 -1 1 3.393464e-03 1.2279 115.4292)" class="st4" cx="58.5" cy="57.1" rx="22.6" ry="27.2"/>
					
						<ellipse transform="matrix(3.393351e-03 -1 1 3.393351e-03 1.2279 115.4292)" class="st4" cx="58.5" cy="57.1" rx="22.2" ry="26.7"/>
					
						<ellipse transform="matrix(3.393230e-03 -1 1 3.393230e-03 1.228 115.4292)" class="st4" cx="58.5" cy="57.1" rx="21.7" ry="26.2"/>
					
						<ellipse transform="matrix(3.393103e-03 -1 1 3.393103e-03 1.228 115.4292)" class="st4" cx="58.5" cy="57.1" rx="21.3" ry="25.6"/>
					
						<ellipse transform="matrix(3.392975e-03 -1 1 3.392975e-03 1.228 115.4292)" class="st4" cx="58.5" cy="57.1" rx="20.9" ry="25.1"/>
					
						<ellipse transform="matrix(3.394011e-03 -1 1 3.394011e-03 1.2279 115.4292)" class="st4" cx="58.5" cy="57.1" rx="20.4" ry="24.6"/>
					
						<ellipse transform="matrix(3.392697e-03 -1 1 3.392697e-03 1.228 115.4292)" class="st4" cx="58.5" cy="57.1" rx="20" ry="24"/>
					
						<ellipse transform="matrix(3.393770e-03 -1 1 3.393770e-03 1.2279 115.4292)" class="st4" cx="58.5" cy="57.1" rx="19.5" ry="23.5"/>
					
						<ellipse transform="matrix(3.392394e-03 -1 1 3.392394e-03 1.228 115.4292)" class="st4" cx="58.5" cy="57.1" rx="19.1" ry="23"/>
					
						<ellipse transform="matrix(3.393515e-03 -1 1 3.393515e-03 1.2279 115.4292)" class="st4" cx="58.5" cy="57.1" rx="18.6" ry="22.5"/>
				</g>
			</g>
			<polygon id="XMLID_2933_" class="st5" points="83,18.9 119.7,58 113,111.1 131.5,54.1 			"/>
		</g>
	</g>
</g>
<g id="Layer_1">
	<title>featured-bg</title>
	<text transform="matrix(1 0 0 1 253.3066 63.9998)"><tspan x="0" y="0" class="st3 st6 st7"> BROWSE</tspan><tspan x="174.7" y="0" class="st3 st6 st8"> </tspan><tspan x="0" y="33" class="st3 st9 st10">ALCHEMIST PROJECT BIDS</tspan></text>
	<g>
		<defs>
			<rect id="SVGID_6_" width="750" height="136"/>
		</defs>
		<clipPath id="SVGID_7_">
			<use xlink:href="#SVGID_6_"  style="overflow:visible;"/>
		</clipPath>
	</g>
	<g>
		<path class="st3" d="M344.4,241.2c-1.8,0-3.2,1.5-3.2,3.2c0,1.8,1.5,3.2,3.2,3.2s3.2-1.5,3.2-3.2
			C347.7,242.7,346.2,241.2,344.4,241.2"/>
		<path class="st3" d="M356.4,231.6c1.8,0,3.2-1.5,3.2-3.2c0-1.8-1.5-3.3-3.2-3.3c-1.8,0-3.2,1.5-3.2,3.2S354.6,231.6,356.4,231.6"
			/>
		<path class="st3" d="M370.9,242.7c-0.6-0.8-1.5-1.2-2.4-1.3c-1-0.1-1.8-0.6-2.4-1.3l0,0c-0.6-0.8-0.8-1.8-0.6-2.7
			c0-0.1,0.1-0.2,0.1-0.4l0,0c0-0.1,0-0.2,0-0.3l0-0.1c0-0.1,0-0.1,0-0.3l0-0.1c0-0.1,0-0.1,0-0.2c0-0.1,0-0.1,0-0.1s0-0.1-0.1-0.2
			c0-0.1,0-0.1,0-0.1s-0.1-0.1-0.1-0.2c0,0,0-0.1-0.1-0.1c-0.1-0.1-0.1-0.2-0.1-0.3c0,0,0,0,0-0.1c-0.2-0.4-0.5-0.7-0.9-1
			c-0.6-0.4-1.3-0.6-1.9-0.6c-0.7,0-1.3,0.2-1.9,0.6c-0.4,0.3-0.7,0.6-0.9,1c0,0,0,0,0,0.1c-0.1,0.1-0.1,0.1-0.1,0.3
			c0,0,0,0.1-0.1,0.1c0,0.1-0.1,0.1-0.1,0.2s0,0.1,0,0.1c0,0.1-0.1,0.1-0.1,0.2s0,0.1,0,0.1c0,0.1,0,0.1,0,0.2l0,0.1
			c0,0.1,0,0.1,0,0.3l0,0.1c0,0.1,0,0.2,0,0.3l0,0c0,0.1,0,0.2,0.1,0.4c0.2,0.9-0.1,1.9-0.6,2.7l0,0c-0.5,0.7-1.3,1.2-2.2,1.3
			c-0.8-0.1-1.6-0.6-2.2-1.3l0,0c-0.6-0.8-0.8-1.8-0.6-2.7c0.2-0.9,0-1.8-0.5-2.6c-1-1.4-3.1-1.8-4.6-0.7s-1.8,3.2-0.7,4.6
			c0.6,0.8,1.4,1.2,2.2,1.3c1,0.1,1.9,0.6,2.5,1.4c0.6,0.7,0.8,1.6,0.6,2.5c-0.4,1.3,0.1,2.7,1.1,3.4c0.6,0.4,1.2,0.6,1.9,0.7
			c0.1,0,0.1,0,0.1,0s0.1,0,0.1,0c0.6,0,1.3-0.2,1.9-0.7c1.1-0.8,1.5-2.2,1.1-3.4c-0.1-0.9,0.1-1.8,0.6-2.5c0.6-0.7,1.3-1.2,2.2-1.3
			c0.8,0.1,1.6,0.6,2.2,1.3c0.6,0.8,0.8,1.8,0.6,2.8c-0.1,0.8,0,1.8,0.5,2.5c1,1.5,3.2,1.8,4.6,0.7
			C371.7,246.1,371.9,244.1,370.9,242.7"/>
	</g>
</g>
</svg>
