<svg id="Layer_1" data-name="Layer 1" xmlns="http://www.w3.org/2000/svg" xmlns:xlink="http://www.w3.org/1999/xlink" viewBox="0 0 750 136"><defs><style>.cls-1{fill:none;}.cls-2{fill:url(#radial-gradient);}.cls-3{fill:url(#linear-gradient);}.cls-4{fill:url(#linear-gradient-2);}.cls-10,.cls-11,.cls-5,.cls-7,.cls-9{fill:#fff;}.cls-6{clip-path:url(#clip-path);}.cls-7{opacity:0.4;}.cls-10,.cls-11,.cls-7,.cls-8,.cls-9{isolation:isolate;}.cls-9{font-size:40.64px;}.cls-10,.cls-9{font-family:HelveticaNeueLTStd-Hv, Helvetica Neue LT Std;}.cls-10{font-size:36.65px;}.cls-11{font-size:30.48px;font-family:HelveticaNeueLTStd-Md, Helvetica Neue LT Std;}</style><radialGradient id="radial-gradient" cx="964" cy="-67" r="1245.58" gradientTransform="matrix(1, 0, 0, -1, 0, 248)" gradientUnits="userSpaceOnUse"><stop offset="0" stop-color="#733fff"/><stop offset="0.68" stop-color="#4e90ff"/><stop offset="1" stop-color="#3fb1ff"/></radialGradient><linearGradient id="linear-gradient" x1="190.2" y1="258.84" x2="-17.12" y2="110.75" gradientTransform="matrix(1, 0, 0, -1, 0, 248)" gradientUnits="userSpaceOnUse"><stop offset="0" stop-color="#733fff"/><stop offset="0.53" stop-color="#6269ff"/><stop offset="1" stop-color="#558aff"/></linearGradient><linearGradient id="linear-gradient-2" x1="28.63" y1="126.59" x2="160.91" y2="270.31" xlink:href="#linear-gradient"/><clipPath id="clip-path"><polygon class="cls-1" points="78.39 27.63 46.93 61.16 52.67 106.78 36.78 57.86 78.39 27.63"/></clipPath></defs><title>browse-biddders-BANNER</title><g id="Layer_3" data-name="Layer 3"><rect class="cls-2" width="750" height="136"/><polygon class="cls-3" points="159.66 136 0 136 0 0 160 0 159.66 136"/><polygon class="cls-4" points="155.57 136 0 136 0 0 155 0 155.57 136"/></g><g id="Layer_2" data-name="Layer 2"><g id="_Group_" data-name=" Group "><g id="_Group_2" data-name=" Group 2"><g id="_Group_3" data-name=" Group 3"><polygon id="_Path_" data-name=" Path " class="cls-5" points="98.24 80.95 90.99 70.48 83.75 80.95 87.64 80.95 87.64 104.09 94.5 104.09 94.5 80.95 98.24 80.95"/><polygon id="_Path_2" data-name=" Path 2" class="cls-5" points="64.5 70.25 57.26 80.72 61.15 80.72 61.15 103.86 68.01 103.86 68.01 80.72 71.75 80.72 64.5 70.25"/></g><g id="_Group_4" data-name=" Group 4"><polygon id="_Path_3" data-name=" Path 3" class="cls-5" points="78.39 27.63 36.78 57.86 52.67 106.78 68.01 106.78 68.01 98.14 58.95 98.14 46.93 61.16 78.39 38.3 109.85 61.16 97.83 98.14 87.64 98.14 87.64 106.78 104.11 106.78 120 57.86 78.39 27.63"/><polygon id="_Path_4" data-name=" Path 4" class="cls-5" points="77.67 55.76 68.25 69.38 73.31 69.38 73.31 106.72 82.23 106.72 82.23 69.38 87.1 69.38 77.67 55.76"/></g><g id="_Group_5" data-name=" Group 5"><polygon class="cls-5" points="78.39 27.63 46.93 61.16 52.67 106.78 36.78 57.86 78.39 27.63"/><g class="cls-6"><rect class="cls-5" x="36.78" y="27.63" width="41.61" height="79.15"/><path class="cls-5" d="M78.88,60.63v46.09h1.87a72.12,72.12,0,0,1-47-.16h2.57V27.14h42.6Z"/><path class="cls-5" d="M78.88,60.63v45.74h1.69a71.58,71.58,0,0,1-46.68-.16h2.39V27.14h42.6Z"/><path class="cls-5" d="M78.88,60.63V106H80.4a71,71,0,0,1-46.32-.16h2.21V27.14h42.6Z"/><path class="cls-5" d="M78.88,60.63v45h1.34a70.49,70.49,0,0,1-46-.16h2V27.14h42.6Z"/><path class="cls-5" d="M78.88,60.62v44.69H80a69.94,69.94,0,0,1-45.61-.15h1.85v-78h42.6Z"/><path class="cls-5" d="M78.88,60.62V105h1a69.39,69.39,0,0,1-45.25-.15H36.3V27.14H78.9Z"/><path class="cls-5" d="M78.88,60.62v44h.81a68.85,68.85,0,0,1-44.9-.15h1.49V27.14h42.6Z"/><path class="cls-5" d="M78.88,60.62v43.65h.63A68.3,68.3,0,0,1,35,104.11h1.31v-77h42.6Z"/><path class="cls-5" d="M78.88,60.62v43.3h.45a67.76,67.76,0,0,1-44.18-.15h1.13V27.14h42.6Z"/><path class="cls-5" d="M78.88,60.62v43h.28a67.21,67.21,0,0,1-43.83-.15h1V27.14h42.6Z"/><path class="cls-5" d="M78.88,60.61v42.6H79a66.66,66.66,0,0,1-43.47-.15h.78V27.14h42.6Z"/><path class="cls-5" d="M78.88,60.61V102h2.38q-1.21.48-2.46.91a66.12,66.12,0,0,1-43.12-.15h.6V27.14h42.6Z"/><path class="cls-5" d="M78.88,60.61v41h2.18q-1.2.48-2.44.9a65.57,65.57,0,0,1-42.76-.15h.42V27.14h42.6Z"/><path class="cls-5" d="M78.88,60.61v40.66h2q-1.19.47-2.42.9a65,65,0,0,1-42.4-.14h.24V27.14H78.9Z"/><path class="cls-5" d="M78.88,60.61v40.32h1.79q-1.18.47-2.4.89a64.48,64.48,0,0,1-42-.14h.06V27.14h42.6Z"/><path class="cls-5" d="M78.88,60.61v40h1.59q-1.17.46-2.38.88a63.93,63.93,0,0,1-41.69-.14q-1.2-.43-2.37-.9h2.25V27.14h42.6Z"/><path class="cls-5" d="M78.88,60.6v39.63h1.39q-1.16.46-2.36.87a63.39,63.39,0,0,1-41.32-.1q-1.19-.42-2.35-.89h2v-73h42.6Z"/><path class="cls-5" d="M78.88,60.6V99.89h1.2q-1.15.46-2.33.87a62.84,62.84,0,0,1-41-.14q-1.18-.42-2.33-.88h1.85V27.14h42.6Z"/><path class="cls-5" d="M78.88,60.6v38h3.25q-2.22,1-4.57,1.81a62.3,62.3,0,0,1-40.62-.14q-1.17-.42-2.31-.88h1.65V27.14h42.6Z"/><path class="cls-5" d="M78.88,60.6V98.27h3q-2.2,1-4.53,1.79a61.75,61.75,0,0,1-40.27-.14q-1.16-.41-2.29-.87h1.45V27.14h42.6Z"/><path class="cls-5" d="M78.88,60.6V97.93H81.7a46.24,46.24,0,0,1-4.49,1.78,61.21,61.21,0,0,1-39.91-.14q-1.15-.41-2.27-.86h1.25V27.14h42.6Z"/><path class="cls-5" d="M78.88,60.6v37h2.6A42.29,42.29,0,0,1,77,99.36a60.66,60.66,0,0,1-39.56-.13q-2.28-.81-4.44-1.79h3.24V27.14h42.6Z"/><path class="cls-5" d="M78.88,60.6V97.26h2.39A40.19,40.19,0,0,1,76.86,99a60.11,60.11,0,0,1-39.2-.13q-2.26-.8-4.4-1.78h3v-70h42.6Z"/><path class="cls-5" d="M78.88,60.59V96.93H81q-2.12.95-4.37,1.73a59.57,59.57,0,0,1-38.84-.13q-2.24-.79-4.36-1.76h2.8V27.14h42.6Z"/><path class="cls-5" d="M78.88,60.59v36h2q-2.1.94-4.33,1.71A59,59,0,0,1,38,98.18q-2.22-.79-4.32-1.74h2.58V27.14h42.6Z"/><path class="cls-5" d="M78.88,60.59V96.26h1.74q-2.09.93-4.29,1.7a58.48,58.48,0,0,1-38.13-.13Q36,97,33.92,96.1h2.36v-69h42.6Z"/><path class="cls-5" d="M78.88,60.59V95.93H80.4q-2.07.92-4.25,1.68a57.93,57.93,0,0,1-37.78-.13q-2.17-.77-4.24-1.71h2.14V27.14h42.6Z"/><path class="cls-5" d="M78.88,60.59v35h1.3q-2,.91-4.21,1.67a57.38,57.38,0,0,1-37.42-.13q-2.15-.76-4.2-1.69h1.93V27.14h42.6Z"/><path class="cls-5" d="M78.88,60.59V95.26H80q-2,.91-4.17,1.65a56.84,56.84,0,0,1-37.06-.13Q36.6,96,34.58,95.1h1.71v-68h42.6Z"/><path class="cls-5" d="M78.88,60.58V94.92h.87q-2,.9-4.13,1.63a56.29,56.29,0,0,1-36.71-.12q-2.11-.75-4.12-1.66h1.49V27.14h42.6Z"/><path class="cls-5" d="M78.88,60.58v34h.65q-2,.89-4.09,1.62a55.75,55.75,0,0,1-36.35-.12Q37,95.34,35,94.44h1.27V27.14h42.6Z"/><path class="cls-5" d="M78.88,60.58V94.25h.44q-2,.88-4,1.6a55.2,55.2,0,0,1-36-.12q-2.07-.74-4-1.63h1v-67h42.6Z"/><path class="cls-5" d="M78.88,60.58V93.92h.22q-2,.87-4,1.59a54.65,54.65,0,0,1-35.64-.12q-2-.73-4-1.61h.83V27.14h42.6Z"/><path class="cls-5" d="M78.88,60.58v33h0q-1.93.86-4,1.57A54.11,54.11,0,0,1,39.63,95q-2-.72-4-1.6h.61V27.26H35.9q1.93-.86,4-1.57v1.44H75.15V25.81q2,.72,4,1.6h-.23Z"/><path class="cls-5" d="M78.88,60.58V92.36h1.67q-.93.46-1.88.89-1.91.85-3.93,1.56a53.56,53.56,0,0,1-34.93-.12q-2-.71-3.92-1.58h.39V27.6h-.17Q38,26.75,40,26v1.09H75v-1q2,.71,3.92,1.58h0Z"/><path class="cls-5" d="M78.88,60.58v30.5h3.24a47.79,47.79,0,0,1-7.56,3.37A53,53,0,0,1,40,94.34q-2-.71-3.88-1.57h.17v-64H34.47q.92-.46,1.86-.88,1.89-.84,3.89-1.54v.74H74.8v-.63a47.79,47.79,0,0,1,7.53,3.42H78.88Z"/><path class="cls-5" d="M78.88,60.57v30.2h3a47.3,47.3,0,0,1-7.48,3.34A52.47,52.47,0,0,1,40.17,94q-2-.7-3.84-1.55-.93-.42-1.84-.88h1.79V30.08H32.92a47.29,47.29,0,0,1,7.48-3.34v.39H74.62v-.28a47.29,47.29,0,0,1,7.45,3.39H78.88Z"/><path class="cls-5" d="M78.88,60.57V90.45h2.73a46.81,46.81,0,0,1-7.4,3.3,51.93,51.93,0,0,1-33.86-.11A46.8,46.8,0,0,1,33,90.28h3.31V30.4H33.18a46.8,46.8,0,0,1,7.4-3.3H57.52V24.32a51.12,51.12,0,0,1,16.92,2.9,46.8,46.8,0,0,1,7.38,3.35H78.88Z"/><path class="cls-5" d="M78.88,60.57V90.13h2.47A46.31,46.31,0,0,1,74,93.4a51.38,51.38,0,0,1-33.5-.11A46.31,46.31,0,0,1,33.23,90h3.06V30.72H33.43a46.31,46.31,0,0,1,7.32-3.27,51.38,51.38,0,0,1,33.5.11,46.31,46.31,0,0,1,7.3,3.32H78.88Z"/><path class="cls-5" d="M78.88,60.57V89.82H81.1a45.82,45.82,0,0,1-7.24,3.23,50.83,50.83,0,0,1-33.15-.11,45.82,45.82,0,0,1-7.22-3.28h2.8V31h-2.6a45.82,45.82,0,0,1,7.24-3.23,50.83,50.83,0,0,1,33.15.11,45.81,45.81,0,0,1,7.22,3.28H78.88Z"/><path class="cls-5" d="M78.88,60.57V89.5h2a45.33,45.33,0,0,1-7.17,3.2,50.29,50.29,0,0,1-32.79-.11,45.33,45.33,0,0,1-7.14-3.25h2.54v-58H33.94a45.33,45.33,0,0,1,7.17-3.2,50.29,50.29,0,0,1,32.79.11A45.33,45.33,0,0,1,81,31.51H78.88Z"/><path class="cls-5" d="M78.88,60.57V89.19h1.71a44.83,44.83,0,0,1-7.09,3.17,49.74,49.74,0,0,1-32.44-.11A44.84,44.84,0,0,1,34,89h2.29V31.66h-2.1a44.83,44.83,0,0,1,7.09-3.17,49.74,49.74,0,0,1,32.44.11,44.84,44.84,0,0,1,7.07,3.21h-1.9Z"/><path class="cls-5" d="M78.88,60.56V88.87h1.45a44.34,44.34,0,0,1-7,3.13,49.2,49.2,0,0,1-32.08-.11,44.35,44.35,0,0,1-7-3.18h2V32h-1.8a44.35,44.35,0,0,1,7-3.13A49.2,49.2,0,0,1,73.54,29a44.34,44.34,0,0,1,7,3.18H78.88Z"/><path class="cls-5" d="M78.88,60.56v28h1.2a43.85,43.85,0,0,1-6.93,3.1,48.65,48.65,0,0,1-31.72-.11,43.85,43.85,0,0,1-6.91-3.14h1.77V32.29H34.7a43.85,43.85,0,0,1,6.93-3.1,48.65,48.65,0,0,1,31.72.11,43.85,43.85,0,0,1,6.91,3.14H78.88Z"/><path class="cls-5" d="M78.88,60.56V88.24h.94A43.36,43.36,0,0,1,73,91.3a48.1,48.1,0,0,1-31.37-.11,43.36,43.36,0,0,1-6.83-3.11h1.52V32.61H35a43.36,43.36,0,0,1,6.86-3.06,48.1,48.1,0,0,1,31.37.11A43.36,43.36,0,0,1,80,32.76H78.88Z"/><path class="cls-5" d="M78.88,60.56V87.92h.69a42.87,42.87,0,0,1-6.78,3,47.56,47.56,0,0,1-31-.11,42.86,42.86,0,0,1-6.79-3h1.26V32.92h-1a42.87,42.87,0,0,1,6.78-3A47.56,47.56,0,0,1,73,30a42.87,42.87,0,0,1,6.76,3.07h-.88Z"/><path class="cls-5" d="M78.88,60.56v27h.44a42.38,42.38,0,0,1-6.7,3A47,47,0,0,1,42,90.5a42.38,42.38,0,0,1-6.68-3h1V33.24H35.5a42.38,42.38,0,0,1,6.7-3,47,47,0,0,1,30.66.1,42.37,42.37,0,0,1,6.68,3h-.62Z"/><path class="cls-5" d="M78.88,60.56V87.29h.18a41.88,41.88,0,0,1-6.62,3,46.47,46.47,0,0,1-30.3-.1,41.88,41.88,0,0,1-6.6-3h.75V33.56h-.57a41.88,41.88,0,0,1,6.62-3,46.47,46.47,0,0,1,30.3.1,41.88,41.88,0,0,1,6.6,3h-.36Z"/><path class="cls-5" d="M78.88,60.56V85.15h2.89a28.35,28.35,0,0,1-3,1.83,41.39,41.39,0,0,1-6.54,2.92,45.92,45.92,0,0,1-29.94-.1,41.39,41.39,0,0,1-6.52-3h.49v-53H36a41.39,41.39,0,0,1,6.54-2.92,45.92,45.92,0,0,1,29.94.1A41.39,41.39,0,0,1,79,34h-.11Z"/><path class="cls-5" d="M78.88,60.55v24.3h2.6a27.05,27.05,0,0,1-2.93,1.81,40.9,40.9,0,0,1-6.47,2.89,45.37,45.37,0,0,1-29.59-.1A40.9,40.9,0,0,1,36,86.52h.23V34.19h-.06A40.9,40.9,0,0,1,42.7,31.3a45.37,45.37,0,0,1,29.59.1,40.9,40.9,0,0,1,6.45,2.93q1.51.86,2.92,1.83H78.88Z"/><path class="cls-5" d="M78.88,60.55v24H81.2q-1.39.95-2.9,1.78a40.41,40.41,0,0,1-6.39,2.85,44.83,44.83,0,0,1-29.23-.1,40.41,40.41,0,0,1-6.37-2.9q-1.5-.85-2.88-1.8h2.86V36.29h-2.7q1.39-1,2.9-1.78a40.4,40.4,0,0,1,6.39-2.85,44.83,44.83,0,0,1,29.23.1,40.4,40.4,0,0,1,6.37,2.9q1.5.85,2.88,1.8H78.88Z"/><path class="cls-5" d="M78.88,60.55V84.27h2A27.67,27.67,0,0,1,78,86a39.91,39.91,0,0,1-6.31,2.82,44.28,44.28,0,0,1-28.88-.1,39.92,39.92,0,0,1-6.29-2.86Q35,85,33.67,84.08h2.57V36.58H33.88q1.38-.94,2.86-1.76A39.91,39.91,0,0,1,43,32a44.28,44.28,0,0,1,28.88.1A39.91,39.91,0,0,1,78.22,35q1.48.84,2.85,1.78H78.88Z"/><path class="cls-5" d="M78.88,60.55V84h1.73q-1.36.93-2.83,1.74a39.42,39.42,0,0,1-6.23,2.78A43.74,43.74,0,0,1,43,88.4a39.42,39.42,0,0,1-6.21-2.83q-1.46-.82-2.81-1.76h2.28V36.88H34.17Q35.53,36,37,35.13a39.43,39.43,0,0,1,6.23-2.78,43.74,43.74,0,0,1,28.52.1A39.42,39.42,0,0,1,78,35.27q1.46.82,2.81,1.76H78.88Z"/><path class="cls-5" d="M78.88,60.55V83.68h1.44q-1.34.91-2.79,1.72a38.92,38.92,0,0,1-6.15,2.75,43.19,43.19,0,0,1-28.16-.1,38.93,38.93,0,0,1-6.14-2.79q-1.44-.81-2.78-1.74h2V37.17H34.46q1.34-.91,2.79-1.72A38.93,38.93,0,0,1,43.4,32.7a43.19,43.19,0,0,1,28.16.1,38.93,38.93,0,0,1,6.14,2.79q1.44.81,2.78,1.74h-1.6Z"/><path class="cls-5" d="M78.88,60.55V83.39H80q-1.33.9-2.76,1.7a38.44,38.44,0,0,1-6.08,2.71,42.64,42.64,0,0,1-27.76-.1,38.44,38.44,0,0,1-6.06-2.75q-1.42-.8-2.74-1.72h1.69V37.46H34.75q1.33-.9,2.76-1.7A38.44,38.44,0,0,1,43.59,33a42.64,42.64,0,0,1,27.81.09,38.44,38.44,0,0,1,6.06,2.75q1.42.8,2.74,1.72H78.88Z"/><path class="cls-5" d="M78.88,60.54V81.21h3.37a39.07,39.07,0,0,1-25,8.49,41.44,41.44,0,0,1-13.72-2.35,38,38,0,0,1-6-2.72q-1.4-.79-2.71-1.69h1.4V37.76H35q1.31-.89,2.72-1.68a38,38,0,0,1,6-2.68,42.1,42.1,0,0,1,27.45.09,38,38,0,0,1,6,2.72q1.4.79,2.71,1.69h-1Z"/><path class="cls-5" d="M78.88,60.54v20.4h3.05A38.56,38.56,0,0,1,57.3,89.32,40.9,40.9,0,0,1,43.75,87a37.45,37.45,0,0,1-5.9-2.68q-1.39-.78-2.67-1.67h1.11V39.91H32.85a38.56,38.56,0,0,1,24.64-8.38,38.56,38.56,0,0,1,24.58,8.55H78.88Z"/><path class="cls-5" d="M78.88,60.54V80.67h2.73A38.06,38.06,0,0,1,57.3,88.94,38.06,38.06,0,0,1,33,80.51h3.25V40.18H33.17a38.06,38.06,0,0,1,24.32-8.27,38.06,38.06,0,0,1,24.26,8.43H78.88Z"/><path class="cls-5" d="M78.88,60.54V80.4h2.41a37.55,37.55,0,0,1-24,8.16,37.55,37.55,0,0,1-23.94-8.32h2.93V40.45H33.5a37.55,37.55,0,0,1,24-8.16,37.55,37.55,0,0,1,23.94,8.32H78.88Z"/><path class="cls-5" d="M78.88,60.54V80.13H81a37,37,0,0,1-23.67,8A37,37,0,0,1,33.68,80h2.6V40.72H33.82a37,37,0,0,1,23.67-8A37,37,0,0,1,81.1,40.88H78.88Z"/><path class="cls-5" d="M78.88,60.54V79.86h1.76A36.54,36.54,0,0,1,57.3,87.8,36.54,36.54,0,0,1,34,79.7h2.28V41H34.14a36.54,36.54,0,0,1,23.35-8,36.54,36.54,0,0,1,23.29,8.1h-1.9Z"/><path class="cls-5" d="M78.88,60.54v19h1.44a36,36,0,0,1-23,7.83,36,36,0,0,1-23-8h2V41.26H34.46a36,36,0,0,1,23-7.83,36,36,0,0,1,23,8H78.88Z"/><path class="cls-5" d="M78.88,60.53V79.32H80A35.52,35.52,0,0,1,57.3,87a35.52,35.52,0,0,1-22.65-7.87h1.63V41.53h-1.5a35.52,35.52,0,0,1,22.7-7.72,35.52,35.52,0,0,1,22.65,7.87H78.88Z"/><path class="cls-5" d="M78.88,60.53V79.05h.8A35,35,0,0,1,57.3,86.66,35,35,0,0,1,35,78.9h1.31V41.79h-1.2a35,35,0,0,1,22.38-7.61,35,35,0,0,1,22.32,7.76h-.92Z"/><path class="cls-5" d="M78.88,60.53V78.78h.47a34.51,34.51,0,0,1-22,7.5,34.51,34.51,0,0,1-22-7.65h1V42.06h-.86a34.51,34.51,0,0,1,22-7.5,34.51,34.51,0,0,1,22,7.65h-.6Z"/><path class="cls-5" d="M78.88,60.53v18H79A34,34,0,0,1,57.31,85.9a34,34,0,0,1-21.68-7.54h.66v-36h-.54A34,34,0,0,1,57.48,35a34,34,0,0,1,21.68,7.54h-.27Z"/><path class="cls-5" d="M78.88,60.53V76.47h1.79a23.47,23.47,0,0,1-2,1.78,33.5,33.5,0,0,1-21.4,7.28A33.5,33.5,0,0,1,36,78.1h.33V42.6h-.21a33.5,33.5,0,0,1,21.4-7.28,33.5,33.5,0,0,1,21.35,7.42q1,.86,1.95,1.79H78.88Z"/><path class="cls-5" d="M78.88,60.53v13.8H82A26.53,26.53,0,0,1,78.39,78a33,33,0,0,1-21.08,7.17,33,33,0,0,1-21-7.31h0V44.62H34.47q.91-.91,1.93-1.75A33,33,0,0,1,57.48,35.7a33,33,0,0,1,21,7.31,26.53,26.53,0,0,1,3.62,3.67H78.88Z"/><path class="cls-5" d="M78.88,60.52v13.6h2.78a26.12,26.12,0,0,1-3.59,3.59,32.48,32.48,0,0,1-20.76,7.06,32.48,32.48,0,0,1-20.71-7.2A26.12,26.12,0,0,1,33,74h3.25V46.73H33.13a26.12,26.12,0,0,1,3.59-3.59,32.48,32.48,0,0,1,20.76-7.06,32.48,32.48,0,0,1,20.71,7.2,26.12,26.12,0,0,1,3.57,3.61H78.88Z"/><path class="cls-5" d="M78.88,60.52V73.9h2.4a25.71,25.71,0,0,1-3.54,3.53,32,32,0,0,1-20.43,6.95A32,32,0,0,1,36.93,77.3a25.71,25.71,0,0,1-3.51-3.56h2.87V47H33.51A25.71,25.71,0,0,1,37,43.41a32,32,0,0,1,20.43-7,32,32,0,0,1,20.39,7.09,25.71,25.71,0,0,1,3.51,3.56H78.88Z"/><path class="cls-5" d="M78.88,60.52V73.69h2a25.31,25.31,0,0,1-3.48,3.48A31.47,31.47,0,0,1,57.31,84a31.47,31.47,0,0,1-20.06-7,25.3,25.3,0,0,1-3.46-3.5h2.49V47.16h-2.4a25.3,25.3,0,0,1,3.48-3.48,31.47,31.47,0,0,1,20.11-6.84,31.47,31.47,0,0,1,20.06,7A25.31,25.31,0,0,1,81,47.32H78.88Z"/><path class="cls-5" d="M78.88,60.52v13h1.64A24.89,24.89,0,0,1,77.1,76.9a31,31,0,0,1-19.79,6.73,31,31,0,0,1-19.74-6.86,24.9,24.9,0,0,1-3.4-3.45h2.11v-26h-2A24.9,24.9,0,0,1,37.69,44a31,31,0,0,1,19.79-6.73,31,31,0,0,1,19.74,6.86,24.89,24.89,0,0,1,3.4,3.45H78.88Z"/><path class="cls-5" d="M78.88,60.52V73.26h1.26a24.49,24.49,0,0,1-3.37,3.37,30.46,30.46,0,0,1-19.46,6.62A30.46,30.46,0,0,1,37.9,76.5a24.49,24.49,0,0,1-3.35-3.39h1.73V47.59H34.64A24.49,24.49,0,0,1,38,44.22,30.46,30.46,0,0,1,57.47,37.6a30.46,30.46,0,0,1,19.42,6.75,24.49,24.49,0,0,1,3.35,3.39H78.88Z"/><path class="cls-5" d="M78.88,60.52v8.73h3.39a22.76,22.76,0,0,1-5.82,7.11,30,30,0,0,1-19.14,6.51,30,30,0,0,1-19.09-6.64,24.08,24.08,0,0,1-3.29-3.33h1.35V47.8H35a24.08,24.08,0,0,1,3.31-3.31A30,30,0,0,1,57.47,38a30,30,0,0,1,19.09,6.64,22.76,22.76,0,0,1,5.77,7.15H78.88Z"/><path class="cls-5" d="M78.88,60.51V69.1h3a22.38,22.38,0,0,1-5.72,7,29.44,29.44,0,0,1-18.81,6.4A29.44,29.44,0,0,1,38.55,76a22.38,22.38,0,0,1-5.67-7h3.41V51.75H32.94a22.38,22.38,0,0,1,5.72-7,29.44,29.44,0,0,1,18.81-6.4,29.44,29.44,0,0,1,18.77,6.53,22.38,22.38,0,0,1,5.67,7h-3Z"/><path class="cls-5" d="M78.88,60.51v8.43h2.55a22,22,0,0,1-5.62,6.87A28.94,28.94,0,0,1,57.32,82.1a28.94,28.94,0,0,1-18.45-6.41,22,22,0,0,1-5.57-6.91h3V51.9H33.36A22,22,0,0,1,39,45a28.94,28.94,0,0,1,18.49-6.29,28.94,28.94,0,0,1,18.45,6.41A22,22,0,0,1,81.51,52h-2.6Z"/><path class="cls-5" d="M78.88,60.51V68.8H81a21.61,21.61,0,0,1-5.52,6.75,28.43,28.43,0,0,1-18.17,6.18,28.43,28.43,0,0,1-18.12-6.3,21.61,21.61,0,0,1-5.48-6.79h2.57V52h-2.5A21.61,21.61,0,0,1,39.3,45.3a28.43,28.43,0,0,1,18.17-6.18,28.43,28.43,0,0,1,18.12,6.3,21.61,21.61,0,0,1,5.48,6.79H78.88Z"/><path class="cls-5" d="M78.88,60.51v8.14h1.71a21.22,21.22,0,0,1-5.42,6.63,27.92,27.92,0,0,1-17.84,6.07,27.92,27.92,0,0,1-17.8-6.19,21.22,21.22,0,0,1-5.38-6.67H36.3V52.2H34.2a21.22,21.22,0,0,1,5.42-6.63A27.92,27.92,0,0,1,57.46,39.5a27.92,27.92,0,0,1,17.8,6.19,21.22,21.22,0,0,1,5.38,6.67H78.88Z"/><path class="cls-5" d="M82.14,60.51C82.1,71.86,71,81,57.32,81a27.42,27.42,0,0,1-17.48-6.08,20.84,20.84,0,0,1-5.28-6.55h1.72v-16H34.62a20.84,20.84,0,0,1,5.33-6.51,27.42,27.42,0,0,1,17.52-6C71.13,39.93,82.18,49.16,82.14,60.51Z"/><ellipse class="cls-5" cx="57.38" cy="60.42" rx="20.17" ry="24.29" transform="translate(-3.23 117.6) rotate(-89.81)"/><ellipse class="cls-5" cx="57.38" cy="60.42" rx="19.79" ry="23.83" transform="translate(-3.23 117.6) rotate(-89.81)"/><ellipse class="cls-5" cx="57.38" cy="60.42" rx="19.41" ry="23.38" transform="translate(-3.23 117.6) rotate(-89.81)"/><ellipse class="cls-5" cx="57.38" cy="60.42" rx="19.03" ry="22.92" transform="translate(-3.23 117.6) rotate(-89.81)"/><ellipse class="cls-5" cx="57.38" cy="60.42" rx="18.65" ry="22.46" transform="translate(-3.23 117.6) rotate(-89.81)"/><ellipse class="cls-5" cx="57.38" cy="60.42" rx="18.27" ry="22" transform="translate(-3.23 117.6) rotate(-89.81)"/><ellipse class="cls-5" cx="57.38" cy="60.42" rx="17.89" ry="21.55" transform="translate(-3.23 117.6) rotate(-89.81)"/><ellipse class="cls-5" cx="57.38" cy="60.42" rx="17.51" ry="21.09" transform="translate(-3.23 117.6) rotate(-89.81)"/><ellipse class="cls-5" cx="57.38" cy="60.42" rx="17.13" ry="20.63" transform="translate(-3.23 117.6) rotate(-89.81)"/><ellipse class="cls-5" cx="57.38" cy="60.42" rx="16.75" ry="20.17" transform="translate(-3.23 117.6) rotate(-89.81)"/><ellipse class="cls-5" cx="57.38" cy="60.42" rx="16.37" ry="19.72" transform="translate(-3.23 117.6) rotate(-89.81)"/><ellipse class="cls-5" cx="57.38" cy="60.42" rx="15.99" ry="19.26" transform="translate(-3.23 117.6) rotate(-89.81)"/></g></g><polygon id="_Path_5" data-name=" Path 5" class="cls-7" points="78.39 27.63 109.85 61.16 104.11 106.78 120 57.86 78.39 27.63"/></g></g></g><g id="Layer_1-2" data-name="Layer 1"><g class="cls-8"><text class="cls-9" transform="translate(202.33 65.98)">BROWSE</text><text class="cls-10" transform="translate(386.71 65.98)"> </text><text class="cls-11" transform="translate(202.33 103.23)">ALCHEMIST PROJECT BIDS</text></g></g></svg>