<?xml version="1.0" encoding="iso-8859-1"?>
<!-- Generator: Adobe Illustrator 19.0.0, SVG Export Plug-In . SVG Version: 6.00 Build 0)  -->
<svg xmlns="http://www.w3.org/2000/svg" xmlns:xlink="http://www.w3.org/1999/xlink" version="1.1" id="Capa_1" x="0px" y="0px" viewBox="0 0 512 512" style="enable-background:new 0 0 512 512;" xml:space="preserve" width="512px" height="512px">
<g>
	<g>
		<rect x="117.333" y="64" width="106.667" height="21.333" fill="#9a9fbf"/>
	</g>
</g>
<g>
	<g>
		<rect x="117.333" y="106.667" width="21.333" height="21.333" fill="#9a9fbf"/>
	</g>
</g>
<g>
	<g>
		<rect x="160" y="106.667" width="21.333" height="21.333" fill="#9a9fbf"/>
	</g>
</g>
<g>
	<g>
		<path d="M455.541,88.459L370.208,3.125c-2-2-4.713-3.125-7.541-3.125H85.333c-17.673,0-32,14.327-32,32v448    c0,17.673,14.327,32,32,32h341.333c17.673,0,32-14.327,32-32V96C458.666,93.171,457.542,90.459,455.541,88.459z M437.333,480    c0,5.891-4.776,10.667-10.667,10.667H85.333c-5.891,0-10.667-4.776-10.667-10.667V32c0-5.891,4.776-10.667,10.667-10.667    l272.917,0l79.083,79.083V480z" fill="#9a9fbf"/>
	</g>
</g>
<g>
	<g>
		<path d="M384,85.333c-5.891,0-10.667-4.776-10.667-10.667v-64H352v64c0,17.673,14.327,32,32,32h21.333V85.333H384z" fill="#9a9fbf"/>
	</g>
</g>
<g>
	<g>
		<path d="M309.333,170.667c-53.019,0-96,42.981-96,96c0,53.019,42.981,96,96,96c52.995-0.059,95.941-43.005,96-96    C405.333,213.647,362.353,170.667,309.333,170.667z M309.333,341.333c-41.237,0-74.667-33.429-74.667-74.667    c0-41.237,33.429-74.667,74.667-74.667c41.215,0.053,74.614,33.451,74.667,74.667C384,307.904,350.571,341.333,309.333,341.333z" fill="#9a9fbf"/>
	</g>
</g>
<g>
	<g>
		<path d="M352,330.667v95.136l-36-28.8c-3.897-3.12-9.436-3.12-13.333,0l-36,28.8v-95.136h-21.333V448    c0.002,2.421,0.827,4.77,2.34,6.66c3.682,4.599,10.395,5.342,14.993,1.66l46.667-37.333L356,456.331    c1.892,1.513,4.244,2.337,6.667,2.336c5.891,0,10.667-4.776,10.667-10.667V330.667H352z" fill="#9a9fbf"/>
	</g>
</g>
<g>
	<g>
		<path d="M309.333,213.333c-29.455,0-53.333,23.878-53.333,53.333C256,296.122,279.878,320,309.333,320    c29.441-0.035,53.298-23.893,53.333-53.333C362.667,237.211,338.788,213.333,309.333,213.333z M309.333,298.667    c-17.673,0-32-14.327-32-32c0-17.673,14.327-32,32-32c17.673,0,32,14.327,32,32C341.333,284.34,327.006,298.667,309.333,298.667z" fill="#9a9fbf"/>
	</g>
</g>
<g>
	<g>
		<path d="M213.333,192v-21.333H128c-5.891,0-10.667,4.776-10.667,10.667V288c0,5.891,4.776,10.667,10.667,10.667h53.333v-21.333    h-42.667V192H213.333z" fill="#9a9fbf"/>
	</g>
</g>
<g>
	<g>
		<rect x="117.333" y="330.667" width="21.333" height="21.333" fill="#9a9fbf"/>
	</g>
</g>
<g>
	<g>
		<rect x="160" y="330.667" width="42.667" height="21.333" fill="#9a9fbf"/>
	</g>
</g>
<g>
	<g>
		<rect x="117.333" y="373.333" width="96" height="21.333" fill="#9a9fbf"/>
	</g>
</g>
<g>
	<g>
		<rect x="117.333" y="416" width="96" height="21.333" fill="#9a9fbf"/>
	</g>
</g>
<g>
</g>
<g>
</g>
<g>
</g>
<g>
</g>
<g>
</g>
<g>
</g>
<g>
</g>
<g>
</g>
<g>
</g>
<g>
</g>
<g>
</g>
<g>
</g>
<g>
</g>
<g>
</g>
<g>
</g>
</svg>
