<svg height="512pt" viewBox="0 0 512 512" width="512pt" xmlns="http://www.w3.org/2000/svg" xmlns:xlink="http://www.w3.org/1999/xlink"><linearGradient id="a" gradientUnits="userSpaceOnUse" x1="74.9807" x2="437.0193" y1="74.9807" y2="437.0193"><stop offset="0" stop-color="#ffdf5e"/><stop offset="1" stop-color="#ffcd00"/></linearGradient><linearGradient id="b" gradientUnits="userSpaceOnUse" x1="129.3974" x2="382.6026" y1="129.3974" y2="382.6026"><stop offset="0" stop-color="#337aad"/><stop offset="1" stop-color="#1a405e"/></linearGradient><linearGradient id="c"><stop offset="0" stop-color="#7de1fa"/><stop offset="1" stop-color="#54a0c8"/></linearGradient><linearGradient id="d" gradientUnits="userSpaceOnUse" x1="143.6757" x2="180.9103" xlink:href="#c" y1="180.9101" y2="218.1446"/><linearGradient id="e" gradientUnits="userSpaceOnUse" x1="237.3827" x2="274.6173" xlink:href="#c" y1="180.9101" y2="218.1446"/><linearGradient id="f" gradientUnits="userSpaceOnUse" x1="331.0898" x2="368.3243" xlink:href="#c" y1="180.9101" y2="218.1446"/><linearGradient id="g" gradientUnits="userSpaceOnUse" x1="242.3375" x2="308.1525" y1="260.9474" y2="326.7624"><stop offset="0" stop-color="#ff7a78"/><stop offset="1" stop-color="#ff5552"/></linearGradient><linearGradient id="h" gradientUnits="userSpaceOnUse" x1="298.1787" x2="364.0008" y1="260.9441" y2="326.7662"><stop offset="0" stop-color="#ffeea6"/><stop offset="1" stop-color="#ffcd00"/></linearGradient><path d="m512 256c0 141.386719-114.613281 256-256 256s-256-114.613281-256-256 114.613281-256 256-256 256 114.613281 256 256zm0 0" fill="url(#a)"/><path d="m368.324219 134.367188h-224.648438c-25.664062 0-46.542969 20.878906-46.542969 46.542968v150.179688c0 25.664062 20.878907 46.542968 46.542969 46.542968h224.648438c25.664062 0 46.542969-20.878906 46.542969-46.542968v-150.179688c0-25.664062-20.878907-46.542968-46.542969-46.542968zm0 0" fill="url(#b)"/><path d="m134.367188 190.21875h55.851562v18.617188h-55.851562zm0 0" fill="url(#d)"/><path d="m228.074219 190.21875v18.617188h55.851562v-18.617188zm0 0" fill="url(#e)"/><path d="m321.78125 190.21875h55.851562v18.617188h-55.851562zm0 0" fill="url(#f)"/><path d="m275.238281 247.3125c-6.863281 0-13.375 1.496094-19.238281 4.164062-16.101562 7.320313-27.304688 23.535157-27.304688 42.378907s11.203126 35.058593 27.304688 42.378906c5.863281 2.667969 12.375 4.164063 19.238281 4.164063 25.703125 0 46.542969-20.839844 46.542969-46.542969 0-25.707031-20.839844-46.542969-46.542969-46.542969zm0 0" fill="url(#g)"/><path d="m377.632812 293.855469c0 25.703125-20.835937 46.542969-46.542968 46.542969-25.703125 0-46.542969-20.839844-46.542969-46.542969 0-25.707031 20.839844-46.542969 46.542969-46.542969 25.707031 0 46.542968 20.835938 46.542968 46.542969zm0 0" fill="url(#h)"/></svg>