<svg xmlns="http://www.w3.org/2000/svg" xmlns:xlink="http://www.w3.org/1999/xlink" viewBox="0 0 407.39 407.39"><defs><style>.cls-1{isolation:isolate;}.cls-2{fill:none;}.cls-3{fill:url(#linear-gradient);}.cls-4{opacity:0.4;mix-blend-mode:multiply;}.cls-36,.cls-5{fill:#fff;}.cls-5{opacity:0;}.cls-6{fill:#f5f5f5;opacity:0.04;}.cls-7{fill:#ebebeb;opacity:0.08;}.cls-8{fill:#e2e2e2;opacity:0.12;}.cls-9{fill:#d8d8d8;opacity:0.15;}.cls-10{fill:#cecece;opacity:0.19;}.cls-11{fill:#c4c4c4;opacity:0.23;}.cls-12{fill:#bababa;opacity:0.27;}.cls-13{fill:#b1b1b1;opacity:0.31;}.cls-14{fill:#a7a7a7;opacity:0.35;}.cls-15{fill:#9d9d9d;opacity:0.38;}.cls-16{fill:#939393;opacity:0.42;}.cls-17{fill:#898989;opacity:0.46;}.cls-18{fill:gray;opacity:0.5;}.cls-19{fill:#767676;opacity:0.54;}.cls-20{fill:#6c6c6c;opacity:0.58;}.cls-21{fill:#626262;opacity:0.62;}.cls-22{fill:#585858;opacity:0.65;}.cls-23{fill:#4e4e4e;opacity:0.69;}.cls-24{fill:#454545;opacity:0.73;}.cls-25{fill:#3b3b3b;opacity:0.77;}.cls-26{fill:#313131;opacity:0.81;}.cls-27{fill:#272727;opacity:0.85;}.cls-28{fill:#1d1d1d;opacity:0.88;}.cls-29{fill:#141414;opacity:0.92;}.cls-30{fill:#0a0a0a;opacity:0.96;}.cls-31{fill:url(#linear-gradient-2);}.cls-32{fill:url(#linear-gradient-3);}.cls-33{fill:url(#linear-gradient-4);}.cls-34{fill:url(#linear-gradient-5);}.cls-35{fill:#e2ed7a;}.cls-37{fill:#62c765;}.cls-38{fill:#8cc63f;}.cls-39{fill:#55b034;}.cls-40{fill:#dc4b7f;}.cls-41{fill:#269468;}.cls-42{fill:#c2e070;}</style><linearGradient id="linear-gradient" x1="302.12" y1="332.57" x2="74.6" y2="34.66" gradientUnits="userSpaceOnUse"><stop offset="0" stop-color="gray"/><stop offset="0.2" stop-color="#a6a6a6"/><stop offset="0.43" stop-color="#c9c9c9"/><stop offset="0.65" stop-color="#e2e2e2"/><stop offset="0.84" stop-color="#f2f2f2"/><stop offset="1" stop-color="#f7f7f7"/></linearGradient><linearGradient id="linear-gradient-2" x1="326" y1="349.57" x2="76.55" y2="44.83" gradientUnits="userSpaceOnUse"><stop offset="0" stop-color="#999"/><stop offset="0.13" stop-color="#adadad"/><stop offset="0.34" stop-color="#c8c8c8"/><stop offset="0.55" stop-color="#dcdcdc"/><stop offset="0.77" stop-color="#e7e7e7"/><stop offset="1" stop-color="#ebebeb"/></linearGradient><linearGradient id="linear-gradient-3" x1="364.58" y1="394.09" x2="159.77" y2="194.2" gradientTransform="translate(471.34 499.96) rotate(180)" gradientUnits="userSpaceOnUse"><stop offset="0" stop-color="#fff"/><stop offset="0.99" stop-color="#999"/></linearGradient><linearGradient id="linear-gradient-4" x1="344.51" y1="404.96" x2="183.13" y2="184.6" gradientTransform="translate(471.34 499.96) rotate(180)" gradientUnits="userSpaceOnUse"><stop offset="0" stop-color="#ccc"/><stop offset="1" stop-color="#e6e6e6"/></linearGradient><linearGradient id="linear-gradient-5" x1="141.57" y1="101.33" x2="278.58" y2="318.22" gradientTransform="matrix(1, 0, 0, 1, 0, 0)" xlink:href="#linear-gradient-3"/></defs><title>Diamond-Green</title><g class="cls-1"><g id="Layer_1" data-name="Layer 1"><polygon class="cls-2" points="122.16 371.43 122.16 371.9 122.63 371.9 122.16 371.43"/><circle class="cls-3" cx="203.69" cy="203.69" r="203.69"/><g class="cls-4"><circle class="cls-5" cx="206.56" cy="205.94" r="175.79" transform="translate(-2.96 410.51) rotate(-89.45)"/><circle class="cls-6" cx="206.56" cy="205.94" r="175.06" transform="translate(-2.96 410.51) rotate(-89.45)"/><circle class="cls-7" cx="206.56" cy="205.94" r="174.33" transform="translate(-2.96 410.51) rotate(-89.45)"/><circle class="cls-8" cx="206.56" cy="205.94" r="173.6" transform="translate(-2.96 410.51) rotate(-89.45)"/><circle class="cls-9" cx="206.56" cy="205.94" r="172.88" transform="translate(-2.96 410.51) rotate(-89.45)"/><circle class="cls-10" cx="206.56" cy="205.94" r="172.15" transform="translate(-2.96 410.51) rotate(-89.45)"/><circle class="cls-11" cx="206.56" cy="205.94" r="171.42" transform="translate(-2.96 410.51) rotate(-89.45)"/><circle class="cls-12" cx="206.56" cy="205.94" r="170.69" transform="translate(-2.96 410.51) rotate(-89.45)"/><circle class="cls-13" cx="206.56" cy="205.94" r="169.96" transform="translate(-2.96 410.51) rotate(-89.45)"/><circle class="cls-14" cx="206.56" cy="205.94" r="169.23" transform="translate(-2.96 410.51) rotate(-89.45)"/><circle class="cls-15" cx="206.56" cy="205.94" r="168.51" transform="translate(-2.96 410.51) rotate(-89.45)"/><circle class="cls-16" cx="206.56" cy="205.94" r="167.78" transform="translate(-2.96 410.51) rotate(-89.45)"/><circle class="cls-17" cx="206.56" cy="205.94" r="167.05" transform="translate(-2.96 410.51) rotate(-89.45)"/><circle class="cls-18" cx="206.56" cy="205.94" r="166.32" transform="translate(-2.96 410.51) rotate(-89.45)"/><circle class="cls-19" cx="206.56" cy="205.94" r="165.59" transform="translate(-2.96 410.51) rotate(-89.45)"/><circle class="cls-20" cx="206.56" cy="205.94" r="164.87" transform="translate(-2.96 410.51) rotate(-89.45)"/><circle class="cls-21" cx="206.56" cy="205.94" r="164.14" transform="translate(-2.96 410.51) rotate(-89.45)"/><circle class="cls-22" cx="206.56" cy="205.94" r="163.41" transform="translate(-2.96 410.51) rotate(-89.45)"/><circle class="cls-23" cx="206.56" cy="205.94" r="162.68" transform="translate(-2.96 410.51) rotate(-89.45)"/><circle class="cls-24" cx="206.56" cy="205.94" r="161.95" transform="translate(-2.96 410.51) rotate(-89.45)"/><circle class="cls-25" cx="206.56" cy="205.94" r="161.23" transform="translate(-2.96 410.51) rotate(-89.45)"/><circle class="cls-26" cx="206.56" cy="205.94" r="160.5" transform="translate(-2.96 410.51) rotate(-89.45)"/><circle class="cls-27" cx="206.56" cy="205.94" r="159.77" transform="translate(-2.96 410.51) rotate(-89.45)"/><circle class="cls-28" cx="206.56" cy="205.94" r="159.04" transform="translate(-2.96 410.51) rotate(-89.45)"/><circle class="cls-29" cx="206.56" cy="205.94" r="158.31" transform="translate(-2.96 410.51) rotate(-89.45)"/><circle class="cls-30" cx="206.56" cy="205.94" r="157.58" transform="translate(-2.96 410.51) rotate(-89.45)"/><circle cx="206.56" cy="205.94" r="156.86" transform="translate(-2.96 410.51) rotate(-89.45)"/></g><circle class="cls-31" cx="205.03" cy="201.78" r="164.66"/><circle class="cls-32" cx="205.03" cy="201.78" r="127.79"/><circle class="cls-33" cx="205.03" cy="201.78" r="124.72"/><circle class="cls-34" cx="205.03" cy="201.78" r="106.49"/><path class="cls-35" d="M264.24,155.38a11.91,11.91,0,0,0-9.76-6.1H160.19a11.91,11.91,0,0,0-9.76,6.1l-17.5,35.85a10.1,10.1,0,0,0,1.86,10.86l67.71,66.68a6.93,6.93,0,0,0,9.67,0l67.71-66.68a10.09,10.09,0,0,0,1.86-10.86Z" transform="translate(-1.61)"/><path class="cls-36" d="M246.87,167.18c-4.2-4-8.4-7.89-12.71-11.71l-.55-.48-68,49.14L176,218.42Z" transform="translate(-1.61)"/><path class="cls-36" d="M258.28,177.85c-1.56-1.43-3.11-2.88-4.66-4.33l-79.07,57.17,4,5.5,80.16-58Z" transform="translate(-1.61)"/><path class="cls-37" d="M282.1,198.26a9.86,9.86,0,0,0-.36-7l-17.5-35.85a11,11,0,0,0-4-4.24l-15.86,46Z" transform="translate(-1.61)"/><path class="cls-38" d="M170.29,197.11l37-47.82H160.19a11.23,11.23,0,0,0-6.05,2.07Z" transform="translate(-1.61)"/><path class="cls-39" d="M260.53,151.36a11.21,11.21,0,0,0-6.05-2.07H207.33l37,47.82Z" transform="translate(-1.61)"/><path class="cls-40" d="M154.33,151.21a11,11,0,0,0-3.91,4.17l-17.5,35.85a9.64,9.64,0,0,0-.57,6.16l38.4,1Z" transform="translate(-1.61)"/><path class="cls-41" d="M154.33,151.21a11,11,0,0,0-3.91,4.17l-17.5,35.85a9.64,9.64,0,0,0-.57,6.16l38.4,1Z" transform="translate(-1.61)"/><path class="cls-39" d="M134.79,202.09l67.71,66.68a6.84,6.84,0,0,0,3.4,1.8l-35.61-73.46h-38A9.47,9.47,0,0,0,134.79,202.09Z" transform="translate(-1.61)"/><path class="cls-40" d="M208.77,270.57a6.83,6.83,0,0,0,3.4-1.8l67.71-66.68a9.45,9.45,0,0,0,2.5-5h-38Z" transform="translate(-1.61)"/><path class="cls-38" d="M208.77,270.57a6.83,6.83,0,0,0,3.4-1.8l67.71-66.68a9.45,9.45,0,0,0,2.5-5h-38Z" transform="translate(-1.61)"/><path class="cls-42" d="M170.29,197.11l35.61,73.46a7.05,7.05,0,0,0,2.87,0l35.6-73.46Z" transform="translate(-1.61)"/><path class="cls-36" d="M172.81,175.59c-6.59,2.14-8.32,3.87-10.45,10.46-2.14-6.59-3.87-8.32-10.46-10.46,6.59-2.14,8.32-3.86,10.46-10.45C164.49,171.74,166.22,173.46,172.81,175.59Z" transform="translate(-1.61)"/><path class="cls-36" d="M190.73,160.66c-3.58,1.16-4.52,2.1-5.68,5.68-1.16-3.57-2.1-4.51-5.68-5.67,3.58-1.16,4.52-2.1,5.68-5.68C186.21,158.57,187.15,159.5,190.73,160.66Z" transform="translate(-1.61)"/><path class="cls-36" d="M193.43,226.84c-3.58,1.16-4.52,2.1-5.68,5.68-1.16-3.57-2.1-4.52-5.68-5.68,3.58-1.16,4.52-2.1,5.68-5.67C188.91,224.75,189.85,225.69,193.43,226.84Z" transform="translate(-1.61)"/></g></g></svg>