<?xml version="1.0" encoding="utf-8"?>
<!-- Generator: Adobe Illustrator 21.1.0, SVG Export Plug-In . SVG Version: 6.00 Build 0)  -->
<svg version="1.1" id="Layer_1" xmlns="http://www.w3.org/2000/svg" xmlns:xlink="http://www.w3.org/1999/xlink" x="0px" y="0px"
	 viewBox="0 0 407.4 407.4" style="enable-background:new 0 0 407.4 407.4;" xml:space="preserve">
<style type="text/css">
	.st0{fill:url(#SVGID_1_);}
	.st1{fill:none;}
	.st2{opacity:0.4;}
	.st3{opacity:0;fill:#FFFFFF;}
	.st4{opacity:3.846154e-02;fill:#F5F5F5;}
	.st5{opacity:7.692308e-02;fill:#EBEBEB;}
	.st6{opacity:0.1154;fill:#E2E2E2;}
	.st7{opacity:0.1538;fill:#D8D8D8;}
	.st8{opacity:0.1923;fill:#CECECE;}
	.st9{opacity:0.2308;fill:#C4C4C4;}
	.st10{opacity:0.2692;fill:#BABABA;}
	.st11{opacity:0.3077;fill:#B1B1B1;}
	.st12{opacity:0.3462;fill:#A7A7A7;}
	.st13{opacity:0.3846;fill:#9D9D9D;}
	.st14{opacity:0.4231;fill:#939393;}
	.st15{opacity:0.4615;fill:#898989;}
	.st16{opacity:0.5;fill:#808080;}
	.st17{opacity:0.5385;fill:#767676;}
	.st18{opacity:0.5769;fill:#6C6C6C;}
	.st19{opacity:0.6154;fill:#626262;}
	.st20{opacity:0.6538;fill:#585858;}
	.st21{opacity:0.6923;fill:#4E4E4E;}
	.st22{opacity:0.7308;fill:#454545;}
	.st23{opacity:0.7692;fill:#3B3B3B;}
	.st24{opacity:0.8077;fill:#313131;}
	.st25{opacity:0.8462;fill:#272727;}
	.st26{opacity:0.8846;fill:#1D1D1D;}
	.st27{opacity:0.9231;fill:#141414;}
	.st28{opacity:0.9615;fill:#0A0A0A;}
	.st29{fill:url(#SVGID_2_);}
	.st30{fill:url(#SVGID_3_);}
	.st31{fill:url(#SVGID_4_);}
	.st32{fill:url(#SVGID_5_);}
	.st33{fill:url(#SVGID_6_);}
	.st34{fill:url(#SVGID_7_);}
	.st35{fill:url(#SVGID_8_);}
	.st36{fill:url(#SVGID_9_);}
	.st37{fill:#C2E070;}
	.st38{fill:#269468;}
	.st39{fill:#8CC63F;}
	.st40{fill:#69C97D;}
	.st41{fill:#E2ED7A;}
	.st42{fill:#FFFFFF;}
</style>
<title>Diamond-Green</title>
<g>
	<linearGradient id="SVGID_1_" gradientUnits="userSpaceOnUse" x1="-400.4845" y1="167.4317" x2="-625.4713" y2="-127.151">
		<stop  offset="0" style="stop-color:#808080"/>
		<stop  offset="0.2041" style="stop-color:#A6A6A6"/>
		<stop  offset="0.4328" style="stop-color:#C9C9C9"/>
		<stop  offset="0.6485" style="stop-color:#E2E2E2"/>
		<stop  offset="0.8435" style="stop-color:#F2F2F2"/>
		<stop  offset="1" style="stop-color:#F7F7F7"/>
	</linearGradient>
	<circle class="st0" cx="-497.8" cy="40" r="201.4"/>
	<polygon class="st1" points="-57.5,205.9 -57.5,206.3 -57,206.3 	"/>
	<g class="st2">
		<circle class="st3" cx="-496.6" cy="42.2" r="173.8"/>
		<circle class="st4" cx="-496.6" cy="42.2" r="173.1"/>
		<circle class="st5" cx="-496.6" cy="42.2" r="172.4"/>
		<circle class="st6" cx="-496.6" cy="42.2" r="171.7"/>
		<circle class="st7" cx="-496.6" cy="42.2" r="170.9"/>
		<circle class="st8" cx="-496.6" cy="42.2" r="170.2"/>
		<circle class="st9" cx="-496.6" cy="42.2" r="169.5"/>
		<circle class="st10" cx="-496.6" cy="42.2" r="168.8"/>
		<circle class="st11" cx="-496.6" cy="42.2" r="168.1"/>
		<circle class="st12" cx="-496.6" cy="42.2" r="167.3"/>
		<circle class="st13" cx="-496.6" cy="42.2" r="166.6"/>
		<circle class="st14" cx="-496.6" cy="42.2" r="165.9"/>
		<circle class="st15" cx="-496.6" cy="42.2" r="165.2"/>
		<circle class="st16" cx="-496.6" cy="42.2" r="164.5"/>
		<circle class="st17" cx="-496.6" cy="42.2" r="163.7"/>
		<circle class="st18" cx="-496.6" cy="42.2" r="163"/>
		<circle class="st19" cx="-496.6" cy="42.2" r="162.3"/>
		<circle class="st20" cx="-496.6" cy="42.2" r="161.6"/>
		<circle class="st21" cx="-496.6" cy="42.2" r="160.9"/>
		<circle class="st22" cx="-496.6" cy="42.2" r="160.1"/>
		<circle class="st23" cx="-496.6" cy="42.2" r="159.4"/>
		<circle class="st24" cx="-496.6" cy="42.2" r="158.7"/>
		<circle class="st25" cx="-496.6" cy="42.2" r="158"/>
		<circle class="st26" cx="-496.6" cy="42.2" r="157.3"/>
		<circle class="st27" cx="-496.6" cy="42.2" r="156.5"/>
		<circle class="st28" cx="-496.6" cy="42.2" r="155.8"/>
		<circle cx="-496.6" cy="42.2" r="155.1"/>
	</g>
	<g>
		<g>
			<linearGradient id="SVGID_2_" gradientUnits="userSpaceOnUse" x1="-376.8716" y1="184.2478" x2="-623.5398" y2="-117.1004">
				<stop  offset="0" style="stop-color:#999999"/>
				<stop  offset="0.128" style="stop-color:#ADADAD"/>
				<stop  offset="0.3395" style="stop-color:#C8C8C8"/>
				<stop  offset="0.5545" style="stop-color:#DCDCDC"/>
				<stop  offset="0.7729" style="stop-color:#E7E7E7"/>
				<stop  offset="1" style="stop-color:#EBEBEB"/>
			</linearGradient>
			<circle class="st29" cx="-496.5" cy="38.1" r="162.8"/>
			
				<linearGradient id="SVGID_3_" gradientUnits="userSpaceOnUse" x1="784.6154" y1="340.6927" x2="582.0962" y2="143.0334" gradientTransform="matrix(-1 0 0 -1 190.9502 283.96)">
				<stop  offset="0" style="stop-color:#FFFFFF"/>
				<stop  offset="0.9879" style="stop-color:#999999"/>
			</linearGradient>
			<circle class="st30" cx="-496.5" cy="38.1" r="126.4"/>
			
				<linearGradient id="SVGID_4_" gradientUnits="userSpaceOnUse" x1="764.7753" y1="351.4505" x2="605.1915" y2="133.5402" gradientTransform="matrix(-1 0 0 -1 190.9473 283.96)">
				<stop  offset="0" style="stop-color:#CCCCCC"/>
				<stop  offset="1" style="stop-color:#E6E6E6"/>
			</linearGradient>
			<circle class="st31" cx="-496.5" cy="38.1" r="123.3"/>
			<linearGradient id="SVGID_5_" gradientUnits="userSpaceOnUse" x1="-559.2446" y1="-61.2238" x2="-423.7594" y2="153.2433">
				<stop  offset="0" style="stop-color:#FFFFFF"/>
				<stop  offset="0.9879" style="stop-color:#999999"/>
			</linearGradient>
			<circle class="st32" cx="-496.5" cy="38.1" r="105.3"/>
		</g>
	</g>
</g>
<g>
	
		<linearGradient id="SVGID_6_" gradientUnits="userSpaceOnUse" x1="302.167" y1="77.4495" x2="77.613" y2="371.4655" gradientTransform="matrix(1 0 0 -1 0 410)">
		<stop  offset="0" style="stop-color:#808080"/>
		<stop  offset="0.2041" style="stop-color:#A6A6A6"/>
		<stop  offset="0.4328" style="stop-color:#C9C9C9"/>
		<stop  offset="0.6485" style="stop-color:#E2E2E2"/>
		<stop  offset="0.8435" style="stop-color:#F2F2F2"/>
		<stop  offset="1" style="stop-color:#F7F7F7"/>
	</linearGradient>
	<circle class="st33" cx="205" cy="205.3" r="201"/>
	<polygon class="st1" points="644.5,370.9 644.5,371.3 645,371.3 	"/>
	<g>
		<g>
			
				<linearGradient id="SVGID_7_" gradientUnits="userSpaceOnUse" x1="348.7241" y1="30.8334" x2="54.6393" y2="390.1091" gradientTransform="matrix(1 0 0 -1 0 410)">
				<stop  offset="0" style="stop-color:#999999"/>
				<stop  offset="0.128" style="stop-color:#ADADAD"/>
				<stop  offset="0.3395" style="stop-color:#C8C8C8"/>
				<stop  offset="0.5545" style="stop-color:#DCDCDC"/>
				<stop  offset="0.7729" style="stop-color:#E7E7E7"/>
				<stop  offset="1" style="stop-color:#EBEBEB"/>
			</linearGradient>
			<circle class="st34" cx="206.1" cy="204.9" r="194.1"/>
			
				<linearGradient id="SVGID_8_" gradientUnits="userSpaceOnUse" x1="-1409.3076" y1="887.9043" x2="-1650.7568" y2="1123.5592" gradientTransform="matrix(-1 0 0 1 -1319.0498 -796.04)">
				<stop  offset="0" style="stop-color:#FFFFFF"/>
				<stop  offset="0.9879" style="stop-color:#999999"/>
			</linearGradient>
			<circle class="st35" cx="206.1" cy="204.9" r="150.7"/>
			
				<linearGradient id="SVGID_9_" gradientUnits="userSpaceOnUse" x1="-1432.959" y1="875.0767" x2="-1623.2192" y2="1134.8755" gradientTransform="matrix(-1 0 0 1 -1319.0527 -796.04)">
				<stop  offset="0" style="stop-color:#CCCCCC"/>
				<stop  offset="1" style="stop-color:#E6E6E6"/>
			</linearGradient>
			<ellipse class="st36" cx="206.1" cy="204.9" rx="147" ry="147"/>
		</g>
	</g>
</g>
<g>
	
		<image style="overflow:visible;opacity:0.58;" width="1008" height="1008" xlink:href="5CB4EB34.png"  transform="matrix(0.24 0 0 0.24 -334.8745 218.596)">
	</image>
	<g>
		<g>
			<path class="st37" d="M-243.7,274.8h52.1l17.6-42.2c-2.6-1.1-5.5-1.8-7.8-1.8h-70.4c-2.3,0-5.2,0.7-7.8,1.8L-243.7,274.8z"/>
			<path class="st38" d="M-278,311.2l35.5-35.9l-17.6-42.8c-2.6,1.1-5.1,2.6-6.8,4.3l-49.8,49.8c-1.7,1.7-3.2,4.1-4.3,6.8
				L-278,311.2z"/>
			<path class="st39" d="M-321,379.5c1.1,2.6,2.6,5.1,4.3,6.8l49.8,49.8c1.7,1.7,4.1,3.2,6.8,4.3l17-41l-36.8-36.8L-321,379.5z"/>
			<path class="st40" d="M-155,309.6l-0.4,54.1l42.2,15.8c1.1-2.6,1.8-5.5,1.8-7.8v-70.4c0-2.4-0.7-5.2-1.8-7.8L-155,309.6z"/>
			<path class="st39" d="M-191.6,273.6l37.5,36.8l41-17c-1.1-2.6-2.6-5.1-4.3-6.8l-49.8-49.8c-1.7-1.7-4.1-3.2-6.8-4.3L-191.6,273.6
				z"/>
			<path class="st40" d="M-322.7,301.3v70.5c0,2.3,0.7,5.2,1.8,7.8l41-17v-52.1l-41-17C-322.1,296.1-322.7,298.9-322.7,301.3z"/>
			<path class="st37" d="M-252.3,442.2h70.5c2.3,0,5.2-0.7,7.8-1.8l-18-43.1h-50.1l-18,43.1C-257.5,441.5-254.7,442.2-252.3,442.2z"
				/>
			<path class="st38" d="M-155.4,362l-36.6,35.3l18,43.1c2.6-1.1,5.1-2.6,6.8-4.3l49.8-49.8c1.7-1.7,3.2-4.1,4.3-6.8L-155.4,362z"/>
			<polygon class="st41" points="-243.1,399.4 -280,362.5 -280,310.4 -243.1,273.6 -191,273.6 -154.2,310.4 -154.2,362.5 
				-191,399.4 			"/>
			<path class="st42" d="M-273.4,286.9c-9.7,3.2-12.2,5.7-15.4,15.4c-3.1-9.7-5.7-12.2-15.4-15.4c9.7-3.1,12.2-5.7,15.4-15.4
				C-285.6,281.2-283.1,283.8-273.4,286.9z"/>
			<path class="st42" d="M-293,322.6c-5.3,1.7-6.6,3.1-8.4,8.4c-1.7-5.3-3.1-6.6-8.4-8.4c5.3-1.7,6.6-3.1,8.4-8.3
				C-299.6,319.5-298.3,320.9-293,322.6z"/>
			<path class="st42" d="M-133.4,383.2c-5.3,1.7-6.6,3.1-8.4,8.4c-1.7-5.3-3.1-6.6-8.4-8.4c5.3-1.7,6.6-3.1,8.4-8.3
				C-140,380.1-138.7,381.5-133.4,383.2z"/>
		</g>
	</g>
</g>
</svg>
