<svg xmlns="http://www.w3.org/2000/svg" xmlns:xlink="http://www.w3.org/1999/xlink" viewBox="0 0 750 136"><defs><style>.cls-1{fill:none;}.cls-2{isolation:isolate;}.cls-3{fill:#323233;}.cls-130,.cls-131,.cls-17,.cls-18,.cls-19,.cls-20,.cls-21,.cls-22,.cls-23,.cls-24,.cls-25,.cls-26,.cls-27,.cls-28,.cls-29,.cls-30,.cls-31,.cls-32,.cls-33,.cls-34,.cls-35,.cls-36,.cls-37,.cls-38,.cls-39,.cls-4,.cls-40,.cls-41,.cls-42,.cls-43,.cls-44,.cls-45,.cls-46,.cls-47,.cls-48,.cls-49,.cls-5,.cls-50,.cls-51,.cls-52,.cls-53,.cls-54,.cls-55,.cls-56,.cls-57,.cls-58,.cls-59,.cls-6,.cls-64{mix-blend-mode:multiply;}.cls-4{fill:url(#linear-gradient);}.cls-5{fill:url(#linear-gradient-2);}.cls-6{fill:url(#linear-gradient-3);}.cls-7{fill:#f43237;}.cls-8{fill:#ff474d;}.cls-9{fill:#ffc90c;}.cls-10{fill:#ffb010;}.cls-11{fill:#ff6c2d;}.cls-12{fill:#f05725;}.cls-13{fill:#00a68e;}.cls-14{fill:#008a7d;}.cls-15{fill:#009fc6;}.cls-16{fill:#008bc0;}.cls-17{fill:url(#linear-gradient-4);}.cls-18{fill:url(#linear-gradient-5);}.cls-19{fill:url(#linear-gradient-6);}.cls-20{fill:url(#linear-gradient-7);}.cls-21{fill:url(#linear-gradient-8);}.cls-22{fill:url(#linear-gradient-9);}.cls-23{fill:url(#linear-gradient-10);}.cls-24{fill:url(#linear-gradient-11);}.cls-25{fill:url(#linear-gradient-12);}.cls-26{fill:url(#linear-gradient-13);}.cls-27{fill:url(#linear-gradient-14);}.cls-28{fill:url(#linear-gradient-15);}.cls-29{fill:url(#linear-gradient-16);}.cls-30{fill:url(#linear-gradient-17);}.cls-31{fill:url(#linear-gradient-18);}.cls-32{fill:url(#linear-gradient-19);}.cls-33{fill:url(#linear-gradient-20);}.cls-34{fill:url(#linear-gradient-21);}.cls-35{fill:url(#linear-gradient-22);}.cls-36{fill:url(#linear-gradient-23);}.cls-37{fill:url(#linear-gradient-24);}.cls-38{fill:url(#linear-gradient-25);}.cls-39{fill:url(#linear-gradient-26);}.cls-40{fill:url(#linear-gradient-27);}.cls-41{fill:url(#linear-gradient-28);}.cls-42{fill:url(#linear-gradient-29);}.cls-43{fill:url(#linear-gradient-30);}.cls-44{fill:url(#linear-gradient-31);}.cls-45{fill:url(#linear-gradient-32);}.cls-46{fill:url(#linear-gradient-33);}.cls-47{fill:url(#linear-gradient-34);}.cls-48{fill:url(#linear-gradient-35);}.cls-49{fill:url(#linear-gradient-36);}.cls-50{fill:url(#linear-gradient-37);}.cls-51{fill:url(#linear-gradient-38);}.cls-52{fill:url(#linear-gradient-39);}.cls-53{fill:url(#linear-gradient-40);}.cls-54{fill:url(#linear-gradient-41);}.cls-55{fill:url(#linear-gradient-42);}.cls-56{fill:url(#linear-gradient-43);}.cls-57{fill:url(#linear-gradient-44);}.cls-58{fill:url(#linear-gradient-45);}.cls-59{fill:url(#linear-gradient-46);}.cls-60{clip-path:url(#clip-path);}.cls-61{fill:url(#radial-gradient);}.cls-62{opacity:0.2;}.cls-132,.cls-63,.cls-65{fill:#fff;}.cls-63{mix-blend-mode:soft-light;}.cls-65{opacity:0;}.cls-66,.cls-98{fill:#f9f8fd;}.cls-66{opacity:0.03;}.cls-67,.cls-99{fill:#f4f1fb;}.cls-67{opacity:0.06;}.cls-100,.cls-68{fill:#eeebf9;}.cls-68{opacity:0.1;}.cls-101,.cls-69{fill:#e8e4f7;}.cls-69{opacity:0.13;}.cls-102,.cls-70{fill:#e3ddf5;}.cls-70{opacity:0.16;}.cls-103,.cls-71{fill:#ddd6f3;}.cls-71{opacity:0.19;}.cls-104,.cls-72{fill:#d7cff1;}.cls-72{opacity:0.23;}.cls-105,.cls-73{fill:#d2c9ee;}.cls-73{opacity:0.26;}.cls-106,.cls-74{fill:#ccc2ec;}.cls-74{opacity:0.29;}.cls-107,.cls-75{fill:#c6bbea;}.cls-75{opacity:0.32;}.cls-108,.cls-76{fill:#c1b4e8;}.cls-76{opacity:0.35;}.cls-109,.cls-77{fill:#bbade6;}.cls-77{opacity:0.39;}.cls-110,.cls-78{fill:#b5a7e4;}.cls-78{opacity:0.42;}.cls-111,.cls-79{fill:#b0a0e2;}.cls-79{opacity:0.45;}.cls-112,.cls-80{fill:#aa99e0;}.cls-80{opacity:0.48;}.cls-113,.cls-81{fill:#a492de;}.cls-81{opacity:0.52;}.cls-114,.cls-82{fill:#9e8bdc;}.cls-82{opacity:0.55;}.cls-115,.cls-83{fill:#9984da;}.cls-83{opacity:0.58;}.cls-116,.cls-84{fill:#937ed8;}.cls-84{opacity:0.61;}.cls-117,.cls-85{fill:#8d77d6;}.cls-85{opacity:0.65;}.cls-118,.cls-86{fill:#8870d4;}.cls-86{opacity:0.68;}.cls-119,.cls-87{fill:#8269d2;}.cls-87{opacity:0.71;}.cls-120,.cls-88{fill:#7c62d0;}.cls-88{opacity:0.74;}.cls-121,.cls-89{fill:#775ccd;}.cls-89{opacity:0.77;}.cls-122,.cls-90{fill:#7155cb;}.cls-90{opacity:0.81;}.cls-123,.cls-91{fill:#6b4ec9;}.cls-91{opacity:0.84;}.cls-124,.cls-92{fill:#6647c7;}.cls-92{opacity:0.87;}.cls-125,.cls-93{fill:#6040c5;}.cls-93{opacity:0.9;}.cls-126,.cls-94{fill:#5a3ac3;}.cls-94{opacity:0.94;}.cls-127,.cls-95{fill:#5533c1;}.cls-95{opacity:0.97;}.cls-96{fill:#4f2cbf;}.cls-97{fill:url(#radial-gradient-2);}.cls-98{opacity:0.03;}.cls-99{opacity:0.06;}.cls-100{opacity:0.1;}.cls-101{opacity:0.13;}.cls-102{opacity:0.16;}.cls-103{opacity:0.19;}.cls-104{opacity:0.23;}.cls-105{opacity:0.26;}.cls-106{opacity:0.29;}.cls-107{opacity:0.32;}.cls-108{opacity:0.35;}.cls-109{opacity:0.39;}.cls-110{opacity:0.42;}.cls-111{opacity:0.45;}.cls-112{opacity:0.48;}.cls-113{opacity:0.52;}.cls-114{opacity:0.55;}.cls-115{opacity:0.58;}.cls-116{opacity:0.61;}.cls-117{opacity:0.65;}.cls-118{opacity:0.68;}.cls-119{opacity:0.71;}.cls-120{opacity:0.74;}.cls-121{opacity:0.77;}.cls-122{opacity:0.81;}.cls-123{opacity:0.84;}.cls-124{opacity:0.87;}.cls-125{opacity:0.9;}.cls-126{opacity:0.94;}.cls-127{opacity:0.97;}.cls-128{fill:url(#linear-gradient-47);}.cls-129{fill:url(#radial-gradient-3);}.cls-130{opacity:0.22;}.cls-131{fill:#00a6cf;opacity:0.46;}.cls-133{opacity:0.28;}</style><linearGradient id="linear-gradient" x1="-3971.6" y1="976.48" x2="-3965.42" y2="976.48" gradientTransform="translate(2023.19 -889.16) scale(0.5 1)" gradientUnits="userSpaceOnUse"><stop offset="0" stop-color="#fff"/><stop offset="1" stop-color="#bbbcc0"/></linearGradient><linearGradient id="linear-gradient-2" x1="-3946.88" y1="933.21" x2="-3940.69" y2="933.21" gradientTransform="translate(1998.46 -802.63) scale(0.5 1)" xlink:href="#linear-gradient"/><linearGradient id="linear-gradient-3" x1="-3922.15" y1="1001.2" x2="-3915.97" y2="1001.2" gradientTransform="translate(1973.74 -938.61) scale(0.5 1)" xlink:href="#linear-gradient"/><linearGradient id="linear-gradient-4" x1="-3227.46" y1="1006.95" x2="-3221.28" y2="1006.95" gradientTransform="translate(3277.21 -876.36)" xlink:href="#linear-gradient"/><linearGradient id="linear-gradient-5" x1="-3971.6" y1="1044.47" x2="-3965.42" y2="1044.47" gradientTransform="translate(2023.19 -1025.15) scale(0.5 1)" xlink:href="#linear-gradient"/><linearGradient id="linear-gradient-6" x1="-3996.32" y1="1056.83" x2="-3990.14" y2="1056.83" gradientTransform="translate(2047.91 -1049.88) scale(0.5 1)" xlink:href="#linear-gradient"/><linearGradient id="linear-gradient-7" x1="-3996.32" y1="982.66" x2="-3990.14" y2="982.66" gradientTransform="translate(2047.91 -901.53) scale(0.5 1)" xlink:href="#linear-gradient"/><linearGradient id="linear-gradient-8" x1="-3996.32" y1="945.57" x2="-3990.14" y2="945.57" gradientTransform="translate(2047.91 -827.35) scale(0.5 1)" xlink:href="#linear-gradient"/><linearGradient id="linear-gradient-9" x1="-4070.5" y1="957.93" x2="-4064.32" y2="957.93" gradientTransform="translate(2122.09 -852.08) scale(0.5 1)" xlink:href="#linear-gradient"/><linearGradient id="linear-gradient-10" x1="-4095.22" y1="933.21" x2="-4089.04" y2="933.21" gradientTransform="translate(2146.81 -802.63) scale(0.5 1)" xlink:href="#linear-gradient"/><linearGradient id="linear-gradient-11" x1="-4021.05" y1="933.21" x2="-4014.87" y2="933.21" gradientTransform="translate(2072.64 -802.63) scale(0.5 1)" xlink:href="#linear-gradient"/><linearGradient id="linear-gradient-12" x1="390.78" y1="41.48" x2="396.96" y2="41.48" gradientTransform="translate(-387.39 73.65)" xlink:href="#linear-gradient"/><linearGradient id="linear-gradient-13" x1="415.51" y1="41.48" x2="421.69" y2="41.48" gradientTransform="translate(-412.12 48.92)" xlink:href="#linear-gradient"/><linearGradient id="linear-gradient-14" x1="-2977.92" y1="864.76" x2="-2971.74" y2="864.76" gradientTransform="translate(3002.94 -857.8)" xlink:href="#linear-gradient"/><linearGradient id="linear-gradient-15" x1="-3190.37" y1="1025.49" x2="-3184.19" y2="1025.49" gradientTransform="translate(3203.03 -913.45)" xlink:href="#linear-gradient"/><linearGradient id="linear-gradient-16" x1="-3215.09" y1="1019.31" x2="-3208.91" y2="1019.31" gradientTransform="translate(3252.48 -901.09)" xlink:href="#linear-gradient"/><linearGradient id="linear-gradient-17" x1="-4474.2" y1="-2660.02" x2="-4468.02" y2="-2660.02" gradientTransform="translate(4496.13 2768.97)" xlink:href="#linear-gradient"/><linearGradient id="linear-gradient-18" x1="-4090.92" y1="-2870.21" x2="-4084.74" y2="-2870.21" gradientTransform="translate(4119.04 2954.43)" xlink:href="#linear-gradient"/><linearGradient id="linear-gradient-19" x1="-2970.01" y1="816.58" x2="-2963.83" y2="816.58" gradientTransform="translate(2970.31 -741.63)" xlink:href="#linear-gradient"/><linearGradient id="linear-gradient-20" x1="-4115.65" y1="-2845.48" x2="-4109.47" y2="-2845.48" gradientTransform="translate(4119.04 2904.98)" xlink:href="#linear-gradient"/><linearGradient id="linear-gradient-21" x1="-3264.54" y1="1006.95" x2="-3258.36" y2="1006.95" gradientTransform="translate(3351.38 -876.36)" xlink:href="#linear-gradient"/><linearGradient id="linear-gradient-22" x1="-4808.19" y1="-2124.55" x2="-4802.01" y2="-2124.55" gradientTransform="translate(4885.76 2233.49)" xlink:href="#linear-gradient"/><linearGradient id="linear-gradient-23" x1="-2953.19" y1="864.76" x2="-2947.01" y2="864.76" gradientTransform="translate(2953.49 -857.8)" xlink:href="#linear-gradient"/><linearGradient id="linear-gradient-24" x1="-4903.61" y1="976.48" x2="-4897.43" y2="976.48" gradientTransform="translate(3161.91 -926.25) scale(0.5 1)" xlink:href="#linear-gradient"/><linearGradient id="linear-gradient-25" x1="-4878.89" y1="933.21" x2="-4872.71" y2="933.21" gradientTransform="translate(3161.91 -926.25) scale(0.5 1)" xlink:href="#linear-gradient"/><linearGradient id="linear-gradient-26" x1="-4854.16" y1="1001.2" x2="-4847.98" y2="1001.2" gradientTransform="translate(3161.91 -926.25) scale(0.5 1)" xlink:href="#linear-gradient"/><linearGradient id="linear-gradient-27" x1="-3693.46" y1="1006.95" x2="-3687.28" y2="1006.95" gradientTransform="translate(4388.11 -999.99)" xlink:href="#linear-gradient"/><linearGradient id="linear-gradient-28" x1="-4903.61" y1="1044.47" x2="-4897.43" y2="1044.47" gradientTransform="translate(3161.91 -926.25) scale(0.5 1)" xlink:href="#linear-gradient"/><linearGradient id="linear-gradient-29" x1="-4928.34" y1="1056.83" x2="-4922.16" y2="1056.83" gradientTransform="translate(3161.91 -926.25) scale(0.5 1)" xlink:href="#linear-gradient"/><linearGradient id="linear-gradient-30" x1="-4928.34" y1="982.66" x2="-4922.16" y2="982.66" gradientTransform="translate(3161.91 -926.25) scale(0.5 1)" xlink:href="#linear-gradient"/><linearGradient id="linear-gradient-31" x1="-4928.34" y1="945.57" x2="-4922.16" y2="945.57" gradientTransform="translate(3161.91 -926.25) scale(0.5 1)" xlink:href="#linear-gradient"/><linearGradient id="linear-gradient-32" x1="-5002.51" y1="957.93" x2="-4996.33" y2="957.93" gradientTransform="translate(3161.91 -926.25) scale(0.5 1)" xlink:href="#linear-gradient"/><linearGradient id="linear-gradient-33" x1="-5027.24" y1="933.21" x2="-5021.06" y2="933.21" gradientTransform="translate(3161.91 -926.25) scale(0.5 1)" xlink:href="#linear-gradient"/><linearGradient id="linear-gradient-34" x1="-4953.06" y1="933.21" x2="-4946.88" y2="933.21" gradientTransform="translate(3161.91 -926.25) scale(0.5 1)" xlink:href="#linear-gradient"/><linearGradient id="linear-gradient-35" x1="390.78" y1="507.49" x2="396.96" y2="507.49" gradientTransform="translate(350.23 -485.08)" xlink:href="#linear-gradient"/><linearGradient id="linear-gradient-36" x1="415.51" y1="507.49" x2="421.69" y2="507.49" gradientTransform="translate(325.5 -460.35)" xlink:href="#linear-gradient"/><linearGradient id="linear-gradient-37" x1="-3443.93" y1="864.76" x2="-3437.74" y2="864.76" gradientTransform="translate(4163.3 -734.18)" xlink:href="#linear-gradient"/><linearGradient id="linear-gradient-38" x1="-3656.38" y1="1025.49" x2="-3650.19" y2="1025.49" gradientTransform="translate(4388.11 -999.99)" xlink:href="#linear-gradient"/><linearGradient id="linear-gradient-39" x1="-3681.1" y1="1019.31" x2="-3674.92" y2="1019.31" gradientTransform="translate(4388.11 -999.99)" xlink:href="#linear-gradient"/><linearGradient id="linear-gradient-40" x1="-4474.2" y1="-3126.03" x2="-4468.02" y2="-3126.03" gradientTransform="translate(5196.66 3154.62)" xlink:href="#linear-gradient"/><linearGradient id="linear-gradient-41" x1="-4090.92" y1="-3336.21" x2="-4084.74" y2="-3336.21" gradientTransform="translate(4807.2 3389.53)" xlink:href="#linear-gradient"/><linearGradient id="linear-gradient-42" x1="-3436.01" y1="816.58" x2="-3429.83" y2="816.58" gradientTransform="translate(4180.11 -753.99)" xlink:href="#linear-gradient"/><linearGradient id="linear-gradient-43" x1="-4115.65" y1="-3311.49" x2="-4109.47" y2="-3311.49" gradientTransform="translate(4856.65 3389.53)" xlink:href="#linear-gradient"/><linearGradient id="linear-gradient-44" x1="-3730.55" y1="1006.95" x2="-3724.37" y2="1006.95" gradientTransform="translate(4388.11 -999.99)" xlink:href="#linear-gradient"/><linearGradient id="linear-gradient-45" x1="-4808.19" y1="-2590.55" x2="-4802.01" y2="-2590.55" gradientTransform="translate(5475.03 2619.14)" xlink:href="#linear-gradient"/><linearGradient id="linear-gradient-46" x1="-3419.2" y1="864.76" x2="-3413.02" y2="864.76" gradientTransform="translate(4163.3 -734.18)" xlink:href="#linear-gradient"/><clipPath id="clip-path"><line id="_Clipping_Path_" data-name="&lt;Clipping Path&gt;" class="cls-1" x1="-13.36" x2="-13.36" y2="500"/></clipPath><radialGradient id="radial-gradient" cx="-646.95" cy="408.83" r="796.5" gradientTransform="translate(-181.15 -428.9) rotate(-45) scale(1.4 1)" gradientUnits="userSpaceOnUse"><stop offset="0" stop-color="#28b3ea"/><stop offset="1" stop-color="#5b02b2"/></radialGradient><radialGradient id="radial-gradient-2" cx="14.52" cy="-161.94" r="620.07" gradientTransform="matrix(1, 0, 0, 1, 0, 0)" xlink:href="#radial-gradient"/><linearGradient id="linear-gradient-47" x1="-110.51" y1="265.6" x2="118.99" y2="65.6" gradientUnits="userSpaceOnUse"><stop offset="0" stop-color="#ee0979"/><stop offset="0.57" stop-color="#f67a3d"/><stop offset="1" stop-color="#fccf10"/></linearGradient><radialGradient id="radial-gradient-3" cx="-48.3" cy="120.23" r="266.44" gradientTransform="matrix(1, 0, 0, 1, 0, 0)" xlink:href="#radial-gradient"/></defs><title>featured-bg</title><g class="cls-2"><g id="Layer_5" data-name="Layer 5"><rect class="cls-3" x="0.3" y="0.77" width="135.99" height="135.99" transform="translate(-0.48 137.06) rotate(-90)"/><rect class="cls-4" x="37.39" y="62.59" width="3.09" height="49.45" transform="translate(77.86 174.62) rotate(180)"/><rect class="cls-5" x="25.02" y="124.4" width="3.09" height="12.36" transform="translate(53.14 261.16) rotate(180)"/><rect class="cls-6" x="12.66" y="37.86" width="3.09" height="49.45" transform="translate(28.41 125.17) rotate(180)"/><rect class="cls-7" x="0.3" y="74.95" width="12.36" height="12.36" transform="translate(-74.65 87.61) rotate(-90)"/><rect class="cls-8" x="0.3" y="62.59" width="12.36" height="12.36" transform="translate(-62.29 75.25) rotate(-90)"/><rect class="cls-9" x="12.66" y="112.04" width="12.36" height="12.36"/><rect class="cls-10" x="25.02" y="112.04" width="12.36" height="12.36"/><rect class="cls-9" x="25.02" y="62.59" width="12.36" height="12.36" transform="translate(62.41 137.54) rotate(180)"/><rect class="cls-10" x="12.66" y="62.59" width="12.36" height="12.36" transform="translate(37.69 137.54) rotate(180)"/><rect class="cls-11" x="0.3" y="37.86" width="12.36" height="12.36" transform="translate(50.52 37.56) rotate(90)"/><rect class="cls-12" x="0.3" y="50.22" width="12.36" height="12.36" transform="translate(62.89 49.93) rotate(90)"/><rect class="cls-11" x="12.66" y="99.67" width="12.36" height="12.36" transform="translate(-87.01 124.7) rotate(-90)"/><rect class="cls-12" x="12.66" y="87.31" width="12.36" height="12.36" transform="translate(-74.65 112.34) rotate(-90)"/><rect class="cls-11" x="25.02" y="74.95" width="12.36" height="12.36"/><rect class="cls-12" x="37.39" y="74.95" width="12.36" height="12.36"/><rect class="cls-8" x="25.02" y="87.31" width="12.36" height="12.36" transform="translate(124.7 62.29) rotate(90)"/><rect class="cls-7" x="25.02" y="99.67" width="12.36" height="12.36" transform="translate(137.06 74.65) rotate(90)"/><rect class="cls-8" x="0.3" y="87.31" width="12.36" height="12.36" transform="translate(99.97 87.01) rotate(90)"/><rect class="cls-7" x="0.3" y="99.67" width="12.36" height="12.36" transform="translate(112.34 99.38) rotate(90)"/><rect class="cls-9" x="74.47" y="99.67" width="12.36" height="12.36" transform="translate(-25.2 186.51) rotate(-90)"/><rect class="cls-10" x="74.47" y="87.31" width="12.36" height="12.36" transform="translate(-12.84 174.15) rotate(-90)"/><rect class="cls-13" x="74.47" y="112.04" width="12.36" height="12.36" transform="translate(198.87 37.56) rotate(90)"/><rect class="cls-14" x="74.47" y="124.4" width="12.36" height="12.36" transform="translate(211.24 49.93) rotate(90)"/><rect class="cls-13" x="86.84" y="124.4" width="12.36" height="12.36" transform="translate(223.6 37.56) rotate(90)"/><rect class="cls-15" x="0.3" y="112.04" width="12.36" height="12.36" transform="translate(124.7 111.74) rotate(90)"/><rect class="cls-16" x="0.3" y="124.4" width="12.36" height="12.36" transform="translate(137.06 124.1) rotate(90)"/><rect class="cls-15" x="25.02" y="13.14" width="12.36" height="12.36" transform="translate(11.89 50.52) rotate(-90)"/><rect class="cls-16" x="25.02" y="0.77" width="12.36" height="12.36" transform="translate(24.25 38.16) rotate(-90)"/><rect class="cls-13" x="37.39" y="112.04" width="12.36" height="12.36" transform="translate(161.79 74.65) rotate(90)"/><rect class="cls-14" x="37.39" y="124.4" width="12.36" height="12.36" transform="translate(174.15 87.01) rotate(90)"/><rect class="cls-13" x="12.66" y="0.77" width="12.36" height="12.36" transform="translate(37.69 13.91) rotate(180)"/><rect class="cls-14" x="0.3" y="0.77" width="12.36" height="12.36" transform="translate(12.96 13.91) rotate(180)"/><rect class="cls-13" x="12.66" y="124.4" width="12.36" height="12.36" transform="translate(149.42 111.74) rotate(90)"/><rect class="cls-13" x="37.39" y="0.77" width="12.36" height="12.36" transform="translate(36.61 50.52) rotate(-90)"/><rect class="cls-15" x="49.75" y="124.4" width="12.36" height="12.36" transform="translate(111.86 261.16) rotate(180)"/><rect class="cls-17" x="49.75" y="124.4" width="6.18" height="12.36" transform="translate(105.68 261.16) rotate(180)"/><rect class="cls-18" x="37.39" y="13.14" width="3.09" height="12.36" transform="translate(77.86 38.64) rotate(180)"/><rect class="cls-19" x="49.75" y="0.77" width="3.09" height="12.36" transform="translate(102.59 13.91) rotate(180)"/><rect class="cls-20" x="49.75" y="74.95" width="3.09" height="12.36" transform="translate(102.59 162.26) rotate(180)"/><rect class="cls-21" x="49.75" y="112.04" width="3.09" height="12.36" transform="translate(102.59 236.44) rotate(180)"/><rect class="cls-22" x="86.84" y="87.31" width="3.09" height="37.09" transform="translate(176.76 211.71) rotate(180)"/><rect class="cls-23" x="99.2" y="124.4" width="3.09" height="12.36" transform="translate(201.49 261.16) rotate(180)"/><rect class="cls-24" x="62.11" y="124.4" width="3.09" height="12.36" transform="translate(127.31 261.16) rotate(180)"/><rect class="cls-25" x="3.39" y="108.95" width="6.18" height="12.36" transform="translate(-108.65 121.61) rotate(-90)"/><rect class="cls-26" x="3.39" y="84.22" width="6.18" height="12.36" transform="translate(-83.92 96.88) rotate(-90)"/><rect class="cls-27" x="25.02" y="0.77" width="6.18" height="12.36" transform="translate(56.23 13.91) rotate(180)"/><rect class="cls-28" x="12.66" y="87.31" width="6.18" height="49.45" transform="translate(31.5 224.07) rotate(180)"/><rect class="cls-29" x="37.39" y="112.04" width="6.18" height="12.36" transform="translate(80.95 236.44) rotate(180)"/><rect class="cls-30" x="21.93" y="96.58" width="6.18" height="24.72" transform="translate(133.97 83.92) rotate(90)"/><rect class="cls-31" x="28.11" y="78.04" width="6.18" height="12.36" transform="translate(115.43 53.02) rotate(90)"/><rect class="cls-32" x="0.3" y="62.59" width="6.18" height="24.72" transform="translate(6.78 149.9) rotate(180)"/><rect class="cls-33" x="3.39" y="53.32" width="6.18" height="12.36" transform="translate(65.98 53.02) rotate(90)"/><rect class="cls-34" x="86.84" y="124.4" width="6.18" height="12.36" transform="translate(179.85 261.16) rotate(180)"/><rect class="cls-35" x="77.56" y="102.77" width="6.18" height="12.36" transform="translate(189.6 28.29) rotate(90)"/><rect class="cls-36" x="0.3" y="0.77" width="6.18" height="12.36" transform="translate(6.78 13.91) rotate(180)"/><rect class="cls-3" x="614.29" y="0.77" width="135.99" height="135.99" transform="translate(751.05 -613.52) rotate(90)"/><rect class="cls-37" x="710.1" y="25.5" width="3.09" height="49.45"/><rect class="cls-38" x="722.46" y="0.77" width="3.09" height="12.36"/><rect class="cls-39" x="734.83" y="50.22" width="3.09" height="49.45"/><rect class="cls-7" x="737.92" y="50.22" width="12.36" height="12.36" transform="translate(800.5 -687.69) rotate(90)"/><rect class="cls-8" x="737.92" y="62.59" width="12.36" height="12.36" transform="translate(812.87 -675.33) rotate(90)"/><rect class="cls-9" x="725.55" y="13.14" width="12.36" height="12.36" transform="translate(1463.47 38.64) rotate(180)"/><rect class="cls-10" x="713.19" y="13.14" width="12.36" height="12.36" transform="translate(1438.75 38.64) rotate(180)"/><rect class="cls-9" x="713.19" y="62.59" width="12.36" height="12.36"/><rect class="cls-10" x="725.55" y="62.59" width="12.36" height="12.36"/><rect class="cls-11" x="737.92" y="87.31" width="12.36" height="12.36" transform="translate(650.61 837.59) rotate(-90)"/><rect class="cls-12" x="737.92" y="74.95" width="12.36" height="12.36" transform="translate(662.97 825.23) rotate(-90)"/><rect class="cls-11" x="725.55" y="25.5" width="12.36" height="12.36" transform="translate(763.42 -700.06) rotate(90)"/><rect class="cls-12" x="725.55" y="37.86" width="12.36" height="12.36" transform="translate(775.78 -687.69) rotate(90)"/><rect class="cls-11" x="713.19" y="50.22" width="12.36" height="12.36" transform="translate(1438.75 112.81) rotate(180)"/><rect class="cls-12" x="700.83" y="50.22" width="12.36" height="12.36" transform="translate(1414.02 112.81) rotate(180)"/><rect class="cls-8" x="713.19" y="37.86" width="12.36" height="12.36" transform="translate(675.33 763.42) rotate(-90)"/><rect class="cls-7" x="713.19" y="25.5" width="12.36" height="12.36" transform="translate(687.69 751.05) rotate(-90)"/><rect class="cls-8" x="737.92" y="37.86" width="12.36" height="12.36" transform="translate(700.06 788.14) rotate(-90)"/><rect class="cls-7" x="737.92" y="25.5" width="12.36" height="12.36" transform="translate(712.42 775.78) rotate(-90)"/><rect class="cls-9" x="663.74" y="25.5" width="12.36" height="12.36" transform="translate(701.6 -638.24) rotate(90)"/><rect class="cls-10" x="663.74" y="37.86" width="12.36" height="12.36" transform="translate(713.97 -625.88) rotate(90)"/><rect class="cls-13" x="663.74" y="13.14" width="12.36" height="12.36" transform="translate(650.61 689.24) rotate(-90)"/><rect class="cls-14" x="663.74" y="0.77" width="12.36" height="12.36" transform="translate(662.97 676.88) rotate(-90)"/><rect class="cls-13" x="651.38" y="0.77" width="12.36" height="12.36" transform="translate(650.61 664.52) rotate(-90)"/><rect class="cls-15" x="737.92" y="13.14" width="12.36" height="12.36" transform="translate(724.78 763.42) rotate(-90)"/><rect class="cls-16" x="737.92" y="0.77" width="12.36" height="12.36" transform="translate(737.14 751.05) rotate(-90)"/><rect class="cls-15" x="713.19" y="112.04" width="12.36" height="12.36" transform="translate(837.59 -601.16) rotate(90)"/><rect class="cls-16" x="713.19" y="124.4" width="12.36" height="12.36" transform="translate(849.95 -588.79) rotate(90)"/><rect class="cls-13" x="700.83" y="13.14" width="12.36" height="12.36" transform="translate(687.69 726.33) rotate(-90)"/><rect class="cls-14" x="700.83" y="0.77" width="12.36" height="12.36" transform="translate(700.06 713.97) rotate(-90)"/><rect class="cls-13" x="725.55" y="124.4" width="12.36" height="12.36"/><rect class="cls-14" x="737.92" y="124.4" width="12.36" height="12.36"/><rect class="cls-13" x="725.55" y="0.77" width="12.36" height="12.36" transform="translate(724.78 738.69) rotate(-90)"/><rect class="cls-13" x="700.83" y="124.4" width="12.36" height="12.36" transform="translate(837.59 -576.43) rotate(90)"/><rect class="cls-15" x="688.47" y="0.77" width="12.36" height="12.36"/><rect class="cls-40" x="694.65" y="0.77" width="6.18" height="12.36"/><rect class="cls-41" x="710.1" y="112.04" width="3.09" height="12.36"/><rect class="cls-42" x="697.74" y="124.4" width="3.09" height="12.36"/><rect class="cls-43" x="697.74" y="50.22" width="3.09" height="12.36"/><rect class="cls-44" x="697.74" y="13.14" width="3.09" height="12.36"/><rect class="cls-45" x="660.65" y="13.14" width="3.09" height="37.09"/><rect class="cls-46" x="648.29" y="0.77" width="3.09" height="12.36"/><rect class="cls-47" x="685.38" y="0.77" width="3.09" height="12.36"/><rect class="cls-48" x="741.01" y="16.23" width="6.18" height="12.36" transform="translate(766.51 -721.69) rotate(90)"/><rect class="cls-49" x="741.01" y="40.95" width="6.18" height="12.36" transform="translate(791.23 -696.96) rotate(90)"/><rect class="cls-50" x="719.37" y="124.4" width="6.18" height="12.36"/><rect class="cls-51" x="731.74" y="0.77" width="6.18" height="49.45"/><rect class="cls-52" x="707.01" y="13.14" width="6.18" height="12.36"/><rect class="cls-53" x="722.46" y="16.23" width="6.18" height="24.72" transform="translate(696.96 754.15) rotate(-90)"/><rect class="cls-54" x="716.28" y="47.13" width="6.18" height="12.36" transform="translate(666.06 772.69) rotate(-90)"/><rect class="cls-55" x="744.1" y="50.22" width="6.18" height="24.72"/><rect class="cls-56" x="741.01" y="71.86" width="6.18" height="12.36" transform="translate(666.06 822.14) rotate(-90)"/><rect class="cls-57" x="657.56" y="0.77" width="6.18" height="12.36"/><rect class="cls-58" x="666.83" y="22.41" width="6.18" height="12.36" transform="translate(641.33 698.51) rotate(-90)"/><rect class="cls-59" x="744.1" y="124.4" width="6.18" height="12.36"/><rect class="cls-3" x="117.97" y="0.77" width="519" height="135.99"/></g><g id="BACKGROUND_1" data-name="BACKGROUND 1"><g id="_Clip_Group_" data-name="&lt;Clip Group&gt;"><g class="cls-60"><polyline id="_Path_" data-name="&lt;Path&gt;" class="cls-61" points="72.41 -77.51 425.96 276.04 -317.83 1019.83 -671.38 666.28"/></g></g><g id="_Clip_Group_2" data-name="&lt;Clip Group&gt;" class="cls-62"><g class="cls-60"><path id="_Path_2" data-name="&lt;Path&gt;" class="cls-63" d="M390.5-33.23l-153,153a19.49,19.49,0,0,1-27-.52L209,117.78a19.52,19.52,0,0,1,0-27.6l27.3-27.3a19.51,19.51,0,1,0-27.59-27.59l-45,45a19.52,19.52,0,0,1-27.6,0l-1.45-1.46a19.51,19.51,0,0,1,0-27.59L348.74-162.81a19.51,19.51,0,0,1,27.59,0l1.45,1.46a19.51,19.51,0,0,1,0,27.59l-45,45a19.44,19.44,0,0,0-5.71,13.8,19.44,19.44,0,0,0,5.71,13.79,19.52,19.52,0,0,0,27.6,0l.58-.58a19.51,19.51,0,0,1,27.59,0L390-60.28A19.51,19.51,0,0,1,390.5-33.23Z"/><g id="_Group_" data-name="&lt;Group&gt;"><g id="_Group_2" data-name="&lt;Group&gt;" class="cls-64"><path id="_Path_3" data-name="&lt;Path&gt;" class="cls-65" d="M-171.71,118.51a19.51,19.51,0,0,1,27.59,0l.29.29a19.51,19.51,0,0,1,0,27.59l-11.33,11.33a19.51,19.51,0,0,0,0,27.59l1.45,1.45a19.51,19.51,0,0,0,27.59,0L20.57,40.09a19.51,19.51,0,0,0,0-27.59L19.12,11A19.51,19.51,0,0,0-8.47,11L-19.8,22.37a19.51,19.51,0,0,1-27.59,0l-.29-.29a19.51,19.51,0,0,1,0-27.59L-9.05-44.15a19.51,19.51,0,0,0,0-27.59l-1.45-1.45a19.51,19.51,0,0,0-27.59,0L-84.28-27a19.51,19.51,0,0,1-27.59,0l-.29-.29a19.51,19.51,0,0,1,0-27.59L-104-63a19.51,19.51,0,0,0,0-27.59l-1.45-1.45a19.51,19.51,0,0,0-27.59,0l-.58.58a19.51,19.51,0,0,1-27.59,0h0a19.51,19.51,0,0,1,0-27.59l45-45a19.51,19.51,0,0,0,0-27.59l-1.45-1.45a19.51,19.51,0,0,0-27.59,0"/><path class="cls-66" d="M-171.71,117.38a19.51,19.51,0,0,1,27.59,0l.29.29a19.51,19.51,0,0,1,0,27.59l-11.33,11.33a19.51,19.51,0,0,0,0,27.59l1.45,1.45a19.51,19.51,0,0,0,27.59,0L20.57,39a19.51,19.51,0,0,0,0-27.59L19.12,9.91a19.51,19.51,0,0,0-27.59,0L-19.8,21.23a19.51,19.51,0,0,1-27.59,0l-.29-.29a19.51,19.51,0,0,1,0-27.59L-9.05-45.28a19.51,19.51,0,0,0,0-27.59l-1.45-1.45a19.51,19.51,0,0,0-27.59,0L-84.28-28.14a19.51,19.51,0,0,1-27.59,0l-.29-.29a19.51,19.51,0,0,1,0-27.59l8.13-8.13a19.51,19.51,0,0,0,0-27.59l-1.45-1.45a19.51,19.51,0,0,0-27.59,0l-.58.58a19.51,19.51,0,0,1-27.59,0h0a19.51,19.51,0,0,1,0-27.59l45-45a19.51,19.51,0,0,0,0-27.59l-1.45-1.45a19.51,19.51,0,0,0-27.59,0"/><path class="cls-67" d="M-171.71,116.24a19.51,19.51,0,0,1,27.59,0l.29.29a19.51,19.51,0,0,1,0,27.59l-11.33,11.33a19.51,19.51,0,0,0,0,27.59l1.45,1.45a19.51,19.51,0,0,0,27.59,0L20.57,37.82a19.51,19.51,0,0,0,0-27.59L19.12,8.77a19.51,19.51,0,0,0-27.59,0L-19.8,20.1a19.51,19.51,0,0,1-27.59,0l-.29-.29a19.51,19.51,0,0,1,0-27.59L-9.05-46.41A19.51,19.51,0,0,0-9.05-74l-1.45-1.45a19.51,19.51,0,0,0-27.59,0L-84.28-29.28a19.51,19.51,0,0,1-27.59,0l-.29-.29a19.51,19.51,0,0,1,0-27.59l8.13-8.13a19.51,19.51,0,0,0,0-27.59l-1.45-1.45a19.51,19.51,0,0,0-27.59,0l-.58.58a19.51,19.51,0,0,1-27.59,0h0a19.51,19.51,0,0,1,0-27.59l45-45a19.51,19.51,0,0,0,0-27.59l-1.45-1.45a19.51,19.51,0,0,0-27.59,0"/><path class="cls-68" d="M-171.71,115.11a19.51,19.51,0,0,1,27.59,0l.29.29a19.51,19.51,0,0,1,0,27.59l-11.33,11.33a19.51,19.51,0,0,0,0,27.59l1.45,1.45a19.51,19.51,0,0,0,27.59,0L20.57,36.68a19.51,19.51,0,0,0,0-27.59L19.12,7.64a19.51,19.51,0,0,0-27.59,0L-19.8,19a19.51,19.51,0,0,1-27.59,0l-.29-.29a19.51,19.51,0,0,1,0-27.59L-9.05-47.55a19.51,19.51,0,0,0,0-27.59l-1.45-1.45a19.51,19.51,0,0,0-27.59,0L-84.28-30.41a19.51,19.51,0,0,1-27.59,0l-.29-.29a19.51,19.51,0,0,1,0-27.59l8.13-8.13A19.51,19.51,0,0,0-104-94l-1.45-1.45a19.51,19.51,0,0,0-27.59,0l-.58.58a19.51,19.51,0,0,1-27.59,0h0a19.51,19.51,0,0,1,0-27.59l45-45a19.51,19.51,0,0,0,0-27.59l-1.45-1.45a19.51,19.51,0,0,0-27.59,0"/><path class="cls-69" d="M-171.71,114a19.51,19.51,0,0,1,27.59,0l.29.29a19.51,19.51,0,0,1,0,27.59l-11.33,11.33a19.51,19.51,0,0,0,0,27.59l1.45,1.45a19.51,19.51,0,0,0,27.59,0L20.57,35.55A19.51,19.51,0,0,0,20.57,8L19.12,6.5a19.51,19.51,0,0,0-27.59,0L-19.8,17.83a19.51,19.51,0,0,1-27.59,0l-.29-.29a19.51,19.51,0,0,1,0-27.59L-9.05-48.68a19.51,19.51,0,0,0,0-27.59l-1.45-1.45a19.51,19.51,0,0,0-27.59,0L-84.28-31.55a19.51,19.51,0,0,1-27.59,0l-.29-.29a19.51,19.51,0,0,1,0-27.59l8.13-8.13a19.51,19.51,0,0,0,0-27.59l-1.45-1.45a19.51,19.51,0,0,0-27.59,0l-.58.58a19.51,19.51,0,0,1-27.59,0h0a19.51,19.51,0,0,1,0-27.59l45-45a19.51,19.51,0,0,0,0-27.59l-1.45-1.45a19.51,19.51,0,0,0-27.59,0"/><path class="cls-70" d="M-171.71,112.84a19.51,19.51,0,0,1,27.59,0l.29.29a19.51,19.51,0,0,1,0,27.59l-11.33,11.33a19.51,19.51,0,0,0,0,27.59l1.45,1.45a19.51,19.51,0,0,0,27.59,0L20.57,34.41a19.51,19.51,0,0,0,0-27.59L19.12,5.37a19.51,19.51,0,0,0-27.59,0L-19.8,16.7a19.51,19.51,0,0,1-27.59,0l-.29-.29a19.51,19.51,0,0,1,0-27.59L-9.05-49.82a19.51,19.51,0,0,0,0-27.59l-1.45-1.45a19.51,19.51,0,0,0-27.59,0L-84.28-32.68a19.51,19.51,0,0,1-27.59,0l-.29-.29a19.51,19.51,0,0,1,0-27.59L-104-68.7a19.51,19.51,0,0,0,0-27.59l-1.45-1.45a19.51,19.51,0,0,0-27.59,0l-.58.58a19.51,19.51,0,0,1-27.59,0h0a19.51,19.51,0,0,1,0-27.59l45-45a19.51,19.51,0,0,0,0-27.59l-1.45-1.45a19.51,19.51,0,0,0-27.59,0"/><path class="cls-71" d="M-171.71,111.7a19.51,19.51,0,0,1,27.59,0l.29.29a19.51,19.51,0,0,1,0,27.59l-11.33,11.33a19.51,19.51,0,0,0,0,27.59l1.45,1.45a19.51,19.51,0,0,0,27.59,0L20.57,33.28a19.51,19.51,0,0,0,0-27.59L19.12,4.23a19.51,19.51,0,0,0-27.59,0L-19.8,15.56a19.51,19.51,0,0,1-27.59,0l-.29-.29a19.51,19.51,0,0,1,0-27.59L-9.05-51a19.51,19.51,0,0,0,0-27.59L-10.51-80A19.51,19.51,0,0,0-38.1-80L-84.28-33.82a19.51,19.51,0,0,1-27.59,0l-.29-.29a19.51,19.51,0,0,1,0-27.59l8.13-8.13a19.51,19.51,0,0,0,0-27.59l-1.45-1.45a19.51,19.51,0,0,0-27.59,0l-.58.58a19.51,19.51,0,0,1-27.59,0h0a19.51,19.51,0,0,1,0-27.59l45-45a19.51,19.51,0,0,0,0-27.59l-1.45-1.45a19.51,19.51,0,0,0-27.59,0"/><path class="cls-72" d="M-171.71,110.57a19.51,19.51,0,0,1,27.59,0l.29.29a19.51,19.51,0,0,1,0,27.59l-11.33,11.33a19.51,19.51,0,0,0,0,27.59l1.45,1.45a19.51,19.51,0,0,0,27.59,0L20.57,32.15a19.51,19.51,0,0,0,0-27.59L19.12,3.1a19.51,19.51,0,0,0-27.59,0L-19.8,14.43a19.51,19.51,0,0,1-27.59,0l-.29-.29a19.51,19.51,0,0,1,0-27.59L-9.05-52.09a19.51,19.51,0,0,0,0-27.59l-1.45-1.45a19.51,19.51,0,0,0-27.59,0L-84.28-34.95a19.51,19.51,0,0,1-27.59,0l-.29-.29a19.51,19.51,0,0,1,0-27.59L-104-71a19.51,19.51,0,0,0,0-27.59l-1.45-1.45a19.51,19.51,0,0,0-27.59,0l-.58.58a19.51,19.51,0,0,1-27.59,0h0a19.51,19.51,0,0,1,0-27.59l45-45a19.51,19.51,0,0,0,0-27.59l-1.45-1.45a19.51,19.51,0,0,0-27.59,0"/><path class="cls-73" d="M-171.71,109.44a19.51,19.51,0,0,1,27.59,0l.29.29a19.51,19.51,0,0,1,0,27.59l-11.33,11.33a19.51,19.51,0,0,0,0,27.59l1.45,1.45a19.51,19.51,0,0,0,27.59,0L20.57,31a19.51,19.51,0,0,0,0-27.59L19.12,2A19.51,19.51,0,0,0-8.47,2L-19.8,13.29a19.51,19.51,0,0,1-27.59,0l-.29-.29a19.51,19.51,0,0,1,0-27.59L-9.05-53.22a19.51,19.51,0,0,0,0-27.59l-1.45-1.45a19.51,19.51,0,0,0-27.59,0L-84.28-36.08a19.51,19.51,0,0,1-27.59,0l-.29-.29a19.51,19.51,0,0,1,0-27.59L-104-72.1a19.51,19.51,0,0,0,0-27.59l-1.45-1.45a19.51,19.51,0,0,0-27.59,0l-.58.58a19.51,19.51,0,0,1-27.59,0h0a19.51,19.51,0,0,1,0-27.59l45-45a19.51,19.51,0,0,0,0-27.59l-1.45-1.45a19.51,19.51,0,0,0-27.59,0"/><path class="cls-74" d="M-171.71,108.3a19.51,19.51,0,0,1,27.59,0l.29.29a19.51,19.51,0,0,1,0,27.59l-11.33,11.33a19.51,19.51,0,0,0,0,27.59l1.45,1.45a19.51,19.51,0,0,0,27.59,0L20.57,29.88a19.51,19.51,0,0,0,0-27.59L19.12.83A19.51,19.51,0,0,0-8.47.83L-19.8,12.16a19.51,19.51,0,0,1-27.59,0l-.29-.29a19.51,19.51,0,0,1,0-27.59L-9.05-54.36a19.51,19.51,0,0,0,0-27.59l-1.45-1.45a19.51,19.51,0,0,0-27.59,0L-84.28-37.22a19.51,19.51,0,0,1-27.59,0l-.29-.29a19.51,19.51,0,0,1,0-27.59l8.13-8.13a19.51,19.51,0,0,0,0-27.59l-1.45-1.45a19.51,19.51,0,0,0-27.59,0l-.58.58a19.51,19.51,0,0,1-27.59,0h0a19.51,19.51,0,0,1,0-27.59l45-45a19.51,19.51,0,0,0,0-27.59l-1.45-1.45a19.51,19.51,0,0,0-27.59,0"/><path class="cls-75" d="M-171.71,107.17a19.51,19.51,0,0,1,27.59,0l.29.29a19.51,19.51,0,0,1,0,27.59l-11.33,11.33a19.51,19.51,0,0,0,0,27.59l1.45,1.45a19.51,19.51,0,0,0,27.59,0L20.57,28.74a19.51,19.51,0,0,0,0-27.59L19.12-.3A19.51,19.51,0,0,0-8.47-.3L-19.8,11a19.51,19.51,0,0,1-27.59,0l-.29-.29a19.51,19.51,0,0,1,0-27.59L-9.05-55.49a19.51,19.51,0,0,0,0-27.59l-1.45-1.45a19.51,19.51,0,0,0-27.59,0L-84.28-38.35a19.51,19.51,0,0,1-27.59,0l-.29-.29a19.51,19.51,0,0,1,0-27.59l8.13-8.13A19.51,19.51,0,0,0-104-102l-1.45-1.45a19.51,19.51,0,0,0-27.59,0l-.58.58a19.51,19.51,0,0,1-27.59,0h0a19.51,19.51,0,0,1,0-27.59l45-45a19.51,19.51,0,0,0,0-27.59l-1.45-1.45a19.51,19.51,0,0,0-27.59,0"/><path class="cls-76" d="M-171.71,106a19.51,19.51,0,0,1,27.59,0l.29.29a19.51,19.51,0,0,1,0,27.59l-11.33,11.33a19.51,19.51,0,0,0,0,27.59l1.45,1.45a19.51,19.51,0,0,0,27.59,0L20.57,27.61A19.51,19.51,0,0,0,20.57,0L19.12-1.44a19.51,19.51,0,0,0-27.59,0L-19.8,9.89a19.51,19.51,0,0,1-27.59,0l-.29-.29a19.51,19.51,0,0,1,0-27.59L-9.05-56.62a19.51,19.51,0,0,0,0-27.59l-1.45-1.45a19.51,19.51,0,0,0-27.59,0L-84.28-39.49a19.51,19.51,0,0,1-27.59,0l-.29-.29a19.51,19.51,0,0,1,0-27.59L-104-75.5a19.51,19.51,0,0,0,0-27.59l-1.45-1.45a19.51,19.51,0,0,0-27.59,0l-.58.58a19.51,19.51,0,0,1-27.59,0h0a19.51,19.51,0,0,1,0-27.59l45-45a19.51,19.51,0,0,0,0-27.59l-1.45-1.45a19.51,19.51,0,0,0-27.59,0"/><path class="cls-77" d="M-171.71,104.9a19.51,19.51,0,0,1,27.59,0l.29.29a19.51,19.51,0,0,1,0,27.59l-11.33,11.33a19.51,19.51,0,0,0,0,27.59l1.45,1.45a19.51,19.51,0,0,0,27.59,0L20.57,26.47a19.51,19.51,0,0,0,0-27.59L19.12-2.57a19.51,19.51,0,0,0-27.59,0L-19.8,8.76a19.51,19.51,0,0,1-27.59,0l-.29-.29a19.51,19.51,0,0,1,0-27.59L-9.05-57.76a19.51,19.51,0,0,0,0-27.59l-1.45-1.45a19.51,19.51,0,0,0-27.59,0L-84.28-40.62a19.51,19.51,0,0,1-27.59,0l-.29-.29a19.51,19.51,0,0,1,0-27.59l8.13-8.13a19.51,19.51,0,0,0,0-27.59l-1.45-1.45a19.51,19.51,0,0,0-27.59,0l-.58.58a19.51,19.51,0,0,1-27.59,0h0a19.51,19.51,0,0,1,0-27.59l45-45a19.51,19.51,0,0,0,0-27.59l-1.45-1.45a19.51,19.51,0,0,0-27.59,0"/><path class="cls-78" d="M-171.71,103.76a19.51,19.51,0,0,1,27.59,0l.29.29a19.51,19.51,0,0,1,0,27.59L-155.15,143a19.51,19.51,0,0,0,0,27.59l1.45,1.45a19.51,19.51,0,0,0,27.59,0L20.57,25.34a19.51,19.51,0,0,0,0-27.59L19.12-3.71a19.51,19.51,0,0,0-27.59,0L-19.8,7.62a19.51,19.51,0,0,1-27.59,0l-.29-.29a19.51,19.51,0,0,1,0-27.59L-9.05-58.89a19.51,19.51,0,0,0,0-27.59l-1.45-1.45a19.51,19.51,0,0,0-27.59,0L-84.28-41.76a19.51,19.51,0,0,1-27.59,0l-.29-.29a19.51,19.51,0,0,1,0-27.59l8.13-8.13a19.51,19.51,0,0,0,0-27.59l-1.45-1.45a19.51,19.51,0,0,0-27.59,0l-.58.58a19.51,19.51,0,0,1-27.59,0h0a19.51,19.51,0,0,1,0-27.59l45-45a19.51,19.51,0,0,0,0-27.59l-1.45-1.45a19.51,19.51,0,0,0-27.59,0"/><path class="cls-79" d="M-171.71,102.63a19.51,19.51,0,0,1,27.59,0l.29.29a19.51,19.51,0,0,1,0,27.59l-11.33,11.33a19.51,19.51,0,0,0,0,27.59l1.45,1.45a19.51,19.51,0,0,0,27.59,0L20.57,24.21a19.51,19.51,0,0,0,0-27.59L19.12-4.84a19.51,19.51,0,0,0-27.59,0L-19.8,6.49a19.51,19.51,0,0,1-27.59,0l-.29-.29a19.51,19.51,0,0,1,0-27.59L-9.05-60a19.51,19.51,0,0,0,0-27.59l-1.45-1.45a19.51,19.51,0,0,0-27.59,0L-84.28-42.89a19.51,19.51,0,0,1-27.59,0l-.29-.29a19.51,19.51,0,0,1,0-27.59l8.13-8.13a19.51,19.51,0,0,0,0-27.59l-1.45-1.45a19.51,19.51,0,0,0-27.59,0l-.58.58a19.51,19.51,0,0,1-27.59,0h0a19.51,19.51,0,0,1,0-27.59l45-45a19.51,19.51,0,0,0,0-27.59l-1.45-1.45a19.51,19.51,0,0,0-27.59,0"/><path class="cls-80" d="M-171.71,101.49a19.51,19.51,0,0,1,27.59,0l.29.29a19.51,19.51,0,0,1,0,27.59l-11.33,11.33a19.51,19.51,0,0,0,0,27.59l1.45,1.45a19.51,19.51,0,0,0,27.59,0L20.57,23.07a19.51,19.51,0,0,0,0-27.59L19.12-6A19.51,19.51,0,0,0-8.47-6L-19.8,5.35a19.51,19.51,0,0,1-27.59,0l-.29-.29a19.51,19.51,0,0,1,0-27.59L-9.05-61.16a19.51,19.51,0,0,0,0-27.59l-1.45-1.45a19.51,19.51,0,0,0-27.59,0L-84.28-44a19.51,19.51,0,0,1-27.59,0l-.29-.29a19.51,19.51,0,0,1,0-27.59L-104-80a19.51,19.51,0,0,0,0-27.59l-1.45-1.45a19.51,19.51,0,0,0-27.59,0l-.58.58a19.51,19.51,0,0,1-27.59,0h0a19.51,19.51,0,0,1,0-27.59l45-45a19.51,19.51,0,0,0,0-27.59l-1.45-1.45a19.51,19.51,0,0,0-27.59,0"/><path class="cls-81" d="M-171.71,100.36a19.51,19.51,0,0,1,27.59,0l.29.29a19.51,19.51,0,0,1,0,27.59l-11.33,11.33a19.51,19.51,0,0,0,0,27.59l1.45,1.45a19.51,19.51,0,0,0,27.59,0L20.57,21.94a19.51,19.51,0,0,0,0-27.59L19.12-7.11a19.51,19.51,0,0,0-27.59,0L-19.8,4.22a19.51,19.51,0,0,1-27.59,0l-.29-.29a19.51,19.51,0,0,1,0-27.59L-9.05-62.3a19.51,19.51,0,0,0,0-27.59l-1.45-1.45a19.51,19.51,0,0,0-27.59,0L-84.28-45.16a19.51,19.51,0,0,1-27.59,0l-.29-.29a19.51,19.51,0,0,1,0-27.59l8.13-8.13a19.51,19.51,0,0,0,0-27.59l-1.45-1.45a19.51,19.51,0,0,0-27.59,0l-.58.58a19.51,19.51,0,0,1-27.59,0h0a19.51,19.51,0,0,1,0-27.59l45-45a19.51,19.51,0,0,0,0-27.59l-1.45-1.45a19.51,19.51,0,0,0-27.59,0"/><path class="cls-82" d="M-171.71,99.23a19.51,19.51,0,0,1,27.59,0l.29.29a19.51,19.51,0,0,1,0,27.59l-11.33,11.33a19.51,19.51,0,0,0,0,27.59l1.45,1.45a19.51,19.51,0,0,0,27.59,0L20.57,20.8a19.51,19.51,0,0,0,0-27.59L19.12-8.24a19.51,19.51,0,0,0-27.59,0L-19.8,3.08a19.51,19.51,0,0,1-27.59,0l-.29-.29a19.51,19.51,0,0,1,0-27.59L-9.05-63.43A19.51,19.51,0,0,0-9.05-91l-1.45-1.45a19.51,19.51,0,0,0-27.59,0L-84.28-46.29a19.51,19.51,0,0,1-27.59,0l-.29-.29a19.51,19.51,0,0,1,0-27.59l8.13-8.13a19.51,19.51,0,0,0,0-27.59l-1.45-1.45a19.51,19.51,0,0,0-27.59,0l-.58.58a19.51,19.51,0,0,1-27.59,0h0a19.51,19.51,0,0,1,0-27.59l45-45a19.51,19.51,0,0,0,0-27.59l-1.45-1.45a19.51,19.51,0,0,0-27.59,0"/><path class="cls-83" d="M-171.71,98.09a19.51,19.51,0,0,1,27.59,0l.29.29a19.51,19.51,0,0,1,0,27.59l-11.33,11.33a19.51,19.51,0,0,0,0,27.59l1.45,1.45a19.51,19.51,0,0,0,27.59,0L20.57,19.67a19.51,19.51,0,0,0,0-27.59L19.12-9.38a19.51,19.51,0,0,0-27.59,0L-19.8,1.95a19.51,19.51,0,0,1-27.59,0l-.29-.29a19.51,19.51,0,0,1,0-27.59L-9.05-64.57a19.51,19.51,0,0,0,0-27.59l-1.45-1.45a19.51,19.51,0,0,0-27.59,0L-84.28-47.43a19.51,19.51,0,0,1-27.59,0l-.29-.29a19.51,19.51,0,0,1,0-27.59l8.13-8.13A19.51,19.51,0,0,0-104-111l-1.45-1.45a19.51,19.51,0,0,0-27.59,0l-.58.58a19.51,19.51,0,0,1-27.59,0h0a19.51,19.51,0,0,1,0-27.59l45-45a19.51,19.51,0,0,0,0-27.59l-1.45-1.45a19.51,19.51,0,0,0-27.59,0"/><path class="cls-84" d="M-171.71,97a19.51,19.51,0,0,1,27.59,0l.29.29a19.51,19.51,0,0,1,0,27.59l-11.33,11.33a19.51,19.51,0,0,0,0,27.59l1.45,1.45a19.51,19.51,0,0,0,27.59,0L20.57,18.53a19.51,19.51,0,0,0,0-27.59l-1.45-1.45a19.51,19.51,0,0,0-27.59,0L-19.8.82a19.51,19.51,0,0,1-27.59,0l-.29-.29a19.51,19.51,0,0,1,0-27.59L-9.05-65.7a19.51,19.51,0,0,0,0-27.59l-1.45-1.45a19.51,19.51,0,0,0-27.59,0L-84.28-48.56a19.51,19.51,0,0,1-27.59,0l-.29-.29a19.51,19.51,0,0,1,0-27.59l8.13-8.13a19.51,19.51,0,0,0,0-27.59l-1.45-1.45a19.51,19.51,0,0,0-27.59,0l-.58.58a19.51,19.51,0,0,1-27.59,0h0a19.51,19.51,0,0,1,0-27.59l45-45a19.51,19.51,0,0,0,0-27.59l-1.45-1.45a19.51,19.51,0,0,0-27.59,0"/><path class="cls-85" d="M-171.71,95.82a19.51,19.51,0,0,1,27.59,0l.29.29a19.51,19.51,0,0,1,0,27.59L-155.15,135a19.51,19.51,0,0,0,0,27.59l1.45,1.45a19.51,19.51,0,0,0,27.59,0L20.57,17.4a19.51,19.51,0,0,0,0-27.59l-1.45-1.45a19.51,19.51,0,0,0-27.59,0L-19.8-.32a19.51,19.51,0,0,1-27.59,0l-.29-.29a19.51,19.51,0,0,1,0-27.59L-9.05-66.83a19.51,19.51,0,0,0,0-27.59l-1.45-1.45a19.51,19.51,0,0,0-27.59,0L-84.28-49.7a19.51,19.51,0,0,1-27.59,0l-.29-.29a19.51,19.51,0,0,1,0-27.59l8.13-8.13a19.51,19.51,0,0,0,0-27.59l-1.45-1.45a19.51,19.51,0,0,0-27.59,0l-.58.58a19.51,19.51,0,0,1-27.59,0h0a19.51,19.51,0,0,1,0-27.59l45-45a19.51,19.51,0,0,0,0-27.59l-1.45-1.45a19.51,19.51,0,0,0-27.59,0"/><path class="cls-86" d="M-171.71,94.69a19.51,19.51,0,0,1,27.59,0l.29.29a19.51,19.51,0,0,1,0,27.59l-11.33,11.33a19.51,19.51,0,0,0,0,27.59l1.45,1.45a19.51,19.51,0,0,0,27.59,0L20.57,16.26a19.51,19.51,0,0,0,0-27.59l-1.45-1.45a19.51,19.51,0,0,0-27.59,0L-19.8-1.45a19.51,19.51,0,0,1-27.59,0l-.29-.29a19.51,19.51,0,0,1,0-27.59L-9.05-68a19.51,19.51,0,0,0,0-27.59L-10.51-97A19.51,19.51,0,0,0-38.1-97L-84.28-50.83a19.51,19.51,0,0,1-27.59,0l-.29-.29a19.51,19.51,0,0,1,0-27.59l8.13-8.13a19.51,19.51,0,0,0,0-27.59l-1.45-1.45a19.51,19.51,0,0,0-27.59,0l-.58.58a19.51,19.51,0,0,1-27.59,0h0a19.51,19.51,0,0,1,0-27.59l45-45a19.51,19.51,0,0,0,0-27.59l-1.45-1.45a19.51,19.51,0,0,0-27.59,0"/><path class="cls-87" d="M-171.71,93.55a19.51,19.51,0,0,1,27.59,0l.29.29a19.51,19.51,0,0,1,0,27.59l-11.33,11.33a19.51,19.51,0,0,0,0,27.59l1.45,1.45a19.51,19.51,0,0,0,27.59,0L20.57,15.13a19.51,19.51,0,0,0,0-27.59l-1.45-1.45a19.51,19.51,0,0,0-27.59,0L-19.8-2.59a19.51,19.51,0,0,1-27.59,0l-.29-.29a19.51,19.51,0,0,1,0-27.59L-9.05-69.1a19.51,19.51,0,0,0,0-27.59l-1.45-1.45a19.51,19.51,0,0,0-27.59,0L-84.28-52a19.51,19.51,0,0,1-27.59,0l-.29-.29a19.51,19.51,0,0,1,0-27.59L-104-88a19.51,19.51,0,0,0,0-27.59l-1.45-1.45a19.51,19.51,0,0,0-27.59,0l-.58.58a19.51,19.51,0,0,1-27.59,0h0a19.51,19.51,0,0,1,0-27.59l45-45a19.51,19.51,0,0,0,0-27.59l-1.45-1.45a19.51,19.51,0,0,0-27.59,0"/><path class="cls-88" d="M-171.71,92.42a19.51,19.51,0,0,1,27.59,0l.29.29a19.51,19.51,0,0,1,0,27.59l-11.33,11.33a19.51,19.51,0,0,0,0,27.59l1.45,1.45a19.51,19.51,0,0,0,27.59,0L20.57,14a19.51,19.51,0,0,0,0-27.59l-1.45-1.45a19.51,19.51,0,0,0-27.59,0L-19.8-3.72a19.51,19.51,0,0,1-27.59,0L-47.68-4a19.51,19.51,0,0,1,0-27.59L-9.05-70.24a19.51,19.51,0,0,0,0-27.59l-1.45-1.45a19.51,19.51,0,0,0-27.59,0L-84.28-53.1a19.51,19.51,0,0,1-27.59,0l-.29-.29a19.51,19.51,0,0,1,0-27.59l8.13-8.13a19.51,19.51,0,0,0,0-27.59l-1.45-1.45a19.51,19.51,0,0,0-27.59,0l-.58.58a19.51,19.51,0,0,1-27.59,0h0a19.51,19.51,0,0,1,0-27.59l45-45a19.51,19.51,0,0,0,0-27.59l-1.45-1.45a19.51,19.51,0,0,0-27.59,0"/><path class="cls-89" d="M-171.71,91.28a19.51,19.51,0,0,1,27.59,0l.29.29a19.51,19.51,0,0,1,0,27.59l-11.33,11.33a19.51,19.51,0,0,0,0,27.59l1.45,1.45a19.51,19.51,0,0,0,27.59,0L20.57,12.86a19.51,19.51,0,0,0,0-27.59l-1.45-1.45a19.51,19.51,0,0,0-27.59,0L-19.8-4.86a19.51,19.51,0,0,1-27.59,0l-.29-.29a19.51,19.51,0,0,1,0-27.59L-9.05-71.37A19.51,19.51,0,0,0-9.05-99l-1.45-1.45a19.51,19.51,0,0,0-27.59,0L-84.28-54.23a19.51,19.51,0,0,1-27.59,0l-.29-.29a19.51,19.51,0,0,1,0-27.59l8.13-8.13a19.51,19.51,0,0,0,0-27.59l-1.45-1.45a19.51,19.51,0,0,0-27.59,0l-.58.58a19.51,19.51,0,0,1-27.59,0h0a19.51,19.51,0,0,1,0-27.59l45-45a19.51,19.51,0,0,0,0-27.59l-1.45-1.45a19.51,19.51,0,0,0-27.59,0"/><path class="cls-90" d="M-171.71,90.15a19.51,19.51,0,0,1,27.59,0l.29.29a19.51,19.51,0,0,1,0,27.59l-11.33,11.33a19.51,19.51,0,0,0,0,27.59l1.45,1.45a19.51,19.51,0,0,0,27.59,0L20.57,11.73a19.51,19.51,0,0,0,0-27.59l-1.45-1.45a19.51,19.51,0,0,0-27.59,0L-19.8-6A19.51,19.51,0,0,1-47.39-6l-.29-.29a19.51,19.51,0,0,1,0-27.59L-9.05-72.51a19.51,19.51,0,0,0,0-27.59l-1.45-1.45a19.51,19.51,0,0,0-27.59,0L-84.28-55.37a19.51,19.51,0,0,1-27.59,0l-.29-.29a19.51,19.51,0,0,1,0-27.59l8.13-8.13A19.51,19.51,0,0,0-104-119l-1.45-1.45a19.51,19.51,0,0,0-27.59,0l-.58.58a19.51,19.51,0,0,1-27.59,0h0a19.51,19.51,0,0,1,0-27.59l45-45a19.51,19.51,0,0,0,0-27.59l-1.45-1.45a19.51,19.51,0,0,0-27.59,0"/><path class="cls-91" d="M-171.71,89a19.51,19.51,0,0,1,27.59,0l.29.29a19.51,19.51,0,0,1,0,27.59l-11.33,11.33a19.51,19.51,0,0,0,0,27.59l1.45,1.45a19.51,19.51,0,0,0,27.59,0L20.57,10.59a19.51,19.51,0,0,0,0-27.59l-1.45-1.45a19.51,19.51,0,0,0-27.59,0L-19.8-7.13a19.51,19.51,0,0,1-27.59,0l-.29-.29a19.51,19.51,0,0,1,0-27.59L-9.05-73.64a19.51,19.51,0,0,0,0-27.59l-1.45-1.45a19.51,19.51,0,0,0-27.59,0L-84.28-56.5a19.51,19.51,0,0,1-27.59,0l-.29-.29a19.51,19.51,0,0,1,0-27.59l8.13-8.13a19.51,19.51,0,0,0,0-27.59l-1.45-1.45a19.51,19.51,0,0,0-27.59,0l-.58.58a19.51,19.51,0,0,1-27.59,0h0a19.51,19.51,0,0,1,0-27.59l45-45a19.51,19.51,0,0,0,0-27.59l-1.45-1.45a19.51,19.51,0,0,0-27.59,0"/><path class="cls-92" d="M-171.71,87.88a19.51,19.51,0,0,1,27.59,0l.29.29a19.51,19.51,0,0,1,0,27.59l-11.33,11.33a19.51,19.51,0,0,0,0,27.59l1.45,1.45a19.51,19.51,0,0,0,27.59,0L20.57,9.46a19.51,19.51,0,0,0,0-27.59l-1.45-1.45a19.51,19.51,0,0,0-27.59,0L-19.8-8.26a19.51,19.51,0,0,1-27.59,0l-.29-.29a19.51,19.51,0,0,1,0-27.59L-9.05-74.77a19.51,19.51,0,0,0,0-27.59l-1.45-1.45a19.51,19.51,0,0,0-27.59,0L-84.28-57.64a19.51,19.51,0,0,1-27.59,0l-.29-.29a19.51,19.51,0,0,1,0-27.59l8.13-8.13a19.51,19.51,0,0,0,0-27.59l-1.45-1.45a19.51,19.51,0,0,0-27.59,0l-.58.58a19.51,19.51,0,0,1-27.59,0h0a19.51,19.51,0,0,1,0-27.59l45-45a19.51,19.51,0,0,0,0-27.59l-1.45-1.45a19.51,19.51,0,0,0-27.59,0"/><path class="cls-93" d="M-171.71,86.75a19.51,19.51,0,0,1,27.59,0l.29.29a19.51,19.51,0,0,1,0,27.59L-155.15,126a19.51,19.51,0,0,0,0,27.59l1.45,1.45a19.51,19.51,0,0,0,27.59,0L20.57,8.32a19.51,19.51,0,0,0,0-27.59l-1.45-1.45a19.51,19.51,0,0,0-27.59,0L-19.8-9.39a19.51,19.51,0,0,1-27.59,0l-.29-.29a19.51,19.51,0,0,1,0-27.59L-9.05-75.91a19.51,19.51,0,0,0,0-27.59L-10.51-105a19.51,19.51,0,0,0-27.59,0L-84.28-58.77a19.51,19.51,0,0,1-27.59,0l-.29-.29a19.51,19.51,0,0,1,0-27.59l8.13-8.13a19.51,19.51,0,0,0,0-27.59l-1.45-1.45a19.51,19.51,0,0,0-27.59,0l-.58.58a19.51,19.51,0,0,1-27.59,0h0a19.51,19.51,0,0,1,0-27.59l45-45a19.51,19.51,0,0,0,0-27.59l-1.45-1.45a19.51,19.51,0,0,0-27.59,0"/><path class="cls-94" d="M-171.71,85.61a19.51,19.51,0,0,1,27.59,0l.29.29a19.51,19.51,0,0,1,0,27.59l-11.33,11.33a19.51,19.51,0,0,0,0,27.59l1.45,1.45a19.51,19.51,0,0,0,27.59,0L20.57,7.19a19.51,19.51,0,0,0,0-27.59l-1.45-1.45a19.51,19.51,0,0,0-27.59,0L-19.8-10.53a19.51,19.51,0,0,1-27.59,0l-.29-.29a19.51,19.51,0,0,1,0-27.59L-9.05-77a19.51,19.51,0,0,0,0-27.59l-1.45-1.45a19.51,19.51,0,0,0-27.59,0L-84.28-59.91a19.51,19.51,0,0,1-27.59,0l-.29-.29a19.51,19.51,0,0,1,0-27.59l8.13-8.13a19.51,19.51,0,0,0,0-27.59l-1.45-1.45a19.51,19.51,0,0,0-27.59,0l-.58.58a19.51,19.51,0,0,1-27.59,0h0a19.51,19.51,0,0,1,0-27.59l45-45a19.51,19.51,0,0,0,0-27.59l-1.45-1.45a19.51,19.51,0,0,0-27.59,0"/><path class="cls-95" d="M-171.71,84.48a19.51,19.51,0,0,1,27.59,0l.29.29a19.51,19.51,0,0,1,0,27.59l-11.33,11.33a19.51,19.51,0,0,0,0,27.59l1.45,1.45a19.51,19.51,0,0,0,27.59,0L20.57,6.05a19.51,19.51,0,0,0,0-27.59L19.12-23A19.51,19.51,0,0,0-8.47-23L-19.8-11.66a19.51,19.51,0,0,1-27.59,0l-.29-.29a19.51,19.51,0,0,1,0-27.59L-9.05-78.18a19.51,19.51,0,0,0,0-27.59l-1.45-1.45a19.51,19.51,0,0,0-27.59,0L-84.28-61a19.51,19.51,0,0,1-27.59,0l-.29-.29a19.51,19.51,0,0,1,0-27.59l8.13-8.13a19.51,19.51,0,0,0,0-27.59l-1.45-1.45a19.51,19.51,0,0,0-27.59,0l-.58.58a19.51,19.51,0,0,1-27.59,0h0a19.51,19.51,0,0,1,0-27.59l45-45a19.51,19.51,0,0,0,0-27.59l-1.45-1.45a19.51,19.51,0,0,0-27.59,0"/><path id="_Path_4" data-name="&lt;Path&gt;" class="cls-96" d="M-171.71,83.34a19.51,19.51,0,0,1,27.59,0l.29.29a19.51,19.51,0,0,1,0,27.59l-11.33,11.33a19.51,19.51,0,0,0,0,27.59l1.45,1.45a19.51,19.51,0,0,0,27.59,0L20.57,4.92a19.51,19.51,0,0,0,0-27.59l-1.45-1.45a19.51,19.51,0,0,0-27.59,0L-19.8-12.8a19.51,19.51,0,0,1-27.59,0l-.29-.29a19.51,19.51,0,0,1,0-27.59L-9.05-79.31a19.51,19.51,0,0,0,0-27.59l-1.45-1.45a19.51,19.51,0,0,0-27.59,0L-84.28-62.18a19.51,19.51,0,0,1-27.59,0l-.29-.29a19.51,19.51,0,0,1,0-27.59l8.13-8.13a19.51,19.51,0,0,0,0-27.59l-1.45-1.45a19.51,19.51,0,0,0-27.59,0l-.58.58a19.51,19.51,0,0,1-27.59,0h0a19.51,19.51,0,0,1,0-27.59l45-45a19.51,19.51,0,0,0,0-27.59l-1.45-1.45a19.51,19.51,0,0,0-27.59,0"/></g><path id="_Path_5" data-name="&lt;Path&gt;" class="cls-97" d="M-171.71,83.34a19.51,19.51,0,0,1,27.59,0l.29.29a19.51,19.51,0,0,1,0,27.59l-11.33,11.33a19.51,19.51,0,0,0,0,27.59l1.45,1.45a19.51,19.51,0,0,0,27.59,0L20.57,4.92a19.51,19.51,0,0,0,0-27.59l-1.45-1.45a19.51,19.51,0,0,0-27.59,0L-19.8-12.8a19.51,19.51,0,0,1-27.59,0l-.29-.29a19.51,19.51,0,0,1,0-27.59L-9.05-79.31a19.51,19.51,0,0,0,0-27.59l-1.45-1.45a19.51,19.51,0,0,0-27.59,0L-84.28-62.18a19.51,19.51,0,0,1-27.59,0l-.29-.29a19.51,19.51,0,0,1,0-27.59l8.13-8.13a19.51,19.51,0,0,0,0-27.59l-1.45-1.45a19.51,19.51,0,0,0-27.59,0l-.58.58a19.51,19.51,0,0,1-27.59,0h0a19.51,19.51,0,0,1,0-27.59l45-45a19.51,19.51,0,0,0,0-27.59l-1.45-1.45a19.51,19.51,0,0,0-27.59,0"/></g><g id="_Group_3" data-name="&lt;Group&gt;"><g id="_Group_4" data-name="&lt;Group&gt;" class="cls-64"><path id="_Path_6" data-name="&lt;Path&gt;" class="cls-65" d="M102.29,185.92-44.39,332.61a19.51,19.51,0,0,1-27.59,0l-1.45-1.46a19.51,19.51,0,0,1,0-27.59l11.32-11.33a19.51,19.51,0,0,0,0-27.59l-.29-.29a19.51,19.51,0,0,0-27.59,0L-128.62,303a19.51,19.51,0,0,1-27.59,0l-1.46-1.45a19.52,19.52,0,0,1,0-27.6l46.19-46.18.35-.36L-2.92,119.18l.36-.35L43.62,72.65a19.51,19.51,0,0,1,27.59,0l1.46,1.45a19.51,19.51,0,0,1,0,27.59L34,140.32a19.52,19.52,0,0,0,0,27.6l.29.29a19.51,19.51,0,0,0,27.59,0l11.33-11.33a19.51,19.51,0,0,1,27.59,0l1.45,1.45A19.51,19.51,0,0,1,102.29,185.92Z"/><path class="cls-98" d="M102.29,184.85-44.39,331.54a19.51,19.51,0,0,1-27.59,0l-1.45-1.46a19.51,19.51,0,0,1,0-27.59l11.32-11.33a19.51,19.51,0,0,0,0-27.59l-.29-.29a19.51,19.51,0,0,0-27.59,0l-38.63,38.63a19.51,19.51,0,0,1-27.59,0l-1.46-1.45a19.52,19.52,0,0,1,0-27.6l46.19-46.18.35-.36L-2.92,118.11l.36-.35L43.62,71.58a19.51,19.51,0,0,1,27.59,0L72.67,73a19.51,19.51,0,0,1,0,27.59L34,139.25a19.52,19.52,0,0,0,0,27.6l.29.29a19.51,19.51,0,0,0,27.59,0l11.33-11.33a19.51,19.51,0,0,1,27.59,0l1.45,1.45A19.51,19.51,0,0,1,102.29,184.85Z"/><path class="cls-99" d="M102.29,183.79-44.39,330.48a19.51,19.51,0,0,1-27.59,0L-73.43,329a19.51,19.51,0,0,1,0-27.59l11.32-11.33a19.51,19.51,0,0,0,0-27.59l-.29-.29a19.51,19.51,0,0,0-27.59,0l-38.63,38.63a19.51,19.51,0,0,1-27.59,0l-1.46-1.45a19.52,19.52,0,0,1,0-27.6l46.19-46.18.35-.36L-2.92,117l.36-.35L43.62,70.52a19.51,19.51,0,0,1,27.59,0L72.67,72a19.51,19.51,0,0,1,0,27.59L34,138.19a19.52,19.52,0,0,0,0,27.6l.29.29a19.51,19.51,0,0,0,27.59,0l11.33-11.33a19.51,19.51,0,0,1,27.59,0l1.45,1.45A19.51,19.51,0,0,1,102.29,183.79Z"/><path class="cls-100" d="M102.29,182.72-44.39,329.41a19.51,19.51,0,0,1-27.59,0L-73.43,328a19.51,19.51,0,0,1,0-27.59L-62.11,289a19.51,19.51,0,0,0,0-27.59l-.29-.29a19.51,19.51,0,0,0-27.59,0l-38.63,38.63a19.51,19.51,0,0,1-27.59,0l-1.46-1.45a19.52,19.52,0,0,1,0-27.6l46.19-46.18.35-.36L-2.92,116l.36-.35L43.62,69.45a19.51,19.51,0,0,1,27.59,0l1.46,1.45a19.51,19.51,0,0,1,0,27.59L34,137.12a19.52,19.52,0,0,0,0,27.6l.29.29a19.51,19.51,0,0,0,27.59,0l11.33-11.33a19.51,19.51,0,0,1,27.59,0l1.45,1.45A19.51,19.51,0,0,1,102.29,182.72Z"/><path class="cls-101" d="M102.29,181.66-44.39,328.35a19.51,19.51,0,0,1-27.59,0l-1.45-1.46a19.51,19.51,0,0,1,0-27.59L-62.11,288a19.51,19.51,0,0,0,0-27.59l-.29-.29a19.51,19.51,0,0,0-27.59,0l-38.63,38.63a19.51,19.51,0,0,1-27.59,0l-1.46-1.45a19.52,19.52,0,0,1,0-27.6l46.19-46.18.35-.36L-2.92,114.92l.36-.35L43.62,68.39a19.51,19.51,0,0,1,27.59,0l1.46,1.45a19.51,19.51,0,0,1,0,27.59L34,136.06a19.52,19.52,0,0,0,0,27.6l.29.29a19.51,19.51,0,0,0,27.59,0l11.33-11.33a19.51,19.51,0,0,1,27.59,0l1.45,1.45A19.51,19.51,0,0,1,102.29,181.66Z"/><path class="cls-102" d="M102.29,180.59-44.39,327.28a19.51,19.51,0,0,1-27.59,0l-1.45-1.46a19.51,19.51,0,0,1,0-27.59l11.32-11.33a19.51,19.51,0,0,0,0-27.59l-.29-.29A19.51,19.51,0,0,0-90,259l-38.63,38.63a19.51,19.51,0,0,1-27.59,0l-1.46-1.45a19.52,19.52,0,0,1,0-27.6l46.19-46.18.35-.36L-2.92,113.85l.36-.35L43.62,67.32a19.51,19.51,0,0,1,27.59,0l1.46,1.45a19.51,19.51,0,0,1,0,27.59L34,135a19.52,19.52,0,0,0,0,27.6l.29.29a19.51,19.51,0,0,0,27.59,0l11.33-11.33a19.51,19.51,0,0,1,27.59,0l1.45,1.45A19.51,19.51,0,0,1,102.29,180.59Z"/><path class="cls-103" d="M102.29,179.53-44.39,326.22a19.51,19.51,0,0,1-27.59,0l-1.45-1.46a19.51,19.51,0,0,1,0-27.59l11.32-11.33a19.51,19.51,0,0,0,0-27.59l-.29-.29A19.51,19.51,0,0,0-90,258l-38.63,38.63a19.51,19.51,0,0,1-27.59,0l-1.46-1.45a19.52,19.52,0,0,1,0-27.6l46.19-46.18.35-.36L-2.92,112.79l.36-.35L43.62,66.26a19.51,19.51,0,0,1,27.59,0l1.46,1.45a19.51,19.51,0,0,1,0,27.59L34,133.93a19.52,19.52,0,0,0,0,27.6l.29.29a19.51,19.51,0,0,0,27.59,0l11.33-11.33a19.51,19.51,0,0,1,27.59,0l1.45,1.45A19.51,19.51,0,0,1,102.29,179.53Z"/><path class="cls-104" d="M102.29,178.46-44.39,325.15a19.51,19.51,0,0,1-27.59,0l-1.45-1.46a19.51,19.51,0,0,1,0-27.59l11.32-11.33a19.51,19.51,0,0,0,0-27.59l-.29-.29a19.51,19.51,0,0,0-27.59,0l-38.63,38.63a19.51,19.51,0,0,1-27.59,0l-1.46-1.45a19.52,19.52,0,0,1,0-27.6l46.19-46.18.35-.36L-2.92,111.72l.36-.35L43.62,65.19a19.51,19.51,0,0,1,27.59,0l1.46,1.45a19.51,19.51,0,0,1,0,27.59L34,132.86a19.52,19.52,0,0,0,0,27.6l.29.29a19.51,19.51,0,0,0,27.59,0l11.33-11.33a19.51,19.51,0,0,1,27.59,0l1.45,1.45A19.51,19.51,0,0,1,102.29,178.46Z"/><path class="cls-105" d="M102.29,177.4-44.39,324.09a19.51,19.51,0,0,1-27.59,0l-1.45-1.46a19.51,19.51,0,0,1,0-27.59l11.32-11.33a19.51,19.51,0,0,0,0-27.59l-.29-.29a19.51,19.51,0,0,0-27.59,0l-38.63,38.63a19.51,19.51,0,0,1-27.59,0l-1.46-1.45a19.52,19.52,0,0,1,0-27.6l46.19-46.18.35-.36L-2.92,110.66l.36-.35L43.62,64.13a19.51,19.51,0,0,1,27.59,0l1.46,1.45a19.51,19.51,0,0,1,0,27.59L34,131.8a19.52,19.52,0,0,0,0,27.6l.29.29a19.51,19.51,0,0,0,27.59,0l11.33-11.33a19.51,19.51,0,0,1,27.59,0l1.45,1.45A19.51,19.51,0,0,1,102.29,177.4Z"/><path class="cls-106" d="M102.29,176.34-44.39,323A19.51,19.51,0,0,1-72,323l-1.45-1.46a19.51,19.51,0,0,1,0-27.59l11.32-11.33a19.51,19.51,0,0,0,0-27.59l-.29-.29a19.51,19.51,0,0,0-27.59,0l-38.63,38.63a19.51,19.51,0,0,1-27.59,0l-1.46-1.45a19.52,19.52,0,0,1,0-27.6l46.19-46.18.35-.36L-2.92,109.6l.36-.35L43.62,63.07a19.51,19.51,0,0,1,27.59,0l1.46,1.45a19.51,19.51,0,0,1,0,27.59L34,130.74a19.52,19.52,0,0,0,0,27.6l.29.29a19.51,19.51,0,0,0,27.59,0L73.25,147.3a19.51,19.51,0,0,1,27.59,0l1.45,1.45A19.51,19.51,0,0,1,102.29,176.34Z"/><path class="cls-107" d="M102.29,175.27-44.39,322A19.51,19.51,0,0,1-72,322l-1.45-1.46a19.51,19.51,0,0,1,0-27.59l11.32-11.33a19.51,19.51,0,0,0,0-27.59l-.29-.29a19.51,19.51,0,0,0-27.59,0l-38.63,38.63a19.51,19.51,0,0,1-27.59,0l-1.46-1.45a19.52,19.52,0,0,1,0-27.6l46.19-46.18.35-.36L-2.92,108.53l.36-.35L43.62,62a19.51,19.51,0,0,1,27.59,0l1.46,1.45a19.51,19.51,0,0,1,0,27.59L34,129.67a19.52,19.52,0,0,0,0,27.6l.29.29a19.51,19.51,0,0,0,27.59,0l11.33-11.33a19.51,19.51,0,0,1,27.59,0l1.45,1.45A19.51,19.51,0,0,1,102.29,175.27Z"/><path class="cls-108" d="M102.29,174.21-44.39,320.9a19.51,19.51,0,0,1-27.59,0l-1.45-1.46a19.51,19.51,0,0,1,0-27.59l11.32-11.33a19.51,19.51,0,0,0,0-27.59l-.29-.29a19.51,19.51,0,0,0-27.59,0l-38.63,38.63a19.51,19.51,0,0,1-27.59,0l-1.46-1.45a19.52,19.52,0,0,1,0-27.6L-111.48,216l.35-.36L-2.92,107.47l.36-.35L43.62,60.94a19.51,19.51,0,0,1,27.59,0l1.46,1.45a19.51,19.51,0,0,1,0,27.59L34,128.61a19.52,19.52,0,0,0,0,27.6l.29.29a19.51,19.51,0,0,0,27.59,0l11.33-11.33a19.51,19.51,0,0,1,27.59,0l1.45,1.45A19.51,19.51,0,0,1,102.29,174.21Z"/><path class="cls-109" d="M102.29,173.14-44.39,319.83a19.51,19.51,0,0,1-27.59,0l-1.45-1.46a19.51,19.51,0,0,1,0-27.59l11.32-11.33a19.51,19.51,0,0,0,0-27.59l-.29-.29a19.51,19.51,0,0,0-27.59,0l-38.63,38.63a19.51,19.51,0,0,1-27.59,0l-1.46-1.45a19.52,19.52,0,0,1,0-27.6L-111.48,215l.35-.36L-2.92,106.4l.36-.35L43.62,59.87a19.51,19.51,0,0,1,27.59,0l1.46,1.45a19.51,19.51,0,0,1,0,27.59L34,127.54a19.52,19.52,0,0,0,0,27.6l.29.29a19.51,19.51,0,0,0,27.59,0L73.25,144.1a19.51,19.51,0,0,1,27.59,0l1.45,1.45A19.51,19.51,0,0,1,102.29,173.14Z"/><path class="cls-110" d="M102.29,172.08-44.39,318.77a19.51,19.51,0,0,1-27.59,0l-1.45-1.46a19.51,19.51,0,0,1,0-27.59l11.32-11.33a19.51,19.51,0,0,0,0-27.59l-.29-.29a19.51,19.51,0,0,0-27.59,0l-38.63,38.63a19.51,19.51,0,0,1-27.59,0l-1.46-1.45a19.52,19.52,0,0,1,0-27.6l46.19-46.18.35-.36L-2.92,105.34l.36-.35L43.62,58.81a19.51,19.51,0,0,1,27.59,0l1.46,1.45a19.51,19.51,0,0,1,0,27.59L34,126.48a19.52,19.52,0,0,0,0,27.6l.29.29a19.51,19.51,0,0,0,27.59,0L73.25,143a19.51,19.51,0,0,1,27.59,0l1.45,1.45A19.51,19.51,0,0,1,102.29,172.08Z"/><path class="cls-111" d="M102.29,171-44.39,317.7a19.51,19.51,0,0,1-27.59,0l-1.45-1.46a19.51,19.51,0,0,1,0-27.59l11.32-11.33a19.51,19.51,0,0,0,0-27.59l-.29-.29a19.51,19.51,0,0,0-27.59,0l-38.63,38.63a19.51,19.51,0,0,1-27.59,0l-1.46-1.45a19.52,19.52,0,0,1,0-27.6l46.19-46.18.35-.36L-2.92,104.27l.36-.35L43.62,57.74a19.51,19.51,0,0,1,27.59,0l1.46,1.45a19.51,19.51,0,0,1,0,27.59L34,125.41A19.52,19.52,0,0,0,34,153l.29.29a19.51,19.51,0,0,0,27.59,0L73.25,142a19.51,19.51,0,0,1,27.59,0l1.45,1.45A19.51,19.51,0,0,1,102.29,171Z"/><path class="cls-112" d="M102.29,169.95-44.39,316.64a19.51,19.51,0,0,1-27.59,0l-1.45-1.46a19.51,19.51,0,0,1,0-27.59l11.32-11.33a19.51,19.51,0,0,0,0-27.59l-.29-.29a19.51,19.51,0,0,0-27.59,0L-128.62,287a19.51,19.51,0,0,1-27.59,0l-1.46-1.45a19.52,19.52,0,0,1,0-27.6l46.19-46.18.35-.36L-2.92,103.21l.36-.35L43.62,56.68a19.51,19.51,0,0,1,27.59,0l1.46,1.45a19.51,19.51,0,0,1,0,27.59L34,124.35a19.52,19.52,0,0,0,0,27.6l.29.29a19.51,19.51,0,0,0,27.59,0l11.33-11.33a19.51,19.51,0,0,1,27.59,0l1.45,1.45A19.51,19.51,0,0,1,102.29,169.95Z"/><path class="cls-113" d="M102.29,168.88-44.39,315.57a19.51,19.51,0,0,1-27.59,0l-1.45-1.46a19.51,19.51,0,0,1,0-27.59l11.32-11.33a19.51,19.51,0,0,0,0-27.59l-.29-.29a19.51,19.51,0,0,0-27.59,0l-38.63,38.63a19.51,19.51,0,0,1-27.59,0l-1.46-1.45a19.52,19.52,0,0,1,0-27.6l46.19-46.18.35-.36L-2.92,102.14l.36-.35L43.62,55.61a19.51,19.51,0,0,1,27.59,0l1.46,1.45a19.51,19.51,0,0,1,0,27.59L34,123.28a19.52,19.52,0,0,0,0,27.6l.29.29a19.51,19.51,0,0,0,27.59,0l11.33-11.33a19.51,19.51,0,0,1,27.59,0l1.45,1.45A19.51,19.51,0,0,1,102.29,168.88Z"/><path class="cls-114" d="M102.29,167.82-44.39,314.51a19.51,19.51,0,0,1-27.59,0L-73.43,313a19.51,19.51,0,0,1,0-27.59l11.32-11.33a19.51,19.51,0,0,0,0-27.59l-.29-.29a19.51,19.51,0,0,0-27.59,0l-38.63,38.63a19.51,19.51,0,0,1-27.59,0l-1.46-1.45a19.52,19.52,0,0,1,0-27.6l46.19-46.18.35-.36L-2.92,101.08l.36-.35L43.62,54.55a19.51,19.51,0,0,1,27.59,0L72.67,56a19.51,19.51,0,0,1,0,27.59L34,122.22a19.52,19.52,0,0,0,0,27.6l.29.29a19.51,19.51,0,0,0,27.59,0l11.33-11.33a19.51,19.51,0,0,1,27.59,0l1.45,1.45A19.51,19.51,0,0,1,102.29,167.82Z"/><path class="cls-115" d="M102.29,166.75-44.39,313.44a19.51,19.51,0,0,1-27.59,0L-73.43,312a19.51,19.51,0,0,1,0-27.59l11.32-11.33a19.51,19.51,0,0,0,0-27.59l-.29-.29a19.51,19.51,0,0,0-27.59,0l-38.63,38.63a19.51,19.51,0,0,1-27.59,0l-1.46-1.45a19.52,19.52,0,0,1,0-27.6l46.19-46.18.35-.36L-2.92,100l.36-.35L43.62,53.48a19.51,19.51,0,0,1,27.59,0l1.46,1.45a19.51,19.51,0,0,1,0,27.59L34,121.15a19.52,19.52,0,0,0,0,27.6l.29.29a19.51,19.51,0,0,0,27.59,0l11.33-11.33a19.51,19.51,0,0,1,27.59,0l1.45,1.45A19.51,19.51,0,0,1,102.29,166.75Z"/><path class="cls-116" d="M102.29,165.69-44.39,312.38a19.51,19.51,0,0,1-27.59,0l-1.45-1.46a19.51,19.51,0,0,1,0-27.59L-62.11,272a19.51,19.51,0,0,0,0-27.59l-.29-.29a19.51,19.51,0,0,0-27.59,0l-38.63,38.63a19.51,19.51,0,0,1-27.59,0l-1.46-1.45a19.52,19.52,0,0,1,0-27.6l46.19-46.18.35-.36L-2.92,99l.36-.35L43.62,52.42a19.51,19.51,0,0,1,27.59,0l1.46,1.45a19.51,19.51,0,0,1,0,27.59L34,120.09a19.52,19.52,0,0,0,0,27.6l.29.29a19.51,19.51,0,0,0,27.59,0l11.33-11.33a19.51,19.51,0,0,1,27.59,0l1.45,1.45A19.51,19.51,0,0,1,102.29,165.69Z"/><path class="cls-117" d="M102.29,164.63-44.39,311.32a19.51,19.51,0,0,1-27.59,0l-1.45-1.46a19.51,19.51,0,0,1,0-27.59l11.32-11.33a19.51,19.51,0,0,0,0-27.59l-.29-.29a19.51,19.51,0,0,0-27.59,0l-38.63,38.63a19.51,19.51,0,0,1-27.59,0l-1.46-1.45a19.52,19.52,0,0,1,0-27.6l46.19-46.18.35-.36L-2.92,97.89l.36-.35L43.62,51.36a19.51,19.51,0,0,1,27.59,0l1.46,1.45a19.51,19.51,0,0,1,0,27.59L34,119a19.52,19.52,0,0,0,0,27.6l.29.29a19.51,19.51,0,0,0,27.59,0l11.33-11.33a19.51,19.51,0,0,1,27.59,0l1.45,1.45A19.51,19.51,0,0,1,102.29,164.63Z"/><path class="cls-118" d="M102.29,163.56-44.39,310.25a19.51,19.51,0,0,1-27.59,0l-1.45-1.46a19.51,19.51,0,0,1,0-27.59l11.32-11.33a19.51,19.51,0,0,0,0-27.59l-.29-.29A19.51,19.51,0,0,0-90,242l-38.63,38.63a19.51,19.51,0,0,1-27.59,0l-1.46-1.45a19.52,19.52,0,0,1,0-27.6l46.19-46.18.35-.36L-2.92,96.82l.36-.35L43.62,50.29a19.51,19.51,0,0,1,27.59,0l1.46,1.45a19.51,19.51,0,0,1,0,27.59L34,118a19.52,19.52,0,0,0,0,27.6l.29.29a19.51,19.51,0,0,0,27.59,0l11.33-11.33a19.51,19.51,0,0,1,27.59,0l1.45,1.45A19.51,19.51,0,0,1,102.29,163.56Z"/><path class="cls-119" d="M102.29,162.5-44.39,309.19a19.51,19.51,0,0,1-27.59,0l-1.45-1.46a19.51,19.51,0,0,1,0-27.59l11.32-11.33a19.51,19.51,0,0,0,0-27.59l-.29-.29a19.51,19.51,0,0,0-27.59,0l-38.63,38.63a19.51,19.51,0,0,1-27.59,0l-1.46-1.45a19.52,19.52,0,0,1,0-27.6l46.19-46.18.35-.36L-2.92,95.76l.36-.35L43.62,49.23a19.51,19.51,0,0,1,27.59,0l1.46,1.45a19.51,19.51,0,0,1,0,27.59L34,116.9a19.52,19.52,0,0,0,0,27.6l.29.29a19.51,19.51,0,0,0,27.59,0l11.33-11.33a19.51,19.51,0,0,1,27.59,0l1.45,1.45A19.51,19.51,0,0,1,102.29,162.5Z"/><path class="cls-120" d="M102.29,161.43-44.39,308.12a19.51,19.51,0,0,1-27.59,0l-1.45-1.46a19.51,19.51,0,0,1,0-27.59l11.32-11.33a19.51,19.51,0,0,0,0-27.59l-.29-.29a19.51,19.51,0,0,0-27.59,0l-38.63,38.63a19.51,19.51,0,0,1-27.59,0l-1.46-1.45a19.52,19.52,0,0,1,0-27.6l46.19-46.18.35-.36L-2.92,94.69l.36-.35L43.62,48.16a19.51,19.51,0,0,1,27.59,0l1.46,1.45a19.51,19.51,0,0,1,0,27.59L34,115.83a19.52,19.52,0,0,0,0,27.6l.29.29a19.51,19.51,0,0,0,27.59,0l11.33-11.33a19.51,19.51,0,0,1,27.59,0l1.45,1.45A19.51,19.51,0,0,1,102.29,161.43Z"/><path class="cls-121" d="M102.29,160.37-44.39,307.06a19.51,19.51,0,0,1-27.59,0l-1.45-1.46a19.51,19.51,0,0,1,0-27.59l11.32-11.33a19.51,19.51,0,0,0,0-27.59l-.29-.29a19.51,19.51,0,0,0-27.59,0l-38.63,38.63a19.51,19.51,0,0,1-27.59,0l-1.46-1.45a19.52,19.52,0,0,1,0-27.6l46.19-46.18.35-.36L-2.92,93.63l.36-.35L43.62,47.1a19.51,19.51,0,0,1,27.59,0l1.46,1.45a19.51,19.51,0,0,1,0,27.59L34,114.77a19.52,19.52,0,0,0,0,27.6l.29.29a19.51,19.51,0,0,0,27.59,0l11.33-11.33a19.51,19.51,0,0,1,27.59,0l1.45,1.45A19.51,19.51,0,0,1,102.29,160.37Z"/><path class="cls-122" d="M102.29,159.3-44.39,306A19.51,19.51,0,0,1-72,306l-1.45-1.46a19.51,19.51,0,0,1,0-27.59l11.32-11.33a19.51,19.51,0,0,0,0-27.59l-.29-.29a19.51,19.51,0,0,0-27.59,0l-38.63,38.63a19.51,19.51,0,0,1-27.59,0l-1.46-1.45a19.52,19.52,0,0,1,0-27.6l46.19-46.18.35-.36L-2.92,92.56l.36-.35L43.62,46a19.51,19.51,0,0,1,27.59,0l1.46,1.45a19.51,19.51,0,0,1,0,27.59L34,113.7a19.52,19.52,0,0,0,0,27.6l.29.29a19.51,19.51,0,0,0,27.59,0l11.33-11.33a19.51,19.51,0,0,1,27.59,0l1.45,1.45A19.51,19.51,0,0,1,102.29,159.3Z"/><path class="cls-123" d="M102.29,158.24-44.39,304.93a19.51,19.51,0,0,1-27.59,0l-1.45-1.46a19.51,19.51,0,0,1,0-27.59l11.32-11.33a19.51,19.51,0,0,0,0-27.59l-.29-.29a19.51,19.51,0,0,0-27.59,0l-38.63,38.63a19.51,19.51,0,0,1-27.59,0l-1.46-1.45a19.52,19.52,0,0,1,0-27.6l46.19-46.18.35-.36L-2.92,91.5l.36-.35L43.62,45a19.51,19.51,0,0,1,27.59,0l1.46,1.45a19.51,19.51,0,0,1,0,27.59L34,112.64a19.52,19.52,0,0,0,0,27.6l.29.29a19.51,19.51,0,0,0,27.59,0L73.25,129.2a19.51,19.51,0,0,1,27.59,0l1.45,1.45A19.51,19.51,0,0,1,102.29,158.24Z"/><path class="cls-124" d="M102.29,157.17-44.39,303.86a19.51,19.51,0,0,1-27.59,0l-1.45-1.46a19.51,19.51,0,0,1,0-27.59l11.32-11.33a19.51,19.51,0,0,0,0-27.59l-.29-.29a19.51,19.51,0,0,0-27.59,0l-38.63,38.63a19.51,19.51,0,0,1-27.59,0l-1.46-1.45a19.52,19.52,0,0,1,0-27.6L-111.48,199l.35-.36L-2.92,90.43l.36-.35L43.62,43.9a19.51,19.51,0,0,1,27.59,0l1.46,1.45a19.51,19.51,0,0,1,0,27.59L34,111.57a19.52,19.52,0,0,0,0,27.6l.29.29a19.51,19.51,0,0,0,27.59,0l11.33-11.33a19.51,19.51,0,0,1,27.59,0l1.45,1.45A19.51,19.51,0,0,1,102.29,157.17Z"/><path class="cls-125" d="M102.29,156.11-44.39,302.8a19.51,19.51,0,0,1-27.59,0l-1.45-1.46a19.51,19.51,0,0,1,0-27.59l11.32-11.33a19.51,19.51,0,0,0,0-27.59l-.29-.29a19.51,19.51,0,0,0-27.59,0l-38.63,38.63a19.51,19.51,0,0,1-27.59,0l-1.46-1.45a19.52,19.52,0,0,1,0-27.6l46.19-46.18.35-.36L-2.92,89.37l.36-.35L43.62,42.84a19.51,19.51,0,0,1,27.59,0l1.46,1.45a19.51,19.51,0,0,1,0,27.59L34,110.51a19.52,19.52,0,0,0,0,27.6l.29.29a19.51,19.51,0,0,0,27.59,0l11.33-11.33a19.51,19.51,0,0,1,27.59,0l1.45,1.45A19.51,19.51,0,0,1,102.29,156.11Z"/><path class="cls-126" d="M102.29,155-44.39,301.74a19.51,19.51,0,0,1-27.59,0l-1.45-1.46a19.51,19.51,0,0,1,0-27.59l11.32-11.33a19.51,19.51,0,0,0,0-27.59l-.29-.29a19.51,19.51,0,0,0-27.59,0l-38.63,38.63a19.51,19.51,0,0,1-27.59,0l-1.46-1.45a19.52,19.52,0,0,1,0-27.6l46.19-46.18.35-.36L-2.92,88.31l.36-.35L43.62,41.78a19.51,19.51,0,0,1,27.59,0l1.46,1.45a19.51,19.51,0,0,1,0,27.59L34,109.45A19.52,19.52,0,0,0,34,137l.29.29a19.51,19.51,0,0,0,27.59,0L73.25,126a19.51,19.51,0,0,1,27.59,0l1.45,1.45A19.51,19.51,0,0,1,102.29,155Z"/><path class="cls-127" d="M102.29,154-44.39,300.67a19.51,19.51,0,0,1-27.59,0l-1.45-1.46a19.51,19.51,0,0,1,0-27.59l11.32-11.33a19.51,19.51,0,0,0,0-27.59l-.29-.29a19.51,19.51,0,0,0-27.59,0L-128.62,271a19.51,19.51,0,0,1-27.59,0l-1.46-1.45a19.52,19.52,0,0,1,0-27.6l46.19-46.18.35-.36L-2.92,87.24l.36-.35L43.62,40.71a19.51,19.51,0,0,1,27.59,0l1.46,1.45a19.51,19.51,0,0,1,0,27.59L34,108.38A19.52,19.52,0,0,0,34,136l.29.29a19.51,19.51,0,0,0,27.59,0l11.33-11.33a19.51,19.51,0,0,1,27.59,0l1.45,1.45A19.51,19.51,0,0,1,102.29,154Z"/><path id="_Path_7" data-name="&lt;Path&gt;" class="cls-96" d="M102.29,152.92-44.39,299.61a19.51,19.51,0,0,1-27.59,0l-1.45-1.46a19.51,19.51,0,0,1,0-27.59l11.32-11.33a19.51,19.51,0,0,0,0-27.59l-.29-.29a19.51,19.51,0,0,0-27.59,0L-128.62,270a19.51,19.51,0,0,1-27.59,0l-1.46-1.45a19.52,19.52,0,0,1,0-27.6l46.19-46.18.35-.36L-2.92,86.18l.36-.35L43.62,39.65a19.51,19.51,0,0,1,27.59,0l1.46,1.45a19.51,19.51,0,0,1,0,27.59L34,107.32a19.52,19.52,0,0,0,0,27.6l.29.29a19.51,19.51,0,0,0,27.59,0l11.33-11.33a19.51,19.51,0,0,1,27.59,0l1.45,1.45A19.51,19.51,0,0,1,102.29,152.92Z"/></g><path id="_Path_8" data-name="&lt;Path&gt;" class="cls-128" d="M102.29,152.92-44.39,299.61a19.51,19.51,0,0,1-27.59,0l-1.45-1.46a19.51,19.51,0,0,1,0-27.59l11.32-11.33a19.51,19.51,0,0,0,0-27.59l-.29-.29a19.51,19.51,0,0,0-27.59,0L-128.62,270a19.51,19.51,0,0,1-27.59,0l-1.46-1.45a19.52,19.52,0,0,1,0-27.6l46.19-46.18.35-.36L-2.92,86.18l.36-.35L43.62,39.65a19.51,19.51,0,0,1,27.59,0l1.46,1.45a19.51,19.51,0,0,1,0,27.59L34,107.32a19.52,19.52,0,0,0,0,27.6l.29.29a19.51,19.51,0,0,0,27.59,0l11.33-11.33a19.51,19.51,0,0,1,27.59,0l1.45,1.45A19.51,19.51,0,0,1,102.29,152.92Z"/></g></g></g><g id="_Clip_Group_3" data-name="&lt;Clip Group&gt;"><g class="cls-60"><g id="_Group_5" data-name="&lt;Group&gt;"><g id="_Group_6" data-name="&lt;Group&gt;" class="cls-64"><path id="_Path_9" data-name="&lt;Path&gt;" class="cls-65" d="M150.09,31.69,3.41,178.38a19.51,19.51,0,0,1-27.59,0l-1.45-1.46a19.51,19.51,0,0,1,0-27.59L-14.31,138a19.51,19.51,0,0,0,0-27.59l-.29-.29a19.51,19.51,0,0,0-27.59,0l-38.63,38.63a19.51,19.51,0,0,1-27.59,0l-1.46-1.45a19.52,19.52,0,0,1,0-27.6l46.19-46.18.35-.36L44.88-35.05l.36-.35L91.42-81.58a19.51,19.51,0,0,1,27.59,0l1.46,1.45a19.51,19.51,0,0,1,0,27.59L81.84-13.91a19.52,19.52,0,0,0,0,27.6l.29.29a19.51,19.51,0,0,0,27.59,0L121.05,2.65a19.51,19.51,0,0,1,27.59,0l1.45,1.45A19.51,19.51,0,0,1,150.09,31.69Z"/><path class="cls-98" d="M150.09,30.62,3.41,177.31a19.51,19.51,0,0,1-27.59,0l-1.45-1.46a19.51,19.51,0,0,1,0-27.59l11.32-11.33a19.51,19.51,0,0,0,0-27.59l-.29-.29a19.51,19.51,0,0,0-27.59,0l-38.63,38.63a19.51,19.51,0,0,1-27.59,0l-1.46-1.45a19.52,19.52,0,0,1,0-27.6l46.19-46.18.35-.36L44.88-36.12l.36-.35L91.42-82.65a19.51,19.51,0,0,1,27.59,0l1.46,1.45a19.51,19.51,0,0,1,0,27.59L81.84-15a19.52,19.52,0,0,0,0,27.6l.29.29a19.51,19.51,0,0,0,27.59,0L121.05,1.58a19.51,19.51,0,0,1,27.59,0L150.09,3A19.51,19.51,0,0,1,150.09,30.62Z"/><path class="cls-99" d="M150.09,29.56,3.41,176.25a19.51,19.51,0,0,1-27.59,0l-1.45-1.46a19.51,19.51,0,0,1,0-27.59l11.32-11.33a19.51,19.51,0,0,0,0-27.59l-.29-.29a19.51,19.51,0,0,0-27.59,0l-38.63,38.63a19.51,19.51,0,0,1-27.59,0l-1.46-1.45a19.52,19.52,0,0,1,0-27.6l46.19-46.18.35-.36L44.88-37.18l.36-.35L91.42-83.71a19.51,19.51,0,0,1,27.59,0l1.46,1.45a19.51,19.51,0,0,1,0,27.59L81.84-16a19.52,19.52,0,0,0,0,27.6l.29.29a19.51,19.51,0,0,0,27.59,0L121.05.52a19.51,19.51,0,0,1,27.59,0L150.09,2A19.51,19.51,0,0,1,150.09,29.56Z"/><path class="cls-100" d="M150.09,28.49,3.41,175.18a19.51,19.51,0,0,1-27.59,0l-1.45-1.46a19.51,19.51,0,0,1,0-27.59l11.32-11.33a19.51,19.51,0,0,0,0-27.59l-.29-.29a19.51,19.51,0,0,0-27.59,0l-38.63,38.63a19.51,19.51,0,0,1-27.59,0l-1.46-1.45a19.52,19.52,0,0,1,0-27.6l46.19-46.18.35-.36L44.88-38.25l.36-.35L91.42-84.78a19.51,19.51,0,0,1,27.59,0l1.46,1.45a19.51,19.51,0,0,1,0,27.59L81.84-17.11a19.52,19.52,0,0,0,0,27.6l.29.29a19.51,19.51,0,0,0,27.59,0L121.05-.55a19.51,19.51,0,0,1,27.59,0L150.09.9A19.51,19.51,0,0,1,150.09,28.49Z"/><path class="cls-101" d="M150.09,27.43,3.41,174.12a19.51,19.51,0,0,1-27.59,0l-1.45-1.46a19.51,19.51,0,0,1,0-27.59l11.32-11.33a19.51,19.51,0,0,0,0-27.59l-.29-.29a19.51,19.51,0,0,0-27.59,0l-38.63,38.63a19.51,19.51,0,0,1-27.59,0l-1.46-1.45a19.52,19.52,0,0,1,0-27.6l46.19-46.18.35-.36L44.88-39.31l.36-.35L91.42-85.84a19.51,19.51,0,0,1,27.59,0l1.46,1.45a19.51,19.51,0,0,1,0,27.59L81.84-18.17a19.52,19.52,0,0,0,0,27.6l.29.29a19.51,19.51,0,0,0,27.59,0L121.05-1.61a19.51,19.51,0,0,1,27.59,0l1.45,1.45A19.51,19.51,0,0,1,150.09,27.43Z"/><path class="cls-102" d="M150.09,26.36,3.41,173.05a19.51,19.51,0,0,1-27.59,0l-1.45-1.46a19.51,19.51,0,0,1,0-27.59l11.32-11.33a19.51,19.51,0,0,0,0-27.59l-.29-.29a19.51,19.51,0,0,0-27.59,0l-38.63,38.63a19.51,19.51,0,0,1-27.59,0l-1.46-1.45a19.52,19.52,0,0,1,0-27.6l46.19-46.18.35-.36L44.88-40.38l.36-.35L91.42-86.91a19.51,19.51,0,0,1,27.59,0l1.46,1.45a19.51,19.51,0,0,1,0,27.59L81.84-19.24a19.52,19.52,0,0,0,0,27.6l.29.29a19.51,19.51,0,0,0,27.59,0L121.05-2.68a19.51,19.51,0,0,1,27.59,0l1.45,1.45A19.51,19.51,0,0,1,150.09,26.36Z"/><path class="cls-103" d="M150.09,25.3,3.41,172a19.51,19.51,0,0,1-27.59,0l-1.45-1.46a19.51,19.51,0,0,1,0-27.59l11.32-11.33a19.51,19.51,0,0,0,0-27.59l-.29-.29a19.51,19.51,0,0,0-27.59,0l-38.63,38.63a19.51,19.51,0,0,1-27.59,0l-1.46-1.45a19.52,19.52,0,0,1,0-27.6l46.19-46.18.35-.36L44.88-41.44l.36-.35L91.42-88A19.51,19.51,0,0,1,119-88l1.46,1.45a19.51,19.51,0,0,1,0,27.59L81.84-20.3a19.52,19.52,0,0,0,0,27.6l.29.29a19.51,19.51,0,0,0,27.59,0L121.05-3.74a19.51,19.51,0,0,1,27.59,0l1.45,1.45A19.51,19.51,0,0,1,150.09,25.3Z"/><path class="cls-104" d="M150.09,24.24,3.41,170.93a19.51,19.51,0,0,1-27.59,0l-1.45-1.46a19.51,19.51,0,0,1,0-27.59l11.32-11.33a19.51,19.51,0,0,0,0-27.59l-.29-.29a19.51,19.51,0,0,0-27.59,0L-80.82,141.3a19.51,19.51,0,0,1-27.59,0l-1.46-1.45a19.52,19.52,0,0,1,0-27.6l46.19-46.18.35-.36L44.88-42.5l.36-.35L91.42-89A19.51,19.51,0,0,1,119-89l1.46,1.45a19.51,19.51,0,0,1,0,27.59L81.84-21.36a19.52,19.52,0,0,0,0,27.6l.29.29a19.51,19.51,0,0,0,27.59,0L121.05-4.8a19.51,19.51,0,0,1,27.59,0l1.45,1.45A19.51,19.51,0,0,1,150.09,24.24Z"/><path class="cls-105" d="M150.09,23.17,3.41,169.86a19.51,19.51,0,0,1-27.59,0l-1.45-1.46a19.51,19.51,0,0,1,0-27.59l11.32-11.33a19.51,19.51,0,0,0,0-27.59l-.29-.29a19.51,19.51,0,0,0-27.59,0l-38.63,38.63a19.51,19.51,0,0,1-27.59,0l-1.46-1.45a19.52,19.52,0,0,1,0-27.6L-63.68,65l.35-.36L44.88-43.57l.36-.35L91.42-90.1a19.51,19.51,0,0,1,27.59,0l1.46,1.45a19.51,19.51,0,0,1,0,27.59L81.84-22.43a19.52,19.52,0,0,0,0,27.6l.29.29a19.51,19.51,0,0,0,27.59,0L121.05-5.87a19.51,19.51,0,0,1,27.59,0l1.45,1.45A19.51,19.51,0,0,1,150.09,23.17Z"/><path class="cls-106" d="M150.09,22.11,3.41,168.8a19.51,19.51,0,0,1-27.59,0l-1.45-1.46a19.51,19.51,0,0,1,0-27.59l11.32-11.33a19.51,19.51,0,0,0,0-27.59l-.29-.29a19.51,19.51,0,0,0-27.59,0l-38.63,38.63a19.51,19.51,0,0,1-27.59,0l-1.46-1.45a19.52,19.52,0,0,1,0-27.6l46.19-46.18.35-.36L44.88-44.63l.36-.35L91.42-91.16a19.51,19.51,0,0,1,27.59,0l1.46,1.45a19.51,19.51,0,0,1,0,27.59L81.84-23.49a19.52,19.52,0,0,0,0,27.6l.29.29a19.51,19.51,0,0,0,27.59,0L121.05-6.93a19.51,19.51,0,0,1,27.59,0l1.45,1.45A19.51,19.51,0,0,1,150.09,22.11Z"/><path class="cls-107" d="M150.09,21,3.41,167.73a19.51,19.51,0,0,1-27.59,0l-1.45-1.46a19.51,19.51,0,0,1,0-27.59l11.32-11.33a19.51,19.51,0,0,0,0-27.59l-.29-.29a19.51,19.51,0,0,0-27.59,0L-80.82,138.1a19.51,19.51,0,0,1-27.59,0l-1.46-1.45a19.52,19.52,0,0,1,0-27.6l46.19-46.18.35-.36L44.88-45.7l.36-.35L91.42-92.23a19.51,19.51,0,0,1,27.59,0l1.46,1.45a19.51,19.51,0,0,1,0,27.59L81.84-24.56a19.52,19.52,0,0,0,0,27.6l.29.29a19.51,19.51,0,0,0,27.59,0L121.05-8a19.51,19.51,0,0,1,27.59,0l1.45,1.45A19.51,19.51,0,0,1,150.09,21Z"/><path class="cls-108" d="M150.09,20,3.41,166.67a19.51,19.51,0,0,1-27.59,0l-1.45-1.46a19.51,19.51,0,0,1,0-27.59l11.32-11.33a19.51,19.51,0,0,0,0-27.59l-.29-.29a19.51,19.51,0,0,0-27.59,0L-80.82,137a19.51,19.51,0,0,1-27.59,0l-1.46-1.45a19.52,19.52,0,0,1,0-27.6l46.19-46.18.35-.36L44.88-46.76l.36-.35L91.42-93.29a19.51,19.51,0,0,1,27.59,0l1.46,1.45a19.51,19.51,0,0,1,0,27.59L81.84-25.62a19.52,19.52,0,0,0,0,27.6l.29.29a19.51,19.51,0,0,0,27.59,0L121.05-9.06a19.51,19.51,0,0,1,27.59,0l1.45,1.45A19.51,19.51,0,0,1,150.09,20Z"/><path class="cls-109" d="M150.09,18.91,3.41,165.6a19.51,19.51,0,0,1-27.59,0l-1.45-1.46a19.51,19.51,0,0,1,0-27.59l11.32-11.33a19.51,19.51,0,0,0,0-27.59l-.29-.29a19.51,19.51,0,0,0-27.59,0L-80.82,136a19.51,19.51,0,0,1-27.59,0l-1.46-1.45a19.52,19.52,0,0,1,0-27.6l46.19-46.18.35-.36L44.88-47.83l.36-.35L91.42-94.36a19.51,19.51,0,0,1,27.59,0l1.46,1.45a19.51,19.51,0,0,1,0,27.59L81.84-26.69a19.52,19.52,0,0,0,0,27.6l.29.29a19.51,19.51,0,0,0,27.59,0l11.33-11.33a19.51,19.51,0,0,1,27.59,0l1.45,1.45A19.51,19.51,0,0,1,150.09,18.91Z"/><path class="cls-110" d="M150.09,17.85,3.41,164.54a19.51,19.51,0,0,1-27.59,0l-1.45-1.46a19.51,19.51,0,0,1,0-27.59l11.32-11.33a19.51,19.51,0,0,0,0-27.59l-.29-.29a19.51,19.51,0,0,0-27.59,0l-38.63,38.63a19.51,19.51,0,0,1-27.59,0l-1.46-1.45a19.52,19.52,0,0,1,0-27.6l46.19-46.18.35-.36L44.88-48.89l.36-.35L91.42-95.42a19.51,19.51,0,0,1,27.59,0L120.47-94a19.51,19.51,0,0,1,0,27.59L81.84-27.75a19.52,19.52,0,0,0,0,27.6l.29.29a19.51,19.51,0,0,0,27.59,0l11.33-11.33a19.51,19.51,0,0,1,27.59,0l1.45,1.45A19.51,19.51,0,0,1,150.09,17.85Z"/><path class="cls-111" d="M150.09,16.78,3.41,163.47a19.51,19.51,0,0,1-27.59,0L-25.63,162a19.51,19.51,0,0,1,0-27.59l11.32-11.33a19.51,19.51,0,0,0,0-27.59l-.29-.29a19.51,19.51,0,0,0-27.59,0l-38.63,38.63a19.51,19.51,0,0,1-27.59,0l-1.46-1.45a19.52,19.52,0,0,1,0-27.6l46.19-46.18.35-.36L44.88-50l.36-.35L91.42-96.49a19.51,19.51,0,0,1,27.59,0L120.47-95a19.51,19.51,0,0,1,0,27.59L81.84-28.82a19.52,19.52,0,0,0,0,27.6l.29.29a19.51,19.51,0,0,0,27.59,0l11.33-11.33a19.51,19.51,0,0,1,27.59,0l1.45,1.45A19.51,19.51,0,0,1,150.09,16.78Z"/><path class="cls-112" d="M150.09,15.72,3.41,162.41a19.51,19.51,0,0,1-27.59,0l-1.45-1.46a19.51,19.51,0,0,1,0-27.59L-14.31,122a19.51,19.51,0,0,0,0-27.59l-.29-.29a19.51,19.51,0,0,0-27.59,0l-38.63,38.63a19.51,19.51,0,0,1-27.59,0l-1.46-1.45a19.52,19.52,0,0,1,0-27.6l46.19-46.18.35-.36L44.88-51l.36-.35L91.42-97.55a19.51,19.51,0,0,1,27.59,0l1.46,1.45a19.51,19.51,0,0,1,0,27.59L81.84-29.88a19.52,19.52,0,0,0,0,27.6l.29.29a19.51,19.51,0,0,0,27.59,0l11.33-11.33a19.51,19.51,0,0,1,27.59,0l1.45,1.45A19.51,19.51,0,0,1,150.09,15.72Z"/><path class="cls-113" d="M150.09,14.65,3.41,161.34a19.51,19.51,0,0,1-27.59,0l-1.45-1.46a19.51,19.51,0,0,1,0-27.59L-14.31,121a19.51,19.51,0,0,0,0-27.59l-.29-.29a19.51,19.51,0,0,0-27.59,0l-38.63,38.63a19.51,19.51,0,0,1-27.59,0l-1.46-1.45a19.52,19.52,0,0,1,0-27.6l46.19-46.18.35-.36L44.88-52.09l.36-.35L91.42-98.62a19.51,19.51,0,0,1,27.59,0l1.46,1.45a19.51,19.51,0,0,1,0,27.59L81.84-30.95a19.52,19.52,0,0,0,0,27.6l.29.29a19.51,19.51,0,0,0,27.59,0l11.33-11.33a19.51,19.51,0,0,1,27.59,0l1.45,1.45A19.51,19.51,0,0,1,150.09,14.65Z"/><path class="cls-114" d="M150.09,13.59,3.41,160.28a19.51,19.51,0,0,1-27.59,0l-1.45-1.46a19.51,19.51,0,0,1,0-27.59l11.32-11.33a19.51,19.51,0,0,0,0-27.59L-14.6,92a19.51,19.51,0,0,0-27.59,0l-38.63,38.63a19.51,19.51,0,0,1-27.59,0l-1.46-1.45a19.52,19.52,0,0,1,0-27.6l46.19-46.18.35-.36L44.88-53.15l.36-.35L91.42-99.68a19.51,19.51,0,0,1,27.59,0l1.46,1.45a19.51,19.51,0,0,1,0,27.59L81.84-32a19.52,19.52,0,0,0,0,27.6l.29.29a19.51,19.51,0,0,0,27.59,0l11.33-11.33a19.51,19.51,0,0,1,27.59,0L150.09-14A19.51,19.51,0,0,1,150.09,13.59Z"/><path class="cls-115" d="M150.09,12.53,3.41,159.22a19.51,19.51,0,0,1-27.59,0l-1.45-1.46a19.51,19.51,0,0,1,0-27.59l11.32-11.33a19.51,19.51,0,0,0,0-27.59L-14.6,91a19.51,19.51,0,0,0-27.59,0l-38.63,38.63a19.51,19.51,0,0,1-27.59,0l-1.46-1.45a19.52,19.52,0,0,1,0-27.6l46.19-46.18.35-.36L44.88-54.21l.36-.35,46.18-46.18a19.51,19.51,0,0,1,27.59,0l1.46,1.45a19.51,19.51,0,0,1,0,27.59L81.84-33.07a19.52,19.52,0,0,0,0,27.6l.29.29a19.51,19.51,0,0,0,27.59,0l11.33-11.33a19.51,19.51,0,0,1,27.59,0l1.45,1.45A19.51,19.51,0,0,1,150.09,12.53Z"/><path class="cls-116" d="M150.09,11.46,3.41,158.15a19.51,19.51,0,0,1-27.59,0l-1.45-1.46a19.51,19.51,0,0,1,0-27.59l11.32-11.33a19.51,19.51,0,0,0,0-27.59l-.29-.29a19.51,19.51,0,0,0-27.59,0l-38.63,38.63a19.51,19.51,0,0,1-27.59,0l-1.46-1.45a19.52,19.52,0,0,1,0-27.6l46.19-46.18.35-.36L44.88-55.28l.36-.35,46.18-46.18a19.51,19.51,0,0,1,27.59,0l1.46,1.45a19.51,19.51,0,0,1,0,27.59L81.84-34.14a19.52,19.52,0,0,0,0,27.6l.29.29a19.51,19.51,0,0,0,27.59,0l11.33-11.33a19.51,19.51,0,0,1,27.59,0l1.45,1.45A19.51,19.51,0,0,1,150.09,11.46Z"/><path class="cls-117" d="M150.09,10.4,3.41,157.09a19.51,19.51,0,0,1-27.59,0l-1.45-1.46a19.51,19.51,0,0,1,0-27.59l11.32-11.33a19.51,19.51,0,0,0,0-27.59l-.29-.29a19.51,19.51,0,0,0-27.59,0l-38.63,38.63a19.51,19.51,0,0,1-27.59,0l-1.46-1.45a19.52,19.52,0,0,1,0-27.6l46.19-46.18.35-.36L44.88-56.34l.36-.35,46.18-46.18a19.51,19.51,0,0,1,27.59,0l1.46,1.45a19.51,19.51,0,0,1,0,27.59L81.84-35.2a19.52,19.52,0,0,0,0,27.6l.29.29a19.51,19.51,0,0,0,27.59,0l11.33-11.33a19.51,19.51,0,0,1,27.59,0l1.45,1.45A19.51,19.51,0,0,1,150.09,10.4Z"/><path class="cls-118" d="M150.09,9.33,3.41,156a19.51,19.51,0,0,1-27.59,0l-1.45-1.46a19.51,19.51,0,0,1,0-27.59l11.32-11.33a19.51,19.51,0,0,0,0-27.59l-.29-.29a19.51,19.51,0,0,0-27.59,0l-38.63,38.63a19.51,19.51,0,0,1-27.59,0l-1.46-1.45a19.52,19.52,0,0,1,0-27.6l46.19-46.18.35-.36L44.88-57.41l.36-.35,46.18-46.18a19.51,19.51,0,0,1,27.59,0l1.46,1.45a19.51,19.51,0,0,1,0,27.59L81.84-36.27a19.52,19.52,0,0,0,0,27.6l.29.29a19.51,19.51,0,0,0,27.59,0l11.33-11.33a19.51,19.51,0,0,1,27.59,0l1.45,1.45A19.51,19.51,0,0,1,150.09,9.33Z"/><path class="cls-119" d="M150.09,8.27,3.41,155a19.51,19.51,0,0,1-27.59,0l-1.45-1.46a19.51,19.51,0,0,1,0-27.59l11.32-11.33a19.51,19.51,0,0,0,0-27.59l-.29-.29a19.51,19.51,0,0,0-27.59,0l-38.63,38.63a19.51,19.51,0,0,1-27.59,0l-1.46-1.45a19.52,19.52,0,0,1,0-27.6L-63.68,50.1l.35-.36L44.88-58.47l.36-.35L91.42-105A19.51,19.51,0,0,1,119-105l1.46,1.45a19.51,19.51,0,0,1,0,27.59L81.84-37.33a19.52,19.52,0,0,0,0,27.6l.29.29a19.51,19.51,0,0,0,27.59,0l11.33-11.33a19.51,19.51,0,0,1,27.59,0l1.45,1.45A19.51,19.51,0,0,1,150.09,8.27Z"/><path class="cls-120" d="M150.09,7.2,3.41,153.89a19.51,19.51,0,0,1-27.59,0l-1.45-1.46a19.51,19.51,0,0,1,0-27.59l11.32-11.33a19.51,19.51,0,0,0,0-27.59l-.29-.29a19.51,19.51,0,0,0-27.59,0l-38.63,38.63a19.51,19.51,0,0,1-27.59,0l-1.46-1.45a19.52,19.52,0,0,1,0-27.6L-63.68,49l.35-.36L44.88-59.54l.36-.35,46.18-46.18a19.51,19.51,0,0,1,27.59,0l1.46,1.45a19.51,19.51,0,0,1,0,27.59L81.84-38.4a19.52,19.52,0,0,0,0,27.6l.29.29a19.51,19.51,0,0,0,27.59,0l11.33-11.33a19.51,19.51,0,0,1,27.59,0l1.45,1.45A19.51,19.51,0,0,1,150.09,7.2Z"/><path class="cls-121" d="M150.09,6.14,3.41,152.83a19.51,19.51,0,0,1-27.59,0l-1.45-1.46a19.51,19.51,0,0,1,0-27.59l11.32-11.33a19.51,19.51,0,0,0,0-27.59l-.29-.29a19.51,19.51,0,0,0-27.59,0L-80.82,123.2a19.51,19.51,0,0,1-27.59,0l-1.46-1.45a19.52,19.52,0,0,1,0-27.6L-63.68,48l.35-.36L44.88-60.6l.36-.35,46.18-46.18a19.51,19.51,0,0,1,27.59,0l1.46,1.45a19.51,19.51,0,0,1,0,27.59L81.84-39.46a19.52,19.52,0,0,0,0,27.6l.29.29a19.51,19.51,0,0,0,27.59,0L121.05-22.9a19.51,19.51,0,0,1,27.59,0l1.45,1.45A19.51,19.51,0,0,1,150.09,6.14Z"/><path class="cls-122" d="M150.09,5.07,3.41,151.76a19.51,19.51,0,0,1-27.59,0l-1.45-1.46a19.51,19.51,0,0,1,0-27.59l11.32-11.33a19.51,19.51,0,0,0,0-27.59l-.29-.29a19.51,19.51,0,0,0-27.59,0l-38.63,38.63a19.51,19.51,0,0,1-27.59,0l-1.46-1.45a19.52,19.52,0,0,1,0-27.6L-63.68,46.9l.35-.36L44.88-61.67l.36-.35L91.42-108.2a19.51,19.51,0,0,1,27.59,0l1.46,1.45a19.51,19.51,0,0,1,0,27.59L81.84-40.53a19.52,19.52,0,0,0,0,27.6l.29.29a19.51,19.51,0,0,0,27.59,0L121.05-24a19.51,19.51,0,0,1,27.59,0l1.45,1.45A19.51,19.51,0,0,1,150.09,5.07Z"/><path class="cls-123" d="M150.09,4,3.41,150.7a19.51,19.51,0,0,1-27.59,0l-1.45-1.46a19.51,19.51,0,0,1,0-27.59l11.32-11.33a19.51,19.51,0,0,0,0-27.59l-.29-.29a19.51,19.51,0,0,0-27.59,0l-38.63,38.63a19.51,19.51,0,0,1-27.59,0l-1.46-1.45a19.52,19.52,0,0,1,0-27.6l46.19-46.18.35-.36L44.88-62.73l.36-.35,46.18-46.18a19.51,19.51,0,0,1,27.59,0l1.46,1.45a19.51,19.51,0,0,1,0,27.59L81.84-41.59a19.52,19.52,0,0,0,0,27.6l.29.29a19.51,19.51,0,0,0,27.59,0L121.05-25a19.51,19.51,0,0,1,27.59,0l1.45,1.45A19.51,19.51,0,0,1,150.09,4Z"/><path class="cls-124" d="M150.09,2.94,3.41,149.63a19.51,19.51,0,0,1-27.59,0l-1.45-1.46a19.51,19.51,0,0,1,0-27.59l11.32-11.33a19.51,19.51,0,0,0,0-27.59l-.29-.29a19.51,19.51,0,0,0-27.59,0L-80.82,120a19.51,19.51,0,0,1-27.59,0l-1.46-1.45a19.52,19.52,0,0,1,0-27.6l46.19-46.18.35-.36L44.88-63.8l.36-.35,46.18-46.18a19.51,19.51,0,0,1,27.59,0l1.46,1.45a19.51,19.51,0,0,1,0,27.59L81.84-42.66a19.52,19.52,0,0,0,0,27.6l.29.29a19.51,19.51,0,0,0,27.59,0L121.05-26.1a19.51,19.51,0,0,1,27.59,0l1.45,1.45A19.51,19.51,0,0,1,150.09,2.94Z"/><path class="cls-125" d="M150.09,1.88,3.41,148.57a19.51,19.51,0,0,1-27.59,0l-1.45-1.46a19.51,19.51,0,0,1,0-27.59l11.32-11.33a19.51,19.51,0,0,0,0-27.59l-.29-.29a19.51,19.51,0,0,0-27.59,0l-38.63,38.63a19.51,19.51,0,0,1-27.59,0l-1.46-1.45a19.52,19.52,0,0,1,0-27.6l46.19-46.18.35-.36L44.88-64.86l.36-.35,46.18-46.18a19.51,19.51,0,0,1,27.59,0l1.46,1.45a19.51,19.51,0,0,1,0,27.59L81.84-43.72a19.52,19.52,0,0,0,0,27.6l.29.29a19.51,19.51,0,0,0,27.59,0l11.33-11.33a19.51,19.51,0,0,1,27.59,0l1.45,1.45A19.51,19.51,0,0,1,150.09,1.88Z"/><path class="cls-126" d="M150.09.82,3.41,147.51a19.51,19.51,0,0,1-27.59,0L-25.63,146a19.51,19.51,0,0,1,0-27.59l11.32-11.33a19.51,19.51,0,0,0,0-27.59l-.29-.29a19.51,19.51,0,0,0-27.59,0l-38.63,38.63a19.51,19.51,0,0,1-27.59,0l-1.46-1.45a19.52,19.52,0,0,1,0-27.6l46.19-46.18.35-.36L44.88-65.92l.36-.35,46.18-46.18a19.51,19.51,0,0,1,27.59,0l1.46,1.45a19.51,19.51,0,0,1,0,27.59L81.84-44.78a19.52,19.52,0,0,0,0,27.6l.29.29a19.51,19.51,0,0,0,27.59,0l11.33-11.33a19.51,19.51,0,0,1,27.59,0l1.45,1.45A19.51,19.51,0,0,1,150.09.82Z"/><path class="cls-127" d="M150.09-.25,3.41,146.44a19.51,19.51,0,0,1-27.59,0L-25.63,145a19.51,19.51,0,0,1,0-27.59l11.32-11.33a19.51,19.51,0,0,0,0-27.59l-.29-.29a19.51,19.51,0,0,0-27.59,0l-38.63,38.63a19.51,19.51,0,0,1-27.59,0l-1.46-1.45a19.52,19.52,0,0,1,0-27.6l46.19-46.18.35-.36L44.88-67l.36-.35,46.18-46.18a19.51,19.51,0,0,1,27.59,0l1.46,1.45a19.51,19.51,0,0,1,0,27.59L81.84-45.85a19.52,19.52,0,0,0,0,27.6l.29.29a19.51,19.51,0,0,0,27.59,0l11.33-11.33a19.51,19.51,0,0,1,27.59,0l1.45,1.45A19.51,19.51,0,0,1,150.09-.25Z"/><path id="_Path_10" data-name="&lt;Path&gt;" class="cls-96" d="M150.09-1.31,3.41,145.38a19.51,19.51,0,0,1-27.59,0l-1.45-1.46a19.51,19.51,0,0,1,0-27.59L-14.31,105a19.51,19.51,0,0,0,0-27.59l-.29-.29a19.51,19.51,0,0,0-27.59,0l-38.63,38.63a19.51,19.51,0,0,1-27.59,0l-1.46-1.45a19.52,19.52,0,0,1,0-27.6l46.19-46.18.35-.36L44.88-68.05l.36-.35,46.18-46.18a19.51,19.51,0,0,1,27.59,0l1.46,1.45a19.51,19.51,0,0,1,0,27.59L81.84-46.91a19.52,19.52,0,0,0,0,27.6l.29.29a19.51,19.51,0,0,0,27.59,0l11.33-11.33a19.51,19.51,0,0,1,27.59,0l1.45,1.45A19.51,19.51,0,0,1,150.09-1.31Z"/></g><path id="_Path_11" data-name="&lt;Path&gt;" class="cls-129" d="M150.09-1.31,3.41,145.38a19.51,19.51,0,0,1-27.59,0l-1.45-1.46a19.51,19.51,0,0,1,0-27.59L-14.31,105a19.51,19.51,0,0,0,0-27.59l-.29-.29a19.51,19.51,0,0,0-27.59,0l-38.63,38.63a19.51,19.51,0,0,1-27.59,0l-1.46-1.45a19.52,19.52,0,0,1,0-27.6l46.19-46.18.35-.36L44.88-68.05l.36-.35,46.18-46.18a19.51,19.51,0,0,1,27.59,0l1.46,1.45a19.51,19.51,0,0,1,0,27.59L81.84-46.91a19.52,19.52,0,0,0,0,27.6l.29.29a19.51,19.51,0,0,0,27.59,0l11.33-11.33a19.51,19.51,0,0,1,27.59,0l1.45,1.45A19.51,19.51,0,0,1,150.09-1.31Z"/></g></g></g><g id="_Clip_Group_4" data-name="&lt;Clip Group&gt;"><g class="cls-60"><g id="_Group_7" data-name="&lt;Group&gt;"><g id="_Group_8" data-name="&lt;Group&gt;" class="cls-130"><g id="_Group_9" data-name="&lt;Group&gt;"><circle id="_Path_12" data-name="&lt;Path&gt;" class="cls-131" cx="-1.01" cy="52.6" r="2.2" transform="translate(-37.49 14.7) rotate(-45)"/></g><g id="_Group_10" data-name="&lt;Group&gt;"><circle id="_Path_13" data-name="&lt;Path&gt;" class="cls-131" cx="-2.04" cy="67.51" r="2.2" transform="translate(-48.33 18.33) rotate(-45)"/><circle id="_Path_14" data-name="&lt;Path&gt;" class="cls-131" cx="5.93" cy="59.54" r="2.2" transform="translate(-40.36 21.63) rotate(-45)"/></g><g id="_Group_11" data-name="&lt;Group&gt;"><circle id="_Path_15" data-name="&lt;Path&gt;" class="cls-131" cx="4.89" cy="74.44" r="2.2" transform="translate(-51.21 25.26) rotate(-45)"/><circle id="_Path_16" data-name="&lt;Path&gt;" class="cls-131" cx="12.87" cy="66.47" r="2.2" transform="translate(-43.23 28.56) rotate(-45)"/></g></g><g id="_Group_12" data-name="&lt;Group&gt;"><g id="_Group_13" data-name="&lt;Group&gt;"><circle id="_Path_17" data-name="&lt;Path&gt;" class="cls-132" cx="2.56" cy="59.54" r="2.2" transform="translate(-41.35 19.25) rotate(-45)"/></g><g id="_Group_14" data-name="&lt;Group&gt;"><circle id="_Path_18" data-name="&lt;Path&gt;" class="cls-132" cx="1.52" cy="74.44" r="2.2" transform="translate(-52.19 22.88) rotate(-45)"/><circle id="_Path_19" data-name="&lt;Path&gt;" class="cls-132" cx="9.49" cy="66.47" r="2.2" transform="translate(-44.22 26.18) rotate(-45)"/></g><g id="_Group_15" data-name="&lt;Group&gt;" class="cls-133"><circle id="_Path_20" data-name="&lt;Path&gt;" class="cls-131" cx="3.24" cy="88.73" r="2.2" transform="translate(-61.8 28.28) rotate(-45)"/><circle id="_Path_21" data-name="&lt;Path&gt;" class="cls-131" cx="11.21" cy="80.76" r="2.2" transform="translate(-53.82 31.58) rotate(-45)"/><circle id="_Path_22" data-name="&lt;Path&gt;" class="cls-131" cx="19.18" cy="72.79" r="2.2" transform="translate(-45.85 34.88) rotate(-45)"/></g><g id="_Group_16" data-name="&lt;Group&gt;"><circle id="_Path_23" data-name="&lt;Path&gt;" class="cls-132" cx="-0.13" cy="88.73" r="2.2" transform="translate(-62.78 25.9) rotate(-45)"/><circle id="_Path_24" data-name="&lt;Path&gt;" class="cls-132" cx="7.84" cy="80.76" r="2.2" transform="translate(-54.81 29.2) rotate(-45)"/><circle id="_Path_25" data-name="&lt;Path&gt;" class="cls-132" cx="15.81" cy="72.79" r="2.2" transform="translate(-46.84 32.5) rotate(-45)"/></g></g></g></g></g><g id="_Group_17" data-name="&lt;Group&gt;"><g id="_Group_18" data-name="&lt;Group&gt;"><g id="_Group_19" data-name="&lt;Group&gt;"><path class="cls-132" d="M240,46.9v6.84h16.65V63.88H240V76.65H226.56V36.75H259V46.9Z"/><path class="cls-132" d="M295.31,64.05H273.65c.91,2.39,3.08,3.65,6.27,3.65a9.53,9.53,0,0,0,6.5-2.28l6.73,6.78c-3,3.31-7.41,5-13.62,5-11.46,0-18.87-6.9-18.87-16.19,0-9.46,7.58-16.13,17.67-16.13,9.24,0,17.16,5.59,17.16,16.13C295.48,61.95,295.37,63.14,295.31,64.05Zm-21.89-6.21h10a5.1,5.1,0,0,0-10,0Z"/><path class="cls-132" d="M329.51,59.89V76.65h-12v-4.1c-1.48,3.14-4.45,4.67-8.84,4.67-7.64,0-11.57-4.33-11.57-9.69,0-6,4.56-9.41,14.25-9.41h5.19c-.4-2.39-2.22-3.65-5.87-3.65a14.06,14.06,0,0,0-8,2.45l-4.1-8.49c3.65-2.28,9.18-3.53,14-3.53C323.35,44.9,329.51,49.52,329.51,59.89Zm-12.88,6.61V64.34h-3.19c-2.74,0-3.93.91-3.93,2.62,0,1.42,1.14,2.51,3.08,2.51A4.08,4.08,0,0,0,316.63,66.51Z"/><path class="cls-132" d="M358.07,75.57a16.64,16.64,0,0,1-7.92,1.65c-8.61,0-13.62-4-13.62-12.66v-8h-4.28V47.18h4.28V38.46H349.4v8.72h6.38v9.41H349.4v7.87c0,1.94,1.14,3,2.68,3a5.26,5.26,0,0,0,2.91-.85Z"/><path class="cls-132" d="M395.4,45.47V76.65H383.14v-3a12.08,12.08,0,0,1-8.84,3.53c-7.47,0-13.11-4.39-13.11-14.54V45.47h12.88v15c0,4.45,1.54,5.93,4,5.93,2.22,0,4.39-1.65,4.39-6.27V45.47Z"/><path class="cls-132" d="M423.44,44.9V56.3a17.88,17.88,0,0,0-2.85-.23c-3.88,0-6.61,1.77-6.61,6.73V76.65H401.1V45.47h12.26v3.36C415.63,46.21,419.11,44.9,423.44,44.9Z"/><path class="cls-132" d="M459.81,64.05H438.15c.91,2.39,3.08,3.65,6.27,3.65a9.52,9.52,0,0,0,6.5-2.28l6.73,6.78c-3,3.31-7.41,5-13.62,5-11.46,0-18.87-6.9-18.87-16.19,0-9.46,7.58-16.13,17.67-16.13C452.06,44.9,460,50.49,460,61,460,61.95,459.87,63.14,459.81,64.05Zm-21.89-6.21h10a5.1,5.1,0,0,0-10,0Z"/><path class="cls-132" d="M498.51,34.35v42.3H486.26V74.09c-1.88,2.11-4.67,3.14-8.55,3.14-8.15,0-15-6.16-15-16.19s6.9-16.13,15-16.13c3.42,0,6,.85,7.92,2.68V34.35ZM485.86,61c0-4-2.22-6.1-5.07-6.1S475.71,57,475.71,61s2.22,6.16,5.07,6.16S485.86,65.08,485.86,61Z"/><path class="cls-132" d="M303.5,95c0,3.88-2.81,6.23-7.46,6.23h-4.42v5.42h-2.55V88.77h7C300.69,88.77,303.5,91.12,303.5,95Zm-2.55,0c0-2.55-1.71-4-5-4h-4.34v8H296C299.23,99,300.94,97.56,300.94,95Z"/><path class="cls-132" d="M324.32,106.65l-3.86-5.49c-.36,0-.74.05-1.12.05h-4.42v5.44h-2.55V88.77h7c4.65,0,7.46,2.35,7.46,6.23a5.64,5.64,0,0,1-3.93,5.65l4.24,6ZM324.24,95c0-2.55-1.71-4-5-4h-4.34v8h4.34C322.53,99,324.24,97.56,324.24,95Z"/><path class="cls-132" d="M334.59,97.71c0-5.24,4-9.14,9.53-9.14s9.48,3.88,9.48,9.14-4,9.14-9.48,9.14S334.59,102.95,334.59,97.71Zm16.45,0a6.95,6.95,0,1,0-6.92,6.87A6.71,6.71,0,0,0,351,97.71Z"/><path class="cls-132" d="M359.32,104.28l1.48-1.74a4.46,4.46,0,0,0,3.73,2.12c2,0,3.07-1.23,3.07-3.63V91h-6.46V88.77h9v12.13c0,4-1.94,6-5.59,6A6.23,6.23,0,0,1,359.32,104.28Z"/><path class="cls-132" d="M393.42,104.43v2.22h-13V88.77h12.62V91H383v5.49h9v2.17h-9v5.77Z"/><path class="cls-132" d="M401.14,97.71c0-5.29,4-9.14,9.48-9.14a8.84,8.84,0,0,1,6.79,2.78L415.75,93a6.63,6.63,0,0,0-5-2.12,6.87,6.87,0,1,0,0,13.74,6.65,6.65,0,0,0,5-2.15l1.66,1.61a8.87,8.87,0,0,1-6.82,2.81C405.18,106.86,401.14,103,401.14,97.71Z"/><path class="cls-132" d="M429.52,91h-6.13V88.77h14.79V91h-6.13v15.66h-2.53Z"/></g></g></g></g></g></svg>