<?xml version="1.0" encoding="utf-8"?>
<!-- Generator: Adobe Illustrator 23.0.3, SVG Export Plug-In . SVG Version: 6.00 Build 0)  -->
<svg version="1.1" id="Layer_1" xmlns="http://www.w3.org/2000/svg" xmlns:xlink="http://www.w3.org/1999/xlink" x="0px" y="0px"
	 viewBox="0 0 750 136" style="enable-background:new 0 0 750 136;" xml:space="preserve">
<style type="text/css">
	.st0{clip-path:url(#SVGID_2_);}
	.st1{fill:#2C163E;}
	.st2{fill:#371C4D;}
	.st3{fill:#F9C300;}
	.st4{fill:#FFFFFF;}
	.st5{clip-path:url(#SVGID_4_);fill:#1093FF;}
	.st6{clip-path:url(#SVGID_4_);fill:#F9C300;}
	.st7{clip-path:url(#SVGID_4_);fill:#2C163E;}
	.st8{clip-path:url(#SVGID_4_);fill:#FFFFFF;}
</style>
<title>featured-bg</title>
<g>
	<defs>
		<rect id="SVGID_1_" x="-3" y="-1.2" width="756" height="137.2"/>
	</defs>
	<clipPath id="SVGID_2_">
		<use xlink:href="#SVGID_1_"  style="overflow:visible;"/>
	</clipPath>
	<g class="st0">
		<rect x="-3" y="-79.6" class="st1" width="756" height="301.5"/>
		<g>
			<g>
				<path class="st2" d="M512.6,44l-15.3,15.3c-2.5,2.4-6.4,2.3-8.9-0.1c-1.8-1.8-2.3-4.3-1.5-6.6l30.3-30.3c4-4,4-10.4,0-14.4
					c-4-4-10.4-4-14.4,0L488,22.7c-2.5,1.6-5.8,1.3-7.9-0.9c-1.8-1.8-2.2-4.3-1.5-6.5l15.9-15.9c4-4,4-10.4,0-14.4
					c-4-4-10.4-4-14.4,0l-32.4,25.7c-5,4.6-12.9,4.5-17.8-0.4h0c-4.9-4.9-5-12.8-0.3-17.9l25.6-25.6c12.9-12.9,12.9-1.5,0-14.4
					c-4-4-10.4-4-14.4,0l-65.4,65.4c-4.6,4-11.6,3.8-16-0.6c-4.5-4.5-4.6-11.7-0.3-16.3l13.3-13.3c5.5-5.5,5.5-14.5,0-20.1
					c-5.5-5.5-14.5-5.5-20.1,0l-50.2,50.2c-2.9,2.7-7.4,2.6-10.2-0.2h0c-2.8-2.8-2.9-7.3-0.2-10.2l3.3-3.3c2.9-2.9,2.9-7.5,0-10.4
					c-2.9-2.9-7.5-2.9-10.4,0l-76.7,76.7c-2.9,2.9-2.9,7.5,0,10.4h0c2.9,2.9,7.5,2.9,10.4,0l10.1-10.1c2.9-2.7,7.4-2.6,10.2,0.2
					s2.9,7.3,0.2,10.2l-55.7,55.7c-5.5,5.5-5.5,14.5,0,20.1h0c5.5,5.5,14.5,5.5,20.1,0l45.6-45.6c4.6-4.3,11.8-4.2,16.3,0.3
					c4.4,4.4,4.6,11.3,0.6,16l-6,6c-4,4-4,10.4,0,14.4c4,4,10.4,4,14.4,0l44.7-44.7c5-4.7,13-4.7,17.9,0.3c4.9,4.9,5,12.7,0.4,17.8
					l-13.4,13.4c-4,4-4,10.4,0,14.4c3.1,3.1,7.6,3.7,11.3,2.1l-9.7,9.7c-2.5,2.5-2.5,6.5,0,9c2.5,2.5,6.5,2.5,9,0l25.4-25.4
					c4-3.7,10.2-3.7,14.1,0.2h0c3,3,3.7,7.5,2.1,11.2l-42.3,42.3c-2.5,2.5-2.5,6.5,0,9c2.5,2.5,6.5,2.5,9,0l65.8-65.8
					c-3.9,4-3.8,10.3,0.1,14.3c4,4,10.4,4,14.4,0l104-97.3c4-4,4-10.4,0-14.4C523.1,40,516.6,40,512.6,44z"/>
				<path class="st2" d="M567.7,3.3c-4-4-10.4-4-14.4,0l-16.4,16.4c-4,4-4,10.4,0,14.4h0c4,4,10.4,4,14.4,0l16.4-16.4
					C571.7,13.7,571.7,7.2,567.7,3.3z"/>
				<path class="st2" d="M193.2,55.5c-2.7-2.7-7.2-2.7-9.9,0l-37.6,37.6c-2.7,2.7-2.7,7.2,0,9.9c2.7,2.7,7.2,2.7,9.9,0l37.6-37.6
					C195.9,62.7,195.9,58.2,193.2,55.5z"/>
				<path class="st2" d="M488.8,134.7l-44.3,37.6c-2.7,2.7-2.7,7.2,0,9.9c2.7,2.7,7.2,2.7,9.9,0l44.3-37.6c2.7-2.7,2.7-7.2,0-9.9
					C496,132,491.5,132,488.8,134.7z"/>
			</g>
		</g>
		<path class="st3" d="M51.8,176.5h-5.4v-5.4c0-1.4-1.1-2.5-2.5-2.5c-1.4,0-2.5,1.1-2.5,2.5v5.4H36c-1.4,0-2.5,1.1-2.5,2.5
			c0,1.4,1.1,2.5,2.5,2.5h5.4v5.4c0,1.4,1.1,2.5,2.5,2.5c1.4,0,2.5-1.1,2.5-2.5v-5.4h5.4c1.4,0,2.5-1.1,2.5-2.5
			C54.3,177.7,53.2,176.5,51.8,176.5z"/>
		<path class="st4" d="M156.7,76.9h-4.4v-4.4c0-1.2-0.9-2.1-2.1-2.1c-1.2,0-2.1,0.9-2.1,2.1v4.4h-4.4c-1.2,0-2.1,0.9-2.1,2.1
			c0,1.2,0.9,2.1,2.1,2.1h4.4v4.4c0,1.2,0.9,2.1,2.1,2.1c1.2,0,2.1-0.9,2.1-2.1v-4.4h4.4c1.2,0,2.1-0.9,2.1-2.1
			C158.8,77.9,157.8,76.9,156.7,76.9z"/>
		<path class="st3" d="M688.3-34.3h-5.4v-5.4c0-1.4-1.1-2.5-2.5-2.5c-1.4,0-2.5,1.1-2.5,2.5v5.4h-5.4c-1.4,0-2.5,1.1-2.5,2.5
			c0,1.4,1.1,2.5,2.5,2.5h5.4v5.4c0,1.4,1.1,2.5,2.5,2.5c1.4,0,2.5-1.1,2.5-2.5v-5.4h5.4c1.4,0,2.5-1.1,2.5-2.5
			C690.9-33.2,689.7-34.3,688.3-34.3z"/>
		<circle class="st4" cx="564.9" cy="179.1" r="5.2"/>
		<path class="st4" d="M563,110.3c0,1.8-1.5,3.3-3.3,3.3c-1.8,0-3.3-1.5-3.3-3.3c0-1.8,1.5-3.3,3.3-3.3
			C561.6,107.1,563,108.5,563,110.3z"/>
		<path class="st4" d="M500.8,194.9c0,1.8-1.5,3.3-3.3,3.3c-1.8,0-3.3-1.5-3.3-3.3c0-1.8,1.5-3.3,3.3-3.3
			C499.3,191.6,500.8,193.1,500.8,194.9z"/>
		<path class="st4" d="M182.2,194.8c0,1.8-1.5,3.3-3.3,3.3c-1.8,0-3.3-1.5-3.3-3.3c0-1.8,1.5-3.3,3.3-3.3
			C180.7,191.5,182.2,193,182.2,194.8z"/>
		<circle class="st3" cx="586.3" cy="53.4" r="3.3"/>
		<path class="st3" d="M540.5,6.5c0,1.8-1.5,3.3-3.3,3.3c-1.8,0-3.3-1.5-3.3-3.3c0-1.8,1.5-3.3,3.3-3.3C539,3.3,540.5,4.7,540.5,6.5
			z"/>
		<path class="st3" d="M90.1,37.1c0,1.8-1.5,3.3-3.3,3.3c-1.8,0-3.3-1.5-3.3-3.3c0-1.8,1.5-3.3,3.3-3.3
			C88.6,33.8,90.1,35.3,90.1,37.1z"/>
		<path class="st4" d="M694.1,22c0,1.8-1.5,3.3-3.3,3.3c-1.8,0-3.3-1.5-3.3-3.3c0-1.8,1.5-3.3,3.3-3.3
			C692.7,18.7,694.1,20.1,694.1,22z"/>
		<path class="st3" d="M140.9,138c0,1.8-1.5,3.3-3.3,3.3c-1.8,0-3.3-1.5-3.3-3.3c0-1.8,1.5-3.3,3.3-3.3
			C139.4,134.7,140.9,136.1,140.9,138z"/>
		<path class="st3" d="M624.9-50.5c0,1.8-1.5,3.3-3.3,3.3c-1.8,0-3.3-1.5-3.3-3.3c0-1.8,1.5-3.3,3.3-3.3
			C623.4-53.8,624.9-52.3,624.9-50.5z"/>
		<path class="st3" d="M172.7-50.5c0,1.8-1.5,3.3-3.3,3.3c-1.8,0-3.3-1.5-3.3-3.3c0-1.8,1.5-3.3,3.3-3.3
			C171.2-53.8,172.7-52.3,172.7-50.5z"/>
		<path class="st3" d="M357.1,194.9c0,1.8-1.5,3.3-3.3,3.3c-1.8,0-3.3-1.5-3.3-3.3c0-1.8,1.5-3.3,3.3-3.3
			C355.6,191.6,357.1,193.1,357.1,194.9z"/>
		<circle class="st4" cx="76.7" cy="105.1" r="5.2"/>
		<circle class="st3" cx="380.3" cy="-50.5" r="5.2"/>
		<polygon class="st3" points="646.1,71.1 629.8,70 638.7,59 		"/>
		<polygon class="st3" points="160.2,2.9 143.9,4.6 150.8,-7.7 		"/>
		<polygon class="st4" points="267.1,199.2 250.8,201 257.8,188.6 		"/>
		<polygon class="st4" points="517,-37.8 500.8,-36.1 507.7,-48.4 		"/>
		<path class="st4" d="M602.2,5.5l-5.3-5.3c-1.4-1.4-1.4-3.7,0-5.1l0,0c1.4-1.4,3.7-1.4,5.1,0l5.3,5.3c1.4,1.4,1.4,3.7,0,5.1l0,0
			C605.9,6.9,603.6,6.9,602.2,5.5z"/>
		<path class="st3" d="M431.6,192.2h-7.5c-2,0-3.6-1.6-3.6-3.6l0,0c0-2,1.6-3.6,3.6-3.6h7.5c2,0,3.6,1.6,3.6,3.6l0,0
			C435.2,190.6,433.6,192.2,431.6,192.2z"/>
		<path class="st4" d="M235.7-50.6l-5.3,5.3c-1.4,1.4-3.7,1.4-5.1,0l0,0c-1.4-1.4-1.4-3.7,0-5.1l5.3-5.3c1.4-1.4,3.7-1.4,5.1,0l0,0
			C237.2-54.3,237.2-52,235.7-50.6z"/>
		<path class="st4" d="M115.3,190.2l-5.3-5.3c-1.4-1.4-1.4-3.7,0-5.1l0,0c1.4-1.4,3.7-1.4,5.1,0l5.3,5.3c1.4,1.4,1.4,3.7,0,5.1l0,0
			C119,191.6,116.7,191.6,115.3,190.2z"/>
		<g>
			<defs>
				<rect id="SVGID_3_" x="-3" y="-79.6" width="756" height="301.5"/>
			</defs>
			<clipPath id="SVGID_4_">
				<use xlink:href="#SVGID_3_"  style="overflow:visible;"/>
			</clipPath>
			<polygon class="st5" points="113.5,-79.6 -3,-79.6 -3,83.3 27.4,54.2 26.8,34.9 78.3,-29.2 85.7,-53.7 			"/>
			<polygon class="st6" points="753,27.5 753,221.8 620.6,221.8 634.5,184 671.8,124.7 671.8,105.2 			"/>
			<path class="st6" d="M770.5,18.9l-102,102c-3.1,3.1-8.1,3.1-11.2,0l0,0c-3.1-3.1-3.1-8.1,0-11.2l102-102c3.1-3.1,8.1-3.1,11.2,0
				l0,0C773.6,10.8,773.6,15.8,770.5,18.9z"/>
			<path class="st6" d="M646,143.4l-16.2,16.2c-3.1,3.1-8.1,3.1-11.2,0l0,0c-3.1-3.1-3.1-8.1,0-11.2l16.2-16.2
				c3.1-3.1,8.1-3.1,11.2,0l0,0C649.1,135.3,649.1,140.3,646,143.4z"/>
			<path class="st6" d="M728.4,100.3l-102,102c-3.1,3.1-8.1,3.1-11.2,0h0c-3.1-3.1-3.1-8.1,0-11.2l102-102c3.1-3.1,8.1-3.1,11.2,0
				l0,0C731.5,92.2,731.5,97.2,728.4,100.3z"/>
			<path class="st7" d="M691.1,115.3L586.3,220.1c-2.3,2.3-6.1,2.3-8.4,0l0,0c-2.3-2.3-2.3-6.1,0-8.4l104.8-104.8
				c2.3-2.3,6.1-2.3,8.4,0l0,0C693.4,109.2,693.4,113,691.1,115.3z"/>
			<path class="st7" d="M654.6,190.9L549.8,295.7c-2.3,2.3-6.1,2.3-8.4,0l0,0c-2.3-2.3-2.3-6.1,0-8.4l104.8-104.8
				c2.3-2.3,6.1-2.3,8.4,0l0,0C656.9,184.8,656.9,188.6,654.6,190.9z"/>
			<path class="st7" d="M162.2-119.9l-89,89c-2.3,2.3-6,2.3-8.3,0h0c-2.3-2.3-2.3-6,0-8.3l89-89c2.3-2.3,6-2.3,8.3,0l0,0
				C164.4-125.9,164.4-122.2,162.2-119.9z"/>
			<path class="st7" d="M106.8-33.3L16.9,56.7c-2,2-5.3,2-7.4,0l0,0c-2-2-2-5.3,0-7.4l89.9-89.9c2-2,5.3-2,7.4,0l0,0
				C108.9-38.6,108.9-35.3,106.8-33.3z"/>
			<path class="st5" d="M95.5-36.8l-108,108c-2.3,2.3-6,2.3-8.3,0l0,0c-2.3-2.3-2.3-6,0-8.3l108-108c2.3-2.3,6-2.3,8.3,0l0,0
				C97.8-42.8,97.8-39.1,95.5-36.8z"/>
			<path class="st8" d="M228.7-170l-108,108c-2.3,2.3-6,2.3-8.3,0l0,0c-2.3-2.3-2.3-6,0-8.3l108-108c2.3-2.3,6-2.3,8.3,0l0,0
				C231-176,231-172.2,228.7-170z"/>
			<path class="st5" d="M42.7,47.3l-108,108c-2.3,2.3-6,2.3-8.3,0l0,0c-2.3-2.3-2.3-6,0-8.3l108-108c2.3-2.3,6-2.3,8.3,0l0,0
				C45,41.3,45,45.1,42.7,47.3z"/>
		</g>
		<g>
		</g>
	</g>
</g>
<g>
	<path class="st4" d="M288.6,53.8h-15.1v16.6h-9.6V29.2h27.6v7.4h-18v9.9h15.1V53.8z"/>
	<path class="st4" d="M308.7,71c-4.6,0-8.3-1.4-10.9-4.2c-2.6-2.8-4-6.4-4-10.7v-1.1c0-4.7,1.2-8.5,3.7-11.4
		c2.5-2.9,6.1-4.4,10.8-4.4c4.1,0,7.3,1.2,9.6,3.7c2.3,2.5,3.4,5.9,3.4,10.2v5h-17.6l-0.1,0.2c0.2,1.6,0.7,2.9,1.8,3.9
		c1,1,2.5,1.5,4.5,1.5c1.8,0,3.4-0.2,4.6-0.5c1.2-0.3,2.6-0.8,4.2-1.4l2.3,5.8c-1.3,1-3.1,1.8-5.3,2.4C313.5,70.7,311.2,71,308.7,71
		z M308.4,46.6c-1.5,0-2.7,0.5-3.4,1.5c-0.7,1-1.1,2.3-1.3,4l0.1,0.1h8.3v-0.7c0-1.6-0.3-2.8-0.8-3.6
		C310.7,47,309.7,46.6,308.4,46.6z"/>
	<path class="st4" d="M343.1,70.4c-0.4-0.6-0.7-1.4-0.9-2.2c-0.3-0.8-0.4-1.7-0.6-2.5c-0.8,1.6-1.9,2.9-3.1,3.9
		c-1.2,1-2.8,1.5-4.8,1.5c-3.2,0-5.7-0.8-7.5-2.5c-1.8-1.7-2.7-3.9-2.7-6.8c0-3,1.1-5.4,3.4-7c2.3-1.7,5.7-2.5,10.4-2.5h3.9v-2.2
		c0-1.3-0.3-2.3-0.9-3c-0.6-0.7-1.6-1-2.9-1c-1.1,0-1.9,0.3-2.5,0.8c-0.5,0.5-0.8,1.3-0.8,2.4l-9.3,0l-0.1-0.2c-0.1-2.8,1-5.1,3.5-7
		c2.5-1.9,5.7-2.8,9.8-2.8c3.8,0,6.9,0.9,9.2,2.8c2.4,1.9,3.5,4.6,3.5,8.1v11.6c0,1.6,0.1,3.1,0.4,4.5c0.3,1.4,0.7,2.8,1.2,4.2
		L343.1,70.4z M336.4,64.2c1.2,0,2.2-0.3,3.1-0.8c0.9-0.5,1.5-1.2,1.9-2v-4h-3.9c-1.5,0-2.6,0.4-3.3,1.1s-1,1.7-1,2.8
		c0,0.9,0.3,1.6,0.9,2.1S335.5,64.2,336.4,64.2z"/>
	<path class="st4" d="M367.2,32.2v7.6h4.8v6.6h-4.8v14c0,1.1,0.2,1.9,0.7,2.4c0.4,0.5,1,0.7,1.8,0.7c0.5,0,0.9,0,1.2-0.1
		c0.3,0,0.7-0.1,1.1-0.2l0.7,7.1c-1,0.2-1.8,0.4-2.6,0.5c-0.8,0.1-1.7,0.2-2.7,0.2c-3.2,0-5.5-0.8-7.2-2.5c-1.6-1.7-2.4-4.3-2.4-8
		V46.4h-4.3v-6.6h4.3v-7.6H367.2z"/>
	<path class="st4" d="M395.1,65.9c-0.9,1.7-2.1,2.9-3.5,3.8c-1.4,0.9-3.1,1.3-5,1.3c-3.2,0-5.7-1.1-7.5-3.3s-2.7-5.7-2.7-10.3V39.8
		h9.5v17.6c0,2.4,0.3,4,0.9,4.9c0.6,0.9,1.6,1.3,2.8,1.3c1,0,1.9-0.1,2.7-0.4c0.8-0.3,1.4-0.7,2-1.3V39.8h9.6v30.6h-7.7L395.1,65.9z
		"/>
	<path class="st4" d="M426.2,48l-3.1,0c-1.1,0-2,0.2-2.7,0.6c-0.7,0.4-1.2,1-1.6,1.7v20.2h-9.6V39.8h9l0.3,4.5
		c0.6-1.6,1.5-2.9,2.5-3.7c1.1-0.9,2.3-1.3,3.7-1.3c0.4,0,0.8,0,1.2,0.1s0.7,0.1,1.1,0.3L426.2,48z"/>
	<path class="st4" d="M442.8,71c-4.6,0-8.3-1.4-10.9-4.2c-2.6-2.8-4-6.4-4-10.7v-1.1c0-4.7,1.2-8.5,3.7-11.4
		c2.5-2.9,6.1-4.4,10.8-4.4c4.1,0,7.3,1.2,9.6,3.7c2.3,2.5,3.4,5.9,3.4,10.2v5h-17.6l-0.1,0.2c0.2,1.6,0.7,2.9,1.8,3.9
		s2.5,1.5,4.5,1.5c1.8,0,3.4-0.2,4.6-0.5c1.2-0.3,2.6-0.8,4.2-1.4l2.3,5.8c-1.3,1-3.1,1.8-5.3,2.4S445.2,71,442.8,71z M442.4,46.6
		c-1.5,0-2.7,0.5-3.4,1.5c-0.7,1-1.1,2.3-1.3,4l0.1,0.1h8.3v-0.7c0-1.6-0.3-2.8-0.8-3.6C444.7,47,443.7,46.6,442.4,46.6z"/>
	<path class="st4" d="M458.2,55.2c0-4.8,1-8.6,3.1-11.6c2.1-2.9,5-4.4,8.8-4.4c1.4,0,2.7,0.3,3.8,1c1.1,0.7,2.2,1.6,3.1,2.8V26.3
		h9.6v44.2h-8.4l-0.7-3.7c-0.9,1.4-2,2.5-3.2,3.2c-1.2,0.7-2.7,1.1-4.3,1.1c-3.8,0-6.7-1.4-8.8-4.2c-2.1-2.8-3.1-6.5-3.1-11.1V55.2z
		 M467.8,55.8c0,2.5,0.4,4.4,1.1,5.8c0.7,1.4,1.9,2.1,3.7,2.1c1,0,1.9-0.2,2.6-0.6c0.8-0.4,1.4-0.9,1.9-1.6V49.1
		c-0.5-0.8-1.1-1.4-1.9-1.9c-0.8-0.4-1.6-0.7-2.6-0.7c-1.7,0-2.9,0.8-3.7,2.4c-0.8,1.6-1.1,3.6-1.1,6.2V55.8z"/>
	<path class="st4" d="M336.9,99.9L336.9,99.9c0.1,2.3-0.7,4.1-2.3,5.6s-3.7,2.2-6.3,2.2c-2.7,0-4.8-0.9-6.5-2.8
		c-1.7-1.9-2.5-4.3-2.5-7.2v-4.2c0-2.9,0.8-5.3,2.5-7.2c1.7-1.9,3.8-2.8,6.5-2.8s4.8,0.7,6.3,2.1c1.6,1.4,2.3,3.3,2.3,5.6l0,0.1h-3
		c0-1.6-0.5-2.9-1.5-3.9c-1-1-2.3-1.4-4.1-1.4c-1.8,0-3.2,0.7-4.2,2.1c-1.1,1.4-1.6,3.2-1.6,5.3v4.2c0,2.1,0.5,3.9,1.6,5.3
		s2.5,2.1,4.2,2.1c1.8,0,3.1-0.5,4.1-1.4c1-1,1.5-2.3,1.5-3.9H336.9z"/>
	<path class="st4" d="M339.9,98.6c0-2.6,0.7-4.7,2.1-6.4s3.3-2.5,5.7-2.5c2.4,0,4.3,0.8,5.7,2.5c1.4,1.7,2.1,3.8,2.1,6.4v0.4
		c0,2.6-0.7,4.7-2.1,6.4s-3.3,2.5-5.7,2.5s-4.3-0.8-5.7-2.5c-1.4-1.7-2.1-3.8-2.1-6.4V98.6z M343,98.9c0,1.8,0.4,3.4,1.2,4.6
		s1.9,1.8,3.5,1.8c1.5,0,2.7-0.6,3.4-1.8s1.2-2.7,1.2-4.6v-0.4c0-1.8-0.4-3.3-1.2-4.6c-0.8-1.2-1.9-1.8-3.5-1.8
		c-1.5,0-2.7,0.6-3.4,1.8s-1.2,2.7-1.2,4.6V98.9z"/>
	<path class="st4" d="M362.2,90l0.2,2.6c0.6-0.9,1.3-1.6,2.2-2.2s1.9-0.8,3-0.8c1.9,0,3.3,0.6,4.4,1.7c1,1.1,1.5,2.8,1.5,5.1v11
		h-3.2V96.5c0-1.5-0.3-2.6-0.9-3.3c-0.6-0.6-1.5-1-2.8-1c-1,0-1.8,0.2-2.5,0.6c-0.7,0.4-1.2,0.9-1.6,1.7v12.9h-3.2V90H362.2z"/>
	<path class="st4" d="M382.5,85.8V90h3.3v2.4h-3.3v10.6c0,0.8,0.2,1.4,0.5,1.7s0.8,0.5,1.3,0.5c0.2,0,0.4,0,0.6-0.1
		c0.2,0,0.4-0.1,0.6-0.2l0.4,2.2c-0.2,0.2-0.6,0.4-1,0.5c-0.5,0.1-0.9,0.2-1.4,0.2c-1.3,0-2.3-0.4-3.1-1.2c-0.8-0.8-1.1-2-1.1-3.7
		V92.4h-2.8V90h2.8v-4.2H382.5z"/>
	<path class="st4" d="M396.5,107.8c-2.5,0-4.5-0.8-5.9-2.4s-2.1-3.7-2.1-6.3v-0.7c0-2.5,0.7-4.6,2.2-6.2c1.4-1.6,3.2-2.5,5.3-2.5
		c2.3,0,4.1,0.7,5.2,2.2c1.2,1.5,1.7,3.4,1.7,5.8v1.7h-11.2l0,0.1c0,1.8,0.4,3.2,1.2,4.3s2,1.6,3.5,1.6c1.1,0,2-0.2,2.8-0.5
		c0.8-0.3,1.5-0.7,2.1-1.3l1.2,2.1c-0.6,0.6-1.4,1.1-2.5,1.5C399.1,107.6,397.9,107.8,396.5,107.8z M396,92.2c-1.1,0-2,0.4-2.7,1.3
		c-0.7,0.9-1.2,1.9-1.3,3.3l0,0.1h7.9v-0.3c0-1.3-0.3-2.3-0.9-3.1S397.3,92.2,396,92.2z"/>
	<path class="st4" d="M416.7,102.8c0-0.7-0.3-1.3-0.8-1.7c-0.5-0.4-1.5-0.8-3-1.2c-2.1-0.4-3.6-1.1-4.7-1.9
		c-1.1-0.8-1.7-1.9-1.7-3.2c0-1.4,0.6-2.6,1.8-3.6s2.8-1.5,4.7-1.5c2,0,3.6,0.5,4.8,1.6s1.8,2.3,1.8,3.8l0,0.1h-3c0-0.8-0.3-1.4-1-2
		s-1.5-0.9-2.5-0.9c-1.1,0-2,0.3-2.5,0.8s-0.8,1.1-0.8,1.8c0,0.7,0.2,1.2,0.7,1.6c0.5,0.4,1.5,0.7,3,1c2.1,0.5,3.8,1.1,4.9,1.9
		c1.1,0.8,1.7,1.9,1.7,3.2c0,1.5-0.6,2.8-1.9,3.8c-1.3,1-2.9,1.5-4.9,1.5c-2.2,0-4-0.6-5.3-1.7c-1.3-1.1-1.9-2.4-1.8-3.9l0-0.1h3
		c0.1,1.1,0.5,2,1.3,2.5c0.8,0.5,1.7,0.8,2.8,0.8c1.1,0,2-0.2,2.7-0.7C416.3,104.1,416.7,103.5,416.7,102.8z"/>
	<path class="st4" d="M428.2,85.8V90h3.3v2.4h-3.3v10.6c0,0.8,0.2,1.4,0.5,1.7c0.3,0.3,0.8,0.5,1.3,0.5c0.2,0,0.4,0,0.6-0.1
		c0.2,0,0.4-0.1,0.6-0.2l0.4,2.2c-0.2,0.2-0.6,0.4-1,0.5c-0.5,0.1-0.9,0.2-1.4,0.2c-1.3,0-2.3-0.4-3.1-1.2c-0.8-0.8-1.1-2-1.1-3.7
		V92.4h-2.8V90h2.8v-4.2H428.2z"/>
</g>
</svg>
