<?xml version="1.0" encoding="utf-8"?>
<!-- Generator: Adobe Illustrator 21.1.0, SVG Export Plug-In . SVG Version: 6.00 Build 0)  -->
<svg version="1.1" id="Layer_1" xmlns="http://www.w3.org/2000/svg" xmlns:xlink="http://www.w3.org/1999/xlink" x="0px" y="0px"
	 viewBox="0 0 288.8 33.1" style="enable-background:new 0 0 288.8 33.1;" xml:space="preserve">
<style type="text/css">
	.st0{fill:#929090;}
	.st1{fill:#F2A71E;}
	.st2{fill:#64479C;}
	.st3{fill:#1392A9;}
</style>
<path class="st0" d="M65.9,22.5h-1.1v-6.1h-7.6c-0.8,0-1.4,0.2-1.8,0.7c-0.4,0.5-0.6,1.1-0.6,1.9c0,0.7,0.2,1.3,0.7,1.7
	c0.5,0.5,1.1,0.7,1.7,0.7h5v1h-5c-1.1,0-2-0.4-2.6-1.1c-0.6-0.7-0.9-1.6-0.9-2.7c0-1,0.3-1.8,1-2.4c0.7-0.6,1.5-1,2.5-1h7.6
	c-0.2-0.7-0.4-1.3-0.9-1.7c-0.4-0.4-0.9-0.6-1.5-0.6h-6.9v-1h6.9c1,0,1.8,0.3,2.5,1c0.6,0.6,1,1.5,1,2.5V22.5z"/>
<path class="st0" d="M80.1,22.5c-1,0-1.8-0.3-2.5-1c-0.7-0.7-1-1.5-1-2.5v-6.9h1.1V19c0,0.7,0.2,1.3,0.7,1.8c0.4,0.5,1,0.8,1.7,0.8
	h7v1H80.1z"/>
<path class="st0" d="M100.6,22.5c-1,0-1.8-0.3-2.5-1c-0.6-0.6-1-1.5-1-2.5v-3.5c0-1,0.3-1.8,1-2.4c0.6-0.6,1.5-0.9,2.5-0.9h7.7v1
	h-7.7c-0.7,0-1.2,0.3-1.7,0.8c-0.4,0.5-0.7,1.1-0.7,1.8V19c0,0.7,0.2,1.3,0.7,1.8c0.4,0.5,1,0.7,1.7,0.7h7.7v1H100.6z"/>
<polygon class="st0" points="130.2,22.5 130.2,16.4 120.3,16.4 120.3,22.5 119.2,22.5 119.2,12.1 120.3,12.1 120.3,15.4 130.2,15.4 
	130.2,12.1 131.3,12.1 131.3,22.5 "/>
<path class="st0" d="M145.9,22.5c-1,0-1.8-0.3-2.5-1c-0.7-0.7-1-1.5-1-2.5v-3.5c0-1,0.3-1.8,1-2.5c0.7-0.7,1.5-1,2.5-1h7v1h-7
	c-0.7,0-1.2,0.3-1.7,0.8c-0.5,0.5-0.7,1.1-0.7,1.8V17h9.3v1h-9.3V19c0,0.7,0.2,1.3,0.7,1.8c0.5,0.5,1,0.8,1.7,0.8h7v1H145.9z"/>
<path class="st0" d="M178,22.5v-6.8c0-0.7-0.2-1.2-0.7-1.7c-0.5-0.5-1.1-0.7-1.7-0.7h-3.9v9.2h-1.1v-9.2H167c-0.7,0-1.3,0.2-1.7,0.7
	c-0.5,0.5-0.7,1-0.7,1.7v6.8h-1v-6.8c0-1,0.3-1.8,1-2.4c0.7-0.6,1.5-1,2.5-1h8.6c1,0,1.8,0.3,2.5,1c0.7,0.7,1,1.5,1,2.5v6.7H178z"/>
<path class="st1" d="M199.2,22.5h-5.1c-1,0-1.8-0.3-2.5-1c-0.7-0.6-1-1.5-1-2.4v-6.8h1.1v6.8c0,0.7,0.2,1.2,0.7,1.7
	c0.5,0.5,1.1,0.7,1.7,0.7h5.1c0.7,0,1.2-0.2,1.7-0.7c0.5-0.5,0.7-1,0.7-1.7v-6.8h1.1V19c0,1-0.3,1.8-1,2.5
	C201.1,22.2,200.2,22.5,199.2,22.5"/>
<path class="st1" d="M226.3,22.5h-1.1v-6.8c0-0.7-0.2-1.2-0.7-1.7c-0.5-0.5-1.1-0.7-1.7-0.7h-5.1c-0.7,0-1.2,0.2-1.7,0.7
	c-0.5,0.5-0.7,1-0.7,1.7v6.8h-1.1v-6.8c0-1,0.3-1.8,1-2.4c0.7-0.6,1.5-1,2.5-1h5.1c1,0,1.8,0.3,2.5,1c0.7,0.7,1,1.5,1,2.5V22.5z"/>
<rect x="237.8" y="12.1" class="st1" width="1.2" height="10.4"/>
<polygon class="st1" points="257.3,13.3 257.3,22.5 256.3,22.5 256.3,13.3 250.6,13.3 250.6,12.3 263,12.3 263,13.3 "/>
<polygon class="st1" points="280.7,17.8 280.7,22.5 279.6,22.5 279.6,17.5 274.3,13.1 274.3,12.3 275.1,12.3 280.2,16.7 285.3,12.3 
	286.1,12.3 286.1,13.1 "/>
<path class="st2" d="M5.5,23.4c-2.6,0-4.6,2.1-4.6,4.6s2.1,4.6,4.6,4.6s4.6-2.1,4.6-4.6S8,23.4,5.5,23.4"/>
<path class="st3" d="M22.5,9.7c2.6,0,4.6-2.1,4.6-4.6S25,0.4,22.5,0.4c-2.6,0-4.6,2.1-4.6,4.6S19.9,9.7,22.5,9.7"/>
<path class="st1" d="M43.2,25.3c-0.8-1.1-2.1-1.7-3.4-1.8c-1.4-0.1-2.6-0.8-3.4-1.9l0,0c-0.8-1.1-1.2-2.5-0.9-3.8
	c0-0.2,0.1-0.3,0.1-0.5c0,0,0,0,0,0c0-0.1,0-0.3,0-0.4c0,0,0-0.1,0-0.1c0-0.1,0-0.2,0-0.4c0,0,0-0.1,0-0.1c0-0.1,0-0.2,0-0.3
	c0-0.1,0-0.1,0-0.2c0-0.1,0-0.2-0.1-0.3c0-0.1,0-0.1,0-0.2c0-0.1-0.1-0.2-0.1-0.3c0,0,0-0.1-0.1-0.1c-0.1-0.1-0.1-0.3-0.2-0.4
	c0,0,0,0,0-0.1c-0.3-0.5-0.7-1-1.3-1.4c-0.8-0.6-1.8-0.9-2.7-0.9c-1,0-1.9,0.3-2.7,0.9c-0.5,0.4-1,0.9-1.3,1.4c0,0,0,0,0,0.1
	c-0.1,0.1-0.1,0.2-0.2,0.4c0,0,0,0.1-0.1,0.1c0,0.1-0.1,0.2-0.1,0.3c0,0.1,0,0.1,0,0.2c0,0.1-0.1,0.2-0.1,0.3c0,0.1,0,0.1,0,0.2
	c0,0.1,0,0.2,0,0.3c0,0,0,0.1,0,0.1c0,0.1,0,0.2,0,0.4c0,0,0,0.1,0,0.1c0,0.1,0,0.3,0,0.4c0,0,0,0,0,0c0,0.2,0,0.3,0.1,0.5
	c0.3,1.3-0.1,2.7-0.9,3.8l0,0c-0.7,1-1.8,1.7-3.1,1.9c-1.2-0.2-2.3-0.9-3.1-1.9l0,0c-0.8-1.1-1.2-2.5-0.9-3.8c0.3-1.3,0-2.6-0.8-3.7
	c-1.5-2-4.4-2.5-6.5-1c-2.1,1.5-2.5,4.5-1,6.5c0.8,1.1,2,1.7,3.2,1.8c1.4,0.1,2.7,0.8,3.6,2c0.8,1,1.1,2.3,0.9,3.6
	c-0.5,1.8,0.1,3.8,1.6,4.9c0.8,0.6,1.7,0.9,2.7,1c0.1,0,0.1,0,0.2,0c0.1,0,0.1,0,0.2,0c0.9,0,1.9-0.3,2.7-1c1.5-1.2,2.1-3.1,1.6-4.9
	c-0.1-1.3,0.1-2.6,0.9-3.6c0.8-1,1.9-1.7,3.1-1.9c1.2,0.2,2.3,0.9,3.1,1.9c0.9,1.1,1.1,2.6,0.9,4c-0.2,1.2,0,2.5,0.8,3.6
	c1.5,2.1,4.5,2.5,6.6,0.9C44.3,30.2,44.7,27.3,43.2,25.3"/>
</svg>
