<?xml version="1.0"?>
<svg xmlns="http://www.w3.org/2000/svg" height="512px" viewBox="-48 0 496 496" width="512px"><path d="m352.0625 0h-304.125c-26.433594 0-47.9375 21.503906-47.9375 47.9375v254.972656c0 13.035156 5.40625 25.675782 14.832031 34.675782l152.0625 145.148437c8.953125 8.554687 20.707031 13.265625 33.105469 13.265625s24.152344-4.710938 33.097656-13.257812l152.070313-145.15625c9.425781-9 14.832031-21.640626 14.832031-34.675782v-254.972656c0-26.433594-21.503906-47.9375-47.9375-47.9375zm31.9375 302.910156c0 8.683594-3.601562 17.105469-9.878906 23.097656l-152.082032 145.167969c-11.902343 11.390625-32.167968 11.398438-44.085937-.007812l-152.074219-145.160157c-6.277344-5.992187-9.878906-14.414062-9.878906-23.097656v-254.972656c0-17.609375 14.328125-31.9375 31.9375-31.9375h304.125c17.609375 0 31.9375 14.328125 31.9375 31.9375zm0 0" fill="#9a9fbf"/><path d="m200 292.976562-148.816406-140.976562h-19.183594v155.441406l148.695312 140.863282c5.234376 4.960937 12.089844 7.695312 19.304688 7.695312s14.070312-2.734375 19.304688-7.695312l148.695312-140.863282v-155.441406h-19.183594zm152-64.410156-152 144.402344-82.496094-78.367188-11.015625 11.589844 93.511719 88.839844 152-144.398438v49.933594l-143.695312 136.128906c-4.496094 4.265626-12.113282 4.265626-16.609376 0l-143.695312-136.136718v-49.933594l45.441406 43.167969 11.015625-11.59375-56.457031-53.632813v-57.542968l152 144 152-144zm0 0" fill="#9a9fbf"/><path d="m146.320312 204.945312 53.679688-24.34375 53.679688 24.34375-5.421876-61.089843 38.183594-45.664063-56.480468-13.351562-29.960938-53.121094-29.96875 53.128906-56.480469 13.351563 38.183594 45.664062zm-3.871093-97.136718 38.085937-9.007813 19.464844-34.519531 19.472656 34.511719 38.085938 9.007812-25.816406 30.863281 3.578124 40.382813-35.320312-16.007813-35.320312 16.015626 3.578124-40.382813zm0 0" fill="#9a9fbf"/></svg>
