<?xml version="1.0" encoding="iso-8859-1"?>
<!-- Generator: Adobe Illustrator 19.0.0, SVG Export Plug-In . SVG Version: 6.00 Build 0)  -->
<svg xmlns="http://www.w3.org/2000/svg" xmlns:xlink="http://www.w3.org/1999/xlink" version="1.1" id="Layer_1" x="0px" y="0px" viewBox="0 0 512 512" style="enable-background:new 0 0 512 512;" xml:space="preserve" width="512px" height="512px">
<g>
	<g>
		<path d="M215.043,112.798c-2.581-5.161-8.856-7.254-14.019-4.673l-91.14,45.568c-5.161,2.581-7.254,8.858-4.673,14.019    c1.831,3.662,5.521,5.778,9.354,5.778c1.57,0,3.165-0.355,4.665-1.105l91.14-45.568    C215.531,124.237,217.624,117.96,215.043,112.798z" fill="#9a9fbf"/>
	</g>
</g>
<g>
	<g>
		<path d="M145.238,329.1c-5.771,0-10.449,4.678-10.449,10.449v0.137c0,5.771,4.678,10.449,10.449,10.449    c5.771,0,10.449-4.678,10.449-10.449v-0.137C155.687,333.778,151.009,329.1,145.238,329.1z" fill="#9a9fbf"/>
	</g>
</g>
<g>
	<g>
		<path d="M495.954,158.287L321.947,72.392c-40.071-19.652-91.879-19.31-131.964,0.859L16.02,160.23    C5.961,165.231-0.027,174.109,0,183.978c0.027,9.837,6.034,18.645,16.043,23.552l76.976,37.977v100.858    c0,2.762,1.093,5.411,3.041,7.369c2.453,2.466,61.211,60.402,160.073,60.402c98.877,0,157.384-57.953,159.826-60.42    c1.937-1.956,3.023-4.598,3.023-7.351V244.568l27.19-13.62v88.751c-13.334,4.399-22.988,16.967-22.988,31.755v92.212    c0,5.771,4.678,10.449,10.449,10.449h45.976c5.771,0,10.449-4.678,10.449-10.449v-92.212c0-14.788-9.654-27.357-22.988-31.755    v-99.219l28.945-14.499c0.007-0.004,0.016-0.008,0.023-0.011c10.026-5.054,15.993-14.001,15.963-23.931    C511.97,172.139,505.978,163.265,495.954,158.287z M362.485,366.242c-22.659,12.315-59.502,26.995-106.352,26.995    c-46.857,0-83.777-14.684-106.497-27.003c-18.112-9.82-30.372-19.756-35.719-24.451v-85.967l20.871,10.298v39.632    c0,5.771,4.678,10.449,10.449,10.449c5.771,0,10.449-4.678,10.449-10.449v-29.322l58.841,29.03    c12.592,6.255,27.02,9.382,41.45,9.382c14.454,0,28.911-3.138,41.527-9.417l100.578-50.383v86.759h0.001    C392.754,346.496,380.545,356.426,362.485,366.242z M469.159,351.454v81.763h-25.078v-57.731h8.011    c5.771,0,10.449-4.678,10.449-10.449s-4.678-10.449-10.449-10.449h-8.011v-3.135c0-6.914,5.625-12.539,12.539-12.539    C463.535,338.915,469.159,344.54,469.159,351.454z M486.647,187.299l-31.44,15.75l-153.266-32.195    c-0.724-18.254-20.635-32.41-45.941-32.41c-25.781,0-45.975,14.687-45.975,33.437s20.195,33.437,45.975,33.437    c16.169,0,30.139-5.779,38.309-14.712l130.863,27.489l-137.003,68.63c-19.534,9.721-44.793,9.727-64.372,0.002l-198.532-97.95    c-2.69-1.319-4.362-3.18-4.368-4.858c-0.004-1.709,1.692-3.616,4.447-4.986l174.006-87c17.513-8.813,37.615-13.226,57.665-13.226    c19.417,0,38.788,4.141,55.705,12.437l173.962,85.873c2.762,1.371,4.415,3.273,4.42,5.086    C491.107,183.943,489.443,185.886,486.647,187.299z M281.078,171.88c0,5.113-9.77,12.539-25.078,12.539    s-25.078-7.426-25.078-12.539s9.77-12.539,25.078-12.539S281.078,166.767,281.078,171.88z" fill="#9a9fbf"/>
	</g>
</g>
<g>
	<g>
		<path d="M93.623,173.406c-2.556-5.174-8.822-7.3-13.995-4.743l-0.123,0.061c-5.174,2.555-7.298,8.821-4.743,13.995    c1.82,3.687,5.524,5.825,9.377,5.825c1.553,0,3.131-0.348,4.618-1.082l0.123-0.061C94.054,184.847,96.178,178.581,93.623,173.406z    " fill="#9a9fbf"/>
	</g>
</g>
<g>
</g>
<g>
</g>
<g>
</g>
<g>
</g>
<g>
</g>
<g>
</g>
<g>
</g>
<g>
</g>
<g>
</g>
<g>
</g>
<g>
</g>
<g>
</g>
<g>
</g>
<g>
</g>
<g>
</g>
</svg>
