<?xml version="1.0" encoding="utf-8"?>
<!-- Generator: Adobe Illustrator 21.1.0, SVG Export Plug-In . SVG Version: 6.00 Build 0)  -->
<svg version="1.1" id="Capa_1" xmlns="http://www.w3.org/2000/svg" xmlns:xlink="http://www.w3.org/1999/xlink" x="0px" y="0px"
	 viewBox="0 0 512 512" style="enable-background:new 0 0 512 512;" xml:space="preserve">
<style type="text/css">
	.st0{display:none;}
	.st1{display:inline;fill:#FF5722;}
	.st2{display:none;fill:#FAFAFA;}
	.st3{display:inline;}
	.st4{fill:#1565C0;}
	.st5{display:inline;fill:#FAFAFA;}
	.st6{fill:#E24C3F;}
	.st7{opacity:0.2;fill:#5D5D5D;enable-background:new    ;}
	.st8{fill:#FF7063;}
	.st9{fill:#FFFFFF;}
</style>
<g class="st0">
	<path class="st1" d="M347.8,145.9c-4.6,0-8.3,3.7-8.3,8.3v50.1c0,4.6,3.7,8.3,8.3,8.3h50.1c4.6,0,8.3-3.7,8.3-8.3
		C406.2,172.1,380.1,145.9,347.8,145.9z"/>
	<path class="st1" d="M347.8,229.4c-13.8,0-25-11.2-25-25v-40.9c-31.9,4.5-54,34-49.5,65.9c4.5,31.9,34,54,65.9,49.5
		c25.7-3.7,45.8-23.8,49.5-49.5H347.8z"/>
	<path class="st1" d="M286.2,64.2c-2-1.6-4.6-2.2-7.1-1.7l-217,50.1c-3.8,0.9-6.5,4.3-6.5,8.2v283.8c0,4.1,3,7.6,7.1,8.2l217,33.4
		c4.6,0.7,8.8-2.4,9.5-7c0.1-0.4,0.1-0.8,0.1-1.3V70.8C289.4,68.2,288.2,65.8,286.2,64.2z"/>
	<path class="st1" d="M448,413H281c-4.6,0-8.3-3.7-8.3-8.3c0-4.6,3.7-8.3,8.3-8.3h158.6V112.5H281c-4.6,0-8.3-3.7-8.3-8.3
		s3.7-8.3,8.3-8.3H448c4.6,0,8.3,3.7,8.3,8.3v300.5C456.3,409.3,452.6,413,448,413z"/>
	<path class="st1" d="M397.9,362.9H281c-4.6,0-8.3-3.7-8.3-8.3c0-4.6,3.7-8.3,8.3-8.3h116.8c4.6,0,8.3,3.7,8.3,8.3
		C406.2,359.2,402.5,362.9,397.9,362.9z"/>
	<path class="st1" d="M397.9,312.8H281c-4.6,0-8.3-3.7-8.3-8.3c0-4.6,3.7-8.3,8.3-8.3h116.8c4.6,0,8.3,3.7,8.3,8.3
		C406.2,309.1,402.5,312.8,397.9,312.8z"/>
</g>
<path class="st2" d="M130.8,329.5c-4.6,0-8.3-3.7-8.3-8.3V187.6c0-4.6,3.7-8.3,8.3-8.3h33.4c23,0,41.7,18.7,41.7,41.7v16.7
	c0,23-18.7,41.7-41.7,41.7h-25v41.7C139.2,325.8,135.4,329.5,130.8,329.5z M139.2,262.8h25c13.8,0,25-11.2,25-25V221
	c0-13.8-11.2-25-25-25h-25C139.2,196,139.2,262.8,139.2,262.8z"/>
<g class="st0">
	<g class="st3">
		<path class="st4" d="M286.2,64.2c-2-1.6-4.6-2.2-7.1-1.7l-217,50.1c-3.8,0.9-6.5,4.3-6.5,8.2v283.8c0,4.1,3,7.6,7.1,8.2l217,33.4
			c4.6,0.7,8.8-2.4,9.5-7c0.1-0.4,0.1-0.8,0.1-1.3V70.8C289.4,68.2,288.2,65.8,286.2,64.2z"/>
		<path class="st4" d="M448,413H281c-4.6,0-8.3-3.7-8.3-8.3c0-4.6,3.7-8.3,8.3-8.3h158.6V112.5H281c-4.6,0-8.3-3.7-8.3-8.3
			s3.7-8.3,8.3-8.3H448c4.6,0,8.3,3.7,8.3,8.3v300.5C456.3,409.3,452.6,413,448,413z"/>
	</g>
	<path class="st5" d="M197.6,329.5c-3.7,0-7-2.5-8-6l-25.4-88.8l-25.4,88.8c-1.8,4.4-6.9,6.5-11.3,4.7c-2.1-0.9-3.8-2.6-4.7-4.7
		L89.4,206.6c-1.4-4.4,1-9.1,5.4-10.5s9.1,1,10.5,5.4c0,0.2,0.1,0.3,0.1,0.5l25.4,88.8l25.4-88.8c1.8-4.4,6.9-6.5,11.3-4.7
		c2.1,0.9,3.8,2.6,4.7,4.7l25.4,88.8l25.4-88.8c1.2-4.4,5.7-7,10.1-5.8c0.1,0,0.1,0,0.2,0.1c4.4,1.3,7,5.9,5.7,10.3l-33.4,116.8
		C204.6,327.1,201.3,329.5,197.6,329.5z"/>
	<g class="st3">
		<path class="st4" d="M414.6,162.6H281c-4.6,0-8.3-3.7-8.3-8.3c0-4.6,3.7-8.3,8.3-8.3h133.5c4.6,0,8.3,3.7,8.3,8.3
			C422.9,158.9,419.2,162.6,414.6,162.6z"/>
		<path class="st4" d="M414.6,212.7H281c-4.6,0-8.3-3.7-8.3-8.3c0-4.6,3.7-8.3,8.3-8.3h133.5c4.6,0,8.3,3.7,8.3,8.3
			S419.2,212.7,414.6,212.7z"/>
		<path class="st4" d="M414.6,262.8H281c-4.6,0-8.3-3.7-8.3-8.3c0-4.6,3.7-8.3,8.3-8.3h133.5c4.6,0,8.3,3.7,8.3,8.3
			C422.9,259,419.2,262.8,414.6,262.8z"/>
		<path class="st4" d="M414.6,312.8H281c-4.6,0-8.3-3.7-8.3-8.3c0-4.6,3.7-8.3,8.3-8.3h133.5c4.6,0,8.3,3.7,8.3,8.3
			C422.9,309.1,419.2,312.8,414.6,312.8z"/>
		<path class="st4" d="M414.6,362.9H281c-4.6,0-8.3-3.7-8.3-8.3c0-4.6,3.7-8.3,8.3-8.3h133.5c4.6,0,8.3,3.7,8.3,8.3
			C422.9,359.2,419.2,362.9,414.6,362.9z"/>
	</g>
</g>
<g>
	<path class="st6" d="M442.7,382.8c0,32.3-26.2,58.6-58.6,58.6h-257c-32.3,0-58.6-26.2-58.6-58.6V143.4l76.1-76.1h239.4
		c32.3,0,58.6,26.2,58.6,58.6V382.8z"/>
	<polygon class="st7" points="68.6,184.2 68.6,143.4 109.2,143.4 	"/>
	<path class="st8" d="M68.6,143.4h50.8c14,0,25.4-11.2,25.4-25.2v-51L68.6,143.4z"/>
	<path class="st8" d="M131.3,318.9V196.4h60.6c5.8,0,10.9,0.9,15.3,2.8c4.5,1.9,8.2,4.5,11.1,7.8c2.9,3.3,5.2,7.3,6.7,12
		c1.5,4.6,2.3,9.8,2.3,15.4s-0.7,10.9-2.2,15.9c-1.5,4.9-3.6,9.2-6.5,12.8c-2.9,3.6-6.6,6.4-11,8.5c-4.5,2.1-9.7,3.1-15.7,3.1h-40.7
		v44.2L131.3,318.9L131.3,318.9z M151.2,214.7V256H185c7.8,0,13.4-1.7,17-5.2c3.6-3.5,5.4-8.9,5.4-16.3c0-7.1-1.9-12.1-5.7-15.2
		c-3.8-3.1-9.4-4.6-16.7-4.6L151.2,214.7L151.2,214.7L151.2,214.7z"/>
	<path class="st8" d="M299.1,199.6l19.2-5.3v104.3c0,2.2,0.1,4.2,0.4,6c0.2,1.8,0.5,3.4,0.9,4.9c0.5,1.4,1,2.9,1.6,4.5
		c0.6,1.6,1.3,3.2,2.3,4.8h-20.3c-0.7-1.2-1.4-2.8-2.1-4.8c-0.5-2.1-0.8-4-1.1-5.6c-3.5,3.5-7.6,6.5-12.1,8.9
		c-4.5,2.4-9.4,3.6-14.5,3.6c-6.1,0-11.5-1-16.1-3c-4.6-2-8.5-4.8-11.7-8.3c-3.2-3.5-5.6-7.7-7.1-12.6c-1.6-4.9-2.4-10.1-2.4-15.8
		v-8.5c0-14.9,3.9-26.1,11.8-33.7c7.9-7.5,19.3-11.3,34.4-11.3c5.8,0,11.4,1.1,16.9,3.3L299.1,199.6L299.1,199.6z M299.1,249.1
		c-2.6-1.5-5.6-2.6-8.9-3.2c-3.3-0.6-6.5-0.9-9.4-0.9c-4.7,0-8.7,0.6-11.9,1.9c-3.2,1.3-5.9,3.1-7.9,5.5c-2.1,2.4-3.5,5.2-4.4,8.5
		c-0.9,3.3-1.3,6.9-1.3,10.8v6.5c0,3.3,0.2,6.5,0.7,9.6c0.5,3.1,1.4,5.8,2.7,8.2c1.3,2.4,3.2,4.3,5.6,5.7c2.3,1.5,5.4,2.2,9.2,2.2
		c2.5,0,4.9-0.4,7.3-1.2c2.4-0.8,4.7-1.9,7-3.3c2.2-1.4,4.3-2.8,6.3-4.5c1.9-1.6,3.7-3.3,5.2-5.1L299.1,249.1L299.1,249.1z"/>
	<path class="st8" d="M342.8,220.2c0-3.3,0.4-6.5,1.3-9.6c0.9-3.1,2.3-5.9,4.1-8.3c1.9-2.4,4.3-4.3,7.4-5.8
		c3.1-1.5,6.7-2.2,10.9-2.2c2,0,4.3,0.2,6.8,0.6c2.5,0.4,4.7,0.9,6.6,1.5v15.2h-7.1c-3.6,0-6.4,1-8.2,3c-1.8,2-2.7,4.8-2.7,8.3v7.2
		h17.1l-5.1,15.9h-12v73h-19.2v-73h-11.1v-15.9h11.1L342.8,220.2L342.8,220.2L342.8,220.2z"/>
	<path class="st9" d="M131.3,314.5V192h60.6c5.8,0,10.9,0.9,15.3,2.8c4.5,1.9,8.2,4.5,11.1,7.8c2.9,3.3,5.2,7.3,6.7,12
		c1.5,4.6,2.3,9.8,2.3,15.4c0,5.6-0.7,10.9-2.2,15.9c-1.5,4.9-3.6,9.2-6.5,12.8c-2.9,3.6-6.6,6.4-11,8.5c-4.5,2.1-9.7,3.1-15.7,3.1
		h-40.7v44.2L131.3,314.5L131.3,314.5z M151.2,210.3v41.2H185c7.8,0,13.4-1.7,17-5.2c3.6-3.5,5.4-8.9,5.4-16.3
		c0-7.1-1.9-12.1-5.7-15.2c-3.8-3.1-9.4-4.6-16.7-4.6L151.2,210.3L151.2,210.3L151.2,210.3z"/>
	<path class="st9" d="M299.1,195.2l19.2-5.3v104.3c0,2.2,0.1,4.2,0.4,6c0.2,1.8,0.5,3.4,0.9,4.9c0.5,1.4,1,2.9,1.6,4.5
		c0.6,1.6,1.3,3.2,2.3,4.8h-20.3c-0.7-1.2-1.4-2.8-2.1-4.8c-0.5-2.1-0.8-4-1.1-5.6c-3.5,3.5-7.6,6.5-12.1,8.9
		c-4.5,2.4-9.4,3.6-14.5,3.6c-6.1,0-11.5-1-16.1-3c-4.6-2-8.5-4.8-11.7-8.3c-3.2-3.5-5.6-7.7-7.1-12.6c-1.6-4.9-2.4-10.1-2.4-15.8
		v-8.5c0-14.9,3.9-26.1,11.8-33.7c7.9-7.5,19.3-11.3,34.4-11.3c5.8,0,11.4,1.1,16.9,3.3L299.1,195.2L299.1,195.2z M299.1,244.7
		c-2.6-1.5-5.6-2.6-8.9-3.2c-3.3-0.6-6.5-0.9-9.4-0.9c-4.7,0-8.7,0.6-11.9,1.9c-3.2,1.3-5.9,3.1-7.9,5.5c-2.1,2.4-3.5,5.2-4.4,8.5
		c-0.9,3.3-1.3,6.9-1.3,10.8v6.5c0,3.3,0.2,6.5,0.7,9.6c0.5,3.1,1.4,5.8,2.7,8.2c1.3,2.4,3.2,4.3,5.6,5.7c2.3,1.5,5.4,2.2,9.2,2.2
		c2.5,0,4.9-0.4,7.3-1.2c2.4-0.8,4.7-1.9,7-3.3c2.2-1.4,4.3-2.8,6.3-4.5c1.9-1.6,3.7-3.3,5.2-5.1L299.1,244.7L299.1,244.7z"/>
	<path class="st9" d="M342.8,215.8c0-3.3,0.4-6.5,1.3-9.6c0.9-3.1,2.3-5.9,4.1-8.3c1.9-2.4,4.3-4.3,7.4-5.8
		c3.1-1.5,6.7-2.2,10.9-2.2c2,0,4.3,0.2,6.8,0.6c2.5,0.4,4.7,0.9,6.6,1.5v15.2h-7.1c-3.6,0-6.4,1-8.2,3c-1.8,2-2.7,4.8-2.7,8.3v7.2
		h17.1l-5.1,15.9h-12v73h-19.2v-73h-11.1v-15.9h11.1L342.8,215.8L342.8,215.8L342.8,215.8z"/>
</g>
</svg>
