<?xml version="1.0" encoding="utf-8"?>
<!-- Generator: Adobe Illustrator 19.0.0, SVG Export Plug-In . SVG Version: 6.00 Build 0)  -->
<svg version="1.1" id="Capa_1" xmlns="http://www.w3.org/2000/svg" xmlns:xlink="http://www.w3.org/1999/xlink" x="0px" y="0px"
	 viewBox="-346 143 56 56" style="enable-background:new -346 143 56 56;" xml:space="preserve">
<style type="text/css">
	.st0{fill:#E9E9E0;}
	.st1{fill:#D9D7CA;}
	.st2{fill:#F3D55B;}
	.st3{fill:#26B99A;}
	.st4{fill:#14A085;}
	.st5{display:none;fill:#FFFFFF;}
	.st6{fill:#FFFFFF;}
</style>
<path class="st0" d="M-309,143h-29c-0.8,0-1.5,0.7-1.5,1.9V198c0,0.3,0.7,1,1.5,1h40.1c0.8,0,1.5-0.7,1.5-1v-42
	c0-0.7-0.1-0.9-0.3-1.1l-11.6-11.6C-308.6,143.1-308.8,143-309,143z"/>
<polygon class="st1" points="-308.5,143.2 -308.5,155 -296.7,155 "/>
<circle class="st2" cx="-327.1" cy="157.4" r="4.6"/>
<polygon class="st3" points="-339.5,182 -328.5,182 -296.5,182 -296.5,171 -306.5,161.5 -317,173 -322.5,167.5 "/>
<path class="st4" d="M-298,199H-338c-0.8,0-1.5-0.7-1.5-1.5V182h43v15.5C-296.5,198.3-297.2,199-298,199z"/>
<path class="st5" d="M-324.6,185.6v7.8c0,0.5-0.1,0.9-0.3,1.2c-0.2,0.3-0.4,0.6-0.7,0.8c-0.3,0.2-0.6,0.3-1,0.4
	c-0.4,0.1-0.8,0.1-1.2,0.1c-0.2,0-0.4,0-0.7-0.1c-0.3,0-0.5-0.1-0.8-0.2c-0.3-0.1-0.6-0.2-0.8-0.3c-0.3-0.1-0.5-0.2-0.7-0.4l0.7-1.1
	c0.1,0.1,0.2,0.1,0.4,0.2c0.2,0.1,0.4,0.1,0.6,0.2c0.2,0.1,0.4,0.1,0.6,0.2c0.2,0,0.4,0.1,0.6,0.1c0.5,0,0.9-0.1,1.2-0.3
	c0.3-0.2,0.4-0.5,0.5-0.9v-7.7H-324.6z"/>
<path class="st5" d="M-320.5,195.9h-1.6v-10.1h2.9c0.4,0,0.9,0.1,1.3,0.2c0.4,0.1,0.8,0.3,1.1,0.6c0.3,0.3,0.6,0.6,0.8,1
	c0.2,0.4,0.3,0.8,0.3,1.3c0,0.5-0.1,1-0.3,1.4c-0.2,0.4-0.4,0.8-0.7,1s-0.7,0.5-1.1,0.7c-0.4,0.2-0.9,0.2-1.4,0.2h-1.2L-320.5,195.9
	L-320.5,195.9z M-320.5,187.1v4h1.5c0.2,0,0.4,0,0.6-0.1c0.2-0.1,0.4-0.2,0.5-0.3s0.3-0.4,0.4-0.6c0.1-0.3,0.1-0.6,0.1-1
	c0-0.2,0-0.4-0.1-0.6c0-0.2-0.1-0.4-0.3-0.6c-0.1-0.2-0.3-0.4-0.6-0.5c-0.3-0.1-0.6-0.2-1-0.2H-320.5z"/>
<path class="st5" d="M-306.5,190.7v3.9c-0.2,0.3-0.4,0.5-0.7,0.6c-0.3,0.2-0.5,0.3-0.8,0.4c-0.3,0.1-0.6,0.2-0.9,0.2
	c-0.3,0-0.6,0.1-0.9,0.1c-0.6,0-1.2-0.1-1.7-0.3s-0.9-0.5-1.3-1c-0.4-0.4-0.7-1-0.9-1.6c-0.2-0.6-0.3-1.4-0.3-2.2
	c0-0.8,0.1-1.6,0.3-2.2c0.2-0.6,0.5-1.2,0.9-1.6c0.4-0.4,0.8-0.8,1.3-1c0.5-0.2,1.1-0.3,1.7-0.3c0.5,0,1.1,0.1,1.5,0.3
	c0.5,0.2,0.9,0.5,1.3,0.8l-1.1,1c-0.2-0.3-0.5-0.5-0.8-0.6c-0.3-0.1-0.6-0.2-0.9-0.2c-0.3,0-0.7,0.1-1,0.2c-0.3,0.1-0.6,0.3-0.8,0.6
	c-0.2,0.3-0.4,0.7-0.6,1.2c-0.1,0.5-0.2,1.1-0.2,1.8c0,0.7,0.1,1.3,0.2,1.8c0.1,0.5,0.3,0.9,0.5,1.2s0.5,0.6,0.8,0.7
	c0.3,0.2,0.6,0.2,0.9,0.2c0.1,0,0.2,0,0.4,0c0.2,0,0.3,0,0.5-0.1c0.2,0,0.3-0.1,0.5-0.1c0.2-0.1,0.3-0.1,0.3-0.2v-2.5h-1.7v-1.1
	L-306.5,190.7L-306.5,190.7z"/>
<g>
	<path class="st6" d="M-328.9,191.7v3.6h-1.2V186h3.4c1,0,1.8,0.3,2.4,0.8s0.9,1.2,0.9,2.1c0,0.9-0.3,1.6-0.8,2.1s-1.4,0.7-2.4,0.7
		H-328.9z M-328.9,190.7h2.2c0.7,0,1.2-0.2,1.5-0.5s0.5-0.8,0.5-1.3c0-0.6-0.2-1-0.5-1.3c-0.3-0.3-0.8-0.5-1.4-0.5h-2.3V190.7z"/>
	<path class="st6" d="M-314.8,195.3h-1.2l-4.7-7.1v7.1h-1.2V186h1.2l4.7,7.2V186h1.2V195.3z"/>
	<path class="st6" d="M-305.8,194.1c-0.3,0.4-0.8,0.8-1.3,1c-0.6,0.2-1.2,0.3-2,0.3c-0.8,0-1.4-0.2-2-0.5c-0.6-0.4-1-0.9-1.4-1.5
		c-0.3-0.7-0.5-1.4-0.5-2.3v-0.8c0-1.4,0.3-2.5,1-3.2c0.7-0.8,1.6-1.2,2.7-1.2c1,0,1.7,0.2,2.3,0.7c0.6,0.5,0.9,1.2,1.1,2.1h-1.2
		c-0.2-1.2-1-1.8-2.2-1.8c-0.8,0-1.4,0.3-1.9,0.9s-0.6,1.4-0.6,2.5v0.8c0,1,0.2,1.9,0.7,2.5c0.5,0.6,1.1,0.9,1.9,0.9
		c0.5,0,0.9-0.1,1.2-0.2s0.6-0.3,0.9-0.5v-2.1h-2.1v-1h3.4V194.1z"/>
</g>
</svg>
