<?xml version="1.0" encoding="iso-8859-1"?>
<!-- Generator: Adobe Illustrator 19.0.0, SVG Export Plug-In . SVG Version: 6.00 Build 0)  -->
<svg xmlns="http://www.w3.org/2000/svg" xmlns:xlink="http://www.w3.org/1999/xlink" version="1.1" id="Capa_1" x="0px" y="0px" viewBox="0 0 512 512" style="enable-background:new 0 0 512 512;" xml:space="preserve" width="512px" height="512px">
<g>
	<g>
		<path d="M375.876,254.98c-5.52,0-9.999,4.48-9.999,9.999s4.48,9.999,9.999,9.999s9.999-4.48,9.999-9.999    S381.395,254.98,375.876,254.98z" fill="#9a9fbf"/>
	</g>
</g>
<g>
	<g>
		<path d="M195.89,439.965c-5.52,0-9.999,4.48-9.999,9.999c0,5.52,4.48,9.999,9.999,9.999c5.52,0,9.999-4.48,9.999-9.999    C205.889,444.444,201.41,439.965,195.89,439.965z" fill="#9a9fbf"/>
	</g>
</g>
<g>
	<g>
		<path d="M145.443,53.897c-1.151-3.701-4.337-6.403-8.175-6.936l-38.289-5.307L82.603,5.842C80.976,2.282,77.423,0,73.51,0    c-3.914,0-7.466,2.283-9.093,5.842L48.049,41.637L8.792,46.957c-3.874,0.524-7.085,3.259-8.223,6.997    c-1.138,3.74,0.008,7.799,2.933,10.393l29.081,25.786l-6.262,39.137c-0.598,3.739,0.966,7.494,4.042,9.702    c3.077,2.208,7.133,2.489,10.485,0.729l32.664-17.173l32.664,17.173c1.463,0.769,3.061,1.148,4.652,1.148    c2.055,0,4.1-0.633,5.833-1.876c3.076-2.208,4.641-5.964,4.043-9.701l-6.27-39.235l28.21-25.791    C145.503,61.63,146.594,57.598,145.443,53.897z M96.961,78.913c-2.483,2.271-3.658,5.637-3.127,8.958l3.968,24.835l-19.639-10.325    c-1.457-0.766-3.055-1.148-4.653-1.148c-1.599,0-3.197,0.383-4.653,1.148l-19.633,10.322l3.973-24.83    c0.54-3.376-0.682-6.793-3.24-9.062L33.079,63.847l23.115-3.133c3.399-0.46,6.325-2.631,7.75-5.75l9.564-20.918l9.565,20.918    c1.422,3.11,4.334,5.277,7.721,5.747l22.643,3.139L96.961,78.913z" fill="#9a9fbf"/>
	</g>
</g>
<g>
	<g>
		<path d="M328.448,53.955c-1.139-3.739-4.351-6.473-8.224-6.997l-39.268-5.321L264.59,5.842C262.962,2.283,259.409,0,255.496,0    s-7.466,2.283-9.094,5.842l-16.368,35.795l-39.257,5.321c-3.874,0.524-7.085,3.259-8.223,6.997    c-1.138,3.74,0.008,7.799,2.933,10.393l29.081,25.786l-6.263,39.137c-0.598,3.739,0.966,7.494,4.042,9.702    c3.076,2.208,7.133,2.489,10.485,0.729l32.664-17.173l32.663,17.173c1.463,0.769,3.061,1.148,4.652,1.148    c2.055,0,4.1-0.633,5.833-1.876c3.075-2.208,4.64-5.964,4.043-9.701l-6.255-39.138l29.083-25.787    C328.44,61.754,329.584,57.694,328.448,53.955z M279.058,78.811c-2.558,2.268-3.779,5.685-3.24,9.06l3.969,24.834l-19.638-10.324    c-1.457-0.766-3.055-1.148-4.653-1.148s-3.197,0.383-4.653,1.148l-19.634,10.322l3.973-24.83c0.54-3.376-0.682-6.793-3.24-9.062    l-16.877-14.965l23.115-3.133c3.399-0.46,6.324-2.631,7.751-5.751l9.564-20.918l9.563,20.918c1.427,3.12,4.353,5.291,7.751,5.751    l23.124,3.134L279.058,78.811z" fill="#9a9fbf"/>
	</g>
</g>
<g>
	<g>
		<path d="M145.443,240.061c-1.151-3.701-4.337-6.403-8.175-6.935l-38.278-5.305l-16.38-35.98c-1.623-3.566-5.182-5.856-9.1-5.856    c-3.919,0-7.477,2.29-9.101,5.856l-16.371,35.963l-39.246,5.318c-3.874,0.524-7.085,3.259-8.223,6.997    c-1.138,3.74,0.007,7.799,2.932,10.393l29.081,25.786l-6.263,39.137c-0.598,3.739,0.966,7.494,4.042,9.702    c3.077,2.208,7.133,2.489,10.485,0.729l32.664-17.173l32.664,17.173c1.463,0.769,3.061,1.148,4.652,1.148    c2.055,0,4.1-0.633,5.833-1.876c3.076-2.208,4.641-5.964,4.043-9.701l-6.269-39.234l28.21-25.793    C145.503,247.794,146.594,243.761,145.443,240.061z M96.961,265.08c-2.483,2.27-3.658,5.636-3.127,8.957l3.968,24.834    l-19.639-10.325c-1.457-0.766-3.055-1.148-4.653-1.148c-1.598,0-3.197,0.383-4.653,1.148l-19.633,10.322l3.973-24.829    c0.54-3.376-0.682-6.793-3.24-9.062L33.08,250.012l23.115-3.133c3.405-0.461,6.334-2.639,7.758-5.766l9.557-20.996l9.558,20.996    c1.419,3.117,4.335,5.292,7.728,5.762l22.643,3.138L96.961,265.08z" fill="#9a9fbf"/>
	</g>
</g>
<g>
	<g>
		<path d="M328.448,240.12c-1.139-3.74-4.352-6.473-8.224-6.997l-39.257-5.318l-16.37-35.962c-1.624-3.567-5.182-5.857-9.101-5.857    c-3.919,0-7.477,2.29-9.101,5.856l-16.372,35.963l-39.246,5.318c-3.874,0.524-7.085,3.259-8.223,6.997    c-1.138,3.74,0.007,7.799,2.932,10.393l29.081,25.786l-6.262,39.137c-0.598,3.739,0.966,7.494,4.042,9.702    s7.133,2.489,10.485,0.729l32.664-17.173l32.663,17.173c1.463,0.769,3.061,1.148,4.652,1.148c2.055,0,4.1-0.633,5.833-1.876    c3.075-2.208,4.64-5.964,4.043-9.701L296.43,276.3l29.083-25.787C328.44,247.918,329.584,243.859,328.448,240.12z     M279.058,264.977c-2.558,2.269-3.779,5.685-3.24,9.06l3.969,24.833l-19.638-10.324c-1.457-0.766-3.055-1.148-4.653-1.148    s-3.197,0.383-4.653,1.148l-19.634,10.322l3.973-24.829c0.54-3.376-0.682-6.793-3.24-9.062l-16.877-14.965l23.115-3.133    c3.405-0.461,6.334-2.639,7.758-5.766l9.558-20.995l9.557,20.994c1.424,3.128,4.354,5.306,7.758,5.767l23.124,3.133    L279.058,264.977z" fill="#9a9fbf"/>
	</g>
</g>
<g>
	<g>
		<path d="M145.442,425.046c-1.151-3.702-4.337-6.403-8.175-6.935l-38.349-5.314l-16.354-34.891    c-1.646-3.513-5.176-5.755-9.054-5.755c-3.879,0-7.407,2.243-9.054,5.755L48.11,412.78l-39.318,5.328    c-3.874,0.524-7.085,3.259-8.223,6.997c-1.138,3.74,0.007,7.799,2.932,10.393l29.081,25.786l-6.263,39.137    c-0.615,3.848,1.06,7.701,4.292,9.876c1.685,1.134,3.632,1.703,5.583,1.703c1.792,0,3.587-0.481,5.183-1.448l32.133-19.477    l32.135,19.476c3.331,2.02,7.532,1.922,10.764-0.255c3.232-2.174,4.908-6.027,4.293-9.874l-6.269-39.234l28.21-25.793    C145.502,432.78,146.593,428.748,145.442,425.046z M96.961,450.064c-2.483,2.27-3.658,5.635-3.127,8.957l3.713,23.236    l-18.853-11.428c-1.593-0.966-3.388-1.448-5.183-1.448c-1.795,0-3.59,0.482-5.184,1.448l-18.849,11.425l3.718-23.23    c0.54-3.376-0.682-6.793-3.24-9.062L33.08,434.997l23.115-3.133c3.366-0.456,6.27-2.59,7.711-5.665l9.604-20.49l9.604,20.49    c1.437,3.066,4.328,5.196,7.681,5.661l22.643,3.138L96.961,450.064z" fill="#9a9fbf"/>
	</g>
</g>
<g>
	<g>
		<path d="M511.432,53.955c-1.138-3.739-4.35-6.473-8.223-6.997l-39.268-5.321L447.575,5.842C445.947,2.283,442.394,0,438.482,0    c-3.913,0-7.466,2.283-9.094,5.842l-16.367,35.795l-39.257,5.321c-3.874,0.524-7.085,3.259-8.224,6.997    c-1.138,3.74,0.008,7.799,2.933,10.393l29.081,25.785l-6.263,39.138c-0.599,3.739,0.966,7.494,4.042,9.702    c3.075,2.209,7.134,2.489,10.484,0.729l32.664-17.173l32.663,17.173c1.463,0.769,3.061,1.148,4.652,1.148    c2.055,0,4.1-0.633,5.833-1.876c3.075-2.208,4.64-5.964,4.043-9.701l-6.255-39.138l29.083-25.787    C511.424,61.754,512.569,57.695,511.432,53.955z M462.044,78.811c-2.558,2.268-3.779,5.685-3.24,9.06l3.969,24.834l-19.638-10.324    c-1.457-0.766-3.055-1.148-4.653-1.148c-1.598,0-3.197,0.383-4.653,1.148l-19.634,10.322l3.973-24.83    c0.541-3.376-0.682-6.793-3.239-9.062l-16.877-14.965l23.114-3.133c3.399-0.46,6.325-2.631,7.751-5.751l9.564-20.918l9.563,20.918    c1.427,3.12,4.353,5.291,7.751,5.751l23.124,3.134L462.044,78.811z" fill="#9a9fbf"/>
	</g>
</g>
<g>
	<g>
		<path d="M501.866,254.98h-82.993c-5.522,0-9.999,4.478-9.999,9.999s4.478,9.999,9.999,9.999h82.993    c5.522,0,9.999-4.478,9.999-9.999S507.388,254.98,501.866,254.98z" fill="#9a9fbf"/>
	</g>
</g>
<g>
	<g>
		<path d="M501.866,439.965H235.887c-5.523,0-9.999,4.478-9.999,9.999c0,5.522,4.477,9.999,9.999,9.999h265.979    c5.522,0,9.999-4.478,9.999-9.999C511.865,444.442,507.388,439.965,501.866,439.965z" fill="#9a9fbf"/>
	</g>
</g>
<g>
</g>
<g>
</g>
<g>
</g>
<g>
</g>
<g>
</g>
<g>
</g>
<g>
</g>
<g>
</g>
<g>
</g>
<g>
</g>
<g>
</g>
<g>
</g>
<g>
</g>
<g>
</g>
<g>
</g>
</svg>
