<?xml version="1.0"?>
<svg xmlns="http://www.w3.org/2000/svg" height="512px" viewBox="-40 0 512 512" width="512px"><path d="m376.5 0h-321.335938c-30.417968 0-55.164062 24.746094-55.164062 55.167969v241c0 46.621093 35.804688 97.113281 106.417969 150.074219 50.707031 38.027343 100.609375 63.125 102.707031 64.175781 2.113281 1.054687 4.410156 1.582031 6.710938 1.582031 2.296874 0 4.59375-.527344 6.707031-1.582031 2.097656-1.050781 52-26.144531 102.707031-64.175781 70.613281-52.960938 106.414062-103.453126 106.414062-150.074219v-241c0-30.421875-24.746093-55.167969-55.164062-55.167969zm-65.335938 267.476562c0 6.339844-3.984374 11.992188-9.953124 14.125l-80.332032 28.691407c-1.632812.582031-3.339844.875-5.042968.875-1.707032 0-3.414063-.292969-5.046876-.875l-80.335937-28.691407c-5.96875-2.132812-9.953125-7.785156-9.953125-14.125v-37.90625l80.199219 28.640626c4.867187 1.738281 9.960937 2.625 15.136719 2.625 5.175781 0 10.269531-.886719 15.140624-2.625l80.1875-28.640626zm22.179688-77.683593-112.464844 40.167969c-1.632812.582031-3.339844.871093-5.042968.871093-1.707032 0-3.414063-.289062-5.046876-.871093l-112.46875-40.167969c-5.96875-2.132813-9.953124-7.785157-9.953124-14.125 0-6.339844 3.984374-11.996094 9.953124-14.128907l112.46875-40.164062c1.632813-.585938 3.339844-.875 5.046876-.875 1.703124 0 3.410156.289062 5.042968.875l112.464844 40.164062c5.96875 2.132813 9.957031 7.789063 9.957031 14.128907 0 6.339843-3.988281 11.992187-9.957031 14.125zm0 0" fill="#9a9fbf"/></svg>
