<?xml version="1.0" encoding="utf-8"?>
<!-- Generator: Adobe Illustrator 21.1.0, SVG Export Plug-In . SVG Version: 6.00 Build 0)  -->
<svg version="1.1" id="Layer_1" xmlns="http://www.w3.org/2000/svg" xmlns:xlink="http://www.w3.org/1999/xlink" x="0px" y="0px"
	 viewBox="0 0 511 401.3" style="enable-background:new 0 0 511 401.3;" xml:space="preserve">
<style type="text/css">
	.st0{fill:#9A9FBF;}
</style>
<path class="st0" d="M377,94.4l-84.7-12L254.5,7.9l-37.7,74.6l-84.7,12l61.4,58.7l-14.4,82l75.5-38.9l75.5,38.9l-14.4-82L377,94.4z"
	/>
<path class="st0" d="M312.3,339c18.6,12.3,33.2,30.2,41,52.1l-28.1,10.2c-10.5-29.9-38.9-50-70.7-50s-60.2,20.1-70.7,50l-28.1-10.2
	c7.8-21.9,22.5-39.8,41-52.1C127.9,309.1,79.3,226.5,79.3,126.8h29.9c0,54.5,15.9,103.3,42.2,138.3c26,35,62.3,56.3,103,56.3
	c81.4,0,145.2-85.3,145.2-194.6h29.9C429.7,226.5,381.2,309.1,312.3,339z"/>
<path class="st0" d="M312.3,339c18.6,12.3,33.2,30.2,41,52.1l-28.1,10.2c-10.5-29.9-38.9-50-70.7-50v-29.9
	c81.4,0,145.2-85.3,145.2-194.6h29.9C429.7,226.5,381.2,309.1,312.3,339z"/>
<path class="st0" d="M395.5,352.4c-11.8,0-40-0.7-80-44.9c27.2-30,51.7-44.9,80-44.9c11.8,0,40,0.7,80,44.9
	C448.2,337.5,423.7,352.4,395.5,352.4z"/>
<path class="st0" d="M379.4,239.6c5-40.2,16.6-66.5,39.7-82.7c9.7-6.8,32.7-22.3,90.9-9.1c-5,40.2-16.2,66.5-39.3,82.7
	C443,249.9,409.9,246.6,379.4,239.6z"/>
<path class="st0" d="M406.2,145c-15.7-37.4-18.8-65.9-6.9-91.5c5-10.7,17.5-35.9,74.5-53.5c15.7,37.3,18.8,65.9,6.9,91.5
	C475.7,102.2,463.2,127.4,406.2,145z"/>
<g>
	<path class="st0" d="M113.5,352.4c-11.8,0-40-0.7-80-44.9c27.2-30,51.7-44.9,80-44.9c11.8,0,40,0.7,80,44.9
		C166.3,337.5,141.7,352.4,113.5,352.4z"/>
	<path class="st0" d="M37.3,230.5C27.6,223.7,6.4,207-1,147.8c39.5-9,67.6-7.1,90.8,9.1c9.7,6.8,32.3,23.5,39.8,82.7
		C126.4,239.9,75.6,257.3,37.3,230.5z"/>
	<path class="st0" d="M102.7,145C64,133,40.2,117,28.2,91.5C23.3,80.8,12,55,35.1,0c38.7,11.9,62.6,27.9,74.5,53.5
		C114.6,64.2,125.9,90,102.7,145z"/>
</g>
<path class="st0" d="M315.6,153.1l14.4,82l-75.5-38.9V7.9l37.7,74.6l84.7,12L315.6,153.1z"/>
</svg>
