<svg height="480pt" viewBox="0 0 480 480" width="480pt" xmlns="http://www.w3.org/2000/svg"><path d="m280 311.980469v-48c0-17.671875 14.328125-32 32-32h112v-80c0-17.671875-14.328125-32-32-32h-352c-17.671875 0-32-14.324219-32-32v352c0 17.675781 14.328125 32 32 32h352c17.671875 0 32-14.324219 32-32v-96h-112c-17.671875 0-32-14.324219-32-32zm0 0" fill="#a8dba8"/><path d="m312 343.980469c-17.671875 0-32-14.324219-32-32v-48c.019531-2.402344.308594-4.796875.863281-7.136719-14.527343 3.324219-24.835937 16.234375-24.863281 31.136719v48c0 17.675781 14.328125 32 32 32h128c2.703125-.03125 5.390625-.414063 8-1.128907v-22.871093zm0 0" fill="#79bd9a"/><path d="m40 55.980469c-17.671875 0-32 14.328125-32 32 0 17.675781 14.328125 32 32 32h33.734375l110.851563-64zm0 0" fill="#79bd9a"/><path d="m365.335938 55.980469h-42.863282l36.953125 64h16.574219v-53.304688c.007812-2.832031-1.109375-5.554687-3.113281-7.558593-2-2.007813-4.71875-3.136719-7.550781-3.136719zm0 0" fill="#79bd9a"/><path d="m464 319.980469h-128c-17.671875 0-32-14.324219-32-32v-48c.019531-2.402344.308594-4.796875.863281-7.136719-14.527343 3.324219-24.835937 16.234375-24.863281 31.136719v48c0 17.675781 14.328125 32 32 32h128c14.890625 0 27.804688-10.289063 31.136719-24.800781-2.34375.535156-4.734375.800781-7.136719.800781zm0 0" fill="#cff09e"/><path d="m352 288.003906c0 8.839844-7.164062 16-16 16s-16-7.160156-16-16c0-8.835937 7.164062-16 16-16s16 7.164063 16 16zm0 0" fill="#cff09e"/><path d="m240.519531 60.660156-102.785156 59.320313h184.738281l-25.535156-44.222657c-20.035156 2.230469-40.175781-3.160156-56.417969-15.097656zm0 0" fill="#a8dba8"/><path d="m392 415.980469h-136c-106.039062 0-192-85.960938-192-192v-72h-56v288c0 17.675781 14.328125 32 32 32h352zm0 0" fill="#79bd9a"/><path d="m382.609375 231.980469h41.390625v-80c0-17.671875-14.328125-32-32-32h-328v32h200c52.140625.023437 99.054688 31.667969 118.609375 80zm0 0" fill="#cff09e"/><path d="m392 344.003906h32v72h-32zm0 0" fill="#cff09e"/><g fill="#3b8686"><path d="m440 223.980469h-8v-72c-.027344-22.078125-17.917969-39.972657-40-40h-8v-45.304688c.003906-10.3125-8.347656-18.679687-18.664062-18.695312h-38.238282l-16.167968-28c-11.066407-19.105469-35.507813-25.65625-54.640626-14.640625l-73.847656 42.640625h-142.441406c-22.082031.027343-39.9726562 17.921875-40 40v352c.0273438 22.082031 17.917969 39.972656 40 40h352c22.082031-.027344 39.972656-17.917969 40-40v-88h8c22.082031-.027344 39.972656-17.917969 40-40v-48c-.027344-22.078125-17.917969-39.972657-40-40zm-74.664062-160c1.472656.003906 2.664062 1.199219 2.664062 2.671875v45.328125h-3.960938l-27.710937-48zm-68.265626-36 48.53125 84h-18.480468l-25.839844-44.800781-5.203125.585937c-18.035156 2.039063-36.171875-2.820313-50.773437-13.601563l-4.214844-3.101562-105.496094 60.917969h-32l160.695312-92.800781c11.480469-6.621094 26.160157-2.683594 32.78125 8.800781zm11.546876 84h-141.023438l72.550781-41.878907c15.542969 10.097657 33.890625 15.011719 52.398438 14.03125zm-268.617188-48h114.726562l-83.140624 48h-31.585938c-13.253906 0-24-10.746094-24-24 0-13.253907 10.746094-24 24-24zm376 376c0 13.253906-10.746094 24-24 24h-352c-13.253906 0-24-10.746094-24-24v-320c6.917969 5.207031 15.34375 8.011719 24 8h352c13.253906 0 24 10.746093 24 24v72h-104c-22.082031.027343-39.972656 17.921875-40 40v48c.027344 22.082031 17.917969 39.972656 40 40h104zm48-128c0 13.253906-10.746094 24-24 24h-128c-13.253906 0-24-10.746094-24-24v-48c0-13.253907 10.746094-24 24-24h128c13.253906 0 24 10.746093 24 24zm0 0"/><path d="m336 263.980469c-13.253906 0-24 10.746093-24 24 0 13.253906 10.746094 24 24 24s24-10.746094 24-24c0-13.253907-10.746094-24-24-24zm0 32c-4.417969 0-8-3.582031-8-8s3.582031-8 8-8 8 3.582031 8 8-3.582031 8-8 8zm0 0"/><path d="m120 167.980469h-56c-8.835938 0-16 7.164062-16 16v24c0 4.417969 3.582031 8 8 8s8-3.582031 8-8v-24h56c4.417969 0 8-3.582031 8-8s-3.582031-8-8-8zm0 0"/><path d="m320 183.980469h56v16c0 4.417969 3.582031 8 8 8s8-3.582031 8-8v-16c0-8.835938-7.164062-16-16-16h-56c-4.417969 0-8 3.582031-8 8s3.582031 8 8 8zm0 0"/><path d="m120 399.980469h-56v-16c0-4.417969-3.582031-8-8-8s-8 3.582031-8 8v16c0 8.835937 7.164062 16 16 16h56c4.417969 0 8-3.582031 8-8s-3.582031-8-8-8zm0 0"/><path d="m336 415.980469h40c8.835938 0 16-7.164063 16-16v-16c0-4.417969-3.582031-8-8-8s-8 3.582031-8 8v16h-40c-4.417969 0-8 3.582031-8 8s3.582031 8 8 8zm0 0"/><path d="m184 399.980469h-24c-4.417969 0-8 3.582031-8 8s3.582031 8 8 8h24c4.417969 0 8-3.582031 8-8s-3.582031-8-8-8zm0 0"/><path d="m248 399.980469h-24c-4.417969 0-8 3.582031-8 8s3.582031 8 8 8h24c4.417969 0 8-3.582031 8-8s-3.582031-8-8-8zm0 0"/><path d="m296 399.980469h-16c-4.417969 0-8 3.582031-8 8s3.582031 8 8 8h16c4.417969 0 8-3.582031 8-8s-3.582031-8-8-8zm0 0"/><path d="m176 183.980469c4.417969 0 8-3.582031 8-8s-3.582031-8-8-8h-24c-4.417969 0-8 3.582031-8 8s3.582031 8 8 8zm0 0"/><path d="m240 183.980469c4.417969 0 8-3.582031 8-8s-3.582031-8-8-8h-24c-4.417969 0-8 3.582031-8 8s3.582031 8 8 8zm0 0"/><path d="m288 183.980469c4.417969 0 8-3.582031 8-8s-3.582031-8-8-8h-16c-4.417969 0-8 3.582031-8 8s3.582031 8 8 8zm0 0"/><path d="m56 263.980469c4.417969 0 8-3.582031 8-8v-16c0-4.417969-3.582031-8-8-8s-8 3.582031-8 8v16c0 4.417969 3.582031 8 8 8zm0 0"/><path d="m56 311.980469c4.417969 0 8-3.582031 8-8v-16c0-4.417969-3.582031-8-8-8s-8 3.582031-8 8v16c0 4.417969 3.582031 8 8 8zm0 0"/><path d="m56 359.980469c4.417969 0 8-3.582031 8-8v-16c0-4.417969-3.582031-8-8-8s-8 3.582031-8 8v16c0 4.417969 3.582031 8 8 8zm0 0"/></g></svg>