<?xml version="1.0" encoding="utf-8"?>
<!-- Generator: Adobe Illustrator 21.1.0, SVG Export Plug-In . SVG Version: 6.00 Build 0)  -->
<svg version="1.1" id="Layer_1" xmlns="http://www.w3.org/2000/svg" xmlns:xlink="http://www.w3.org/1999/xlink" x="0px" y="0px"
	 viewBox="0 0 225.5 25.8" style="enable-background:new 0 0 225.5 25.8;" xml:space="preserve">
<style type="text/css">
	.st0{display:none;}
	.st1{display:inline;fill:#17191C;}
	.st2{display:inline;}
	.st3{fill:#17191C;}
	.st4{fill:#92908F;}
	.st5{fill:#F2A61D;}
	.st6{fill:#64479B;}
	.st7{fill:#0F91A8;}
</style>
<g id="XMLID_33_" class="st0">
	<polygon id="XMLID_1_" class="st1" points="14.3,8.6 15.8,4.9 23.9,24.3 21,24.3 18.6,18.6 10.2,18.6 11.3,16.1 17.4,16.1 	"/>
	<polygon id="XMLID_2_" class="st1" points="16.8,21.6 17.8,24.3 2,24.3 11.5,1.4 14.6,1.4 6.3,21.6 	"/>
</g>
<g id="XMLID_39_" class="st0">
	<g id="XMLID_198_" class="st2">
		<path id="XMLID_208_" class="st3" d="M31,19.9v-14h1.6v12.6h6.2V20H31V19.9z"/>
		<path id="XMLID_206_" class="st3" d="M51.6,5.9V15c0,1.6-0.5,2.9-1.5,3.8s-2.3,1.4-4,1.4s-3-0.5-3.9-1.4s-1.4-2.2-1.4-3.8V5.9h1.6
			V15c0,1.2,0.3,2.1,1,2.7c0.6,0.6,1.6,0.9,2.8,0.9s2.1-0.3,2.7-0.9c0.6-0.6,1-1.5,1-2.7V5.9H51.6z"/>
		<path id="XMLID_204_" class="st3" d="M61.4,7.1c-1.5,0-2.8,0.5-3.7,1.5s-1.3,2.4-1.3,4.2s0.4,3.3,1.3,4.3c0.9,1,2.1,1.5,3.7,1.5
			c1,0,2.1-0.2,3.4-0.5v1.4c-1,0.4-2.2,0.5-3.6,0.5c-2.1,0-3.7-0.6-4.8-1.9s-1.7-3-1.7-5.4c0-1.4,0.3-2.7,0.8-3.8
			C56,8,56.8,7.1,57.8,6.5s2.2-0.9,3.6-0.9c1.5,0,2.8,0.3,3.9,0.8l-0.7,1.4C63.5,7.4,62.4,7.1,61.4,7.1z"/>
		<path id="XMLID_202_" class="st3" d="M67.8,19.9v-14h1.6V20h-1.6V19.9z"/>
		<path id="XMLID_199_" class="st3" d="M84.5,12.7c0,2.3-0.6,4.1-1.9,5.3s-3.1,1.8-5.4,1.8h-3.9V5.9h4.3c2.2,0,3.9,0.6,5.1,1.8
			S84.5,10.6,84.5,12.7z M82.8,12.8c0-1.8-0.5-3.2-1.4-4.1s-2.3-1.4-4.1-1.4h-2.4v11.2h2c1.9,0,3.4-0.5,4.4-1.4S82.8,14.7,82.8,12.8
			z"/>
	</g>
</g>
<g>
	<path class="st4" d="M48.9,17.2H48v-4.7h-5.9c-0.6,0-1.1,0.2-1.4,0.6c-0.3,0.4-0.5,0.9-0.5,1.5c0,0.5,0.2,1,0.6,1.3
		c0.4,0.4,0.8,0.6,1.3,0.6H46v0.8h-3.9c-0.8,0-1.5-0.3-2-0.8c-0.5-0.5-0.7-1.2-0.7-2.1c0-0.8,0.3-1.4,0.8-1.9
		c0.5-0.5,1.2-0.7,1.9-0.7H48c-0.1-0.6-0.3-1-0.7-1.3c-0.3-0.3-0.7-0.4-1.2-0.4h-5.3V9.2h5.3c0.8,0,1.4,0.3,1.9,0.8
		c0.5,0.5,0.8,1.1,0.8,1.9V17.2z"/>
	<path class="st4" d="M59.8,17.2c-0.8,0-1.4-0.3-1.9-0.8c-0.5-0.5-0.8-1.1-0.8-1.9V9.2H58v5.3c0,0.5,0.2,1,0.5,1.4
		c0.3,0.4,0.8,0.6,1.3,0.6h5.4v0.8H59.8z"/>
	<path class="st4" d="M75.7,17.2c-0.8,0-1.4-0.2-1.9-0.7c-0.5-0.5-0.7-1.1-0.7-1.9v-2.7c0-0.8,0.2-1.4,0.7-1.9
		c0.5-0.5,1.1-0.7,1.9-0.7h6V10h-6c-0.5,0-1,0.2-1.3,0.6c-0.3,0.4-0.5,0.9-0.5,1.4v2.5c0,0.5,0.2,1,0.5,1.4c0.3,0.4,0.8,0.6,1.3,0.6
		h6v0.8H75.7z"/>
	<polygon class="st4" points="98.6,17.2 98.6,12.4 90.9,12.4 90.9,17.2 90.1,17.2 90.1,9.1 90.9,9.1 90.9,11.7 98.6,11.7 98.6,9.1 
		99.4,9.1 99.4,17.2 	"/>
	<path class="st4" d="M110.7,17.2c-0.8,0-1.4-0.3-1.9-0.8c-0.5-0.5-0.8-1.1-0.8-1.9v-2.7c0-0.8,0.3-1.4,0.8-1.9
		c0.5-0.5,1.1-0.8,1.9-0.8h5.4v0.8h-5.4c-0.5,0-1,0.2-1.3,0.6c-0.3,0.4-0.5,0.9-0.5,1.4v1h7.2v0.8h-7.2v0.7c0,0.5,0.2,1,0.5,1.4
		c0.4,0.4,0.8,0.6,1.3,0.6h5.4v0.8H110.7z"/>
	<path class="st4" d="M135.5,17.2v-5.3c0-0.5-0.2-1-0.6-1.3c-0.4-0.4-0.8-0.5-1.3-0.5h-3v7.1h-0.8V10H127c-0.5,0-1,0.2-1.3,0.5
		c-0.4,0.4-0.6,0.8-0.6,1.3v5.3h-0.8v-5.3c0-0.8,0.3-1.4,0.8-1.9c0.5-0.5,1.2-0.7,1.9-0.7h6.6c0.8,0,1.4,0.3,1.9,0.8
		c0.5,0.5,0.8,1.2,0.8,2v5.2H135.5z"/>
	<path class="st5" d="M151.9,17.2H148c-0.8,0-1.4-0.2-1.9-0.7c-0.5-0.5-0.8-1.1-0.8-1.9V9.3h0.8v5.3c0,0.5,0.2,1,0.6,1.3
		c0.4,0.4,0.8,0.5,1.3,0.5h3.9c0.5,0,1-0.2,1.3-0.5c0.4-0.4,0.6-0.8,0.6-1.3V9.3h0.8v5.2c0,0.8-0.3,1.4-0.8,2
		C153.3,16.9,152.7,17.2,151.9,17.2"/>
	<path class="st5" d="M172.8,17.2H172v-5.3c0-0.5-0.2-1-0.6-1.3c-0.4-0.4-0.8-0.5-1.3-0.5h-3.9c-0.5,0-1,0.2-1.3,0.5
		c-0.4,0.4-0.6,0.8-0.6,1.3v5.3h-0.8v-5.3c0-0.8,0.3-1.4,0.8-1.9c0.5-0.5,1.2-0.7,1.9-0.7h3.9c0.8,0,1.4,0.3,1.9,0.8
		c0.5,0.5,0.8,1.2,0.8,2V17.2z"/>
	<rect x="181.8" y="9.1" class="st5" width="1" height="8"/>
	<polygon class="st5" points="196.8,10 196.8,17.2 196,17.2 196,10 191.6,10 191.6,9.3 201.2,9.3 201.2,10 	"/>
	<polygon class="st5" points="214.8,13.5 214.8,17.2 214,17.2 214,13.3 210,9.9 210,9.3 210.6,9.3 214.5,12.7 218.5,9.3 219.1,9.3 
		219.1,9.9 	"/>
	<path class="st6" d="M4.8,17.6c-1.8,0-3.2,1.4-3.2,3.2S3,24,4.8,24S8,22.6,8,20.8S6.5,17.6,4.8,17.6"/>
	<path class="st7" d="M16.6,8c1.8,0,3.2-1.4,3.2-3.2s-1.4-3.2-3.2-3.2c-1.8,0-3.2,1.4-3.2,3.2S14.8,8,16.6,8"/>
	<path class="st5" d="M30.9,18.8c-0.6-0.8-1.4-1.2-2.3-1.3c-1-0.1-1.8-0.6-2.4-1.4l0,0c-0.6-0.8-0.8-1.7-0.6-2.7
		c0-0.1,0-0.2,0.1-0.3c0,0,0,0,0,0c0-0.1,0-0.2,0-0.3c0,0,0,0,0-0.1c0-0.1,0-0.2,0-0.3c0,0,0-0.1,0-0.1c0-0.1,0-0.1,0-0.2
		c0,0,0-0.1,0-0.1c0-0.1,0-0.1-0.1-0.2c0,0,0-0.1,0-0.1c0-0.1-0.1-0.1-0.1-0.2c0,0,0-0.1,0-0.1c0-0.1-0.1-0.2-0.1-0.3c0,0,0,0,0,0
		c-0.2-0.4-0.5-0.7-0.9-1c-0.6-0.4-1.2-0.6-1.9-0.6c-0.7,0-1.3,0.2-1.9,0.6c-0.4,0.3-0.7,0.6-0.9,1c0,0,0,0,0,0
		c0,0.1-0.1,0.2-0.1,0.3c0,0,0,0.1,0,0.1c0,0.1-0.1,0.1-0.1,0.2c0,0,0,0.1,0,0.1c0,0.1,0,0.1-0.1,0.2c0,0,0,0.1,0,0.1
		c0,0.1,0,0.1,0,0.2c0,0,0,0.1,0,0.1c0,0.1,0,0.2,0,0.3c0,0,0,0,0,0.1c0,0.1,0,0.2,0,0.3c0,0,0,0,0,0c0,0.1,0,0.2,0.1,0.3
		c0.2,0.9-0.1,1.9-0.6,2.7l0,0c-0.5,0.7-1.3,1.2-2.1,1.3c-0.8-0.1-1.6-0.6-2.1-1.3l0,0c-0.6-0.8-0.8-1.7-0.6-2.7
		c0.2-0.9,0-1.8-0.6-2.6c-1-1.4-3.1-1.7-4.5-0.7c-1.5,1.1-1.8,3.1-0.7,4.5c0.6,0.7,1.4,1.2,2.2,1.3c1,0.1,1.9,0.6,2.5,1.4
		c0.5,0.7,0.7,1.6,0.6,2.5c-0.3,1.2,0.1,2.6,1.1,3.4c0.6,0.4,1.2,0.6,1.8,0.7c0,0,0.1,0,0.1,0c0,0,0.1,0,0.1,0
		c0.6,0,1.3-0.2,1.8-0.7c1-0.8,1.5-2.2,1.1-3.4c-0.1-0.9,0.1-1.8,0.6-2.5c0.5-0.7,1.3-1.1,2.1-1.3c0.9,0.2,1.6,0.6,2.1,1.3
		c0.6,0.8,0.8,1.8,0.6,2.8c-0.2,0.9,0,1.8,0.6,2.5c1.1,1.4,3.1,1.7,4.5,0.6C31.7,22.3,32,20.2,30.9,18.8"/>
</g>
</svg>
