<?xml version="1.0" encoding="utf-8"?>
<!-- Generator: Adobe Illustrator 21.1.0, SVG Export Plug-In . SVG Version: 6.00 Build 0)  -->
<svg version="1.1" id="Capa_1" xmlns="http://www.w3.org/2000/svg" xmlns:xlink="http://www.w3.org/1999/xlink" x="0px" y="0px"
	 viewBox="0 0 512 512" style="enable-background:new 0 0 512 512;" xml:space="preserve">
<style type="text/css">
	.st0{fill:#91CE1D;}
	.st1{fill:#FFFFFF;}
</style>
<path class="st0" d="M407.3,8.2H103.6c-50.5,0-91.5,41-91.5,91.5v199.1c0,50.5,41,91.5,91.5,91.5h43.6c2.1,0,3.8,1.7,3.8,3.8v98.2
	c0,11.6,14.2,17.2,22.2,8.8l103.1-109.6c0.7-0.8,1.7-1.2,2.7-1.2h128.3c50.5,0,91.5-41,91.5-91.5V99.7
	C498.7,49.2,457.8,8.2,407.3,8.2z"/>
<g>
	<g>
		<g>
			<path class="st1" d="M241.9,304.2c-14,14-36.7,14-50.7,0l-78.6-78.6c-14-14-14-36.7,0-50.7c14-14,36.7-14,50.7,0l46.8,46.8
				c3.5,3.5,9.3,3.5,12.8,0L349.7,94.8c14-14,36.7-14,50.7,0c6.7,6.7,10.5,15.9,10.5,25.4s-3.8,18.6-10.5,25.4L241.9,304.2z"/>
		</g>
	</g>
</g>
</svg>
