<?xml version="1.0" encoding="utf-8"?>
<!-- Generator: Adobe Illustrator 21.1.0, SVG Export Plug-In . SVG Version: 6.00 Build 0)  -->
<svg version="1.1" id="Capa_1" xmlns="http://www.w3.org/2000/svg" xmlns:xlink="http://www.w3.org/1999/xlink" x="0px" y="0px"
	 viewBox="0 0 320 320" style="enable-background:new 0 0 320 320;" xml:space="preserve">
<style type="text/css">
	.st0{fill:#EC5569;}
</style>
<g>
	<path class="st0" d="M85,0c-2.6,0-5.2,1.1-7.1,2.9S75,7.4,75,10v140H10c-3.9,0-7.7,2.6-9.2,6.2s-0.6,8.1,2.2,10.9l150,150
		c1.9,1.8,4.4,2.9,7.1,2.9c2.6,0,5.2-1.1,7.1-2.9l150-150c2.8-2.8,3.7-7.3,2.2-10.9c-1.5-3.6-5.3-6.2-9.2-6.2h-65V10
		c0-2.6-1.1-5.2-2.9-7.1C240.2,1.1,237.6,0,235,0H85L85,0z"/>
</g>
</svg>
