<?xml version="1.0" encoding="utf-8"?>
<!-- Generator: Adobe Illustrator 21.1.0, SVG Export Plug-In . SVG Version: 6.00 Build 0)  -->
<svg version="1.1" id="Capa_1" xmlns="http://www.w3.org/2000/svg" xmlns:xlink="http://www.w3.org/1999/xlink" x="0px" y="0px"
	 viewBox="0 0 512 512" style="enable-background:new 0 0 512 512;" xml:space="preserve">
<style type="text/css">
	.st0{fill:#EC5569;}
	.st1{fill:#FFFFFF;}
</style>
<path class="st0" d="M407.3,8.2H103.6c-50.5,0-91.5,41-91.5,91.5v199.1c0,50.5,41,91.5,91.5,91.5h43.6c2.1,0,3.8,1.7,3.8,3.8v98.2
	c0,11.6,14.2,17.2,22.2,8.8l103.1-109.6c0.7-0.8,1.7-1.2,2.7-1.2h128.3c50.5,0,91.5-41,91.5-91.5V99.7
	C498.7,49.2,457.8,8.2,407.3,8.2z"/>
<g>
	<g>
		<path class="st1" d="M328.6,82.3c-5.1,0-9.5,1.8-13.2,5.5l-57,57l-57-57c-3.7-3.7-8-5.5-13.2-5.5c-5.1,0-9.5,1.8-13.2,5.5
			l-26.3,26.3c-3.7,3.7-5.5,8-5.5,13.2s1.8,9.5,5.5,13.2l57,57l-57,57c-3.7,3.7-5.5,8-5.5,13.2s1.8,9.5,5.5,13.2l26.3,26.3
			c3.7,3.7,8,5.5,13.2,5.5c5.1,0,9.5-1.8,13.2-5.5l57-57l57,57c3.7,3.7,8,5.5,13.2,5.5c5.1,0,9.5-1.8,13.2-5.5l26.3-26.3
			c3.7-3.7,5.5-8,5.5-13.2c0-5.1-1.8-9.5-5.5-13.2l-57-57l57-57c3.7-3.7,5.5-8,5.5-13.2c0-5.1-1.8-9.5-5.5-13.2l-26.3-26.3
			C338.1,84.2,333.8,82.3,328.6,82.3z"/>
	</g>
</g>
</svg>
