<?xml version="1.0" encoding="utf-8"?>
<!-- Generator: Adobe Illustrator 21.1.0, SVG Export Plug-In . SVG Version: 6.00 Build 0)  -->
<svg version="1.1" id="Capa_1" xmlns="http://www.w3.org/2000/svg" xmlns:xlink="http://www.w3.org/1999/xlink" x="0px" y="0px"
	 viewBox="0 0 320 320" style="enable-background:new 0 0 320 320;" xml:space="preserve">
<style type="text/css">
	.st0{fill:#9A9FBF;}
</style>
<g>
	<path class="st0" d="M235,320c2.6,0,5.2-1.1,7.1-2.9s2.9-4.5,2.9-7.1V170h65c3.9,0,7.7-2.6,9.2-6.2s0.6-8.1-2.2-10.9l-150-150
		C165.2,1.1,162.6,0,160,0c-2.6,0-5.2,1.1-7.1,2.9l-150,150c-2.8,2.8-3.7,7.3-2.2,10.9c1.5,3.6,5.3,6.2,9.2,6.2h65v140
		c0,2.6,1.1,5.2,2.9,7.1s4.5,2.9,7.1,2.9H235z"/>
</g>
</svg>
