<?xml version="1.0" encoding="utf-8"?>
<!-- Generator: Adobe Illustrator 22.1.0, SVG Export Plug-In . SVG Version: 6.00 Build 0)  -->
<svg version="1.1" id="Layer_1" xmlns="http://www.w3.org/2000/svg" xmlns:xlink="http://www.w3.org/1999/xlink" x="0px" y="0px"
	 viewBox="0 0 378 378" style="enable-background:new 0 0 378 378;" xml:space="preserve">
<style type="text/css">
	.st0{fill:#D7D9E5;}
</style>
<g>
	<path class="st0" d="M334.3,354H44.3c-23.5,0-42.7-19.1-42.7-42.7V68.7C1.7,45.1,20.8,26,44.3,26h289.9c23.5,0,42.7,19.1,42.7,42.7
		v242.7C376.9,334.9,357.8,354,334.3,354z M44.3,49.3C33.7,49.3,25,58,25,68.7v242.7c0,10.7,8.7,19.4,19.4,19.4h289.9
		c10.7,0,19.4-8.7,19.4-19.4V68.7c0-10.7-8.7-19.4-19.4-19.4H44.3z"/>
	<path class="st0" d="M188.5,295.1c-6,0-10.8-4.8-10.8-10.8V104.7c0-6,4.8-10.8,10.8-10.8s10.8,4.8,10.8,10.8v179.7
		C199.3,290.3,194.5,295.1,188.5,295.1z"/>
	<path class="st0" d="M246,173c-2.8,0-5.5-1.1-7.6-3.2l-49.9-49.9l-49.9,49.9c-4.2,4.2-11,4.2-15.2,0c-4.2-4.2-4.2-11,0-15.3
		l57.5-57.5c4.2-4.2,11-4.2,15.3,0l57.5,57.5c4.2,4.2,4.2,11,0,15.3C251.5,171.9,248.8,173,246,173z"/>
</g>
</svg>
