<?xml version="1.0" encoding="utf-8"?>
<!-- Generator: Adobe Illustrator 22.1.0, SVG Export Plug-In . SVG Version: 6.00 Build 0)  -->
<svg version="1.1" id="Layer_1" xmlns="http://www.w3.org/2000/svg" xmlns:xlink="http://www.w3.org/1999/xlink" x="0px" y="0px"
	 viewBox="0 0 512 512" style="enable-background:new 0 0 512 512;" xml:space="preserve">
<style type="text/css">
	.st0{fill:#9A9FBF;}
</style>
<path class="st0" d="M357.8,140.7c-9.1,0-16.4-7.3-16.4-16.4v-91c0-9.1,7.3-16.4,16.4-16.4s16.4,7.3,16.4,16.4v91
	C374.2,133.4,366.8,140.7,357.8,140.7z"/>
<g>
	<path class="st0" d="M509.5,218.2c-5.1-12.1-16.8-20-30-20H362.1c-4.4,0-8.7,1.8-11.8,5L256,300.1l-85.4-87.7V33.3
		c0-9.1-7.3-16.4-16.4-16.4s-16.4,7.3-16.4,16.4v165H32.5c-13.1,0-24.9,7.8-30,20s-2.3,26,6.9,35.3l234.9,236.7
		c3.1,3.1,7.3,4.9,11.6,4.9c4.4,0,8.6-1.7,11.6-4.9l234.9-236.7C511.8,244.2,514.5,230.4,509.5,218.2z M256,455.5L33.3,231.1H143
		l101.2,104.1c3.1,3.2,7.3,5,11.8,5c4.4,0,8.7-1.8,11.8-5L369,231.1l109.7,0L256,455.5z"/>
	<path class="st0" d="M256,241.5c-9.1,0-16.4-7.3-16.4-16.4V68.8c0-9.1,7.3-16.4,16.4-16.4c9.1,0,16.4,7.3,16.4,16.4v156.3
		C272.4,234.2,265.1,241.5,256,241.5z"/>
</g>
</svg>
