<?xml version="1.0" encoding="utf-8"?>
<!-- Generator: Adobe Illustrator 22.1.0, SVG Export Plug-In . SVG Version: 6.00 Build 0)  -->
<svg version="1.1" id="Layer_1" xmlns="http://www.w3.org/2000/svg" xmlns:xlink="http://www.w3.org/1999/xlink" x="0px" y="0px"
	 viewBox="0 0 512 512" style="enable-background:new 0 0 512 512;" xml:space="preserve">
<style type="text/css">
	.st0{fill:#D7D9E5;}
</style>
<g>
	<path class="st0" d="M154.2,16.8c9.1,0,16.4,7.3,16.4,16.4v91c0,9.1-7.3,16.4-16.4,16.4s-16.4-7.3-16.4-16.4v-91
		C137.8,24.2,145.2,16.8,154.2,16.8z"/>
	<g>
		<path class="st0" d="M9.4,253.6l234.9,236.7c3.1,3.1,7.3,4.9,11.6,4.9c4.4,0,8.6-1.7,11.6-4.9l234.9-236.7
			c9.3-9.3,12-23.2,6.9-35.3c-5.1-12.1-16.8-20-30-20H374.2v-165c0-9.1-7.3-16.4-16.4-16.4c-9.1,0-16.4,7.3-16.4,16.4v179.2
			L256,300.1l-94.3-96.9c-3.1-3.2-7.3-5-11.8-5H32.5c-13.1,0-24.9,7.8-30,20C-2.5,230.4,0.2,244.2,9.4,253.6z M143,231.1
			l101.2,104.1c3.1,3.2,7.3,5,11.8,5s8.7-1.8,11.8-5L369,231.1l109.7,0L256,455.5L33.3,231.1L143,231.1L143,231.1z"/>
		<path class="st0" d="M256,52.4c9.1,0,16.4,7.3,16.4,16.4v156.3c0,9.1-7.3,16.4-16.4,16.4s-16.4-7.3-16.4-16.4V68.8
			C239.6,59.8,246.9,52.4,256,52.4z"/>
	</g>
</g>
</svg>
