<?xml version="1.0" encoding="utf-8"?>
<!-- Generator: Adobe Illustrator 22.1.0, SVG Export Plug-In . SVG Version: 6.00 Build 0)  -->
<svg version="1.1" id="Layer_1" xmlns="http://www.w3.org/2000/svg" xmlns:xlink="http://www.w3.org/1999/xlink" x="0px" y="0px"
	 viewBox="0 0 512 512" style="enable-background:new 0 0 512 512;" xml:space="preserve">
<style type="text/css">
	.st0{fill:#9A9FBF;}
</style>
<path class="st0" d="M357.8,495.2c-9.1,0-16.4-7.3-16.4-16.4v-91c0-9.1,7.3-16.4,16.4-16.4s16.4,7.3,16.4,16.4v91
	C374.2,487.8,366.8,495.2,357.8,495.2z"/>
<g>
	<path class="st0" d="M502.6,258.4L267.6,21.7c-3.1-3.1-7.3-4.9-11.6-4.9c-4.4,0-8.6,1.7-11.6,4.9L9.4,258.4
		c-9.3,9.3-12,23.2-6.9,35.3s16.8,20,30,20h105.3v165c0,9.1,7.3,16.4,16.4,16.4s16.4-7.3,16.4-16.4V299.6l85.4-87.7l94.3,96.9
		c3.1,3.2,7.3,5,11.8,5h117.4c13.1,0,24.9-7.8,30-20C514.5,281.6,511.8,267.8,502.6,258.4z M369,280.9L267.8,176.9
		c-3.1-3.2-7.3-5-11.8-5s-8.7,1.8-11.8,5L143,280.9l-109.7,0L256,56.5l222.7,224.4L369,280.9L369,280.9z"/>
	<path class="st0" d="M256,459.6c-9.1,0-16.4-7.3-16.4-16.4V286.9c0-9.1,7.3-16.4,16.4-16.4c9.1,0,16.4,7.3,16.4,16.4v156.3
		C272.4,452.2,265.1,459.6,256,459.6z"/>
</g>
</svg>
